<svg height="317.254149" viewBox="0 0 217.05557 218.36447" width="315.204704" xmlns="http://www.w3.org/2000/svg"><g transform="matrix(1.782191 0 0 1.782191 -97.870106 -30.635692)"><path d="m115.81133 139.71576c33.66549 0 60.8957-27.44716 60.8957-61.315987 0-33.814215-27.23021-61.209869-60.8957-61.209869-33.612312 0-60.89572 27.395654-60.89572 61.209869 0 33.868827 27.283408 61.315987 60.89572 61.315987" fill="#fff"/><g fill="#231f20"><path d="m115.96213 135.6041c-31.492055 0-57.025256-25.53325-57.025256-57.025279 0-31.494024 25.533201-57.025273 57.025256-57.025273 31.49401 0 57.02526 25.531249 57.02526 57.025273 0 31.492029-25.53125 57.025279-57.02526 57.025279zm0-115.621327c-32.361461 0-58.59605 26.23459-58.59605 58.596048 0 32.361459 26.234589 58.594109 58.59605 58.594109 32.36147 0 58.598-26.23265 58.598-58.594109 0-32.361458-26.23653-58.596048-58.598-58.596048"/><path d="m115.96408 115.05482c-20.146783 0-36.477951-16.331173-36.477951-36.475999 0-20.14682 16.331168-36.477992 36.477951-36.477992 20.14484 0 36.47601 16.331172 36.47601 36.477992 0 20.144826-16.33117 36.475999-36.47601 36.475999zm-.002-73.827296c-20.627403 0-37.349316 16.721941-37.349316 37.351297 0 20.627417 16.721913 37.349299 37.349316 37.349299 20.6274 0 37.35323-16.721882 37.35323-37.349299 0-20.629356-16.72583-37.351297-37.35323-37.351297"/><path d="m68.430012 80.468037c1.236707 0 2.237013-1.002232 2.237013-2.238948 0-1.234722-1.000306-2.235071-2.237013-2.235071-1.234753 0-2.237012 1.000349-2.237012 2.235071 0 1.236716 1.002259 2.238948 2.237012 2.238948"/><path d="m164.57661 80.468037c1.23671 0 2.23702-1.002232 2.23702-2.238948 0-1.234722-1.00031-2.235071-2.23702-2.235071-1.23475 0-2.23701 1.000349-2.23701 2.235071 0 1.236716 1.00226 2.238948 2.23701 2.238948"/><path d="m74.179818 88.417775-.285246-1.127338.296965-.07643.914342 3.616331-.29892.07421-.283291-1.127283-7.963374 2.016261.285246 1.127282-.298919.07421-.914343-3.614393.29892-.07643.285241 1.127282 7.963373-2.014266"/><path d="m75.59236 93.282507-.463031-1.037399.281337-.125161 1.148789 2.58868-3.971919 6.552803.0097.0221 5.466516-2.424585-.541178-1.222981.281336-.125161 1.150742 2.600367-.279381.12682-.461081-1.041386-7.865688 3.489396-.150437-.19162 5.288728-8.7331-.0097-.02215-7.244404 3.211939.550948 1.244524-.279381.125162-1.164419-2.621909.281336-.125161.461076 1.039393 7.51011-3.331119"/><path d="m82.909051 106.0931-.675988-.88898.244214-.18552 2.229198 2.92861-.244214.18774-.70334-.92608-6.535202 4.97615.70334.92409-.244214.18775-2.229198-2.92861.244214-.18774.674034.88698 3.249041-2.47343-2.326884-3.0556-3.247087 2.47343.675988.88892-.244214.18387-2.231151-2.92861.244214-.18386.70334.92215 6.535203-4.97616-.701386-.92216.244214-.18774 2.229197 2.92867-.244214.18552-.675988-.88504-3.0439 2.31515 2.326884 3.05759 3.0439-2.31709"/><path d="m79.929624 114.96687-.777581-.68966-.203188.22873 2.059223 1.83062.203188-.22873-.969046-.86161 2.520302-1.47702 1.717322 1.5278-1.217169 2.63365-.961232-.85381-.203187.22873 2.97552 2.64533.203187-.22872-.849869-.75612 3.624156-8.37369-.185605-.16392zm4.722148-.0332-1.543441-1.36957 2.889556-1.64892.01955.0166-1.365652 3.00288"/><path d="m95.151078 116.29541-1.035473-.47074.128944-.27912 3.422922 1.56103-.128944.27746-1.109714-.50397-2.432385 5.33957c-.662312 1.44966-.660358 2.278 1.158558 3.10639 2.119789.96512 2.731304.18552 3.346726-1.16245l2.391358-5.24963-1.211309-.55271.126995-.27912 2.494904 1.13515-.12894.27912-.94365-.42976-2.448017 5.37468c-.701386 1.53954-1.500459 2.27805-4.136031 1.07456-2.703952-1.2289-2.680507-2.22527-1.994751-3.73357l2.498811-5.48606"/><path d="m104.86694 120.20876-1.11557-.21876.0586-.30072 2.77819.54107 3.10056 7.00605.0233.006 1.14293-5.87096-1.31291-.25586.0586-.29906 2.79188.54329-.0586.30072-1.11558-.21875-1.64308 8.44789-.24224.0166-4.13408-9.33875-.0234-.004-1.51413 7.77972 1.33634.25973-.0586.30072-2.81531-.54716.0586-.30294 1.11558.2171 1.56883-8.06106"/><path d="m115.29592 121.70726-1.16247.004v-.30681l3.7277-.006v.30681l-1.16246.002.0155 8.21347 1.16051-.002.002.30847-3.72771.006v-.30681l1.16052-.004-.0139-8.21346"/><path d="m120.03174 121.44154-1.00031.16227-.0487-.30294 3.70426-.60371.051.30072-1.25624.20325 3.08297 6.07802.0233-.004 1.10971-6.75987-1.25429.20324-.051-.30293 2.58478-.422.0487.30459-.90066.14676-1.57666 9.03792-.26766.0443-4.24934-8.08648"/><path d="m129.24549 119.56008-1.0804.42588-.11331-.28522 6.57818-2.59449 1.06478 2.49099-.2989.12128c-1.15855-1.88927-1.66456-1.92831-4.29233-.89091l-.55292.21709 1.40473 3.55774.62324-.24423c1.33829-.52778 1.23475-1.06088.73264-2.30148l.34386-.13679 1.54539 3.91722-.34386.13679c-.5783-1.4321-.79712-1.78765-2.13737-1.2582l-.62324.24589 1.47115 3.72383 1.74077-.68773c1.7603-.69359 1.98498-1.80525 1.58056-3.53818l.31063-.12295 1.00422 2.84853-6.91032 2.72741-.11331-.28522 1.08041-.42588-3.0146-7.64104"/><path d="m142.29636 122.45551-.96904.63888.16802.25586 3.07321-2.02601-.16996-.2542-.92997.61346-2.2839-3.46586.65059-.4281c1.3168-.86943 1.83649-.57635 2.80359.71115 1.0511 1.39106 1.46138 1.81307 2.71567.98662l.75414-.49843-.16997-.25587-.25791.17169c-.6291.41425-1.06478-.0703-1.8365-1.12729-1.1566-1.57471-1.7564-1.47508-3.42292-.64275l-.0139-.0221c.91043-.77955 1.43794-1.63136.65059-2.82704-.98663-1.49457-2.09439-1.16245-3.40339-.29906l-3.02046 1.99278.16997.2542.96905-.63888zm-3.34868-7.6293.53531-.35555c1.05306-.6936 1.77789-.35776 2.40894.60171.55877.84401.72288 1.74274-.19732 2.35038l-.72092.47462-2.02602-3.07127"/><path d="m148.0364 115.25214.24229-.24035c1.05891.95144 2.67465 1.10972 3.69839.0997.7307-.71896 1.07651-1.80914.24423-2.65121-1.67043-1.69195-4.48183 2.27999-6.62311.11353-1.09995-1.1136-.76586-2.67657.26959-3.70034.51776-.51172 1.30704-.97687 1.99866-1.22498l1.41254 1.32461-.22855.2326c-1.19959-.79322-2.18817-.77561-3.00874.0388-.61542.60759-.87331 1.52387-.18757 2.21552 1.55516 1.57665 4.26497-2.38942 6.58795-.0332 1.18981 1.20349.77953 3.00088-.31064 4.07544-.65254.64669-1.32853 1.12141-2.27999 1.46921l-1.81502-1.71538"/><path d="m150.07608 104.72353-.69552.92996-.24617-.18165 2.2292-2.9892.24617.18387-.69357.93189 6.58404 4.90971.69357-.9319.24617.18552-2.2292 2.98726-.24616-.18386.69552-.93002-6.58405-4.91164"/><path d="m154.12224 98.655251-.48059.949509c-.57636 1.13515.36728 2.13932 1.3676 2.70592l-.16803.32841-2.52225-1.27969 3.55773-7.008037 2.52225 1.281685-.16802.32841c-1.04524-.474616-2.42067-.631068-2.99311.492338l-.48059.951448 7.25612 3.682786.61543-1.215225.27159.138455-1.86581 3.68079-.27353-.14066.61542-1.21324-7.25417-3.682788"/><path d="m161.28264 91.358124-4.5385 1.182-.26572.996361-.29695-.07809 1.01007-3.799976.29695.07809-.32824 1.240648 3.99341-.95538-3.02046-2.70786-.32431 1.217166-.29695-.07809.67208-2.526154.29695.07809-.24811.931898 3.38775 3.057592 4.01491 1.068689.29307-1.101918.29502.07809-.95342 3.590967-.29695-.07809.30088-1.133153-3.99145-1.060881"/><path d="m90.59695 41.252944c.789304-.484585.912389-1.715375.277432-2.754768-.63496-1.037399-1.787657-1.486761-2.575007-1.006164-.789304.480708-.914342 1.715375-.279381 2.752829.63496 1.0374 1.78961 1.490639 2.576956 1.008103zm-4.341172.07255c-1.066732-1.74661-.502107-4.034404 1.260152-5.112895 1.764211-1.076499 4.057881-.537197 5.124614 1.207419 1.066733 1.742733.502108 4.032465-1.262105 5.110957-1.762258 1.078436-4.057882.537197-5.122661-1.205481"/><path d="m88.049296 35.047933-.644728-1.055011-1.818916 1.109672.644728 1.05501-2.369866 1.449712.740461 1.211295 6.560601-4.0071-.742414-1.213234z"/><path d="m92.939464 31.136586-1.818916 1.111665 6.027235 9.858448 1.816962-1.111665-3.440506-5.626722 1.633312-.998355-.742415-1.211296-1.631358.996417z"/><path d="m119.74454 25.834176v3.522571h-.76586v-3.522571h-2.03578v11.552335h2.03578v-6.496094h.76586v6.496094h2.03382v-11.552335z"/><path d="m112.74435 27.774232h3.21778v-1.420359h-5.35125v6.841894c0 .717019.61543 1.297302 1.38129 1.297302h5.70682v-1.420359h-4.95464z"/><path d="m74.492414 59.475325 2.655109 1.404687 3.680814-6.957197 1.26015.666234-4.032483 7.621494c-.359485.675982-1.162465.945578-1.795471.611519l-2.764518-1.461397z"/><path d="m70.878027 51.068416.996398-1.883345 6.818493 3.606529-.998353 1.885339z"/><path d="m72.360902 58.258159c.427864-.812773.142623-1.805258-.638867-2.219453-.781489-.414251-1.762258-.09193-2.192077.718957-.429819.810835-.144573 1.805259.636914 2.217516.783443.41425 1.764211.09193 2.19403-.71702zm-3.153308 2.532025c-1.518043-.804965-1.97326-2.926671-1.012029-4.737799.959278-1.813067 2.967705-2.631656 4.487702-1.828685 1.518042.804909 1.971306 2.926671 1.012028 4.739738s-2.967705 2.631655-4.487701 1.826746"/><path d="m140.2176 37.579957c.65645.431973 1.51804.285213 1.92637-.332286.40833-.619327.211-1.469151-.44543-1.902896-.65449-.435849-1.51804-.285212-1.92637.332287-.40832.615451-.20906 1.469206.44543 1.902951zm-2.16081-3.040035c.81665-1.232784 2.77819-1.371514 4.38024-.310688 1.60205 1.06088 2.23897 2.920855 1.42231 4.155577-.81666 1.232784-2.77819 1.371514-4.38025.310688-1.60009-1.062819-2.23701-2.922738-1.4223-4.155577"/><path d="m143.4471 34.635676.68381-1.031584-1.77594-1.178068-.68575 1.031585-2.23506-1.480947-.7854 1.185931 6.248 4.139905.78736-1.183938z"/><path d="m149.25161 37.523303-1.77789-1.176185-3.58898 5.417714 1.77788 1.178067 1.58057-2.387425 1.59423 1.056949.78345-1.183938-1.59424-1.05501z"/><path d="m137.13462 38.046876-.78539 1.183937 6.4043 4.241529-1.66066 2.50666 1.77789 1.178068 2.4441-3.692537z"/><path d="m154.76893 58.795411 3.72965-2.094403-1.04329-1.859919-3.73161 2.092409-2.74497-4.892091-1.24062.695532 6.09561 10.862674 1.24062-.695532z"/><path d="m152.66672 56.193053 4.22004-2.365937-1.04329-1.859975-4.22004 2.367931"/><path d="m163.53528 56.411864-4.30405-7.666409-1.23866.695532 3.91916 6.984556-6.62702 3.717956 1.04133 1.859919 6.79505-3.813654c.60175-.337825.77563-1.131215.4142-1.7779"/><path d="m116.46229 109.80319-.0487.0221-.0471-.0221-24.866988-10.589143-.08401-.03323.0097-.08972 4.091096-38.519617.01174-.107439h.109411 10.259001v-3.932835c0-2.221392.62714-4.098923 1.8111-5.429399 1.2582-1.412551 3.12986-2.158867 5.41376-2.158867h12.13067.12111v.121285 9.227436h3.13573.12112v.122946 2.049434h8.56121.10944l.0116.107439 4.08914 38.519617.008.08972-.0801.03323zm21.60231-50.193067h-8.58466v-2.168614h-3.2549v-9.350548h-13.10362c-2.53398 0-4.62446.844009-6.04872 2.444135-1.32658 1.486762-2.02602 3.561615-2.02602 5.994009v3.081018h-10.284393l-4.257162 40.102132 25.908315 11.038505 25.91027-11.038505z"/></g><path d="m128.63007 64.863687h-3.25686v5.917804h3.25686v.121285 1.394995h8.41273l-1.09604-10.319551h-7.31669v2.764514.121285" fill="#33bdf2" fill-rule="evenodd"/><path d="m96.880122 61.978054-1.096038 10.319551h10.112466v-10.319551z" fill="#33bdf2" fill-rule="evenodd"/><path d="m137.19128 73.694483h-8.56121v3.608523h-3.25686v4.876529.121284h-.12111-9.8917-.12112v-.121284-8.485052h-3.80976v.96712c0 4.937061-4.59125 7.521808-9.12584 7.521808h-.33409-.12113v-.122946-5.105087-.122946h.12113.17193c2.13933 0 3.75506-1.12335 3.75506-2.614044v-.523351h-10.259025l-2.606266 24.534887 23.382151 9.960076 23.38411-9.960076-2.60627-24.534887" fill="#1c63b7" fill-rule="evenodd"/><path d="m115.23926 72.297605v-10.319551h-3.80977v10.319551z" fill="#33bdf2" fill-rule="evenodd"/><path d="m114.39525 59.610123h-2.11588v-3.032171c0-1.477015.93192-1.99865 1.731-1.99865h.38489zm-.3849-5.882693c-1.24257 0-2.58087.892854-2.58087 2.850522v3.883988h3.80976v-6.73451z" fill="#231f20" fill-rule="evenodd"/><path d="m105.41594 89.832264v.660364h1.63917v5.587623h.84791v-7.676156h-.66426c-.12112 1.203488-.72678 1.406681-1.82282 1.428169" fill="#fff"/><path d="m112.30086 92.66318c-.99054 0-1.19568-.933836-1.19568-1.730992 0-.777551.22468-1.762227 1.18591-1.762227 1.02179 0 1.25819 1.076498 1.25819 1.895086 0 .799095-.28526 1.598133-1.24842 1.598133zm-.041-4.259085c-1.16443 0-2.03579 1.04327-2.03579 2.680502 0 1.240592.60371 2.344449 1.97522 2.344449.55293 0 1.11558-.287428 1.41254-.941701h.0216c-.041.818644-.031 2.985319-1.33049 2.985319-.72288 0-1.01984-.369392-1.01984-1.062819h-.86956c.031 1.103857.6545 1.828685 1.78961 1.828685 2.20771 0 2.26827-2.668816 2.26827-4.266949 0-1.582515-.15434-3.567486-2.21161-3.567486" fill="#fff"/><path d="m118.65632 91.047492c-.53144 0-.87723.183865-1.23671.551042l.33799-2.272177h2.57696v-.763927h-3.26272l-.44936 3.948508h.75609c.20513-.47074.56462-.697526 1.07455-.697526 1.08236 0 1.27773.922207 1.27773 1.80332 0 .95538-.32824 1.856043-1.22693 1.856043-.86941 0-1.17419-.572474-1.13317-1.393001h-.88112c-.0606 1.351964.67599 2.158867 2.03382 2.158867 1.58447 0 2.08658-1.391063 2.08658-2.754768 0-1.250395-.54312-2.426524-1.95373-2.436271" fill="#fff"/><path d="m124.60345 93.395817h-2.11979l2.11979-3.659307zm.84987 0v-4.991722h-.77954l-2.86611 4.972228v.78536h2.79578v1.918568h.84987v-1.918568h.68575v-.765866z" fill="#fff"/></g></svg>