<svg xmlns="http://www.w3.org/2000/svg" xmlns:xlink="http://www.w3.org/1999/xlink" viewBox="0 0 169.6 169.6" style="enable-background:new 0 0 169.6 169.6;" xml:space="preserve" width="183"  height="183" >
<style type="text/css">
	.st0{fill:#008735;}
</style>
			<path class="st0" d="M12.2,70.2c0.8,0,1.5-0.7,1.5-1.5c0-0.8-0.7-1.5-1.5-1.5c-0.8,0-1.5,0.7-1.5,1.5     C10.7,69.5,11.4,70.2,12.2,70.2"/>
			<path class="st0" d="M155.9,70.2c-0.8,0-1.5-0.7-1.5-1.5c0-0.8,0.7-1.5,1.5-1.5c0.8,0,1.5,0.7,1.5,1.5     C157.3,69.5,156.7,70.2,155.9,70.2"/>
			<path class="st0" d="M25.7,42.6c-0.8,0.4-1.5,0.5-2,0.5c0.2,0.5,0.3,1.2,0.2,2c-0.1,0.8-0.5,1.7-1.1,2.6l-1.5-1.1     c0.6-0.8,0.8-1.5,0.8-2.3c0-0.8-0.5-1.5-1.4-2.1L20,41.8l-1.9,2.6l-1.5-1.1l5.1-6.9l1.5,1.1l-1.9,2.6l0.6,0.4     c0.9,0.6,1.8,0.8,2.5,0.5c0.8-0.3,1.4-0.8,2-1.5l1.5,1.1C27.2,41.6,26.5,42.2,25.7,42.6 M27.1,37l-1.5,2.1l-1.5-1.1l1.5-2.1     l-2.4-1.7l1.3-1.8l7.5,5.5l-1.3,1.8L27.1,37L27.1,37z M27.8,49.6c-0.5,0-0.9-0.1-1.2-0.3l-2.8-2.1l1.3-1.8l2.8,2.1l6-8.2l1.4,1     l-6.1,8.4C28.8,49.2,28.3,49.5,27.8,49.6"/>
			<path class="st0" d="M45.2,22.5c-0.4-0.2-0.8-0.5-1-0.8l-2.3-4.3l1.9-1l2.2,4.2l6.1-3.2L53,19l-6.3,3.3     C46.1,22.6,45.6,22.7,45.2,22.5 M55.9,17.6l-1.9,1l-3.1-5.9l1.9-1l1.4,2.6l1.5-0.8l0.8,1.6L55,15.9L55.9,17.6L55.9,17.6z      M48.8,28.3c-0.4-0.1-0.7-0.4-0.9-0.8l-1.9-3.7l10.4-5.4l2.7,5.1l-8.9,4.7C49.6,28.3,49.2,28.4,48.8,28.3 M48.7,24.3l1,2l6.6-3.5     l-1-2L48.7,24.3L48.7,24.3z"/>
			<path class="st0" d="M77.2,14c-0.3-0.3-0.5-0.7-0.5-1.2l-0.2-7.6l6.7-0.2l0,1.8L78.8,7l0.1,5.6l4.6-0.1l0,1.8l-4.9,0.1     C78,14.4,77.6,14.3,77.2,14 M87.9,9.7l-1.1,0l0.2,8.5l-2.2,0L84.6,5l2.2,0l0.1,2.9l1.1,0L87.8,5l2.2,0l0.3,13.3l-2.2,0.1     L87.9,9.7L87.9,9.7z"/>
			<path class="st0" d="M117.5,15.8c-0.1,0.3-0.2,0.7-0.3,1c-0.4,0.9-1.2,1.6-2.1,1.9c-1,0.3-1.9,0.3-2.9-0.2     c-0.9-0.4-1.6-1.2-2-2.1c-0.4-1-0.3-1.9,0.1-2.8c0.1-0.3,0.3-0.6,0.6-0.9c0.2-0.3,0.5-0.5,0.7-0.7l-1-0.5l0.8-1.7l3,1.4l0.6-1.2     l1.9,0.9l-0.6,1.2l3,1.4l-0.8,1.7l-1-0.5C117.5,15.2,117.5,15.5,117.5,15.8 M120.1,21.9l-2-0.9l3.4-7.2l2,0.9l-1.2,2.7l1.5,0.7     l-0.8,1.7l-1.5-0.7L120.1,21.9L120.1,21.9z M117.1,23.4l-9.3-4.4l0.8-1.7l11.2,5.3l-1.9,4.1l-1.9-0.9L117.1,23.4L117.1,23.4z      M115.4,14.6c-0.2-0.5-0.5-0.8-1-1c-0.4-0.2-0.9-0.2-1.4-0.1c-0.5,0.2-0.8,0.5-1,0.9c-0.2,0.5-0.2,0.9,0,1.4     c0.2,0.5,0.5,0.8,0.9,1c0.4,0.2,0.9,0.2,1.4,0.1c0.5-0.2,0.8-0.5,1-0.9C115.6,15.5,115.6,15,115.4,14.6"/>
			<polygon class="st0" points="135.4,36.5 136.4,37.8 141.4,33.8 142.7,35.5 137.7,39.4 139,41 143.9,37 145.2,38.7 140.3,42.6      141.6,44.3 148.3,39 142.3,31.6 143.8,30.5 151,39.5 142.9,46 143.6,46.7 142.1,47.9 134,37.7 135.4,36.5    "/>
			<path class="st0" d="M15,89.5c0.2-0.4,0.2-0.8,0.2-1.4c0-1-0.4-1.9-1.1-2.6c-0.7-0.7-1.6-1.1-2.7-1c-1.1,0-1.9,0.5-2.6,1.3     c-0.6,0.8-0.9,1.7-0.9,2.7c0,0.6,0.1,1,0.3,1.4c0.2,0.4,0.4,0.6,0.7,0.9l-2.8,0.1c0,0,0.1-0.1,0.1-0.1c0,0,0-0.1,0.1-0.1     c0,0,0-0.1,0-0.1s0-0.1,0-0.1c0-0.1-0.1-0.3-0.1-0.6C6.1,89.3,6.1,89,6,88.5c-0.1-1.6,0.4-3.1,1.4-4.2c1-1.2,2.3-1.8,3.9-1.9     c1.6-0.1,3,0.4,4.1,1.5c1.1,1.1,1.7,2.4,1.7,4.1c0,0.2,0,0.4,0,0.6c0,0.2,0,0.3-0.1,0.5c0,0.1,0,0.3-0.1,0.4c0,0.1,0,0.2,0,0.3     c0,0.1,0,0.2,0.1,0.3c0.1,0.1,0.1,0.2,0.2,0.2l-2.8,0.1C14.7,90.2,14.9,89.9,15,89.5"/>
			<path class="st0" d="M17.5,96.9c0.1,0,0.2-0.1,0.3-0.2c0.1-0.1,0.1-0.2,0.2-0.3l0.5,2.8c-0.1-0.1-0.2-0.2-0.3-0.2     c-0.1-0.1-0.2-0.1-0.4-0.1l-9.3,1.6c-0.1,0-0.2,0.1-0.3,0.2C8.1,100.8,8,100.9,8,101l-0.5-2.8c0.1,0.1,0.2,0.2,0.3,0.2     c0.1,0.1,0.2,0.1,0.4,0l3.8-0.7l-0.6-3.4l-3.8,0.7c-0.1,0-0.2,0.1-0.3,0.2c-0.1,0.1-0.2,0.2-0.2,0.3l-0.5-2.8     c0.1,0.1,0.2,0.2,0.3,0.2c0.1,0.1,0.2,0.1,0.4,0.1l9.3-1.6c0.1,0,0.2-0.1,0.3-0.2c0.1-0.1,0.1-0.2,0.2-0.3l0.5,2.8     c-0.1-0.1-0.2-0.2-0.3-0.2c-0.1-0.1-0.2-0.1-0.4,0l-3.7,0.6l0.6,3.4L17.5,96.9L17.5,96.9z"/>
			<path class="st0" d="M9.3,104.4c0.7-1.4,1.7-2.4,3.2-2.9c1.5-0.5,2.9-0.4,4.3,0.4c1.4,0.8,2.3,1.9,2.8,3.4c0.5,1.5,0.4,3-0.2,4.4     c-0.7,1.4-1.7,2.4-3.2,2.9c-1.5,0.5-2.9,0.4-4.3-0.4c-1.4-0.8-2.3-1.9-2.8-3.4C8.5,107.3,8.6,105.8,9.3,104.4 M15.9,103.7     c-0.9-0.5-1.8-0.6-2.8-0.3c-1,0.3-1.7,1-2.1,1.9c-0.4,0.9-0.5,1.9-0.2,2.9c0.3,1,0.9,1.7,1.8,2.2c0.9,0.5,1.8,0.6,2.8,0.3     c1-0.3,1.7-1,2.1-1.9c0.4-1,0.5-1.9,0.1-2.9C17.4,104.9,16.8,104.2,15.9,103.7"/>
			<path class="st0" d="M19.4,115.2l-5.7,3c-0.1,0.1-0.2,0.1-0.3,0.3c-0.1,0.1-0.1,0.2-0.1,0.4l-1.3-2.5c0.1,0.1,0.2,0.1,0.4,0.1     c0.1,0,0.2,0,0.4-0.1l8.4-4.3c0.1-0.1,0.2-0.2,0.3-0.3c0.1-0.1,0.1-0.2,0.1-0.4l1.1,2.2l-4.2,6.8l0,0l5.5-2.9     c0.1-0.1,0.2-0.2,0.3-0.3c0.1-0.1,0.1-0.2,0.1-0.4l1.3,2.5c-0.1-0.1-0.2-0.1-0.3-0.1c-0.1,0-0.2,0-0.4,0.1l-8.4,4.4     c-0.1,0.1-0.2,0.1-0.3,0.3c-0.1,0.1-0.1,0.2-0.1,0.4l-1.1-2.1L19.4,115.2L19.4,115.2L19.4,115.2z"/>
			<path class="st0" d="M24.5,124.1l-5.2,3.7c-0.1,0.1-0.2,0.2-0.2,0.3c0,0.1-0.1,0.2,0,0.4l-1.6-2.3c0.1,0,0.2,0.1,0.4,0.1     c0.1,0,0.2,0,0.3-0.1l7.7-5.5c0.1-0.1,0.2-0.2,0.2-0.3c0-0.1,0-0.2,0-0.4l1.4,2l-3.2,7.3l0,0l5.1-3.6c0.1-0.1,0.2-0.2,0.2-0.3     c0-0.1,0-0.2,0-0.4l1.6,2.3c-0.1-0.1-0.2-0.1-0.4-0.1c-0.1,0-0.2,0-0.3,0.1l-7.7,5.5c-0.1,0.1-0.2,0.2-0.2,0.3     c0,0.1-0.1,0.2,0,0.4l-1.4-1.9L24.5,124.1L24.5,124.1L24.5,124.1z"/>
			<path class="st0" d="M26.6,135.6c-0.2,0.1-0.4,0.2-0.6,0.3c-0.2,0.1-0.4,0.2-0.5,0.3c-0.1,0.1-0.1,0.1-0.2,0.2     c0,0.1,0,0.2-0.1,0.2l-1.9-2c0.2,0,0.3,0,0.5,0c0.2,0,0.4-0.1,0.5-0.2l8-3.2c0.2-0.1,0.4-0.2,0.6-0.3c0.2-0.1,0.4-0.2,0.5-0.3     c0.1-0.1,0.1-0.2,0.2-0.3c0-0.1,0-0.2,0-0.3l1.5,1.6l-4.5,9.5c-0.1,0.2-0.1,0.3-0.2,0.5c0,0.2-0.1,0.4-0.1,0.5l-1.9-2.1     c0.1,0,0.2,0,0.3,0c0.1,0,0.2-0.1,0.3-0.1c0.1-0.1,0.2-0.2,0.3-0.5c0.1-0.2,0.2-0.4,0.3-0.6l0.3-0.6l-2.9-3.1L26.6,135.6     L26.6,135.6z M33,132.8l0.1-0.1l-4.1,1.9l2,2.1L33,132.8L33,132.8z"/>
			<path class="st0" d="M38.6,143.1L38.6,143.1l5.7-3.4l1.8,1.4c-0.2,0-0.3,0-0.4,0.1c-0.1,0.1-0.2,0.2-0.3,0.2     c-0.1,0.1-0.2,0.3-0.4,0.6c-0.2,0.3-0.3,0.5-0.4,0.7l-3.8,6.6c-0.1,0.2-0.2,0.4-0.2,0.5c0,0.2-0.1,0.3,0,0.4l-2.1-1.6     c0.1,0,0.3,0,0.3-0.1c0.1,0,0.2-0.1,0.2-0.2c0.1-0.1,0.2-0.2,0.3-0.4c0.1-0.2,0.2-0.4,0.3-0.6l2.6-4.3l0,0l-6.6,3.7l0,0l2.2-7.3     l0,0l-3.5,3.4c-0.3,0.3-0.5,0.5-0.7,0.6c-0.2,0.2-0.3,0.3-0.4,0.4c-0.1,0.1-0.1,0.2-0.1,0.3c0,0.1,0,0.2,0,0.3l-1.9-1.5     c0.1,0,0.2-0.1,0.4-0.1c0.1-0.1,0.3-0.2,0.5-0.3l5.5-5.2c0.1-0.1,0.3-0.3,0.6-0.6c0.3-0.2,0.4-0.4,0.5-0.5     c0.1-0.1,0.1-0.2,0.2-0.3c0.1-0.1,0.1-0.3,0-0.4l1.8,1.4L38.6,143.1L38.6,143.1z"/>
			<path class="st0" d="M51.7,149.2L49,155c-0.1,0.1-0.1,0.2,0,0.4c0,0.1,0.1,0.2,0.1,0.3l-2.5-1.2c0.1,0,0.2-0.1,0.4-0.1     c0.1-0.1,0.2-0.1,0.3-0.3l4-8.5c0.1-0.1,0.1-0.2,0-0.4c0-0.1-0.1-0.2-0.1-0.3l2.3,1.1l0.8,7.9l0,0l2.7-5.6c0.1-0.1,0.1-0.2,0-0.4     c0-0.1-0.1-0.2-0.1-0.3l2.5,1.2c-0.1,0-0.2,0.1-0.4,0.1c-0.1,0-0.2,0.1-0.3,0.3l-4,8.5c-0.1,0.1-0.1,0.2,0,0.4     c0,0.1,0.1,0.2,0.1,0.3l-2.1-1L51.7,149.2L51.7,149.2L51.7,149.2z"/>
			<path class="st0" d="M59.3,158.1c-0.1,0.2-0.3,0.3-0.4,0.5c-0.1,0.2-0.2,0.4-0.3,0.5c0,0.1,0,0.2,0,0.3c0,0.1,0,0.2,0.1,0.3     l-2.6-0.8c0.1-0.1,0.3-0.2,0.4-0.3c0.2-0.1,0.3-0.2,0.4-0.4l5.4-6.8c0.1-0.2,0.3-0.4,0.4-0.6c0.1-0.2,0.2-0.4,0.3-0.5     c0-0.1,0-0.2,0-0.3c0-0.1-0.1-0.2-0.1-0.2l2.1,0.7l0.8,10.5c0,0.2,0,0.3,0.1,0.5c0.1,0.2,0.1,0.3,0.2,0.5l-2.7-0.8     c0.1,0,0.1-0.1,0.2-0.2c0.1-0.1,0.1-0.1,0.1-0.2c0-0.1,0.1-0.3,0.1-0.6c0-0.2,0-0.5,0-0.7l-0.1-0.6l-4-1.2L59.3,158.1L59.3,158.1     z M63.4,152.6l0-0.1l-2.6,3.7l2.8,0.9L63.4,152.6L63.4,152.6z"/>
			<path class="st0" d="M74.8,155.2c0-0.2-0.1-0.3-0.3-0.5c-0.2-0.2-0.5-0.3-1.1-0.4l-0.8-0.1l-1.5,8.1c0,0.1,0,0.2,0,0.4     c0.1,0.1,0.1,0.2,0.2,0.3l-2.7-0.5c0.1,0,0.2-0.1,0.3-0.2c0.1-0.1,0.1-0.2,0.2-0.3l1.5-8.1l-0.8-0.2c-0.6-0.1-0.9-0.1-1.2,0     c-0.2,0.1-0.4,0.2-0.4,0.4l0.4-2.3l6.6,1.2L74.8,155.2L74.8,155.2z"/>
			<path class="st0" d="M74.9,163.2c0.1-0.1,0.1-0.2,0.1-0.3l1-9.4c0-0.1,0-0.3-0.1-0.4c-0.1-0.1-0.1-0.2-0.2-0.3l2.8,0.3     c-0.1,0.1-0.2,0.1-0.3,0.2c-0.1,0.1-0.1,0.2-0.1,0.3l-1,9.4c0,0.1,0,0.2,0.1,0.4c0.1,0.1,0.1,0.2,0.2,0.3l-2.8-0.3     C74.7,163.4,74.8,163.3,74.9,163.2"/>
			<path class="st0" d="M81.2,162.7c-1.2-1.1-1.7-2.4-1.7-3.9c0-1.6,0.6-2.9,1.7-4c1.2-1.1,2.5-1.6,4.1-1.6c1.6,0,3,0.5,4.1,1.6     c1.2,1.1,1.7,2.4,1.7,3.9c0,1.6-0.6,2.9-1.7,4c-1.2,1.1-2.5,1.6-4.1,1.6C83.7,164.3,82.3,163.8,81.2,162.7 M82.6,156.2     c-0.8,0.7-1.1,1.6-1.1,2.6c0,1,0.4,1.9,1.2,2.6c0.8,0.7,1.7,1,2.7,1c1,0,1.9-0.4,2.7-1.1c0.8-0.7,1.2-1.6,1.1-2.6     c0-1-0.4-1.9-1.2-2.6c-0.8-0.7-1.7-1-2.7-1C84.3,155.1,83.4,155.5,82.6,156.2"/>
			<path class="st0" d="M94.7,156.5l1,6.3c0,0.1,0.1,0.2,0.2,0.3c0.1,0.1,0.2,0.2,0.3,0.2l-2.8,0.4c0.1-0.1,0.2-0.2,0.2-0.3     c0.1-0.1,0.1-0.2,0.1-0.4l-1.5-9.3c0-0.1-0.1-0.2-0.2-0.3c-0.1-0.1-0.2-0.1-0.3-0.2l2.5-0.4l5.1,6.1l0,0l-1-6.2     c0-0.1-0.1-0.2-0.2-0.3c-0.1-0.1-0.2-0.1-0.3-0.2l2.8-0.4c-0.1,0.1-0.2,0.2-0.2,0.3c-0.1,0.1-0.1,0.2-0.1,0.4l1.5,9.3     c0,0.1,0.1,0.2,0.2,0.3c0.1,0.1,0.2,0.2,0.3,0.2l-2.3,0.4L94.7,156.5L94.7,156.5L94.7,156.5z"/>
			<path class="st0" d="M106,159.7c0,0.2,0,0.4,0,0.7c0,0.2,0,0.4,0,0.6c0,0.1,0.1,0.2,0.1,0.2c0.1,0.1,0.1,0.1,0.2,0.2l-2.6,0.8     c0.1-0.1,0.1-0.3,0.2-0.5c0.1-0.2,0.1-0.4,0.1-0.5l0.6-8.6c0-0.2,0-0.4,0-0.7c0-0.2,0-0.4,0-0.6c0-0.1-0.1-0.2-0.2-0.2     c-0.1-0.1-0.1-0.1-0.2-0.2l2.1-0.7l6.6,8.2c0.1,0.1,0.2,0.3,0.4,0.4c0.1,0.1,0.3,0.2,0.4,0.3l-2.7,0.8c0-0.1,0.1-0.2,0.1-0.2     c0-0.1,0-0.2,0-0.3c0-0.1-0.1-0.3-0.3-0.5c-0.1-0.2-0.3-0.4-0.4-0.5l-0.4-0.5l-4,1.2L106,159.7L106,159.7z M106.3,152.7l-0.1-0.1     l-0.1,4.5l2.8-0.9L106.3,152.7L106.3,152.7z"/>
			<path class="st0" d="M112.9,148c0,0.1,0,0.2,0,0.4l3.3,7.6l2.4-1.1c0.3-0.1,0.4-0.2,0.6-0.4c0.1-0.1,0.2-0.3,0.2-0.5l0.9,2.1     l-5.6,2.5c0.1-0.1,0.1-0.2,0.2-0.3c0-0.1,0-0.2,0-0.4l-3.8-8.7c-0.1-0.1-0.1-0.2-0.2-0.3c-0.1-0.1-0.2-0.1-0.4-0.1l2.6-1.1     C113,147.8,112.9,147.9,112.9,148"/>
			<path class="st0" d="M127.9,149.8c-1-0.3-1.7-0.7-2.1-1.4l-3.8-5.6c-0.1-0.1-0.2-0.2-0.3-0.2c-0.1,0-0.2,0-0.4,0l2.3-1.6     c0,0.1-0.1,0.2-0.1,0.4c0,0.1,0,0.2,0.1,0.4l3.5,5.1c0.4,0.6,0.8,0.9,1.3,1c0.5,0.1,0.9,0,1.4-0.3c0.5-0.3,0.7-0.7,0.8-1.2     c0-0.5-0.1-1-0.5-1.6l-3.5-5.1c-0.1-0.1-0.2-0.2-0.3-0.2c-0.1,0-0.2-0.1-0.4,0l2.3-1.6c0,0.1-0.1,0.2-0.1,0.4     c0,0.1,0,0.2,0.1,0.4l3.8,5.6c0.4,0.6,0.6,1.5,0.5,2.5c-0.1,1-0.7,1.9-1.7,2.6C129.9,149.8,128.9,150.1,127.9,149.8"/>
			<path class="st0" d="M132.9,138.5l4.3,4.8c0.1,0.1,0.2,0.2,0.3,0.2c0.1,0,0.2,0,0.4,0l-2.1,1.9c0-0.1,0-0.3,0-0.4     c0-0.1-0.1-0.2-0.1-0.3l-6.3-7c-0.1-0.1-0.2-0.2-0.3-0.2c-0.1,0-0.2,0-0.4,0l1.9-1.7l7.6,2.3l0,0l-4.2-4.6     c-0.1-0.1-0.2-0.2-0.3-0.2c-0.1,0-0.2,0-0.4,0l2.1-1.9c0,0.1-0.1,0.2,0,0.4c0,0.1,0.1,0.2,0.2,0.3l6.3,7c0.1,0.1,0.2,0.2,0.3,0.2     c0.1,0,0.2,0,0.4,0l-1.7,1.6L132.9,138.5L132.9,138.5L132.9,138.5z"/>
			<path class="st0" d="M143.8,137.5c0-0.1-0.1-0.2-0.2-0.3l-7-6.4c-0.1-0.1-0.2-0.1-0.3-0.2c-0.1,0-0.2,0-0.4,0l1.9-2.1     c0,0.1,0,0.3,0,0.4c0,0.1,0.1,0.2,0.2,0.3l7,6.4c0.1,0.1,0.2,0.1,0.3,0.2c0.1,0,0.3,0,0.4,0l-1.9,2.1     C143.8,137.7,143.8,137.6,143.8,137.5"/>
			<path class="st0" d="M144.1,120.9c0.1,0.2,0.1,0.3,0.2,0.5l4.5,7.4c0.1,0.2,0.2,0.4,0.4,0.6c0.1,0.2,0.3,0.4,0.4,0.4     c0.1,0.1,0.2,0.1,0.3,0.1c0.1,0,0.2,0,0.3,0l-1.3,1.8l-10.1-2.9c-0.2-0.1-0.4-0.1-0.5-0.1c-0.2,0-0.4,0-0.5,0l1.7-2.3     c0,0.1,0,0.2,0.1,0.2c0,0.1,0.1,0.2,0.2,0.2c0.1,0.1,0.3,0.2,0.5,0.2c0.2,0.1,0.5,0.1,0.7,0.2l6.2,1.9l0,0l-3.5-5.5     c-0.1-0.2-0.2-0.4-0.4-0.6c-0.1-0.2-0.3-0.3-0.4-0.4c-0.1-0.1-0.2-0.1-0.3-0.1c-0.1,0-0.2,0-0.2,0l1.7-2.2     C144,120.5,144,120.7,144.1,120.9"/>
			<path class="st0" d="M152.6,125.2c-0.1-0.1-0.1-0.2-0.2-0.3l-8.1-4.8c-0.1-0.1-0.2-0.1-0.4-0.1c-0.1,0-0.2,0.1-0.4,0.1l3.4-5.6     l1.9,1.1c-0.2,0-0.4,0.1-0.5,0.2c-0.1,0.1-0.3,0.3-0.4,0.5l-1.6,2.6l2.3,1.3l0.9-1.6c0.1-0.2,0.2-0.4,0.2-0.5c0-0.2,0-0.3,0-0.5     l2.1,1.2c-0.2,0-0.3,0.1-0.4,0.2c-0.1,0.1-0.2,0.2-0.4,0.4l-1,1.6l2.3,1.4l1.6-2.6c0.1-0.2,0.2-0.4,0.2-0.6c0-0.2,0-0.4-0.1-0.5     l1.9,1.1l-3.3,5.6C152.7,125.4,152.7,125.3,152.6,125.2"/>
			<path class="st0" d="M158.8,113.3c-0.1-0.1-0.2-0.2-0.3-0.2c-0.7-0.3-1.5-0.3-2.4-0.1c-0.9,0.2-1.7,0.8-2.3,1.7l3.3,1.5     c0.1,0.1,0.2,0.1,0.4,0c0.1,0,0.2-0.1,0.3-0.1l-1.2,2.6c0-0.1-0.1-0.2-0.1-0.4c-0.1-0.1-0.1-0.2-0.3-0.2l-9.4-4.2     c0.1-0.1,0.2-0.1,0.3-0.2c0.1-0.1,0.2-0.2,0.2-0.3c0.1-0.2,0.1-0.4,0.2-0.7c0-0.3,0.1-0.6,0.3-1c0.4-0.9,1-1.5,1.9-1.8     c0.8-0.4,1.7-0.3,2.6,0.1c0.6,0.3,1,0.6,1.3,1c0.3,0.4,0.4,0.9,0.3,1.5l0,0c0.5-0.7,1.2-1.2,2.1-1.3c0.9-0.2,1.7-0.1,2.5,0.1     c0.4,0.1,0.7,0.2,0.9,0.2c0.2,0,0.4-0.1,0.5-0.1l-1.2,2.5C159,113.5,158.9,113.4,158.8,113.3 M152.4,113.7c0-0.1,0.1-0.1,0.1-0.2     c0.2-0.4,0.2-0.8,0.1-1.2c-0.2-0.4-0.4-0.6-0.8-0.8c-0.4-0.2-0.8-0.2-1.2-0.1c-0.4,0.1-0.7,0.4-0.9,0.8c0,0.1-0.1,0.2-0.1,0.2     c0,0.1,0,0.1,0,0.2l2.6,1.2C152.3,113.8,152.3,113.8,152.4,113.7"/>
			<path class="st0" d="M153.7,103.4c-0.4,0.1-0.7,0.2-1,0.4c-0.3,0.2-0.5,0.5-0.6,0.9c-0.1,0.3-0.1,0.5,0,0.7     c0.1,0.2,0.3,0.3,0.5,0.4c0.7,0.2,1.5-0.2,2.4-1.2c0.9-1,2.1-1.3,3.6-0.8c1,0.3,1.7,0.9,2.1,1.8c0.4,0.9,0.4,1.8,0,2.9     c-0.1,0.2-0.1,0.3-0.2,0.5c-0.1,0.2-0.2,0.3-0.2,0.4c-0.1,0.1-0.1,0.2-0.2,0.3c-0.1,0.1-0.1,0.2-0.1,0.3c0,0.1-0.1,0.2,0,0.3     c0,0.1,0,0.2,0.1,0.3l-2.9-1l0,0c0.5-0.1,0.8-0.3,1.1-0.5c0.3-0.3,0.5-0.6,0.7-1c0.2-0.5,0.2-1,0-1.4c-0.2-0.4-0.5-0.7-1-0.8     c-1-0.3-1.9,0-2.6,1.1c-0.8,1.1-1.9,1.4-3.3,0.9c-0.8-0.3-1.3-0.7-1.6-1.4c-0.3-0.7-0.3-1.4,0-2.1c0-0.1,0.1-0.2,0.1-0.3     c0.1-0.1,0.1-0.2,0.2-0.3c0.1-0.1,0.1-0.2,0.2-0.3c0.1-0.1,0.1-0.2,0.1-0.2c0-0.1,0-0.2,0-0.3c0-0.1,0-0.2-0.1-0.3L153.7,103.4     L153.7,103.4L153.7,103.4z"/>
			<path class="st0" d="M161.5,103.5c-0.1-0.1-0.2-0.2-0.3-0.2l-9.2-2.3c-0.1,0-0.3,0-0.4,0c-0.1,0.1-0.2,0.1-0.3,0.2l0.7-2.7     c0,0.1,0.1,0.2,0.2,0.3c0.1,0.1,0.2,0.2,0.3,0.2l9.2,2.3c0.1,0,0.2,0,0.4,0c0.1,0,0.2-0.1,0.3-0.2l-0.7,2.7     C161.7,103.7,161.6,103.6,161.5,103.5"/>
			<path class="st0" d="M155.6,91.4c-0.2,0-0.3,0.1-0.5,0.3c-0.2,0.2-0.3,0.5-0.4,1.1l-0.1,0.8l8.2,1.4c0.1,0,0.3,0,0.4,0     c0.1-0.1,0.2-0.1,0.3-0.2l-0.5,2.8c-0.1-0.1-0.1-0.2-0.2-0.3c-0.1-0.1-0.2-0.1-0.3-0.2l-8.2-1.4l-0.1,0.8c-0.1,0.6-0.1,1,0,1.2     c0.1,0.2,0.2,0.3,0.4,0.4l-2.3-0.4l1.1-6.6L155.6,91.4L155.6,91.4z"/>
			<path class="st0" d="M163.5,88.3c-0.1-0.1-0.2-0.1-0.3-0.1l-4.5-0.3l-4.9,2.5c-0.2,0.1-0.3,0.2-0.5,0.3c-0.2,0.1-0.3,0.2-0.4,0.3     l0.2-2.9c0.1,0.1,0.1,0.1,0.1,0.1c0,0,0.1,0.1,0.2,0.1c0.1,0,0.2,0,0.3,0c0.1,0,0.2-0.1,0.4-0.1l2.9-1.3v0l-2.7-1.7     c-0.1-0.1-0.2-0.2-0.3-0.2c-0.1,0-0.2-0.1-0.3-0.1c-0.1,0-0.1,0-0.2,0c-0.1,0-0.1,0.1-0.2,0.1l0.2-2.9c0.1,0.2,0.2,0.3,0.3,0.4     c0.1,0.1,0.3,0.2,0.4,0.3l4.5,3.1l4.5,0.3c0.1,0,0.2,0,0.3-0.1c0.1-0.1,0.2-0.2,0.3-0.3l-0.2,2.8     C163.6,88.4,163.6,88.3,163.5,88.3"/>
			<path class="st0" d="M84.8,169.6C38,169.6,0,131.5,0,84.8C0,38,38,0,84.8,0s84.8,38,84.8,84.8     C169.6,131.5,131.5,169.6,84.8,169.6L84.8,169.6z M84.8,1C38.6,1,1,38.6,1,84.8c0,46.2,37.6,83.8,83.8,83.8     c46.2,0,83.8-37.6,83.8-83.8C168.6,38.6,131,1,84.8,1L84.8,1z"/>
			<path class="st0" d="M84.8,146.7c-34.2,0-62-27.8-62-62c0-34.2,27.8-62,62-62s62,27.8,62,62C146.7,119,119,146.7,84.8,146.7     L84.8,146.7z M84.8,23.8c-33.6,0-61,27.3-61,61c0,33.6,27.3,61,61,61s61-27.3,61-61C145.7,51.2,118.4,23.8,84.8,23.8L84.8,23.8z"/>
			<path class="st0" d="M46.7,110.8c0-1.5,1.3-2.8,2.8-2.8c1.6,0,2.8,1.3,2.8,2.8c0,1.6-1.3,2.8-2.8,2.8     C47.9,113.6,46.7,112.4,46.7,110.8 M49.5,112.1c0.7,0,1.3-0.6,1.3-1.3c0-0.7-0.6-1.3-1.3-1.3c-0.7,0-1.3,0.6-1.3,1.3     C48.2,111.5,48.8,112.1,49.5,112.1"/>
			<path class="st0" d="M60.6,109.7c0-1.5,1.3-2.8,2.8-2.8c1.6,0,2.8,1.3,2.8,2.8c0,1.6-1.3,2.8-2.8,2.8     C61.8,112.5,60.6,111.2,60.6,109.7 M63.4,111c0.7,0,1.3-0.6,1.3-1.3c0-0.7-0.6-1.3-1.3-1.3c-0.7,0-1.3,0.6-1.3,1.3     C62.1,110.4,62.7,111,63.4,111"/>
			<path class="st0" d="M66.5,96.8c0-1.6,1.3-2.8,2.8-2.8c1.5,0,2.8,1.3,2.8,2.8c0,1.6-1.3,2.8-2.8,2.8     C67.7,99.6,66.5,98.4,66.5,96.8 M69.3,98.1c0.7,0,1.3-0.6,1.3-1.3c0-0.7-0.6-1.3-1.3-1.3c-0.7,0-1.3,0.6-1.3,1.3     C68,97.5,68.6,98.1,69.3,98.1"/>
			<path class="st0" d="M80.9,95.7c0-1.6,1.3-2.8,2.8-2.8c1.5,0,2.8,1.3,2.8,2.8c0,1.6-1.3,2.8-2.8,2.8     C82.2,98.5,80.9,97.3,80.9,95.7 M83.7,97c0.7,0,1.3-0.6,1.3-1.3c0-0.7-0.6-1.3-1.3-1.3c-0.7,0-1.3,0.6-1.3,1.3     C82.5,96.4,83,97,83.7,97"/>
			<path class="st0" d="M86.7,82.8c0-1.6,1.3-2.8,2.8-2.8c1.6,0,2.8,1.3,2.8,2.8c0,1.6-1.3,2.8-2.8,2.8C88,85.7,86.7,84.4,86.7,82.8      M89.5,84.1c0.7,0,1.3-0.6,1.3-1.3c0-0.7-0.6-1.3-1.3-1.3c-0.7,0-1.3,0.6-1.3,1.3C88.2,83.6,88.8,84.1,89.5,84.1"/>
			<path class="st0" d="M101.2,81.6c0-1.5,1.3-2.8,2.8-2.8c1.5,0,2.8,1.3,2.8,2.8c0,1.6-1.3,2.8-2.8,2.8     C102.5,84.4,101.2,83.1,101.2,81.6 M104,82.9c0.7,0,1.3-0.6,1.3-1.3c0-0.7-0.6-1.3-1.3-1.3c-0.7,0-1.3,0.6-1.3,1.3     C102.8,82.3,103.3,82.9,104,82.9"/>
			<path class="st0" d="M107,69.3c0-1.6,1.3-2.8,2.8-2.8c1.6,0,2.8,1.3,2.8,2.8c0,1.5-1.3,2.8-2.8,2.8C108.2,72.1,107,70.8,107,69.3      M109.8,70.5c0.7,0,1.3-0.6,1.3-1.3c0-0.7-0.6-1.3-1.3-1.3c-0.7,0-1.3,0.6-1.3,1.3C108.5,70,109.1,70.5,109.8,70.5"/>
			<path class="st0" d="M73.6,98c0,0-2.2-14.7,12.9-18.7C86.5,79.3,90.2,93.4,73.6,98 M85.4,82.4l-9.2,13.2c0,0,3.6-0.5,7-5.2     C83.2,90.3,85.9,86.1,85.4,82.4L85.4,82.4L85.4,82.4z M84.4,81.6c-3.7,0.8-6.7,4.9-6.7,4.9c-3.3,4.8-2.5,8.3-2.5,8.3L84.4,81.6     L84.4,81.6L84.4,81.6z"/>
			<path class="st0" d="M84.5,90.7c0,0,8.2-12.4,22-5.3C106.6,85.4,99.9,98.4,84.5,90.7 M103.7,87l-15.6,3.6c0,0,3,2.1,8.7,0.8     C96.8,91.4,101.7,90.1,103.7,87L103.7,87L103.7,87z M103.5,85.7c-3.3-1.8-8.2-0.8-8.2-0.8c-5.6,1.3-7.4,4.5-7.4,4.5L103.5,85.7     L103.5,85.7L103.5,85.7z"/>
			<path class="st0" d="M53.5,111.9c0,0-2.2-14.7,12.9-18.7C66.3,93.3,70.1,107.4,53.5,111.9 M65.3,96.4L56,109.5c0,0,3.6-0.5,7-5.2     C63,104.3,65.8,100.1,65.3,96.4L65.3,96.4L65.3,96.4z M64.2,95.5c-3.7,0.8-6.7,4.9-6.7,4.9c-3.3,4.8-2.5,8.3-2.5,8.3L64.2,95.5     L64.2,95.5L64.2,95.5z"/>
			<path class="st0" d="M64.2,104.7c0,0,8.2-12.4,22-5.3C86.2,99.5,79.5,112.5,64.2,104.7 M83.3,101.1l-15.6,3.6c0,0,3,2.1,8.7,0.8     C76.4,105.5,81.3,104.2,83.3,101.1L83.3,101.1L83.3,101.1z M83.1,99.8c-3.3-1.8-8.2-0.8-8.2-0.8c-5.6,1.3-7.4,4.5-7.4,4.5     L83.1,99.8L83.1,99.8L83.1,99.8z"/>
			<path class="st0" d="M94,83.9c0,0-2.2-14.7,12.9-18.7C106.8,65.2,110.6,79.4,94,83.9 M105.8,68.3l-9.2,13.1c0,0,3.6-0.5,7-5.2     C103.5,76.3,106.3,72,105.8,68.3L105.8,68.3L105.8,68.3z M104.8,67.5c-3.7,0.8-6.7,4.9-6.7,4.9c-3.3,4.8-2.5,8.3-2.5,8.3     L104.8,67.5L104.8,67.5L104.8,67.5z"/>
			<path class="st0" d="M104.6,77.2c0,0,8.2-12.4,22-5.3C126.6,71.9,119.9,84.9,104.6,77.2 M123.7,73.5l-15.6,3.6c0,0,3,2.1,8.7,0.8     C116.8,77.9,121.7,76.6,123.7,73.5L123.7,73.5L123.7,73.5z M123.5,72.2c-3.3-1.8-8.2-0.8-8.2-0.8c-5.6,1.3-7.5,4.5-7.5,4.5     L123.5,72.2L123.5,72.2L123.5,72.2z"/>
			<path class="st0" d="M44,119c0,0,8-12.5,22-5.5C66,113.5,59.4,126.6,44,119 M63.1,115.1l-15.6,3.8c0,0,3.1,2,8.7,0.7     C56.2,119.6,61.1,118.2,63.1,115.1L63.1,115.1L63.1,115.1z M62.9,113.8c-3.3-1.8-8.2-0.7-8.2-0.7c-5.6,1.4-7.4,4.6-7.4,4.6     L62.9,113.8L62.9,113.8L62.9,113.8z"/>
			<path class="st0" d="M48.5,106.5c0,0,2.2,0,3.7,1.3c0,0-1-5.8,6.2-12.5c-0.4-1.6-0.7-3.3-0.8-5.1H44.2     C44.5,96.1,46,101.6,48.5,106.5"/>
			<path class="st0" d="M66.4,112.4c0.8,0.3,1.1,0.9,1.1,0.9c-2.1,4.8-7.1,7.2-7.1,7.2c6.4,4.6,14.2,7.4,22.7,7.6l0-13.3     c-5.9-0.1-11.3-2.2-15.7-5.6C68.3,110.7,66.4,112.4,66.4,112.4"/>
			<path class="st0" d="M83.1,62.6V49.2l-39.1,0v13.3h10.2c-5.8,5.7-9.5,14.7-10,24.1h13.3C58.7,73.2,69.9,62.6,83.1,62.6"/>
			<path class="st0" d="M86.8,49.2h39.8v13.3h-9v5.8c-0.8-0.2-3.4,0.5-3.4,0.5c-1.8-5.8-5.9-3.4-5.9-3.4c-0.1-0.4-0.4-1.6-0.4-1.6     c-1-0.3-3.6,0.7-3.6,0.7l0-2v-0.1H86.8L86.8,49.2L86.8,49.2z"/>
			<path class="st0" d="M117.6,100.3V80.7c-3.4,1.4-9.5-0.1-9.5-0.1c0.7,3.2-0.9,4.1-0.9,4.1c0.4,0.3,1,0.9,1,0.9     c-0.9,2.9-3.9,5-3.9,5l0,6.3c-1,16.9-15.3,17.7-17.3,17.7V128c0,0,14.1-0.3,24-11.1c0,0,5.6,6.8,15.8,9.6v-15.2     C126.6,111.3,117.7,108.3,117.6,100.3L117.6,100.3z"/>
</svg>