<?xml version="1.0"?>
<svg xmlns="http://www.w3.org/2000/svg" viewBox="0 0 253 28.8">
<style type="text/css">
	.st0{fill:none;}
	.st1{fill:none;stroke:#FDD22B;stroke-width:0;stroke-linecap:round;stroke-linejoin:round;}
	.st2{fill:#FDD22B;}
</style>
 <path class="st0" d="M70.207,9.739c-0.045-0.106-0.101-0.203-0.167-0.294V9.444c-0.066-0.09-0.143-0.176-0.231-0.255h-0.001
   c-0.092-0.083-0.193-0.154-0.301-0.217c-0.108-0.061-0.226-0.115-0.353-0.157c-0.255-0.085-0.551-0.13-0.894-0.13h-1.539
   c-0.087,0-0.174,0.035-0.236,0.098c-0.062,0.062-0.098,0.148-0.098,0.236v3.003c0,0.087,0.035,0.174,0.098,0.236
   c0.062,0.062,0.147,0.098,0.236,0.098h1.539c0.021,0,0.042,0,0.062,0c0.318-0.006,0.597-0.053,0.84-0.138
   c0.121-0.042,0.235-0.094,0.339-0.155h0.001c0.104-0.06,0.203-0.132,0.295-0.212h0.001c0.094-0.083,0.175-0.17,0.243-0.263
   c0.068-0.093,0.126-0.193,0.171-0.3v-0.001c0.045-0.107,0.081-0.222,0.104-0.347c0.024-0.125,0.036-0.26,0.036-0.405v-0.007
   c0-0.015,0-0.028,0-0.041c-0.003-0.145-0.017-0.279-0.042-0.403C70.288,9.959,70.252,9.844,70.207,9.739z"/>
 <path class="st0" d="M33.378,11.52l-0.002-0.006v-0.001l-0.001-0.001c-0.109-0.287-0.244-0.553-0.405-0.795
   c-0.162-0.245-0.352-0.47-0.568-0.674v-0.001c-0.23-0.217-0.469-0.405-0.717-0.567c-0.248-0.162-0.506-0.297-0.773-0.406H30.91
   c-0.267-0.109-0.545-0.193-0.834-0.251c-0.29-0.057-0.591-0.089-0.905-0.094h-0.006c-0.031-0.001-0.06-0.001-0.091-0.001
   c-0.303,0-0.596,0.025-0.879,0.075c-0.283,0.051-0.556,0.126-0.82,0.226c-0.529,0.2-1.025,0.5-1.491,0.907
   c-0.232,0.203-0.437,0.428-0.613,0.676c-0.176,0.249-0.323,0.521-0.445,0.818v0.001c-0.121,0.297-0.214,0.622-0.28,0.973
   c-0.065,0.352-0.102,0.731-0.109,1.137c-0.001,0.049-0.001,0.098-0.001,0.145c0,0.389,0.028,0.751,0.085,1.089
   c0.057,0.338,0.141,0.651,0.251,0.939c0.111,0.289,0.247,0.555,0.411,0.799c0.163,0.244,0.354,0.466,0.573,0.668v0.001
   c0.233,0.214,0.473,0.402,0.723,0.563c0.25,0.161,0.509,0.295,0.778,0.404l0.003,0.001c0.268,0.108,0.546,0.189,0.834,0.246
   c0.291,0.058,0.592,0.09,0.907,0.095c0.032,0,0.064,0,0.095,0c0.304,0,0.597-0.025,0.879-0.075
   c0.283-0.049,0.555-0.124,0.818-0.222c0.526-0.199,1.02-0.495,1.482-0.897h0.001c0.23-0.201,0.432-0.424,0.606-0.671
   c0.175-0.247,0.321-0.517,0.441-0.815c0.12-0.297,0.213-0.621,0.278-0.972c0.065-0.351,0.101-0.729,0.108-1.137
   c0.001-0.048,0.001-0.095,0.001-0.142c0-0.39-0.028-0.753-0.084-1.091C33.571,12.125,33.487,11.811,33.378,11.52z"/>
 <path class="st0" d="M89.784,11.52l-0.002-0.006l-0.001-0.001c-0.109-0.288-0.244-0.553-0.405-0.797
   c-0.162-0.245-0.352-0.47-0.568-0.674v-0.001c-0.23-0.217-0.47-0.405-0.717-0.567c-0.248-0.162-0.506-0.297-0.773-0.406h-0.001
   c-0.267-0.109-0.545-0.193-0.834-0.251c-0.29-0.057-0.591-0.089-0.905-0.094h-0.006c-0.031-0.001-0.06-0.001-0.091-0.001
   c-0.303,0-0.596,0.025-0.879,0.076c-0.283,0.05-0.556,0.125-0.82,0.225c-0.529,0.2-1.025,0.5-1.491,0.906
   c-0.233,0.203-0.437,0.428-0.613,0.676c-0.176,0.248-0.323,0.521-0.445,0.818v0.001c-0.121,0.297-0.214,0.622-0.28,0.974
   c-0.065,0.352-0.102,0.731-0.109,1.138c-0.001,0.048-0.001,0.094-0.001,0.142c0,0.388,0.028,0.751,0.085,1.089
   c0.057,0.338,0.141,0.651,0.251,0.941v0.001c0.11,0.289,0.247,0.555,0.411,0.799c0.163,0.244,0.354,0.466,0.573,0.669
   l0.01,0.008v0.001c0.229,0.211,0.466,0.395,0.712,0.554c0.25,0.161,0.509,0.295,0.778,0.404
   c0.269,0.108,0.548,0.191,0.837,0.248c0.29,0.057,0.592,0.089,0.906,0.094c0.032,0,0.064,0,0.095,0
   c0.304,0,0.597-0.025,0.879-0.074c0.283-0.05,0.555-0.125,0.818-0.224c0.526-0.198,1.02-0.495,1.482-0.897h0.001
   c0.23-0.201,0.432-0.424,0.606-0.671c0.175-0.246,0.321-0.517,0.441-0.815c0.12-0.297,0.213-0.621,0.278-0.972
   c0.065-0.351,0.101-0.73,0.108-1.137l-0.334-0.006l0.334,0.006c0.001-0.048,0.001-0.095,0.001-0.142
   c0-0.389-0.028-0.752-0.084-1.091C89.977,12.125,89.893,11.811,89.784,11.52z"/>
 <line class="st1" x1="20.385" y1="9.675" x2="20.385" y2="9.673"/>
 <path class="st2" d="M37.86,9.904c-0.219-0.557-0.495-1.086-0.824-1.584c-0.329-0.498-0.714-0.966-1.15-1.401h-0.001
   c-0.894-0.892-1.899-1.572-3.009-2.032c-0.555-0.23-1.135-0.406-1.739-0.526c-0.605-0.12-1.234-0.186-1.887-0.197
   c-0.067-0.001-0.135-0.001-0.203-0.001h-0.002c-1.26,0-2.442,0.209-3.533,0.627c-1.093,0.42-2.094,1.049-3,1.882v0.001
   c-0.466,0.429-0.878,0.895-1.232,1.396c-0.355,0.5-0.654,1.037-0.894,1.607c-0.24,0.568-0.423,1.171-0.548,1.805
   c-0.126,0.634-0.194,1.3-0.206,1.997c-0.001,0.073-0.002,0.144-0.002,0.216v0.001c0,0.668,0.055,1.31,0.165,1.924
   c0.11,0.614,0.275,1.2,0.495,1.757c0.221,0.557,0.497,1.085,0.828,1.582c0.331,0.497,0.717,0.963,1.157,1.397
   c0.899,0.887,1.907,1.565,3.018,2.023c0.556,0.229,1.137,0.403,1.743,0.523c0.605,0.12,1.233,0.185,1.886,0.196
   c0.068,0.001,0.136,0.002,0.203,0.002h0.001h0.001c1.261,0,2.44-0.209,3.531-0.629c1.09-0.419,2.09-1.049,2.991-1.883
   c0.464-0.429,0.874-0.894,1.228-1.394c0.353-0.499,0.649-1.034,0.888-1.601s0.421-1.167,0.547-1.798
   c0.125-0.631,0.193-1.293,0.204-1.986c0.002-0.074,0.002-0.146,0.002-0.22c0-0.668-0.054-1.31-0.163-1.924
   C38.244,11.049,38.079,10.462,37.86,9.904z M33.709,13.698c-0.007,0.407-0.043,0.786-0.108,1.137
   c-0.065,0.352-0.158,0.675-0.278,0.972c-0.12,0.297-0.267,0.567-0.441,0.815c-0.174,0.246-0.376,0.47-0.606,0.671h-0.001
   c-0.462,0.403-0.955,0.699-1.482,0.897c-0.263,0.099-0.536,0.174-0.818,0.222c-0.283,0.05-0.575,0.075-0.879,0.075
   c-0.032,0-0.063,0-0.095,0c-0.314-0.006-0.616-0.037-0.907-0.095c-0.288-0.057-0.566-0.138-0.834-0.246l-0.003-0.001
   c-0.269-0.109-0.529-0.243-0.778-0.404c-0.25-0.161-0.49-0.348-0.723-0.563v-0.001c-0.219-0.202-0.41-0.424-0.573-0.668
   c-0.163-0.244-0.299-0.509-0.411-0.799c-0.11-0.288-0.194-0.601-0.251-0.939c-0.057-0.338-0.085-0.7-0.085-1.089
   c0-0.048,0-0.096,0.001-0.145c0.007-0.406,0.044-0.785,0.109-1.137c0.066-0.352,0.159-0.676,0.28-0.973v-0.001
   c0.122-0.297,0.269-0.57,0.445-0.818c0.176-0.248,0.38-0.473,0.613-0.676c0.466-0.406,0.962-0.707,1.491-0.907
   c0.264-0.1,0.538-0.175,0.82-0.226c0.284-0.05,0.576-0.075,0.879-0.075c0.031,0,0.06,0,0.091,0.001h0.006
   c0.314,0.006,0.615,0.037,0.905,0.094c0.289,0.058,0.567,0.142,0.834,0.251h0.001c0.267,0.109,0.524,0.244,0.773,0.406
   c0.248,0.162,0.487,0.351,0.717,0.567v0.001c0.217,0.204,0.406,0.429,0.568,0.674c0.161,0.243,0.296,0.508,0.405,0.795
   l0.001,0.001v0.001l0.002,0.006c0.109,0.291,0.193,0.605,0.248,0.944c0.056,0.338,0.084,0.701,0.084,1.091
   C33.71,13.602,33.71,13.65,33.709,13.698z"/>
 <polygon class="st2" points="20.287,17.376 20.288,17.375 20.287,17.375"/>
 <path class="st2" d="M4.917,12.399c0.065-0.352,0.159-0.676,0.28-0.974v-0.001c0.12-0.297,0.269-0.57,0.445-0.818
   c0.176-0.249,0.379-0.473,0.613-0.676c0.466-0.406,0.962-0.707,1.491-0.906c0.264-0.1,0.538-0.175,0.82-0.226
   c0.282-0.05,0.575-0.075,0.879-0.075c0.029,0,0.06,0,0.091,0.001h0.006c0.314,0.006,0.615,0.036,0.904,0.094
   c0.289,0.058,0.567,0.142,0.835,0.251h0.001c0.267,0.109,0.524,0.244,0.773,0.406c0.247,0.162,0.487,0.351,0.717,0.567
   c0.217,0.205,0.406,0.43,0.568,0.675c0.109,0.165,0.31,0.572,0.428,0.817c0.059,0.12,0.18,0.197,0.315,0.197h4.466
   c0.018,0,0.029-0.006,0.041-0.017c0.011-0.011,0.017-0.025,0.017-0.037l-0.001-0.01l-0.001-0.005
   c-0.058-0.327-0.099-0.638-0.152-0.93c-0.053-0.293-0.119-0.567-0.221-0.828c-0.22-0.557-0.495-1.086-0.824-1.584
   c-0.33-0.498-0.714-0.966-1.15-1.401c-0.895-0.892-1.9-1.573-3.01-2.032c-0.555-0.23-1.136-0.406-1.74-0.526
   c-0.605-0.12-1.233-0.186-1.886-0.197C9.553,4.162,9.486,4.162,9.418,4.162H9.417H9.416c-1.261,0-2.442,0.209-3.533,0.627
   c-1.093,0.42-2.096,1.049-3,1.882v0.001C2.417,7.101,2.005,7.568,1.65,8.068c-0.354,0.5-0.652,1.037-0.893,1.607
   c-0.241,0.568-0.423,1.171-0.549,1.805c-0.125,0.634-0.193,1.3-0.205,1.997C0.001,13.549,0,13.621,0,13.692v0.001
   c0,0.668,0.054,1.31,0.164,1.924c0.109,0.614,0.275,1.2,0.495,1.757c0.221,0.557,0.497,1.085,0.828,1.582
   c0.331,0.497,0.717,0.963,1.157,1.397c0.897,0.887,1.906,1.565,3.018,2.023c0.556,0.229,1.137,0.403,1.742,0.523
   c0.606,0.12,1.234,0.185,1.887,0.196c0.068,0.001,0.135,0.002,0.203,0.002h0.001h0.001c1.261,0,2.441-0.209,3.531-0.629
   c1.09-0.419,2.09-1.049,2.991-1.883c0.464-0.429,0.874-0.894,1.226-1.394c0.354-0.499,0.65-1.034,0.89-1.601
   c0.112-0.265,0.187-0.547,0.248-0.846c0.062-0.299,0.112-0.617,0.178-0.952c0.014-0.064,0.025-0.128,0.036-0.193l0.001-0.011
   c0-0.011-0.003-0.021-0.009-0.031c-0.007-0.01-0.016-0.017-0.025-0.022c-0.007-0.002-0.013-0.003-0.023-0.003l-4.505,0.009
   c-0.142,0.001-0.269,0.086-0.322,0.218c-0.008,0.018-0.015,0.034-0.019,0.048c-0.12,0.297-0.268,0.567-0.441,0.815
   c-0.175,0.246-0.376,0.47-0.607,0.671c-0.463,0.403-0.955,0.699-1.482,0.897c-0.263,0.099-0.536,0.174-0.818,0.222
   c-0.282,0.05-0.575,0.075-0.879,0.075c-0.032,0-0.064,0-0.095-0.001c-0.314-0.005-0.616-0.036-0.906-0.094
   c-0.29-0.057-0.568-0.14-0.837-0.247l-0.001-0.001c-0.268-0.108-0.528-0.242-0.777-0.403c-0.25-0.161-0.49-0.348-0.723-0.563
   v-0.001l-0.003-0.002l-0.001-0.002c-0.217-0.201-0.406-0.422-0.568-0.664c-0.163-0.244-0.301-0.509-0.411-0.798V15.71
   c-0.11-0.288-0.194-0.601-0.251-0.939c-0.057-0.338-0.085-0.7-0.085-1.089c0-0.048,0-0.096,0.001-0.145
   C4.815,13.129,4.853,12.75,4.917,12.399z"/>
 <line class="st1" x1="39.696" y1="22.494" x2="39.596" y2="22.539"/>
 <path class="st2" d="M59.999,4.594c-0.031-0.02-0.065-0.036-0.101-0.048c-0.036-0.011-0.075-0.017-0.113-0.017h-0.001h-5.328
   h-0.003h-0.007c-0.079,0.001-0.154,0.026-0.216,0.069c-0.032,0.022-0.059,0.048-0.083,0.078
   c-0.024,0.029-0.043,0.064-0.058,0.101l-3.889,10.072c-0.05,0.127-0.171,0.212-0.309,0.213c-0.136,0.001-0.26-0.082-0.312-0.208
   L45.474,4.771c-0.029-0.073-0.08-0.134-0.143-0.176c-0.061-0.042-0.138-0.066-0.217-0.066h-5.061h-0.003h-0.003
   c-0.052,0-0.104,0.013-0.149,0.032c-0.069,0.031-0.127,0.079-0.168,0.141c-0.02,0.031-0.037,0.065-0.048,0.101H39.68
   c-0.01,0.036-0.017,0.076-0.017,0.115v17.418v0.01c0.001,0.052,0.014,0.104,0.033,0.149c0.031,0.069,0.078,0.126,0.141,0.168
   c0.031,0.02,0.065,0.036,0.101,0.048c0.036,0.011,0.075,0.017,0.115,0.017h3.684h0.008c0.051-0.001,0.1-0.011,0.145-0.031
   c0.045-0.019,0.087-0.047,0.123-0.083c0.037-0.037,0.065-0.079,0.084-0.126c0.02-0.048,0.031-0.096,0.031-0.149v-7.641
   c0-0.16,0.114-0.297,0.27-0.327c0.158-0.031,0.313,0.054,0.373,0.203l3.153,7.909c0.028,0.073,0.081,0.135,0.142,0.177
   l0.001,0.001c0.061,0.042,0.139,0.066,0.218,0.066h3.144h0.008c0.078-0.001,0.153-0.026,0.214-0.069
   c0.031-0.022,0.059-0.048,0.083-0.077c0.023-0.03,0.043-0.064,0.057-0.1l3.153-8.008c0.058-0.149,0.214-0.235,0.372-0.205
   c0.158,0.031,0.271,0.168,0.271,0.328v7.74v0.01c0.001,0.052,0.012,0.104,0.033,0.149c0.031,0.069,0.078,0.126,0.141,0.168
   c0.031,0.02,0.065,0.036,0.101,0.048c0.035,0.011,0.075,0.017,0.113,0.017h3.805h0.01c0.051-0.001,0.099-0.011,0.145-0.031
   c0.045-0.019,0.087-0.047,0.122-0.083c0.038-0.037,0.065-0.079,0.085-0.126c0.019-0.048,0.029-0.096,0.029-0.149V4.921V4.91
   c-0.001-0.052-0.014-0.104-0.033-0.149C60.109,4.693,60.061,4.636,59.999,4.594z"/>
 <path class="st2" d="M75.011,10.374c-0.007-0.413-0.049-0.811-0.126-1.194c-0.078-0.381-0.191-0.747-0.339-1.095h-0.001
   c-0.149-0.348-0.332-0.679-0.551-0.99c-0.22-0.311-0.473-0.603-0.76-0.875c-0.295-0.28-0.614-0.525-0.954-0.736
   c-0.342-0.211-0.703-0.386-1.087-0.526c-0.768-0.279-1.616-0.416-2.538-0.416h-6.558h-0.01
   c-0.052,0.001-0.104,0.012-0.149,0.033c-0.069,0.031-0.126,0.078-0.168,0.141c-0.02,0.031-0.036,0.065-0.048,0.101
   c-0.011,0.035-0.017,0.075-0.017,0.113V4.93v17.417v0.011c0.001,0.052,0.012,0.103,0.032,0.148
   c0.031,0.07,0.079,0.127,0.141,0.168c0.031,0.02,0.065,0.037,0.101,0.049c0.036,0.01,0.076,0.017,0.115,0.017h3.881h0.008
   c0.051-0.001,0.099-0.012,0.145-0.032c0.045-0.019,0.086-0.046,0.123-0.083c0.036-0.036,0.065-0.078,0.084-0.126
   c0.019-0.047,0.029-0.096,0.029-0.149v-5.544c0-0.087,0.036-0.174,0.098-0.236c0.062-0.062,0.149-0.098,0.236-0.098h1.957
   c0.054,0,0.109,0,0.162-0.001h0.001c0.886-0.016,1.701-0.159,2.44-0.433c0.739-0.275,1.4-0.683,1.973-1.217
   c0.295-0.276,0.556-0.574,0.779-0.894c0.224-0.32,0.41-0.663,0.558-1.023v-0.001c0.15-0.361,0.261-0.743,0.335-1.142
   c0.073-0.399,0.11-0.818,0.11-1.253c0-0.045-0.001-0.09-0.001-0.133L75.011,10.374z M70.353,10.526v0.007
   c0,0.145-0.013,0.28-0.036,0.405c-0.024,0.125-0.059,0.241-0.104,0.347v0.001c-0.045,0.107-0.103,0.206-0.171,0.3
   c-0.068,0.093-0.149,0.18-0.243,0.263h-0.001c-0.092,0.081-0.191,0.152-0.295,0.212h-0.001
   c-0.104,0.061-0.218,0.113-0.339,0.155c-0.243,0.085-0.522,0.133-0.84,0.138c-0.02,0-0.041,0-0.062,0h-1.539
   c-0.089,0-0.174-0.035-0.236-0.098c-0.062-0.062-0.098-0.149-0.098-0.236V9.018c0-0.089,0.035-0.174,0.098-0.236
   c0.062-0.062,0.149-0.098,0.236-0.098h1.539c0.343,0,0.639,0.045,0.894,0.13c0.127,0.042,0.245,0.095,0.353,0.157
   c0.108,0.062,0.209,0.134,0.301,0.217h0.001c0.089,0.08,0.166,0.166,0.231,0.255v0.001c0.066,0.091,0.121,0.188,0.167,0.294
   c0.045,0.106,0.081,0.22,0.104,0.344c0.025,0.124,0.039,0.258,0.042,0.403C70.353,10.498,70.353,10.511,70.353,10.526z"/>
 <line class="st1" x1="89.781" y1="13.692" x2="90.115" y2="13.698"/>
 <path class="st2" d="M94.266,9.906c-0.219-0.558-0.494-1.087-0.824-1.585c-0.329-0.498-0.714-0.967-1.15-1.402
   c-0.894-0.892-1.9-1.571-3.01-2.032c-0.555-0.23-1.136-0.405-1.739-0.526c-0.605-0.12-1.234-0.186-1.887-0.197
   c-0.068-0.001-0.135-0.001-0.203-0.001c-1.263,0-2.444,0.209-3.535,0.627c-1.093,0.42-2.094,1.05-3,1.883
   c-0.466,0.429-0.878,0.895-1.232,1.396c-0.355,0.501-0.654,1.037-0.894,1.607c-0.241,0.57-0.423,1.171-0.548,1.805
   c-0.126,0.634-0.194,1.3-0.206,1.997c-0.001,0.073-0.002,0.144-0.002,0.216v0.001c0,0.668,0.054,1.31,0.164,1.924
   c0.11,0.614,0.275,1.2,0.495,1.757c0.221,0.557,0.497,1.085,0.828,1.582c0.331,0.497,0.717,0.963,1.157,1.397
   c0.899,0.887,1.907,1.565,3.018,2.023c0.556,0.229,1.137,0.403,1.743,0.523c0.605,0.12,1.233,0.185,1.886,0.196
   c0.068,0.001,0.136,0.002,0.203,0.002h0.001h0.001c1.26,0,2.44-0.209,3.531-0.629c1.09-0.419,2.09-1.049,2.991-1.883
   c0.464-0.429,0.874-0.894,1.226-1.394c0.354-0.499,0.65-1.034,0.89-1.601c0.239-0.567,0.421-1.168,0.547-1.798
   c0.125-0.631,0.193-1.293,0.204-1.986c0.002-0.073,0.002-0.144,0.002-0.216V13.59c0-0.668-0.054-1.31-0.163-1.925
   C94.65,11.051,94.487,10.464,94.266,9.906z M90.115,13.698c-0.007,0.407-0.043,0.786-0.108,1.137
   c-0.065,0.352-0.158,0.675-0.278,0.972c-0.12,0.297-0.267,0.568-0.441,0.815c-0.174,0.246-0.376,0.47-0.606,0.671h-0.001
   c-0.462,0.403-0.955,0.699-1.482,0.897c-0.263,0.099-0.536,0.174-0.818,0.224c-0.282,0.049-0.575,0.074-0.879,0.074
   c-0.032,0-0.064,0-0.095,0c-0.314-0.006-0.616-0.037-0.906-0.094c-0.289-0.058-0.568-0.141-0.837-0.248
   c-0.269-0.109-0.529-0.243-0.778-0.404c-0.246-0.159-0.483-0.343-0.712-0.554v-0.001l-0.01-0.008
   c-0.219-0.203-0.409-0.426-0.573-0.669c-0.163-0.244-0.301-0.509-0.411-0.799v-0.001c-0.11-0.289-0.194-0.602-0.251-0.941
   c-0.057-0.338-0.085-0.701-0.085-1.089c0-0.048,0-0.094,0.001-0.142c0.007-0.407,0.044-0.786,0.109-1.138
   c0.066-0.352,0.159-0.676,0.28-0.974v-0.001c0.121-0.297,0.269-0.57,0.445-0.818c0.176-0.248,0.38-0.473,0.613-0.676
   c0.466-0.406,0.962-0.707,1.491-0.906c0.264-0.1,0.538-0.175,0.82-0.225c0.284-0.051,0.576-0.076,0.879-0.076
   c0.031,0,0.06,0,0.091,0.001h0.006c0.314,0.006,0.615,0.037,0.905,0.094c0.289,0.058,0.567,0.142,0.834,0.251h0.001
   c0.267,0.109,0.524,0.244,0.773,0.406c0.247,0.162,0.487,0.351,0.717,0.567v0.001c0.217,0.204,0.406,0.429,0.568,0.674
   c0.161,0.244,0.296,0.508,0.405,0.797l0.001,0.001l0.002,0.006c0.109,0.29,0.193,0.605,0.249,0.944
   c0.056,0.339,0.084,0.702,0.084,1.091C90.116,13.602,90.116,13.65,90.115,13.698z"/>
 <path class="st2" d="M109.623,7.751c-0.262-0.562-0.631-1.103-1.103-1.627c-0.248-0.276-0.542-0.525-0.877-0.748
   c-0.335-0.224-0.711-0.42-1.129-0.594c-0.843-0.348-1.801-0.547-2.867-0.602c-0.05-0.002-0.099-0.005-0.149-0.007h-0.001
   c-0.861-0.029-1.678,0.075-2.445,0.318c-0.767,0.243-1.483,0.623-2.14,1.136c-0.339,0.264-0.642,0.55-0.905,0.86
   c-0.264,0.309-0.489,0.639-0.674,0.991c-0.185,0.352-0.329,0.724-0.432,1.114c-0.102,0.39-0.164,0.799-0.187,1.224
   c-0.002,0.036-0.003,0.074-0.005,0.109v0.001v0.001c-0.024,0.666,0.062,1.299,0.261,1.891c0.197,0.592,0.507,1.144,0.922,1.644
   c0.427,0.516,0.944,0.952,1.543,1.301h0.001c0.599,0.351,1.281,0.616,2.04,0.802h0.001h0.001l2.352,0.565l0.003,0.001
   c0.267,0.067,0.495,0.151,0.686,0.251c0.191,0.1,0.346,0.214,0.469,0.34h0.001c0.059,0.062,0.11,0.125,0.151,0.187v0.001
   c0.042,0.062,0.075,0.127,0.101,0.193l0.001,0.002c0.025,0.066,0.044,0.136,0.057,0.209c0.011,0.073,0.016,0.151,0.014,0.235
   v0.002l-0.001,0.018v0.003c-0.006,0.109-0.023,0.208-0.048,0.298s-0.061,0.176-0.105,0.253l-0.001,0.001
   c-0.044,0.077-0.1,0.153-0.167,0.222c-0.067,0.07-0.146,0.138-0.241,0.202v0.001c-0.09,0.06-0.186,0.113-0.292,0.159
   c-0.106,0.045-0.22,0.083-0.344,0.112c-0.248,0.059-0.535,0.085-0.863,0.074c-0.025,0-0.049-0.001-0.075-0.003h-0.006
   c-0.532-0.027-0.986-0.118-1.363-0.264c-0.19-0.073-0.359-0.159-0.512-0.259c-0.152-0.099-0.288-0.212-0.408-0.339h-0.001
   c-0.126-0.133-0.236-0.271-0.331-0.416v-0.001c-0.014-0.019-0.024-0.039-0.036-0.06c-0.012-0.02-0.025-0.044-0.04-0.07
   c-0.028-0.051-0.06-0.112-0.094-0.178c-0.068-0.13-0.145-0.279-0.208-0.399c-0.033-0.062-0.062-0.117-0.083-0.153
   c-0.056-0.034-0.118-0.053-0.183-0.058l-0.015,0.001c-0.023,0.001-0.056,0.003-0.099,0.007
   c-0.084,0.005-0.204,0.012-0.351,0.023c-0.292,0.019-0.685,0.045-1.101,0.073c-0.832,0.056-1.751,0.118-2.117,0.143
   c-0.072,0.005-0.12,0.008-0.146,0.01l-0.01,0.001c-0.044,0.009-0.086,0.025-0.124,0.047c-0.057,0.034-0.103,0.079-0.137,0.135
   c-0.033,0.054-0.053,0.12-0.056,0.187c0,0.011,0,0.022,0,0.033c0.015,0.293,0.042,0.49,0.085,0.66
   c0.042,0.171,0.101,0.322,0.192,0.523c0.06,0.133,0.133,0.286,0.219,0.474c0.324,0.706,0.787,1.372,1.384,1.999
   c0.306,0.321,0.648,0.606,1.023,0.854c0.375,0.247,0.783,0.458,1.223,0.632c0.882,0.347,1.888,0.546,3.017,0.606
   c0.065,0.003,0.127,0.006,0.191,0.008c0.976,0.034,1.872-0.071,2.684-0.323c0.814-0.251,1.541-0.649,2.172-1.188v-0.001
   c0.321-0.275,0.607-0.564,0.857-0.87c0.249-0.306,0.462-0.629,0.637-0.966c0.175-0.337,0.311-0.689,0.408-1.054
   c0.098-0.365,0.157-0.743,0.177-1.133c0.002-0.035,0.003-0.069,0.004-0.103v-0.001V17.47c0.024-0.661-0.067-1.297-0.273-1.896
   c-0.207-0.6-0.528-1.163-0.955-1.684h-0.001c-0.444-0.54-0.989-0.994-1.63-1.36c-0.639-0.366-1.372-0.646-2.194-0.842
   l-0.002-0.001h-0.001l-2.307-0.563l-0.001-0.001h-0.004l-0.001-0.001c-0.253-0.061-0.465-0.137-0.639-0.225l-0.002-0.001
   c-0.132-0.067-0.239-0.14-0.328-0.216V10.68c-0.066-0.057-0.121-0.118-0.167-0.179l-0.001-0.001
   c-0.044-0.061-0.083-0.128-0.111-0.197l-0.001-0.002c-0.028-0.07-0.051-0.147-0.065-0.23c-0.014-0.084-0.019-0.176-0.016-0.276
   V9.793c0-0.01,0.001-0.019,0.001-0.028V9.763c0.006-0.099,0.022-0.191,0.045-0.277l0.001-0.001
   c0.024-0.085,0.06-0.169,0.106-0.248V9.235c0.047-0.079,0.103-0.159,0.174-0.235c0.069-0.076,0.153-0.151,0.251-0.225
   c0.092-0.069,0.19-0.128,0.293-0.178c0.103-0.051,0.214-0.092,0.332-0.125c0.236-0.066,0.504-0.095,0.807-0.085
   c0.02,0.001,0.041,0.001,0.062,0.002h-0.001c0.218,0.011,0.417,0.035,0.599,0.072c0.182,0.035,0.346,0.082,0.492,0.138
   c0.148,0.058,0.277,0.125,0.39,0.201h0.001c0.037,0.026,0.07,0.052,0.103,0.078c0.031,0.026,0.061,0.053,0.087,0.077
   c0.053,0.048,0.092,0.086,0.094,0.087l0.015,0.016c0.01,0.011,0.018,0.02,0.026,0.032c0.008,0.01,0.017,0.02,0.026,0.033
   c0.018,0.024,0.039,0.052,0.062,0.085c0.048,0.066,0.107,0.15,0.17,0.244c0.126,0.185,0.267,0.404,0.372,0.6
   c0.027,0.048,0.065,0.089,0.11,0.121c0.063,0.047,0.137,0.07,0.213,0.074c0.027,0,0.054-0.001,0.084-0.007
   c0.01-0.002,0.02-0.003,0.031-0.005h0.007l3.543-0.32c0.042-0.01,0.082-0.027,0.116-0.049c0.055-0.034,0.099-0.079,0.13-0.134
   c0.031-0.054,0.05-0.117,0.052-0.181c0.001-0.02,0-0.041-0.002-0.061C110.052,8.891,109.883,8.308,109.623,7.751z"/>
 <path class="st2" d="M123.507,4.788c-0.019-0.046-0.047-0.087-0.082-0.124c-0.037-0.036-0.079-0.065-0.127-0.084
   c-0.047-0.019-0.096-0.031-0.149-0.031h0.001l-11.032-0.032h-0.009c-0.051,0.001-0.103,0.013-0.148,0.032
   c-0.07,0.031-0.127,0.078-0.169,0.141c-0.02,0.031-0.036,0.065-0.048,0.1v0.001c-0.011,0.035-0.018,0.075-0.018,0.113
   l-0.05,17.419v0.009c0,0.051,0.011,0.099,0.031,0.145c0.019,0.045,0.047,0.086,0.082,0.123c0.037,0.037,0.079,0.065,0.126,0.085
   c0.046,0.019,0.096,0.029,0.149,0.029l11.055,0.033h0.009c0.05-0.001,0.099-0.011,0.144-0.031
   c0.047-0.019,0.087-0.047,0.124-0.083c0.038-0.036,0.065-0.078,0.084-0.126c0.02-0.046,0.031-0.096,0.031-0.149l0.01-3.684
   v-0.009c0-0.051-0.011-0.103-0.032-0.148c-0.029-0.069-0.078-0.127-0.14-0.169c-0.032-0.02-0.065-0.036-0.101-0.048
   c-0.036-0.011-0.075-0.017-0.115-0.017l-6.452-0.019c-0.088,0-0.173-0.036-0.236-0.099c-0.062-0.062-0.098-0.147-0.098-0.236
   l0.006-1.898c0.001-0.087,0.036-0.174,0.099-0.235c0.062-0.062,0.149-0.098,0.236-0.098l5.761,0.017h0.001h0.009
   c0.051-0.001,0.1-0.011,0.145-0.031c0.045-0.019,0.087-0.046,0.124-0.083c0.036-0.036,0.065-0.078,0.084-0.125
   c0.019-0.048,0.029-0.096,0.031-0.149l0.009-3.414V11.91c0-0.051-0.011-0.1-0.031-0.145c-0.019-0.047-0.047-0.087-0.082-0.124
   c-0.037-0.036-0.079-0.065-0.126-0.084c-0.048-0.02-0.096-0.031-0.149-0.031l-5.765-0.017c-0.089,0-0.174-0.036-0.236-0.098
   c-0.061-0.062-0.096-0.149-0.096-0.237l0.006-1.873c0-0.087,0.035-0.174,0.098-0.235c0.062-0.062,0.149-0.098,0.236-0.098
   l6.427,0.019h0.008c0.051-0.001,0.1-0.011,0.145-0.031s0.087-0.046,0.124-0.083c0.036-0.036,0.065-0.078,0.084-0.126
   c0.019-0.047,0.029-0.096,0.031-0.149l0.01-3.658V4.942V4.94V4.934C123.536,4.882,123.526,4.834,123.507,4.788z"/>
 <path class="st0" d="M193.385,10.799c-0.159-0.239-0.344-0.459-0.557-0.66c-0.453-0.427-0.939-0.743-1.464-0.958
   c-0.525-0.213-1.092-0.328-1.709-0.338c-0.032-0.001-0.064-0.001-0.095-0.001c-0.597,0-1.15,0.099-1.67,0.295
   c-0.517,0.196-1.004,0.49-1.462,0.89c-0.001,0-0.001,0-0.001,0c0,0.001-0.001,0.001-0.001,0.002
   c-0.228,0.199-0.428,0.419-0.6,0.662c-0.172,0.244-0.318,0.51-0.436,0.802c-0.119,0.293-0.211,0.612-0.276,0.958
   c-0.064,0.346-0.1,0.72-0.107,1.122c-0.001,0.047-0.001,0.093-0.001,0.14c0,0.765,0.112,1.426,0.327,1.992
   c0,0.001,0,0.001,0.001,0.001c0,0.002,0.001,0.005,0.001,0.006c0.109,0.284,0.243,0.545,0.403,0.783
   c0.16,0.238,0.347,0.456,0.562,0.656c0.457,0.423,0.947,0.736,1.474,0.95h0.001c0.525,0.212,1.091,0.325,1.706,0.336
   c0.002,0,0.005,0.001,0.007,0.001c0.032,0,0.062,0,0.094,0c0.597,0,1.15-0.098,1.668-0.292c0.516-0.195,1.001-0.486,1.456-0.883
   c0.226-0.196,0.423-0.415,0.593-0.656c0.171-0.242,0.315-0.507,0.432-0.799c0.236-0.583,0.366-1.273,0.38-2.076
   c0.001-0.048,0.001-0.094,0.001-0.141c0-0.768-0.112-1.433-0.327-2.004C193.678,11.302,193.544,11.04,193.385,10.799z"/>
 <path class="st2" d="M196.376,6.949c-0.894-0.892-1.9-1.574-3.011-2.034h-0.001c-1.111-0.462-2.324-0.701-3.627-0.724
   c-0.068-0.001-0.135-0.002-0.203-0.002c-1.263,0.001-2.444,0.209-3.538,0.629c-1.094,0.42-2.097,1.051-3.001,1.885
   c-0.001,0-0.001,0-0.001,0c-0.466,0.43-0.878,0.896-1.233,1.398c-0.356,0.502-0.655,1.038-0.895,1.608
   c-0.241,0.571-0.423,1.173-0.549,1.809c-0.126,0.634-0.194,1.299-0.207,1.996c-0.001,0.074-0.001,0.146-0.001,0.219v0.001
   c0,0.668,0.054,1.309,0.163,1.923c0.11,0.614,0.276,1.2,0.496,1.757c0.221,0.558,0.498,1.087,0.829,1.584
   c0.332,0.497,0.718,0.963,1.158,1.397c0,0.001,0,0.001,0,0.001c0.899,0.887,1.908,1.565,3.02,2.023
   c0,0.001,0.001,0.001,0.001,0.001c1.112,0.458,2.326,0.698,3.63,0.719c0.068,0.001,0.135,0.002,0.203,0.002h0.001
   c1.262,0,2.442-0.209,3.533-0.629c1.091-0.42,2.092-1.051,2.993-1.885c0.465-0.43,0.875-0.896,1.229-1.397
   c0.354-0.5,0.651-1.035,0.891-1.603c0.239-0.568,0.422-1.169,0.547-1.799c0.125-0.632,0.193-1.293,0.205-1.986
   c0.001-0.073,0.001-0.144,0.001-0.216v-0.001v-0.001c0-1.335-0.217-2.568-0.656-3.684C197.914,8.822,197.251,7.82,196.376,6.949
   z M194.111,13.731c-0.014,0.803-0.144,1.493-0.38,2.076c-0.117,0.292-0.261,0.557-0.432,0.799
   c-0.17,0.241-0.368,0.46-0.593,0.656c-0.455,0.397-0.939,0.688-1.456,0.883c-0.517,0.194-1.071,0.292-1.668,0.292
   c-0.032,0-0.062,0-0.094,0c-0.002,0-0.005-0.001-0.007-0.001c-0.615-0.011-1.181-0.124-1.706-0.336h-0.001
   c-0.526-0.213-1.017-0.526-1.474-0.95c-0.214-0.2-0.402-0.417-0.562-0.656c-0.16-0.238-0.294-0.499-0.403-0.783
   c0-0.001-0.001-0.003-0.001-0.006c-0.001,0-0.001,0-0.001-0.001c-0.214-0.566-0.327-1.228-0.327-1.992
   c0-0.046,0-0.093,0.001-0.14c0.007-0.402,0.043-0.776,0.107-1.122c0.065-0.346,0.157-0.665,0.276-0.958
   c0.118-0.292,0.263-0.558,0.436-0.802c0.172-0.243,0.372-0.463,0.6-0.662c0-0.001,0.001-0.001,0.001-0.002c0,0,0,0,0.001,0
   c0.458-0.399,0.945-0.693,1.462-0.89c0.52-0.196,1.073-0.295,1.67-0.295c0.032,0,0.064,0,0.095,0.001
   c0.617,0.01,1.183,0.125,1.709,0.338c0.524,0.214,1.011,0.531,1.464,0.958c0.213,0.201,0.398,0.421,0.557,0.66
   c0.159,0.241,0.293,0.503,0.4,0.787c0.214,0.571,0.327,1.236,0.327,2.004C194.112,13.637,194.112,13.684,194.111,13.731z"/>
 <polygon class="st2" points="200.663,4.755 200.664,4.754 200.664,4.753 				"/>
 <path class="st2" d="M212.517,4.686c-0.042-0.043-0.091-0.075-0.144-0.096c-0.054-0.023-0.111-0.034-0.17-0.034h-11.165h-0.003
   h-0.008c-0.06,0.001-0.119,0.015-0.17,0.036c-0.079,0.035-0.144,0.09-0.192,0.161c-0.024,0.036-0.043,0.075-0.056,0.116V4.87
   c-0.012,0.041-0.019,0.085-0.019,0.131v17.327v0.007c0.001,0.06,0.015,0.119,0.037,0.17c0.034,0.079,0.09,0.145,0.161,0.193
   c0.035,0.023,0.074,0.042,0.116,0.054c0.041,0.013,0.086,0.02,0.131,0.019h3.885h0.008c0.059-0.001,0.114-0.012,0.167-0.035
   c0.052-0.022,0.099-0.053,0.141-0.094c0.042-0.043,0.074-0.091,0.096-0.145c0.021-0.053,0.034-0.11,0.034-0.17v-5.681
   c0-0.092,0.037-0.182,0.102-0.247c0.066-0.066,0.156-0.103,0.249-0.103l5.606,0.001l0.009-0.001
   c0.058-0.001,0.113-0.013,0.166-0.035c0.052-0.022,0.1-0.053,0.141-0.094c0.043-0.043,0.075-0.091,0.096-0.145
   c0.023-0.053,0.034-0.11,0.034-0.17v-3.517v-0.009c-0.001-0.06-0.015-0.119-0.038-0.17c-0.034-0.079-0.09-0.145-0.161-0.193
   c-0.035-0.023-0.074-0.042-0.115-0.054h-0.001c-0.041-0.013-0.085-0.02-0.13-0.019h-5.632c-0.092,0-0.183-0.037-0.247-0.103
   c-0.066-0.065-0.103-0.155-0.103-0.247V9.462c0-0.093,0.037-0.183,0.103-0.248c0.065-0.065,0.155-0.102,0.247-0.102h6.509h0.003
   h0.008c0.059-0.001,0.118-0.015,0.17-0.038c0.079-0.035,0.144-0.091,0.192-0.161c0.024-0.035,0.042-0.074,0.054-0.116
   c0.014-0.041,0.021-0.086,0.021-0.131V5.002V4.993c-0.001-0.058-0.014-0.113-0.036-0.166
   C212.59,4.775,212.558,4.727,212.517,4.686z"/>
 <path class="st2" d="M226.009,4.63c-0.035-0.024-0.074-0.042-0.116-0.056c-0.041-0.013-0.085-0.019-0.131-0.019h-11.165h-0.002
   h-0.008c-0.06,0.001-0.119,0.015-0.17,0.037c-0.079,0.035-0.145,0.09-0.193,0.161c-0.023,0.035-0.042,0.074-0.054,0.116
   c-0.012,0.041-0.019,0.086-0.019,0.13v17.325v0.01c0.001,0.059,0.014,0.119,0.036,0.17c0.035,0.079,0.091,0.144,0.161,0.192
   c0.035,0.024,0.075,0.042,0.116,0.056h0.001c0.041,0.013,0.085,0.019,0.13,0.019h3.884h0.009
   c0.059-0.001,0.113-0.014,0.166-0.035c0.053-0.023,0.1-0.053,0.142-0.095c0.042-0.042,0.074-0.091,0.096-0.144
   c0.022-0.055,0.033-0.111,0.034-0.17v-5.681c0-0.092,0.037-0.183,0.102-0.248c0.066-0.065,0.155-0.102,0.248-0.102h5.606h0.009
   c0.058-0.001,0.113-0.014,0.166-0.035c0.052-0.023,0.1-0.054,0.141-0.095c0.042-0.042,0.074-0.091,0.096-0.144
   c0.023-0.054,0.034-0.11,0.034-0.17v-3.517v-0.01c-0.001-0.06-0.015-0.119-0.037-0.17c-0.035-0.079-0.09-0.144-0.161-0.192
   c-0.035-0.024-0.074-0.042-0.116-0.056c-0.041-0.013-0.086-0.019-0.13-0.019h-5.632c-0.092,0-0.183-0.037-0.247-0.102
   c-0.066-0.066-0.103-0.157-0.103-0.248V9.461c0-0.092,0.037-0.183,0.103-0.247c0.065-0.066,0.156-0.103,0.247-0.103h6.51h0.009
   c0.058-0.001,0.113-0.013,0.166-0.035c0.052-0.023,0.1-0.053,0.141-0.094c0.043-0.043,0.075-0.091,0.096-0.145
   c0.023-0.053,0.034-0.11,0.034-0.17V5.002v-0.01c-0.001-0.059-0.015-0.119-0.036-0.17C226.137,4.743,226.081,4.678,226.009,4.63 z"/>
 <path class="st2" d="M239.399,18.291h0.001c-0.036-0.024-0.075-0.042-0.117-0.055c-0.041-0.014-0.085-0.02-0.13-0.02h-6.34
   c-0.093,0-0.183-0.037-0.248-0.102c-0.065-0.066-0.102-0.155-0.102-0.248v-1.733c0-0.092,0.037-0.183,0.102-0.247
   c0.066-0.066,0.155-0.103,0.248-0.103h5.656h0.008c0.058-0.001,0.113-0.014,0.166-0.035c0.052-0.023,0.1-0.053,0.141-0.095
   c0.043-0.042,0.074-0.091,0.097-0.144c0.023-0.053,0.034-0.11,0.034-0.17v-3.395v-0.01c-0.001-0.06-0.015-0.119-0.037-0.17
   c-0.034-0.079-0.09-0.144-0.161-0.192c-0.035-0.024-0.074-0.043-0.116-0.056c-0.041-0.013-0.085-0.019-0.13-0.019h-5.656
   c-0.093,0-0.183-0.037-0.248-0.103c-0.065-0.065-0.102-0.155-0.102-0.247V9.437c0-0.092,0.037-0.183,0.102-0.247
   c0.066-0.066,0.155-0.103,0.248-0.103h6.314h0.009c0.059-0.001,0.114-0.013,0.167-0.035c0.052-0.022,0.099-0.053,0.141-0.094
   c0.042-0.043,0.074-0.091,0.096-0.145c0.022-0.053,0.034-0.11,0.034-0.17v-3.64V4.993c-0.001-0.058-0.014-0.113-0.036-0.166
   c-0.021-0.052-0.053-0.1-0.094-0.141c-0.043-0.043-0.091-0.075-0.144-0.096c-0.054-0.023-0.111-0.034-0.17-0.034h-10.971h-0.01
   c-0.059,0.001-0.118,0.015-0.17,0.036c-0.079,0.035-0.144,0.091-0.192,0.162V4.753c-0.024,0.035-0.042,0.075-0.056,0.117
   c-0.013,0.041-0.019,0.085-0.019,0.131v17.325v0.01c0.001,0.059,0.015,0.118,0.037,0.169c0.035,0.079,0.091,0.145,0.161,0.193
   c0.035,0.023,0.074,0.042,0.116,0.054c0.041,0.013,0.086,0.02,0.131,0.019h10.998h0.008c0.058-0.001,0.113-0.012,0.166-0.035
   c0.052-0.022,0.1-0.053,0.141-0.094c0.043-0.043,0.075-0.091,0.096-0.145c0.023-0.053,0.034-0.11,0.034-0.17v-3.664v-0.01
   c-0.001-0.059-0.015-0.118-0.036-0.17C239.526,18.404,239.47,18.339,239.399,18.291z"/>
 <path class="st2" d="M252.999,18.663v-0.01c-0.001-0.059-0.014-0.118-0.036-0.169c-0.035-0.079-0.091-0.145-0.161-0.193
   c-0.035-0.023-0.075-0.042-0.116-0.055c-0.042-0.012-0.086-0.02-0.132-0.02h-6.34c-0.092,0-0.183-0.036-0.249-0.102
   c-0.065-0.066-0.102-0.155-0.102-0.247v-1.734c0-0.092,0.037-0.183,0.102-0.247c0.066-0.066,0.157-0.103,0.249-0.103h5.656
   h0.008c0.058-0.001,0.113-0.012,0.166-0.035c0.053-0.023,0.1-0.053,0.142-0.095c0.042-0.042,0.074-0.09,0.095-0.144
   c0.023-0.053,0.034-0.11,0.034-0.17v-3.395v-0.01c-0.001-0.06-0.014-0.119-0.036-0.17c-0.035-0.079-0.091-0.144-0.161-0.192
   c-0.035-0.024-0.075-0.042-0.116-0.056c-0.042-0.013-0.086-0.019-0.131-0.019h-5.656c-0.092,0-0.183-0.037-0.249-0.102
   c-0.065-0.066-0.102-0.155-0.102-0.248V9.437c0-0.092,0.037-0.182,0.102-0.247c0.066-0.066,0.157-0.102,0.249-0.103l6.315,0.001
   l0.009-0.001c0.058-0.001,0.113-0.013,0.166-0.035c0.052-0.022,0.1-0.053,0.141-0.094c0.042-0.043,0.074-0.091,0.096-0.145
   c0.023-0.053,0.034-0.11,0.034-0.17V5.003v-0.01c-0.001-0.058-0.014-0.113-0.035-0.166c-0.023-0.052-0.053-0.1-0.095-0.141
   c-0.042-0.042-0.091-0.074-0.144-0.097c-0.055-0.023-0.111-0.034-0.17-0.034h-10.971h-0.009
   c-0.058,0.001-0.113,0.014-0.166,0.035c-0.053,0.023-0.1,0.053-0.142,0.095c-0.042,0.042-0.074,0.091-0.096,0.144
   c-0.022,0.053-0.033,0.11-0.033,0.17v17.325v0.01c0.001,0.059,0.014,0.118,0.036,0.17c0.035,0.079,0.091,0.144,0.161,0.192
   c0.035,0.024,0.075,0.042,0.116,0.054c0.042,0.014,0.086,0.02,0.132,0.02h10.996h0.001h0.007
   c0.059-0.001,0.113-0.014,0.166-0.036c0.053-0.022,0.1-0.053,0.142-0.094c0.042-0.043,0.074-0.091,0.096-0.144
   c0.021-0.054,0.033-0.111,0.034-0.171L252.999,18.663z"/>
 <path class="st2" d="M178.951,10.76c-0.052-0.294-0.117-0.567-0.219-0.826c-0.22-0.558-0.495-1.087-0.825-1.586
   c-0.329-0.498-0.714-0.966-1.152-1.402c-0.895-0.892-1.902-1.574-3.012-2.034c0,0,0,0-0.001,0
   c-0.555-0.23-1.136-0.406-1.74-0.526c-0.606-0.12-1.235-0.186-1.889-0.197c-0.068-0.001-0.135-0.002-0.203-0.002h-0.001
   c-1.263,0.001-2.445,0.209-3.539,0.629c-1.094,0.42-2.097,1.051-3.002,1.884V6.7c-0.468,0.429-0.879,0.895-1.234,1.397
   c-0.355,0.502-0.653,1.038-0.894,1.608c-0.24,0.569-0.423,1.173-0.549,1.807c-0.126,0.635-0.194,1.302-0.207,1.999
   c-0.001,0.073-0.002,0.145-0.002,0.217c0,0.671,0.054,1.313,0.164,1.928c0.11,0.615,0.275,1.202,0.496,1.759
   c0.221,0.558,0.497,1.086,0.829,1.584c0.331,0.497,0.717,0.963,1.157,1.398c0.9,0.888,1.91,1.566,3.021,2.024
   c0.557,0.229,1.138,0.404,1.744,0.524c0.606,0.12,1.236,0.185,1.889,0.196c0.068,0.001,0.135,0.002,0.203,0.002h0.001
   c1.264,0,2.445-0.209,3.535-0.629c1.093-0.42,2.092-1.051,2.994-1.886c0.465-0.43,0.875-0.895,1.229-1.396
   c0.353-0.5,0.65-1.035,0.889-1.603c0.112-0.264,0.185-0.543,0.246-0.844c0.062-0.3,0.111-0.618,0.177-0.955
   c0.013-0.064,0.025-0.128,0.036-0.193l0.001-0.008c0-0.011-0.005-0.02-0.013-0.029c-0.009-0.008-0.015-0.011-0.028-0.011h-4.715
   c-0.018,0-0.033,0.011-0.039,0.026c-0.027,0.082-0.057,0.161-0.089,0.239c-0.12,0.298-0.269,0.572-0.444,0.82
   c-0.176,0.247-0.379,0.472-0.612,0.675c-0.465,0.405-0.961,0.703-1.491,0.903c-0.266,0.099-0.539,0.174-0.824,0.224
   c-0.284,0.05-0.579,0.076-0.884,0.076c-0.032,0-0.064-0.001-0.096-0.001c-0.315-0.006-0.618-0.037-0.911-0.095
   c-0.292-0.057-0.573-0.141-0.843-0.25h-0.001c-0.27-0.109-0.53-0.244-0.782-0.406c-0.251-0.161-0.494-0.349-0.727-0.566
   l-0.001-0.001l-0.001-0.001l-0.001-0.001l-0.001-0.001c0,0,0-0.001-0.001-0.001c-0.218-0.203-0.407-0.424-0.571-0.668
   c-0.165-0.245-0.303-0.513-0.414-0.803c-0.111-0.29-0.195-0.606-0.252-0.945c-0.057-0.34-0.085-0.705-0.085-1.095
   c0-0.049,0-0.098,0.001-0.146c0.007-0.408,0.043-0.79,0.109-1.142c0.066-0.354,0.16-0.68,0.281-0.98
   c0.123-0.3,0.271-0.574,0.448-0.824c0.177-0.25,0.382-0.477,0.617-0.681c0.469-0.41,0.968-0.711,1.5-0.912
   c0.267-0.101,0.541-0.176,0.826-0.227c0.284-0.05,0.579-0.076,0.884-0.076c0.032,0,0.065,0.001,0.096,0.001c0,0,0,0,0.001,0
   c0.315,0.006,0.618,0.038,0.91,0.095c0.29,0.058,0.571,0.142,0.84,0.252c0.269,0.11,0.529,0.246,0.778,0.41
   c0.25,0.162,0.49,0.353,0.72,0.571h0.001c0.218,0.207,0.408,0.432,0.572,0.68c0.163,0.246,0.301,0.515,0.411,0.808
   c0.022,0.058,0.042,0.116,0.062,0.175c0.005,0.015,0.019,0.027,0.038,0.027h4.696c0.014-0.001,0.02-0.005,0.03-0.012
   c0.008-0.008,0.011-0.018,0.011-0.027v-0.007l-0.001-0.005C179.043,11.365,179.004,11.053,178.951,10.76z"/>
 <polygon class="st2" points="155.209,16.634 155.211,16.623 155.209,16.634"/>
 <path class="st1" d="M133.624,9.696c0.008,0.001,0.015,0.002,0.023,0.003"/>
 <path class="st0" d="M140.715,3.258c-0.01-0.027-0.031-0.05-0.058-0.062c-0.014-0.007-0.03-0.01-0.046-0.01
   c-0.013,0-0.026,0.002-0.038,0.007l-0.963,0.359c-0.043,0.016-0.071,0.056-0.072,0.102l-0.025,2.152l-1.469-1.597
   c-0.021-0.023-0.051-0.036-0.081-0.036c-0.013,0-0.026,0.002-0.039,0.007l-0.914,0.341c-0.027,0.01-0.05,0.031-0.062,0.057
   c-0.007,0.014-0.01,0.03-0.01,0.046c0,0.013,0.002,0.026,0.007,0.038l1.173,3.145c0.01,0.027,0.031,0.05,0.058,0.062
   c0.014,0.007,0.03,0.01,0.046,0.01c0.013,0,0.026-0.002,0.039-0.007l0.665-0.248c0.027-0.01,0.05-0.031,0.062-0.058
   c0.007-0.014,0.01-0.03,0.01-0.046c0-0.013-0.002-0.026-0.007-0.038l-0.567-1.52l1.202,1.326
   c0.022,0.024,0.051,0.036,0.082,0.036c0.013,0,0.026-0.002,0.039-0.007l0.568-0.212c0.042-0.016,0.071-0.056,0.072-0.101
   l0.033-1.809l0.574,1.54c0.01,0.027,0.031,0.05,0.058,0.062c0.014,0.006,0.03,0.01,0.046,0.01c0.013,0,0.026-0.002,0.038-0.007
   l0.687-0.256c0.027-0.01,0.05-0.031,0.062-0.058c0.006-0.014,0.01-0.03,0.01-0.046c0-0.013-0.002-0.026-0.007-0.038
   L140.715,3.258z"/>
 <path class="st0" d="M135.226,18.511h-0.003c-0.122,0-0.242,0.012-0.359,0.037c-0.118,0.025-0.234,0.062-0.347,0.112
   c-0.113,0.05-0.222,0.112-0.329,0.186c-0.106,0.074-0.209,0.16-0.309,0.258c-0.01,0.01-0.02,0.02-0.03,0.03v0l0,0
   c-0.094,0.096-0.177,0.194-0.249,0.297c-0.072,0.102-0.133,0.208-0.182,0.317c-0.049,0.109-0.087,0.221-0.112,0.336
   c-0.026,0.115-0.04,0.232-0.042,0.353c0,0.013,0,0.026,0,0.04c0,0.23,0.04,0.447,0.119,0.647
   c0.042,0.106,0.095,0.207,0.159,0.304c0.064,0.097,0.139,0.189,0.224,0.276c0.009,0.009,0.018,0.018,0.027,0.027l0,0
   c0.168,0.166,0.355,0.291,0.56,0.375c0.204,0.083,0.426,0.125,0.662,0.125h0.003c0.123,0,0.243-0.013,0.361-0.037
   c0.118-0.025,0.233-0.062,0.345-0.112v0c0.022-0.01,0.044-0.021,0.065-0.033c0.005-0.003,0.01-0.006,0.016-0.009
   c0.021-0.012,0.041-0.025,0.062-0.039c0.001-0.001,0.003-0.002,0.005-0.003c0.013-0.009,0.027-0.018,0.04-0.028
   c0.001,0,0.001-0.001,0.002-0.002c0.05-0.037,0.055-0.11,0.01-0.154c0,0,0,0,0,0l-0.537-0.518
   c-0.036-0.034-0.087-0.045-0.134-0.031c-0.014,0.004-0.029,0.008-0.043,0.011c-0.049,0.01-0.099,0.016-0.149,0.016
   c-0.007,0-0.014,0-0.021,0h0c-0.116-0.003-0.221-0.025-0.317-0.066c-0.048-0.02-0.094-0.045-0.138-0.074
   c-0.044-0.03-0.086-0.064-0.125-0.103c-0.004-0.004-0.008-0.008-0.012-0.012c-0.04-0.041-0.076-0.085-0.106-0.13
   c-0.03-0.045-0.055-0.093-0.075-0.143c-0.02-0.05-0.036-0.102-0.046-0.156s-0.016-0.112-0.017-0.172c0-0.003,0-0.006,0-0.009
   c0-0.053,0.006-0.105,0.017-0.157c0.012-0.054,0.03-0.108,0.055-0.162v0c0.025-0.054,0.057-0.108,0.096-0.162
   c0.039-0.054,0.085-0.108,0.138-0.163c0.007-0.007,0.013-0.013,0.02-0.02c0.057-0.056,0.114-0.104,0.17-0.144
   c0.057-0.041,0.113-0.073,0.169-0.099c0.056-0.026,0.112-0.044,0.169-0.056c0.05-0.01,0.1-0.016,0.15-0.016
   c0.007,0,0.014,0,0.021,0c0.117,0.003,0.223,0.025,0.319,0.065h0c0.048,0.02,0.094,0.045,0.138,0.074
   c0.044,0.029,0.086,0.064,0.125,0.103c0.004,0.004,0.008,0.008,0.012,0.013l0,0l0,0c0.033,0.034,0.062,0.069,0.089,0.106
   l0.092,0.167c0,0,0,0,0,0l0,0l0,0c0.02,0.049,0.035,0.101,0.045,0.155c0.01,0.054,0.015,0.112,0.016,0.171v0.003
   c0,0.055-0.006,0.109-0.018,0.163c-0.002,0.011-0.005,0.021-0.008,0.032c-0.013,0.047,0.002,0.098,0.037,0.132l0.536,0.511h0
   c0.044,0.042,0.116,0.035,0.152-0.014c0-0.001,0.001-0.001,0.002-0.002c0.001-0.002,0.003-0.004,0.004-0.006
   c0.009-0.013,0.017-0.027,0.025-0.04c0.004-0.007,0.009-0.014,0.013-0.021c0.012-0.021,0.023-0.041,0.032-0.063
   c0.049-0.109,0.087-0.221,0.113-0.336c0.026-0.115,0.041-0.232,0.043-0.352c0-0.016,0.001-0.033,0.001-0.049
   c0-0.227-0.039-0.44-0.117-0.638c-0.042-0.106-0.095-0.207-0.158-0.304c-0.064-0.097-0.139-0.189-0.224-0.276
   c-0.009-0.009-0.018-0.018-0.027-0.027l0,0c-0.168-0.166-0.355-0.292-0.56-0.376C135.687,18.554,135.464,18.512,135.226,18.511 z"/>
 <path class="st0" d="M144.673,3.383L144.673,3.383c-0.115-0.113-0.25-0.2-0.401-0.258c-0.151-0.058-0.318-0.088-0.5-0.091
   l-1.264-0.021h-0.002c-0.028,0-0.057,0.011-0.077,0.031c-0.021,0.02-0.033,0.049-0.034,0.078l-0.057,3.356V6.48
   c0,0.028,0.011,0.057,0.031,0.077c0.02,0.021,0.049,0.033,0.077,0.034l0.748,0.013h0.002c0.028,0,0.057-0.011,0.077-0.031
   c0.021-0.02,0.033-0.049,0.034-0.077l0.018-1.097l0.406,0.007c0.01,0,0.021,0,0.031,0h0c0.174,0,0.336-0.025,0.484-0.077
   c0.148-0.052,0.281-0.131,0.396-0.235h0c0.119-0.107,0.211-0.234,0.273-0.377l0,0c0.062-0.143,0.093-0.302,0.096-0.474
   c0-0.008,0-0.017,0-0.025v0v0v0c0-0.163-0.028-0.316-0.085-0.456C144.871,3.619,144.785,3.493,144.673,3.383z M144.126,4.228
   c-0.001,0.061-0.011,0.107-0.028,0.145c-0.017,0.038-0.04,0.07-0.076,0.101c-0.036,0.031-0.075,0.053-0.124,0.07
   c-0.048,0.016-0.106,0.026-0.176,0.027c-0.005,0-0.009,0-0.013,0h0l-0.359-0.003l0.006-0.7l0.359,0.003
   c0.076,0.001,0.138,0.011,0.188,0.029c0.051,0.018,0.09,0.041,0.125,0.072c0.033,0.03,0.055,0.062,0.071,0.1
   c0.016,0.038,0.026,0.085,0.026,0.146C144.126,4.222,144.126,4.225,144.126,4.228z"/>
 <path class="st0" d="M148.395,20.059l2.689,2.008c0.019,0.014,0.043,0.022,0.066,0.022c0.005,0,0.01,0,0.016-0.001
   c0.028-0.004,0.055-0.02,0.073-0.043l1.274-1.707c0.014-0.019,0.022-0.043,0.022-0.066c0-0.005,0-0.01-0.001-0.016
   c-0.004-0.028-0.02-0.055-0.043-0.073l-0.569-0.425c-0.019-0.014-0.043-0.022-0.066-0.022c-0.005,0-0.01,0-0.016,0.001
   c-0.029,0.004-0.055,0.02-0.073,0.043l-0.761,1.019l-0.339-0.253l0.682-0.913c0.014-0.019,0.022-0.043,0.022-0.066
   c0-0.005,0-0.01-0.001-0.015c-0.004-0.029-0.02-0.055-0.043-0.073l-0.527-0.394c-0.019-0.014-0.043-0.022-0.066-0.022
   c-0.005,0-0.01,0-0.015,0.001c-0.028,0.004-0.055,0.02-0.073,0.043l-0.682,0.913l-0.335-0.25l0.758-1.015
   c0.014-0.019,0.022-0.043,0.022-0.066c0-0.005,0-0.01-0.001-0.016c-0.004-0.029-0.02-0.056-0.043-0.073l-0.565-0.422
   c-0.019-0.014-0.043-0.022-0.066-0.022c-0.005,0-0.01,0-0.016,0.001c-0.028,0.004-0.055,0.02-0.073,0.043l-1.272,1.703
   c-0.014,0.019-0.022,0.043-0.022,0.066c0,0.005,0,0.01,0.001,0.016C148.356,20.015,148.372,20.042,148.395,20.059z"/>
 <path class="st0" d="M137.377,7.306c-0.107-0.217-0.263-0.417-0.464-0.598c-0.183-0.165-0.378-0.29-0.583-0.374
   c-0.205-0.084-0.42-0.126-0.643-0.126h-0.001c-0.044,0-0.089,0.002-0.134,0.005c-0.247,0.018-0.478,0.08-0.689,0.185
   c-0.211,0.106-0.403,0.255-0.573,0.445c-0.163,0.182-0.288,0.379-0.371,0.59c-0.083,0.211-0.124,0.435-0.124,0.67v0.001
   c0,0.02,0,0.041,0.001,0.061v0c0.007,0.249,0.065,0.485,0.172,0.703c0.107,0.218,0.264,0.419,0.466,0.601
   c0.182,0.163,0.375,0.288,0.579,0.372c0.203,0.083,0.418,0.126,0.639,0.126h0.001c0.047,0,0.095-0.002,0.142-0.005
   c0.247-0.019,0.477-0.082,0.689-0.188c0.211-0.106,0.403-0.255,0.573-0.445c0.163-0.181,0.287-0.378,0.37-0.588
   c0.083-0.21,0.124-0.433,0.124-0.667V8.071c0-0.022,0-0.043-0.001-0.065C137.542,7.758,137.484,7.523,137.377,7.306z
    M136.567,8.083v0.002c0,0.117-0.019,0.222-0.057,0.32c-0.037,0.098-0.094,0.189-0.172,0.276
   c-0.078,0.087-0.163,0.153-0.258,0.201s-0.198,0.079-0.316,0.092c-0.025,0.003-0.05,0.004-0.075,0.004
   c-0.096,0-0.19-0.02-0.287-0.062c-0.097-0.042-0.198-0.108-0.3-0.2c-0.116-0.104-0.198-0.209-0.251-0.313
   c-0.027-0.052-0.046-0.104-0.059-0.157c-0.013-0.053-0.02-0.107-0.02-0.162v0V8.081c0-0.118,0.019-0.224,0.057-0.323
   c0.038-0.099,0.094-0.19,0.171-0.277c0.078-0.087,0.163-0.152,0.257-0.2c0.094-0.048,0.198-0.078,0.315-0.09
   c0.024-0.002,0.047-0.004,0.071-0.004c0.097,0,0.191,0.02,0.29,0.063c0.098,0.043,0.199,0.109,0.303,0.202
   c0.116,0.104,0.198,0.209,0.251,0.312c0.026,0.052,0.046,0.104,0.059,0.156C136.56,7.975,136.567,8.028,136.567,8.083
   L136.567,8.083z"/>
 <path class="st0" d="M133.633,13.525c0.115,0,0.228-0.011,0.34-0.034c0.118-0.024,0.234-0.061,0.348-0.109
   c0.233-0.1,0.435-0.236,0.605-0.408l0,0c0.085-0.086,0.161-0.181,0.229-0.284c0.068-0.103,0.128-0.215,0.179-0.336
   c0.005-0.013,0.01-0.025,0.016-0.038v0c0.095-0.234,0.146-0.469,0.151-0.704c0-0.012,0-0.023,0-0.035
   c0-0.223-0.042-0.445-0.124-0.664v0c-0.045-0.119-0.1-0.23-0.166-0.334c-0.066-0.104-0.143-0.199-0.231-0.287
   c-0.018-0.018-0.038-0.036-0.058-0.052c-0.007-0.005-0.014-0.01-0.021-0.015c-0.014-0.011-0.028-0.022-0.043-0.032c0,0,0,0,0,0
   c0,0,0,0,0,0c-0.071-0.049-0.168-0.02-0.201,0.059l-0.306,0.731c-0.014,0.034-0.009,0.073,0.014,0.102
   c0.001,0.001,0.001,0.002,0.002,0.002c0.014,0.018,0.028,0.036,0.04,0.055c0.032,0.049,0.057,0.102,0.076,0.158v0
   c0.036,0.105,0.054,0.208,0.054,0.31c0,0.008,0,0.016,0,0.024c-0.001,0.055-0.008,0.109-0.02,0.164
   c-0.012,0.055-0.029,0.109-0.051,0.164c-0.002,0.006-0.005,0.011-0.007,0.017c-0.024,0.056-0.052,0.109-0.084,0.157
   c-0.032,0.048-0.067,0.092-0.106,0.133c-0.039,0.041-0.083,0.077-0.13,0.111c-0.047,0.033-0.099,0.063-0.155,0.089h0
   c-0.052,0.025-0.106,0.042-0.162,0.054c-0.05,0.01-0.102,0.016-0.156,0.016c-0.006,0-0.012,0-0.018,0
   c-0.06-0.001-0.123-0.009-0.188-0.024c-0.065-0.015-0.133-0.036-0.204-0.065c-0.009-0.004-0.018-0.007-0.026-0.011
   c-0.073-0.031-0.14-0.066-0.198-0.104c-0.059-0.038-0.111-0.078-0.155-0.122c-0.045-0.044-0.083-0.09-0.115-0.14
   c-0.032-0.05-0.057-0.103-0.077-0.159v0c-0.037-0.107-0.054-0.211-0.054-0.314c0-0.007,0-0.015,0-0.022
   c0.001-0.055,0.008-0.11,0.02-0.164c0.012-0.055,0.029-0.109,0.051-0.164c0.002-0.006,0.005-0.012,0.007-0.017l0,0l0,0
   c0.024-0.056,0.052-0.108,0.084-0.156c0.012-0.018,0.025-0.035,0.038-0.052h-0.01l0.079-0.081h0c0,0,0,0,0,0
   c0.039-0.04,0.082-0.076,0.13-0.109c0.048-0.033,0.099-0.062,0.156-0.088c0.053-0.024,0.107-0.042,0.163-0.053
   c0.017-0.003,0.033-0.006,0.05-0.008c0.037-0.004,0.068-0.028,0.082-0.062l0.188-0.455l0.115-0.278
   c0.032-0.078-0.015-0.167-0.097-0.183c-0.001,0-0.002-0.001-0.003-0.001c-0.011-0.002-0.022-0.003-0.033-0.005
   c-0.007-0.001-0.015-0.002-0.023-0.003c-0.022-0.002-0.044-0.004-0.065-0.004c-0.007,0-0.014,0-0.021,0
   c-0.113,0-0.226,0.011-0.337,0.033c-0.118,0.024-0.234,0.06-0.348,0.108c-0.233,0.099-0.436,0.234-0.606,0.406
   c-0.085,0.086-0.161,0.181-0.23,0.284c-0.068,0.103-0.128,0.215-0.179,0.336c-0.005,0.012-0.011,0.025-0.016,0.037l0,0
   c-0.095,0.234-0.146,0.47-0.151,0.705h0l0,0c0,0.012,0,0.024,0,0.037c0,0.223,0.042,0.445,0.123,0.664
   c0.044,0.119,0.1,0.231,0.166,0.335c0.066,0.104,0.144,0.2,0.231,0.288c0.088,0.088,0.186,0.168,0.294,0.239
   c0.108,0.071,0.227,0.134,0.355,0.189c0.013,0.006,0.026,0.011,0.039,0.016l0.001,0c0.124,0.05,0.247,0.089,0.37,0.115
   c0.122,0.026,0.244,0.04,0.365,0.041C133.622,13.525,133.628,13.525,133.633,13.525z"/>
 <path class="st0" d="M140.284,25.587l0.746,0.097c0.005,0.001,0.009,0.001,0.014,0.001c0.024,0,0.049-0.008,0.068-0.023
   c0.023-0.017,0.038-0.045,0.042-0.073l0.147-1.135l1.12,0.145c0.005,0.001,0.009,0.001,0.014,0.001
   c0.024,0,0.049-0.008,0.068-0.023c0.023-0.018,0.039-0.045,0.042-0.073l0.088-0.676c0.001-0.005,0.001-0.009,0.001-0.014
   c0-0.024-0.008-0.049-0.023-0.068c-0.017-0.023-0.045-0.039-0.073-0.042l-1.125-0.146l0.063-0.485l1.294,0.168
   c0.005,0.001,0.009,0.001,0.014,0.001c0.024,0,0.049-0.008,0.068-0.023c0.023-0.018,0.038-0.045,0.042-0.073l0.091-0.704
   c0.001-0.005,0.001-0.009,0.001-0.014c0-0.024-0.008-0.049-0.023-0.068c-0.018-0.023-0.045-0.039-0.073-0.042l-2.145-0.278
   c-0.005-0.001-0.009-0.001-0.014-0.001c-0.024,0-0.049,0.008-0.068,0.023c-0.023,0.018-0.038,0.045-0.042,0.073l-0.431,3.328
   c-0.001,0.005-0.001,0.009-0.001,0.014c0,0.024,0.008,0.049,0.023,0.068C140.228,25.568,140.255,25.583,140.284,25.587z"/>
 <path class="st0" d="M136.397,22.484c-0.04,0.149-0.06,0.299-0.06,0.447v0v0c0,0.183,0.031,0.366,0.091,0.546
   c0.079,0.235,0.195,0.443,0.35,0.622c0.154,0.179,0.346,0.328,0.571,0.447c0.144,0.076,0.29,0.134,0.438,0.172
   c0.148,0.039,0.297,0.058,0.448,0.058h0h0c0.171,0,0.343-0.025,0.515-0.074c0.239-0.068,0.453-0.181,0.637-0.338
   c0.185-0.157,0.34-0.356,0.467-0.596c0.079-0.149,0.138-0.298,0.178-0.448c0.04-0.15,0.06-0.3,0.06-0.45v0v0
   c0-0.182-0.03-0.363-0.089-0.542c-0.077-0.235-0.194-0.444-0.347-0.623c-0.154-0.179-0.345-0.329-0.571-0.448
   c-0.145-0.076-0.291-0.134-0.44-0.173c-0.148-0.039-0.299-0.058-0.45-0.058h0h0h0c-0.17,0-0.341,0.025-0.512,0.073
   c-0.24,0.068-0.454,0.181-0.64,0.338c-0.186,0.157-0.342,0.358-0.469,0.599C136.496,22.186,136.436,22.335,136.397,22.484z
   M137.404,22.757c0.021-0.074,0.052-0.153,0.096-0.236c0.069-0.131,0.147-0.232,0.231-0.305
   c0.042-0.037,0.086-0.067,0.132-0.091c0.046-0.024,0.094-0.043,0.146-0.056c0.076-0.019,0.15-0.029,0.221-0.029
   c0.067,0,0.132,0.008,0.197,0.025c0.065,0.017,0.129,0.041,0.193,0.075c0.099,0.052,0.179,0.116,0.245,0.192
   c0.066,0.076,0.118,0.165,0.156,0.271c0.026,0.073,0.039,0.146,0.039,0.224c0,0.067-0.01,0.138-0.031,0.213
   c-0.021,0.075-0.053,0.154-0.097,0.238c-0.069,0.132-0.147,0.232-0.231,0.305c-0.042,0.037-0.085,0.067-0.131,0.091
   c-0.046,0.024-0.093,0.043-0.144,0.055c-0.075,0.019-0.147,0.028-0.217,0.028c-0.067,0-0.132-0.008-0.197-0.025
   c-0.065-0.017-0.129-0.042-0.194-0.076c-0.099-0.052-0.18-0.116-0.246-0.192c-0.067-0.076-0.119-0.165-0.159-0.271
   c-0.027-0.073-0.041-0.148-0.041-0.226C137.374,22.901,137.383,22.831,137.404,22.757z"/>
 <path class="st0" d="M147.884,24.503c0.016,0.024,0.041,0.042,0.069,0.048c0.008,0.002,0.015,0.002,0.023,0.002
   c0.021,0,0.042-0.006,0.06-0.017l1.792-1.152c0.024-0.016,0.042-0.041,0.048-0.069c0.002-0.008,0.002-0.015,0.002-0.023
   c0-0.021-0.006-0.042-0.017-0.06l-0.384-0.597c-0.016-0.024-0.041-0.042-0.069-0.048c-0.008-0.002-0.015-0.003-0.023-0.003
   c-0.021,0-0.042,0.006-0.06,0.018l-1.07,0.688l-0.229-0.356l0.958-0.616c0.024-0.015,0.042-0.041,0.048-0.069
   c0.002-0.008,0.003-0.015,0.003-0.023c0-0.021-0.006-0.042-0.017-0.06l-0.356-0.553c-0.021-0.033-0.056-0.051-0.093-0.051
   c-0.02,0-0.041,0.006-0.06,0.018l-0.958,0.616l-0.226-0.352l1.066-0.685c0.024-0.016,0.042-0.041,0.048-0.069
   c0.002-0.008,0.003-0.015,0.003-0.023c0-0.021-0.006-0.042-0.018-0.06l-0.382-0.593c-0.015-0.024-0.041-0.042-0.069-0.048
   c-0.008-0.002-0.015-0.003-0.023-0.003c-0.021,0-0.042,0.006-0.06,0.017l-1.788,1.15c-0.024,0.016-0.042,0.041-0.048,0.069
   c-0.002,0.008-0.002,0.015-0.002,0.023c0,0.021,0.006,0.042,0.017,0.06L147.884,24.503z"/>
 <polygon class="st0" points="150.29,7.933 150.284,7.936 150.291,7.933"/>
 <path class="st0" d="M142.944,13.49c-0.263,0-0.557,0.118-0.799,0.346c-0.421,0.396-0.522,0.971-0.226,1.286
   c0.126,0.134,0.304,0.199,0.499,0.199c0.263,0,0.557-0.118,0.799-0.346c0.421-0.396,0.522-0.971,0.226-1.286
   C143.316,13.555,143.139,13.49,142.944,13.49z"/>
 <path class="st0" d="M149.582,10.017c0.073,0,0.145-0.007,0.215-0.021l0,0l0,0c0.072-0.014,0.142-0.037,0.209-0.066
   c0.067-0.029,0.131-0.067,0.193-0.111c0.005-0.004,0.011-0.008,0.016-0.012l0,0l0,0c0.103-0.077,0.188-0.167,0.253-0.271
   c0.066-0.104,0.112-0.221,0.138-0.348l0,0c0.015-0.073,0.023-0.147,0.023-0.223c0-0.062-0.005-0.125-0.015-0.188v0
   c-0.022-0.141-0.069-0.284-0.138-0.431l0,0l0,0l0,0v0l-0.192-0.41l0,0c0,0,0,0,0,0l0,0c-0.02-0.042-0.032-0.079-0.04-0.112
   l0-0.001l-0.001-0.006c-0.005-0.022-0.007-0.043-0.007-0.061c0-0.003,0-0.006,0-0.009v0c0.001-0.016,0.003-0.03,0.006-0.043v0
   c0.003-0.013,0.008-0.025,0.015-0.037l0,0c0.006-0.012,0.014-0.023,0.024-0.034c0.01-0.011,0.022-0.022,0.037-0.033l0,0l0,0
   l0.004-0.003l0,0c0.014-0.01,0.029-0.018,0.044-0.025c0.015-0.006,0.03-0.01,0.046-0.013h0
   c0.011-0.002,0.023-0.003,0.035-0.003c0.005,0,0.011,0,0.017,0c0.019,0.001,0.039,0.004,0.06,0.01
   c0.02,0.005,0.04,0.012,0.059,0.021c0.019,0.009,0.037,0.02,0.056,0.033c0.036,0.026,0.071,0.061,0.105,0.106
   c0.002,0.003,0.005,0.006,0.007,0.009c0.024,0.033,0.044,0.065,0.06,0.095c0.016,0.031,0.028,0.06,0.037,0.087
   c0.009,0.028,0.014,0.054,0.016,0.079c0.001,0.006,0.001,0.012,0.001,0.018c0,0.024-0.003,0.05-0.003,0.051l0,0.001l0,0.001
   c-0.001,0.005-0.002,0.009-0.003,0.014c-0.001,0.005-0.003,0.012-0.005,0.019c-0.004,0.015-0.009,0.033-0.016,0.054
   c-0.012,0.04-0.028,0.088-0.044,0.126c-0.004,0.01-0.006,0.021-0.006,0.033l0,0.005c0.001,0.018,0.007,0.035,0.018,0.049
   c0.004,0.005,0.008,0.01,0.013,0.014l0.039,0.033l-0.003,0.003l0.44,0.457c0.008,0.006,0.017,0.011,0.026,0.014
   c0.01,0.003,0.02,0.005,0.03,0.005c0.005,0,0.009,0,0.013-0.001c0.014-0.002,0.028-0.008,0.04-0.017
   c0.004-0.003,0.007-0.006,0.011-0.009c0.082-0.084,0.149-0.18,0.202-0.287c0.053-0.108,0.09-0.229,0.112-0.362
   c0.007-0.044,0.011-0.089,0.011-0.136c0-0.029-0.001-0.058-0.004-0.088c-0.007-0.078-0.023-0.158-0.047-0.242
   c-0.049-0.169-0.135-0.337-0.255-0.503c-0.006-0.008-0.011-0.016-0.017-0.023l0,0c-0.099-0.133-0.214-0.243-0.343-0.329
   c-0.129-0.086-0.273-0.148-0.429-0.185c-0.081-0.019-0.161-0.03-0.239-0.032c-0.011,0-0.022,0-0.033,0
   c-0.067,0-0.133,0.006-0.198,0.019c-0.076,0.015-0.149,0.038-0.221,0.07c-0.071,0.032-0.141,0.072-0.207,0.12
   c-0.006,0.004-0.011,0.008-0.017,0.012l0,0c-0.103,0.077-0.189,0.167-0.254,0.269c-0.066,0.102-0.111,0.216-0.137,0.339
   c-0.015,0.072-0.022,0.145-0.022,0.219c0,0.057,0.004,0.114,0.013,0.171c0.02,0.133,0.062,0.267,0.126,0.404l0,0l0,0l0,0
   l0.197,0.417l0,0c0.021,0.047,0.036,0.089,0.043,0.128l0.001,0.005v0.001c0.004,0.023,0.006,0.044,0.006,0.064
   c0,0.012-0.001,0.024-0.002,0.035l0,0c-0.002,0.015-0.005,0.029-0.009,0.042c-0.004,0.013-0.009,0.024-0.016,0.035l0,0
   c-0.006,0.011-0.014,0.021-0.022,0.031c-0.009,0.01-0.019,0.019-0.031,0.028l0,0l0,0l-0.003,0.002l0,0
   c-0.016,0.011-0.031,0.02-0.047,0.027l0,0c-0.015,0.006-0.031,0.011-0.046,0.013h0h0c-0.01,0.002-0.02,0.002-0.031,0.002
   c-0.006,0-0.012,0-0.018-0.001c-0.017-0.001-0.036-0.005-0.055-0.011h0c-0.019-0.006-0.037-0.013-0.056-0.023
   c-0.018-0.01-0.037-0.022-0.055-0.036c-0.037-0.029-0.074-0.067-0.111-0.116c-0.002-0.003-0.004-0.006-0.006-0.009l0,0
   l-0.002-0.003c-0.059-0.081-0.098-0.158-0.121-0.23c-0.011-0.036-0.019-0.07-0.022-0.104c-0.001-0.014-0.002-0.029-0.002-0.043
   c0-0.018,0.001-0.037,0.004-0.055v0c0.004-0.034,0.012-0.066,0.022-0.096c0.003-0.009,0.007-0.02,0.013-0.034
   c0.006-0.014,0.013-0.03,0.02-0.047c0.015-0.034,0.031-0.07,0.039-0.089c0.001-0.002,0.001-0.003,0.002-0.004
   c-0.001-0.017-0.007-0.034-0.017-0.047c-0.003-0.004-0.006-0.008-0.01-0.011l-0.003-0.003l-0.433-0.582l0,0
   c-0.008-0.007-0.017-0.012-0.026-0.016c-0.01-0.004-0.021-0.006-0.032-0.006c-0.004,0-0.008,0-0.012,0.001
   c-0.015,0.002-0.029,0.008-0.042,0.017l-0.006,0.005c-0.111,0.099-0.174,0.194-0.243,0.331
   c-0.067,0.134-0.111,0.284-0.133,0.449c-0.007,0.05-0.01,0.1-0.01,0.15c0,0.036,0.002,0.071,0.005,0.107
   c0.008,0.086,0.026,0.174,0.053,0.261c0.054,0.174,0.146,0.349,0.272,0.525c0.007,0.01,0.014,0.02,0.022,0.029
   c0.112,0.15,0.236,0.272,0.372,0.364c0.136,0.092,0.284,0.154,0.442,0.183h0c0.08,0.015,0.158,0.023,0.234,0.024H149.582z"/>
 <path class="st0" d="M152.899,9.513c-0.01-0.027-0.031-0.05-0.057-0.062c-0.014-0.006-0.03-0.01-0.046-0.01
   c-0.013,0-0.026,0.002-0.039,0.007l-3.143,1.176c-0.027,0.01-0.05,0.031-0.062,0.058c-0.007,0.014-0.01,0.03-0.01,0.046
   c0,0.013,0.002,0.026,0.007,0.039l0.747,1.995c0.01,0.027,0.031,0.05,0.058,0.062c0.014,0.006,0.03,0.01,0.046,0.01
   c0.013,0,0.026-0.002,0.039-0.007l0.665-0.249c0.027-0.01,0.05-0.031,0.062-0.058c0.007-0.014,0.01-0.03,0.01-0.046
   c0-0.013-0.002-0.026-0.007-0.039l-0.446-1.191l0.396-0.148l0.399,1.067c0.01,0.027,0.031,0.05,0.058,0.062
   c0.014,0.006,0.03,0.01,0.046,0.01c0.013,0,0.026-0.002,0.039-0.007l0.616-0.231c0.027-0.01,0.05-0.031,0.062-0.058
   c0.006-0.014,0.01-0.03,0.01-0.046c0-0.013-0.002-0.026-0.007-0.039l-0.399-1.067l0.392-0.147l0.444,1.187
   c0.01,0.027,0.031,0.05,0.058,0.062c0.014,0.006,0.03,0.01,0.046,0.01c0.013,0,0.026-0.002,0.039-0.007l0.661-0.247
   c0.027-0.01,0.05-0.031,0.062-0.058c0.007-0.014,0.01-0.03,0.01-0.046c0-0.013-0.002-0.026-0.007-0.039L152.899,9.513z"/>
 <path class="st0" d="M148.67,6.623c0.072-0.144,0.127-0.289,0.163-0.434c0.036-0.144,0.055-0.289,0.055-0.432v0v0
   c0-0.195-0.034-0.387-0.102-0.577c-0.083-0.233-0.204-0.439-0.361-0.615c-0.158-0.176-0.352-0.321-0.581-0.435
   c-0.14-0.07-0.281-0.122-0.423-0.158c-0.142-0.035-0.286-0.053-0.43-0.053h0h0c-0.184,0-0.368,0.029-0.552,0.085
   c-0.238,0.073-0.45,0.191-0.632,0.353c-0.182,0.161-0.334,0.365-0.455,0.609c-0.072,0.144-0.126,0.287-0.162,0.431
   c-0.036,0.143-0.055,0.287-0.055,0.43v0v0v0c0,0.196,0.035,0.391,0.104,0.582c0.084,0.233,0.206,0.439,0.364,0.614
   c0.158,0.175,0.353,0.32,0.581,0.434c0.139,0.069,0.28,0.122,0.422,0.157c0.142,0.035,0.285,0.053,0.429,0.053h0h0
   c0.184,0,0.369-0.029,0.553-0.086c0.237-0.074,0.449-0.192,0.63-0.352C148.398,7.069,148.549,6.866,148.67,6.623z
   M147.879,5.93c-0.02,0.078-0.052,0.16-0.095,0.246c-0.071,0.142-0.151,0.251-0.239,0.331c-0.044,0.04-0.089,0.073-0.137,0.1
   c-0.048,0.027-0.098,0.047-0.152,0.062c-0.086,0.024-0.169,0.035-0.25,0.035c-0.068,0-0.134-0.008-0.2-0.024
   c-0.066-0.016-0.132-0.04-0.199-0.074c-0.106-0.053-0.194-0.119-0.267-0.198c-0.073-0.079-0.131-0.173-0.175-0.285
   c-0.033-0.083-0.049-0.167-0.049-0.257c0-0.069,0.01-0.141,0.03-0.218c0.02-0.077,0.051-0.158,0.094-0.244
   c0.071-0.142,0.151-0.251,0.239-0.331c0.044-0.04,0.09-0.073,0.138-0.1c0.048-0.027,0.099-0.048,0.154-0.063
   c0.088-0.024,0.172-0.036,0.254-0.036c0.068,0,0.134,0.008,0.2,0.024c0.066,0.016,0.132,0.04,0.198,0.073
   c0.106,0.053,0.194,0.119,0.266,0.198c0.072,0.079,0.129,0.173,0.173,0.285c0.032,0.082,0.047,0.166,0.047,0.255
   C147.91,5.779,147.9,5.853,147.879,5.93z"/>
 <path class="st0" d="M144.12,25.662c0.006,0.028,0.024,0.054,0.049,0.069c0.018,0.011,0.039,0.017,0.059,0.017
   c0.008,0,0.016-0.001,0.024-0.003l0.734-0.165c0.028-0.006,0.054-0.024,0.069-0.049c0.011-0.018,0.017-0.038,0.017-0.059
   c0-0.008-0.001-0.016-0.003-0.024l-0.251-1.116l1.102-0.248c0.028-0.006,0.054-0.024,0.069-0.049
   c0.011-0.017,0.017-0.038,0.017-0.059c0-0.008-0.001-0.016-0.003-0.024l-0.15-0.665c-0.006-0.028-0.024-0.054-0.049-0.069
   c-0.017-0.011-0.038-0.017-0.059-0.017c-0.008,0-0.016,0.001-0.024,0.003l-1.107,0.249l-0.107-0.477l1.273-0.287
   c0.028-0.006,0.054-0.024,0.069-0.049c0.011-0.017,0.017-0.038,0.017-0.059c0-0.008-0.001-0.016-0.003-0.024l-0.156-0.693
   c-0.006-0.028-0.024-0.054-0.049-0.069c-0.017-0.011-0.038-0.017-0.059-0.017c-0.008,0-0.016,0.001-0.024,0.003l-2.111,0.475
   c-0.028,0.006-0.054,0.024-0.069,0.049c-0.011,0.017-0.017,0.038-0.017,0.059c0,0.008,0.001,0.016,0.003,0.024L144.12,25.662z"
   />
 <path class="st2" d="M136.488,7.766c-0.053-0.104-0.135-0.208-0.251-0.312c-0.103-0.093-0.205-0.159-0.303-0.202
   c-0.098-0.043-0.193-0.063-0.29-0.063c-0.024,0-0.047,0.001-0.071,0.004c-0.117,0.012-0.221,0.042-0.315,0.09
   c-0.094,0.048-0.179,0.113-0.257,0.2c-0.078,0.087-0.134,0.178-0.171,0.277c-0.038,0.099-0.057,0.205-0.057,0.323v0.003v0
   c0,0.056,0.007,0.109,0.02,0.162c0.013,0.053,0.032,0.105,0.059,0.157c0.053,0.104,0.135,0.209,0.251,0.313
   c0.102,0.092,0.203,0.158,0.3,0.2c0.097,0.042,0.191,0.062,0.287,0.062c0.025,0,0.05-0.001,0.075-0.004
   c0.117-0.013,0.221-0.044,0.316-0.092s0.179-0.114,0.258-0.201c0.078-0.087,0.134-0.178,0.172-0.276
   c0.038-0.098,0.057-0.204,0.057-0.32V8.083v0c0-0.055-0.007-0.108-0.02-0.16C136.534,7.87,136.515,7.818,136.488,7.766z"/>
 <path class="st2" d="M144.028,3.973c-0.035-0.031-0.074-0.055-0.125-0.072c-0.05-0.017-0.113-0.028-0.188-0.029l-0.359-0.003
   l-0.006,0.7l0.359,0.003h0c0.004,0,0.009,0,0.013,0c0.07-0.001,0.127-0.01,0.176-0.027c0.048-0.017,0.088-0.039,0.124-0.07
   c0.036-0.031,0.059-0.063,0.076-0.101c0.017-0.038,0.027-0.085,0.028-0.145c0-0.003,0-0.006,0-0.01
   c-0.001-0.061-0.01-0.108-0.026-0.146C144.083,4.034,144.061,4.003,144.028,3.973z"/>
 <path class="st2" d="M137.573,23.465c0.067,0.076,0.148,0.14,0.246,0.192c0.065,0.034,0.129,0.059,0.194,0.076
   c0.065,0.016,0.13,0.025,0.197,0.025c0.07,0,0.142-0.009,0.217-0.028c0.051-0.013,0.099-0.031,0.144-0.055
   c0.046-0.024,0.089-0.054,0.131-0.091c0.084-0.073,0.161-0.174,0.231-0.305c0.044-0.083,0.076-0.163,0.097-0.238
   c0.021-0.075,0.031-0.146,0.031-0.213c0-0.078-0.013-0.152-0.039-0.224c-0.038-0.106-0.09-0.195-0.156-0.271
   c-0.066-0.076-0.146-0.139-0.245-0.192c-0.064-0.034-0.129-0.059-0.193-0.075c-0.065-0.016-0.13-0.025-0.197-0.025
   c-0.071,0-0.145,0.009-0.221,0.029c-0.051,0.013-0.1,0.032-0.146,0.056c-0.046,0.024-0.09,0.055-0.132,0.091
   c-0.084,0.073-0.162,0.174-0.231,0.305c-0.044,0.083-0.075,0.161-0.096,0.236c-0.021,0.074-0.03,0.144-0.03,0.211
   c0,0.079,0.013,0.153,0.041,0.226C137.454,23.3,137.506,23.389,137.573,23.465z"/>
 <path class="st2" d="M147.689,5.17c-0.072-0.079-0.159-0.145-0.266-0.198c-0.066-0.033-0.132-0.057-0.198-0.073
   c-0.066-0.016-0.132-0.024-0.2-0.024c-0.082,0-0.167,0.012-0.254,0.036c-0.054,0.015-0.105,0.036-0.154,0.063
   c-0.048,0.027-0.094,0.06-0.138,0.1c-0.088,0.08-0.169,0.189-0.239,0.331c-0.043,0.086-0.074,0.167-0.094,0.244
   c-0.02,0.077-0.03,0.149-0.03,0.218c0,0.09,0.016,0.174,0.049,0.257c0.044,0.112,0.103,0.205,0.175,0.285
   c0.073,0.079,0.161,0.145,0.267,0.198c0.067,0.033,0.133,0.057,0.199,0.074c0.066,0.016,0.132,0.024,0.2,0.024
   c0.081,0,0.164-0.012,0.25-0.035c0.054-0.015,0.104-0.036,0.152-0.062c0.048-0.027,0.094-0.06,0.137-0.1
   c0.087-0.08,0.168-0.189,0.239-0.331c0.043-0.086,0.074-0.168,0.095-0.246c0.02-0.078,0.03-0.151,0.03-0.22
   c0-0.089-0.016-0.173-0.047-0.255C147.819,5.343,147.761,5.25,147.689,5.17z"/>
 <path class="st2" d="M146.288,10.341l-4.457,2.006c-0.092,0.042-0.185,0.081-0.278,0.12c-0.268,0.113-0.55,0.384-0.735,0.758
   l-2.303,4.568c-0.11,0.208-0.074,0.385,0.091,0.554l0.002,0.002c0.105,0.108,0.207,0.165,0.323,0.165
   c0.064,0,0.133-0.018,0.208-0.054l4.586-2.085c0.446-0.224,0.647-0.449,0.818-0.788l2.363-4.575
   c0.113-0.209,0.078-0.388-0.088-0.559c-0.105-0.108-0.207-0.165-0.322-0.165C146.431,10.287,146.363,10.305,146.288,10.341z
   M143.216,14.975c-0.242,0.227-0.536,0.346-0.799,0.346c-0.195,0-0.373-0.065-0.499-0.199
   c-0.296-0.315-0.195-0.891,0.226-1.286c0.242-0.227,0.536-0.346,0.799-0.346c0.195,0,0.373,0.065,0.499,0.199
   C143.738,14.003,143.637,14.579,143.216,14.975z"/>
 <path class="st2" d="M155.348,13.187c-0.001-0.01-0.002-0.021-0.003-0.033c-0.006-0.06-0.012-0.12-0.019-0.18
   c-0.002-0.018-0.004-0.035-0.006-0.052c-0.005-0.042-0.01-0.085-0.015-0.128c-0.003-0.023-0.006-0.046-0.009-0.068
   c-0.005-0.037-0.01-0.074-0.015-0.111c-0.004-0.025-0.007-0.05-0.011-0.074c-0.005-0.035-0.01-0.07-0.016-0.105
   c-0.004-0.026-0.008-0.052-0.012-0.077c-0.005-0.034-0.011-0.068-0.017-0.102c-0.005-0.026-0.009-0.052-0.014-0.078
   c-0.006-0.034-0.012-0.067-0.018-0.101c-0.005-0.026-0.01-0.052-0.015-0.078c-0.006-0.034-0.013-0.067-0.02-0.101
   c-0.005-0.026-0.01-0.052-0.016-0.078c-0.007-0.034-0.014-0.067-0.021-0.101c-0.005-0.026-0.011-0.051-0.017-0.077
   c-0.008-0.034-0.015-0.069-0.023-0.103c-0.006-0.025-0.011-0.05-0.017-0.075c-0.008-0.036-0.017-0.071-0.026-0.107
   c-0.006-0.023-0.011-0.046-0.017-0.07c-0.01-0.04-0.02-0.079-0.031-0.118c-0.005-0.019-0.01-0.038-0.015-0.058
   c-0.016-0.059-0.032-0.117-0.048-0.176c-0.028-0.098-0.057-0.196-0.087-0.294c-0.045-0.147-0.094-0.293-0.144-0.438
   c-0.034-0.097-0.069-0.193-0.105-0.29c-0.091-0.24-0.189-0.479-0.295-0.714c-0.036-0.079-0.072-0.158-0.109-0.237
   c-0.029-0.062-0.059-0.123-0.089-0.185c-0.035-0.071-0.071-0.141-0.107-0.211c-0.023-0.044-0.046-0.088-0.069-0.131
   c-0.576-1.081-1.319-2.096-2.231-3.008c-1.859-1.859-4.15-3.02-6.549-3.484c-0.1-0.019-0.2-0.037-0.3-0.054
   c-0.151-0.025-0.301-0.048-0.453-0.068c-0.05-0.007-0.101-0.013-0.151-0.019c-0.101-0.012-0.202-0.023-0.303-0.033
   c-0.101-0.01-0.202-0.018-0.304-0.025c-0.304-0.022-0.608-0.033-0.913-0.033c-0.201,0-0.402,0.005-0.603,0.014
   c-3.045,0.144-6.045,1.377-8.371,3.702c-1.007,1.007-1.809,2.141-2.407,3.35c-0.046,0.093-0.091,0.186-0.134,0.28
   c-0.087,0.188-0.169,0.377-0.247,0.568c-0.039,0.095-0.076,0.191-0.112,0.287c-0.073,0.192-0.14,0.386-0.203,0.581
   c-0.031,0.097-0.062,0.195-0.091,0.293s-0.057,0.196-0.083,0.295c-0.023,0.086-0.045,0.173-0.067,0.259
   c-0.248,1.003-0.372,2.031-0.372,3.059c0,0.711,0.059,1.421,0.178,2.124c0.017,0.1,0.035,0.201,0.054,0.301
   c0.029,0.15,0.061,0.299,0.095,0.449c0.011,0.05,0.023,0.099,0.035,0.149c0.024,0.099,0.05,0.198,0.076,0.297
   c0.027,0.099,0.054,0.197,0.083,0.295c0.029,0.098,0.059,0.196,0.091,0.293c0.063,0.195,0.131,0.389,0.203,0.581
   c0.036,0.096,0.074,0.192,0.112,0.287c0.077,0.191,0.16,0.38,0.247,0.568c0.044,0.094,0.088,0.187,0.134,0.28
   c0.598,1.209,1.4,2.342,2.407,3.349c1.007,1.007,2.141,1.809,3.35,2.407c0.336,0.166,0.678,0.316,1.025,0.451
   c0.119,0.046,0.239,0.09,0.359,0.133c0.029,0.01,0.058,0.021,0.087,0.031c1.342,0.464,2.747,0.695,4.153,0.696
   c0.965,0,1.929-0.109,2.873-0.328c0.149-0.034,0.298-0.072,0.445-0.112c0.247-0.067,0.492-0.141,0.734-0.222
   c0.097-0.033,0.194-0.067,0.291-0.102c0.048-0.017,0.096-0.035,0.145-0.053c0.976-0.368,1.916-0.861,2.795-1.479
   c0.062-0.044,0.124-0.088,0.185-0.133c0.107-0.078,0.213-0.158,0.318-0.239c0.067-0.052,0.133-0.105,0.2-0.159
   c0.015-0.012,0.031-0.025,0.046-0.037c0.325-0.266,0.639-0.55,0.942-0.853c0.581-0.581,1.094-1.204,1.538-1.859
   c0.089-0.131,0.175-0.263,0.259-0.397c0.056-0.089,0.11-0.179,0.163-0.269c0.08-0.135,0.157-0.271,0.231-0.409
   c0.05-0.092,0.098-0.184,0.145-0.276c0.047-0.092,0.093-0.185,0.138-0.279c0.045-0.093,0.088-0.187,0.131-0.282
   c0.106-0.236,0.204-0.474,0.295-0.714c0.036-0.096,0.071-0.193,0.105-0.29c0.051-0.145,0.099-0.291,0.144-0.438
   c0.027-0.087,0.053-0.174,0.077-0.261c0.006-0.022,0.012-0.043,0.018-0.065l0,0c0.016-0.059,0.033-0.118,0.048-0.177
   c0.003-0.009,0.005-0.019,0.008-0.028c0.015-0.057,0.029-0.113,0.043-0.17c0.003-0.011,0.005-0.022,0.008-0.033
   c0.014-0.057,0.028-0.115,0.041-0.173c0.002-0.007,0.003-0.015,0.005-0.021c0.013-0.057,0.025-0.114,0.038-0.17v0
   c0.001-0.005,0.002-0.011,0.004-0.016v0c0.012-0.058,0.024-0.117,0.036-0.175c0.002-0.011,0.004-0.021,0.006-0.032
   c0.002-0.011,0.004-0.023,0.006-0.034c0-0.003,0.001-0.005,0.001-0.008c0.006-0.03,0.009-0.061,0.009-0.092
   c0-0.259-0.203-0.469-0.459-0.482c-0.008,0-0.017-0.001-0.025-0.001c-0.008,0-0.017,0.001-0.025,0.001h-5.297
   c-0.008,0-0.016-0.001-0.025-0.001c-0.008,0-0.017,0.001-0.025,0.001c-0.189,0.01-0.349,0.128-0.42,0.293
   c0,0.001-0.002,0.002-0.002,0.002c-0.008,0.022-0.016,0.045-0.024,0.067l0,0c-0.007,0.02-0.014,0.04-0.021,0.059
   c-0.008,0.022-0.017,0.044-0.025,0.067c-0.008,0.02-0.015,0.04-0.022,0.059c-0.009,0.022-0.018,0.044-0.027,0.067
   c-0.008,0.02-0.016,0.039-0.023,0.058c-0.009,0.022-0.019,0.044-0.028,0.067c-0.008,0.019-0.016,0.038-0.024,0.056
   c-0.01,0.022-0.02,0.045-0.03,0.068c-0.008,0.019-0.016,0.037-0.025,0.055c-0.01,0.023-0.022,0.045-0.033,0.069
   c-0.008,0.018-0.017,0.035-0.025,0.052c-0.012,0.024-0.024,0.048-0.036,0.072c-0.008,0.016-0.016,0.032-0.024,0.048
   c-0.014,0.027-0.029,0.055-0.044,0.083c-0.007,0.012-0.013,0.024-0.018,0.035c-0.021,0.039-0.042,0.078-0.064,0.116
   c-0.006,0.01-0.012,0.02-0.018,0.032c-0.016,0.028-0.032,0.056-0.048,0.084c-0.008,0.014-0.018,0.029-0.027,0.044v0
   c-0.014,0.023-0.028,0.047-0.042,0.069l0,0c-0.01,0.016-0.02,0.032-0.031,0.048c-0.014,0.021-0.027,0.043-0.04,0.064
   c-0.011,0.016-0.022,0.033-0.033,0.05c-0.014,0.021-0.027,0.041-0.04,0.061c-0.011,0.016-0.023,0.033-0.035,0.05
   c-0.014,0.02-0.027,0.04-0.041,0.059v0c-0.012,0.016-0.024,0.033-0.036,0.05c-0.014,0.019-0.028,0.039-0.041,0.057
   c-0.012,0.016-0.025,0.033-0.037,0.05c-0.014,0.019-0.028,0.038-0.042,0.056c-0.012,0.016-0.025,0.033-0.039,0.049
   c-0.015,0.018-0.029,0.037-0.043,0.055c-0.013,0.016-0.026,0.032-0.04,0.049l0,0c-0.015,0.018-0.029,0.036-0.044,0.054
   c-0.013,0.016-0.027,0.032-0.041,0.048c-0.015,0.018-0.03,0.035-0.045,0.053c-0.014,0.016-0.028,0.031-0.042,0.048
   c-0.015,0.017-0.031,0.034-0.046,0.051c-0.014,0.015-0.029,0.031-0.043,0.047c-0.016,0.017-0.031,0.034-0.047,0.05
   c-0.014,0.015-0.029,0.03-0.044,0.046c-0.016,0.017-0.032,0.033-0.048,0.049c-0.015,0.015-0.03,0.03-0.045,0.045
   c-0.016,0.016-0.032,0.032-0.049,0.048c-0.015,0.015-0.03,0.029-0.046,0.044c-0.016,0.016-0.033,0.032-0.049,0.047
   c-0.015,0.015-0.031,0.029-0.047,0.044c-0.017,0.016-0.034,0.031-0.05,0.046c-0.016,0.014-0.032,0.028-0.048,0.043
   c-0.017,0.015-0.034,0.03-0.051,0.045c-0.016,0.014-0.032,0.028-0.049,0.042c-0.017,0.015-0.035,0.029-0.052,0.044
   c-0.016,0.014-0.033,0.027-0.05,0.041c-0.018,0.014-0.035,0.029-0.053,0.043c-0.017,0.013-0.034,0.027-0.05,0.04
   c-0.018,0.014-0.036,0.028-0.054,0.042c-0.017,0.013-0.034,0.026-0.051,0.039c-0.018,0.014-0.036,0.027-0.055,0.041
   c-0.017,0.013-0.035,0.025-0.052,0.038c-0.018,0.013-0.037,0.026-0.055,0.039c-0.018,0.012-0.035,0.025-0.053,0.037
   c-0.019,0.013-0.037,0.026-0.056,0.038c-0.018,0.012-0.036,0.024-0.054,0.036c-0.019,0.013-0.038,0.025-0.057,0.037
   c-0.018,0.012-0.036,0.023-0.054,0.035c-0.019,0.012-0.039,0.024-0.058,0.036c-0.018,0.011-0.037,0.023-0.055,0.034
   c-0.019,0.012-0.039,0.023-0.059,0.035c-0.019,0.011-0.037,0.022-0.056,0.033c-0.02,0.011-0.039,0.023-0.059,0.034
   c-0.019,0.011-0.038,0.021-0.057,0.031c-0.02,0.011-0.04,0.022-0.06,0.033c-0.019,0.01-0.038,0.02-0.057,0.03
   c-0.02,0.01-0.04,0.021-0.061,0.031c-0.019,0.01-0.039,0.02-0.058,0.029c-0.02,0.01-0.041,0.02-0.062,0.03
   c-0.02,0.01-0.039,0.019-0.059,0.028c-0.021,0.01-0.041,0.019-0.062,0.029c-0.02,0.009-0.039,0.018-0.059,0.027
   c-0.021,0.009-0.042,0.019-0.063,0.028c-0.02,0.009-0.04,0.017-0.06,0.026c-0.021,0.009-0.042,0.018-0.064,0.027
   c-0.02,0.008-0.04,0.016-0.06,0.024c-0.021,0.008-0.043,0.017-0.065,0.025c-0.02,0.008-0.041,0.016-0.061,0.023
   c-0.022,0.008-0.043,0.016-0.065,0.024c-0.021,0.007-0.041,0.015-0.061,0.022c-0.022,0.008-0.044,0.015-0.066,0.023
   c-0.021,0.007-0.041,0.014-0.062,0.021c-0.022,0.007-0.044,0.014-0.067,0.021c-0.021,0.007-0.042,0.013-0.062,0.019
   c-0.022,0.007-0.045,0.013-0.068,0.02c-0.021,0.006-0.042,0.012-0.063,0.018c-0.022,0.006-0.045,0.012-0.068,0.019
   c-0.021,0.006-0.042,0.012-0.063,0.017c-0.023,0.006-0.046,0.012-0.069,0.017c-0.021,0.005-0.042,0.011-0.063,0.016
   c-0.023,0.005-0.046,0.011-0.07,0.016c-0.021,0.005-0.043,0.01-0.064,0.014c-0.023,0.005-0.047,0.01-0.071,0.015
   c-0.021,0.004-0.043,0.009-0.064,0.013c-0.024,0.005-0.048,0.009-0.072,0.013c-0.022,0.004-0.043,0.008-0.064,0.012
   c-0.024,0.004-0.048,0.008-0.073,0.012c-0.022,0.004-0.043,0.007-0.064,0.01c-0.024,0.004-0.049,0.007-0.074,0.01
   c-0.022,0.003-0.043,0.006-0.063,0.009c-0.025,0.003-0.05,0.006-0.075,0.009c-0.021,0.003-0.042,0.005-0.063,0.007
   c-0.025,0.003-0.051,0.005-0.077,0.008c-0.021,0.002-0.042,0.004-0.062,0.006c-0.026,0.002-0.053,0.004-0.08,0.006
   c-0.021,0.002-0.041,0.003-0.06,0.005c-0.028,0.002-0.056,0.003-0.084,0.005c-0.019,0.001-0.038,0.002-0.057,0.003
   c-0.031,0.001-0.063,0.002-0.094,0.003c-0.016,0-0.032,0.001-0.047,0.001c-0.047,0.001-0.095,0.001-0.142,0.001
   c-1.277,0-2.401-0.355-3.474-0.999c-1.203-0.697-2.045-2.029-2.045-2.029c-0.649-1.016-1.026-2.222-1.026-3.517
   c0-1.808,0.733-3.443,1.917-4.628c1.185-1.185,2.821-1.917,4.628-1.917c1.276,0,2.466,0.367,3.473,0.998l0.004,0.002
   c0.019,0.012,0.279,0.184,0.279,0.184c0.959,0.659,1.751,1.786,1.751,1.786s0.03,0.047,0.034,0.055
   c0.006,0.01,0.013,0.021,0.019,0.031c0.005,0.008,0.009,0.015,0.014,0.022c0.007,0.011,0.013,0.022,0.02,0.033
   c0.004,0.007,0.009,0.014,0.013,0.021c0.007,0.012,0.015,0.025,0.022,0.037c0.003,0.006,0.007,0.012,0.01,0.017
   c0.01,0.017,0.02,0.034,0.029,0.051l0.002,0.004l0,0c0.011,0.019,0.021,0.037,0.031,0.056c0.003,0.005,0.006,0.01,0.009,0.016
   c0.008,0.014,0.015,0.027,0.022,0.041c0.004,0.007,0.007,0.014,0.011,0.021v0c0.007,0.012,0.013,0.024,0.019,0.036
   c0.004,0.008,0.008,0.015,0.012,0.023c0.006,0.012,0.012,0.023,0.018,0.034c0.004,0.008,0.008,0.016,0.013,0.025
   c0.006,0.011,0.011,0.023,0.017,0.034c0.004,0.008,0.008,0.017,0.013,0.025c0.005,0.011,0.011,0.022,0.016,0.034
   c0.004,0.009,0.008,0.017,0.013,0.026c0.005,0.011,0.011,0.022,0.016,0.033c0.004,0.009,0.008,0.018,0.013,0.027
   c0.005,0.011,0.01,0.022,0.015,0.033c0.004,0.009,0.008,0.018,0.012,0.027c0.005,0.011,0.01,0.022,0.015,0.033
   c0.004,0.009,0.008,0.018,0.012,0.028c0.005,0.011,0.01,0.022,0.015,0.033c0.004,0.009,0.008,0.019,0.012,0.028
   c0.005,0.011,0.01,0.022,0.014,0.033c0.004,0.009,0.008,0.019,0.012,0.028c0.005,0.011,0.009,0.022,0.014,0.034
   c0.004,0.01,0.008,0.019,0.012,0.028c0.005,0.011,0.009,0.023,0.014,0.034c0.004,0.01,0.008,0.019,0.011,0.028
   c0.005,0.011,0.009,0.023,0.014,0.034c0.004,0.01,0.007,0.019,0.011,0.028c0.004,0.012,0.009,0.023,0.013,0.035
   c0.004,0.009,0.007,0.019,0.011,0.028c0.005,0.012,0.009,0.024,0.013,0.036c0.004,0.009,0.007,0.019,0.01,0.028
   c0.004,0.012,0.009,0.024,0.013,0.036c0.003,0.009,0.007,0.018,0.01,0.028c0.004,0.012,0.009,0.025,0.013,0.038
   c0.003,0.009,0.006,0.018,0.009,0.027c0.005,0.013,0.009,0.026,0.013,0.039c0.003,0.009,0.006,0.017,0.009,0.025
   c0.005,0.014,0.009,0.028,0.014,0.043c0.003,0.008,0.005,0.015,0.007,0.022c0.006,0.018,0.011,0.036,0.017,0.054
   c0.001,0.004,0.002,0.008,0.004,0.011c0.007,0.022,0.014,0.044,0.02,0.066c0.001,0.004,0.003,0.009,0.004,0.014
   c0.005,0.017,0.01,0.034,0.015,0.051c0.002,0.007,0.004,0.015,0.007,0.023c0.004,0.014,0.008,0.029,0.012,0.043
   c0.002,0.009,0.005,0.018,0.007,0.027l0.003,0.009l-0.003-0.009c0.004,0.013,0.007,0.026,0.011,0.039
   c0.003,0.009,0.005,0.019,0.008,0.028c0.003,0.013,0.007,0.026,0.01,0.038c0.002,0.009,0.005,0.019,0.008,0.029
   c0.003,0.013,0.006,0.025,0.009,0.038c0.002,0.01,0.005,0.02,0.007,0.029c0.003,0.013,0.006,0.025,0.009,0.037
   c0.002,0.01,0.005,0.02,0.007,0.03c0.003,0.012,0.006,0.025,0.009,0.037c0.002,0.01,0.005,0.02,0.007,0.03
   c0.003,0.012,0.005,0.024,0.008,0.037c0.002,0.01,0.004,0.02,0.007,0.031c0.003,0.012,0.005,0.024,0.008,0.036
   c0.002,0.01,0.004,0.021,0.006,0.031c0.002,0.012,0.005,0.024,0.007,0.036c0.002,0.01,0.004,0.021,0.006,0.031
   c0.002,0.012,0.005,0.024,0.007,0.037c0.002,0.01,0.004,0.021,0.006,0.031c0.001,0.007,0.003,0.014,0.004,0.021
   c0.002,0.023,0.006,0.046,0.012,0.068c0.052,0.212,0.242,0.369,0.47,0.369c0.167,0,3.637,0,5.101,0
   c0.021,0,0.04-0.002,0.06-0.004c0.02,0.003,0.04,0.004,0.061,0.004c0.267,0,0.484-0.217,0.484-0.484c0-0.003,0-0.006,0-0.01
   C155.347,13.195,155.348,13.19,155.348,13.187z M148.373,19.905l1.272-1.703c0.017-0.023,0.044-0.039,0.073-0.043
   c0.005-0.001,0.01-0.001,0.016-0.001c0.024,0,0.047,0.008,0.066,0.022l0.565,0.422c0.023,0.017,0.039,0.044,0.043,0.073
   c0.001,0.005,0.001,0.01,0.001,0.016c0,0.024-0.008,0.047-0.022,0.066l-0.758,1.015l0.335,0.25l0.682-0.913
   c0.017-0.023,0.044-0.039,0.073-0.043c0.005-0.001,0.01-0.001,0.015-0.001c0.024,0,0.048,0.008,0.066,0.022l0.527,0.394
   c0.023,0.017,0.039,0.044,0.043,0.073c0.001,0.005,0.001,0.01,0.001,0.015c0,0.024-0.008,0.048-0.022,0.066l-0.682,0.913
   l0.339,0.253l0.761-1.019c0.017-0.023,0.044-0.039,0.073-0.043c0.005-0.001,0.01-0.001,0.016-0.001
   c0.024,0,0.047,0.008,0.066,0.022l0.569,0.425c0.023,0.017,0.039,0.044,0.043,0.073c0.001,0.005,0.001,0.01,0.001,0.016
   c0,0.024-0.008,0.047-0.022,0.066l-1.274,1.707c-0.017,0.023-0.044,0.039-0.073,0.043c-0.005,0.001-0.01,0.001-0.016,0.001
   c-0.024,0-0.048-0.008-0.066-0.022l-2.689-2.008c-0.023-0.017-0.039-0.044-0.043-0.072c-0.001-0.005-0.001-0.01-0.001-0.016
   C148.351,19.948,148.359,19.924,148.373,19.905z M146.054,21.597c0.006-0.028,0.024-0.054,0.048-0.069l1.788-1.15
   c0.018-0.011,0.039-0.017,0.06-0.017c0.008,0,0.016,0.001,0.023,0.003c0.028,0.006,0.054,0.024,0.069,0.048l0.382,0.593
   c0.011,0.018,0.018,0.039,0.018,0.06c0,0.008-0.001,0.016-0.003,0.023c-0.006,0.028-0.024,0.054-0.048,0.069l-1.066,0.685
   l0.226,0.352l0.958-0.616c0.019-0.012,0.039-0.018,0.06-0.018c0.036,0,0.072,0.018,0.093,0.051l0.356,0.553
   c0.011,0.018,0.017,0.039,0.017,0.06c0,0.008-0.001,0.016-0.003,0.023c-0.006,0.028-0.024,0.054-0.048,0.069l-0.958,0.616
   l0.229,0.356l1.07-0.688c0.018-0.011,0.039-0.018,0.06-0.018c0.008,0,0.016,0.001,0.023,0.003
   c0.028,0.006,0.054,0.024,0.069,0.048l0.384,0.597c0.011,0.018,0.018,0.039,0.017,0.06c0,0.008-0.001,0.016-0.002,0.023
   c-0.006,0.028-0.024,0.054-0.048,0.069l-1.792,1.152c-0.018,0.011-0.039,0.017-0.06,0.017c-0.008,0-0.016-0.001-0.023-0.002
   c-0.028-0.006-0.054-0.024-0.069-0.048l-1.815-2.823c-0.011-0.018-0.017-0.039-0.017-0.06
   C146.051,21.612,146.052,21.605,146.054,21.597z M143.398,22.305c0.015-0.024,0.041-0.042,0.069-0.049l2.111-0.475
   c0.008-0.002,0.016-0.003,0.024-0.003c0.021,0,0.042,0.006,0.059,0.017c0.024,0.015,0.042,0.041,0.049,0.069l0.156,0.693
   c0.002,0.008,0.003,0.016,0.003,0.024c0,0.021-0.006,0.042-0.017,0.059c-0.015,0.024-0.041,0.042-0.069,0.049l-1.273,0.287
   l0.107,0.477l1.107-0.249c0.008-0.002,0.016-0.003,0.024-0.003c0.021,0,0.042,0.006,0.059,0.017
   c0.024,0.015,0.042,0.041,0.049,0.069l0.15,0.665c0.002,0.008,0.003,0.016,0.003,0.024c0,0.021-0.006,0.042-0.017,0.059
   c-0.015,0.024-0.041,0.042-0.069,0.049l-1.102,0.248l0.251,1.116c0.002,0.008,0.003,0.016,0.003,0.024
   c0,0.021-0.006,0.042-0.017,0.059c-0.015,0.024-0.041,0.042-0.069,0.049l-0.734,0.165c-0.008,0.002-0.016,0.003-0.024,0.003
   c-0.021,0-0.042-0.006-0.059-0.017c-0.024-0.015-0.042-0.041-0.049-0.069l-0.737-3.274c-0.002-0.008-0.003-0.016-0.003-0.024
   C143.381,22.343,143.387,22.322,143.398,22.305z M132.882,13.369L132.882,13.369c-0.014-0.006-0.027-0.011-0.04-0.017
   c-0.128-0.055-0.247-0.118-0.355-0.189c-0.108-0.071-0.207-0.151-0.294-0.239c-0.088-0.088-0.165-0.184-0.231-0.288
   c-0.066-0.104-0.122-0.216-0.166-0.335c-0.082-0.219-0.123-0.441-0.123-0.664c0-0.012,0-0.024,0-0.037l0,0h0
   c0.005-0.235,0.056-0.471,0.151-0.705l0,0c0.005-0.012,0.01-0.025,0.016-0.037c0.051-0.12,0.111-0.232,0.179-0.336
   c0.068-0.103,0.145-0.198,0.23-0.284c0.17-0.172,0.373-0.307,0.606-0.406c0.114-0.048,0.23-0.084,0.348-0.108
   c0.111-0.022,0.223-0.033,0.337-0.033c0.007,0,0.014,0,0.021,0c0.022,0,0.044,0.002,0.065,0.004
   c0.008,0.001,0.015,0.002,0.023,0.003c0.011,0.002,0.022,0.003,0.033,0.005c0.001,0,0.002,0.001,0.003,0.001
   c0.082,0.016,0.129,0.105,0.097,0.183l-0.115,0.278l-0.188,0.455c-0.014,0.034-0.046,0.057-0.082,0.062
   c-0.017,0.002-0.034,0.005-0.05,0.008c-0.056,0.011-0.11,0.029-0.163,0.053c-0.056,0.026-0.108,0.055-0.156,0.088
   c-0.047,0.033-0.09,0.069-0.13,0.109c0,0,0,0,0,0h0l-0.079,0.081h0.01c-0.013,0.017-0.026,0.034-0.038,0.052
   c-0.032,0.048-0.06,0.1-0.084,0.156l0,0l0,0c-0.003,0.006-0.005,0.012-0.007,0.017c-0.022,0.055-0.039,0.11-0.051,0.164
   c-0.012,0.055-0.018,0.109-0.02,0.164c0,0.007,0,0.015,0,0.022c0,0.103,0.018,0.207,0.054,0.314v0
   c0.019,0.057,0.045,0.11,0.077,0.159c0.032,0.05,0.07,0.096,0.115,0.14c0.045,0.044,0.097,0.084,0.155,0.122
   c0.059,0.038,0.125,0.072,0.198,0.104c0.009,0.004,0.018,0.007,0.026,0.011c0.071,0.029,0.139,0.05,0.204,0.065
   c0.065,0.015,0.128,0.023,0.188,0.024c0.006,0,0.012,0,0.018,0c0.054,0,0.106-0.005,0.156-0.016
   c0.056-0.012,0.109-0.029,0.162-0.054h0c0.056-0.026,0.108-0.056,0.155-0.089c0.047-0.033,0.091-0.07,0.13-0.111
   c0.039-0.04,0.075-0.085,0.106-0.133c0.032-0.048,0.06-0.1,0.084-0.157c0.003-0.006,0.005-0.012,0.007-0.017
   c0.022-0.055,0.039-0.11,0.051-0.164c0.012-0.055,0.018-0.109,0.02-0.164c0-0.008,0-0.016,0-0.024
   c0-0.102-0.018-0.204-0.054-0.31v0c-0.019-0.056-0.044-0.109-0.076-0.158c-0.012-0.019-0.026-0.037-0.04-0.055
   c-0.001-0.001-0.001-0.002-0.002-0.002c-0.023-0.029-0.028-0.068-0.014-0.102l0.306-0.731c0.033-0.079,0.131-0.108,0.201-0.059
   c0,0,0,0,0,0c0,0,0,0,0,0c0.015,0.01,0.029,0.021,0.043,0.032c0.007,0.005,0.014,0.01,0.021,0.015
   c0.02,0.016,0.04,0.034,0.058,0.052c0.087,0.088,0.164,0.183,0.231,0.287c0.066,0.104,0.122,0.215,0.166,0.334v0
   c0.082,0.219,0.124,0.441,0.124,0.664c0,0.012,0,0.023,0,0.035c-0.005,0.235-0.055,0.47-0.151,0.704v0
   c-0.005,0.013-0.01,0.025-0.016,0.038c-0.052,0.12-0.111,0.232-0.179,0.336c-0.068,0.103-0.145,0.198-0.229,0.284l0,0
   c-0.169,0.172-0.372,0.308-0.605,0.408c-0.114,0.049-0.23,0.085-0.348,0.109c-0.112,0.023-0.226,0.034-0.34,0.034
   c-0.006,0-0.011,0-0.017,0c-0.12-0.001-0.242-0.015-0.365-0.041C133.13,13.458,133.006,13.42,132.882,13.369z M140.188,25.463
   l0.431-3.328c0.004-0.029,0.019-0.056,0.042-0.073c0.019-0.015,0.044-0.023,0.068-0.023c0.005,0,0.009,0,0.014,0.001
   l2.145,0.278c0.029,0.004,0.056,0.019,0.073,0.042c0.015,0.019,0.023,0.043,0.023,0.068c0,0.005,0,0.009-0.001,0.014
   l-0.091,0.704c-0.004,0.029-0.019,0.056-0.042,0.073c-0.019,0.015-0.044,0.023-0.068,0.023c-0.005,0-0.009,0-0.014-0.001
   l-1.294-0.168l-0.063,0.485l1.125,0.146c0.029,0.004,0.056,0.019,0.073,0.042c0.015,0.019,0.023,0.043,0.023,0.068
   c0,0.005,0,0.009-0.001,0.014l-0.088,0.676c-0.004,0.029-0.019,0.056-0.042,0.073c-0.019,0.015-0.043,0.023-0.068,0.023
   c-0.005,0-0.009,0-0.014-0.001l-1.12-0.145l-0.147,1.135c-0.004,0.028-0.019,0.056-0.042,0.073
   c-0.019,0.015-0.043,0.023-0.068,0.023c-0.005,0-0.009,0-0.014-0.001l-0.746-0.097c-0.029-0.004-0.056-0.019-0.073-0.042
   c-0.015-0.019-0.023-0.043-0.023-0.068C140.188,25.473,140.188,25.468,140.188,25.463z M137.682,21.101
   c0.171-0.048,0.342-0.073,0.512-0.073h0h0h0c0.151,0,0.302,0.019,0.45,0.058c0.149,0.039,0.296,0.096,0.44,0.173
   c0.226,0.119,0.417,0.269,0.571,0.448c0.154,0.179,0.27,0.388,0.347,0.623c0.059,0.179,0.089,0.36,0.089,0.542v0v0
   c0,0.15-0.02,0.3-0.06,0.45c-0.04,0.15-0.099,0.299-0.178,0.448c-0.126,0.239-0.282,0.439-0.467,0.596
   c-0.185,0.157-0.398,0.27-0.637,0.338c-0.172,0.049-0.344,0.074-0.515,0.074h0h0c-0.151,0-0.3-0.019-0.448-0.058
   c-0.148-0.039-0.294-0.096-0.438-0.172c-0.226-0.119-0.417-0.268-0.571-0.447c-0.154-0.179-0.271-0.387-0.35-0.622
   c-0.06-0.18-0.091-0.362-0.091-0.546v0v0c0-0.149,0.02-0.298,0.06-0.447c0.04-0.149,0.099-0.298,0.177-0.446
   c0.127-0.241,0.283-0.441,0.469-0.599C137.228,21.282,137.443,21.169,137.682,21.101z M136.452,19.013L136.452,19.013
   c0.009,0.009,0.018,0.018,0.027,0.027c0.085,0.087,0.16,0.179,0.224,0.276c0.064,0.097,0.117,0.198,0.158,0.304
   c0.078,0.198,0.117,0.411,0.117,0.638c0,0.016,0,0.032-0.001,0.049c-0.003,0.12-0.017,0.237-0.043,0.352
   c-0.026,0.115-0.064,0.227-0.113,0.336c-0.01,0.021-0.021,0.042-0.032,0.063c-0.004,0.007-0.009,0.014-0.013,0.021
   c-0.008,0.013-0.016,0.027-0.025,0.04c-0.001,0.002-0.002,0.004-0.004,0.006c0,0.001-0.001,0.001-0.002,0.002
   c-0.036,0.05-0.107,0.057-0.152,0.014h0l-0.536-0.511c-0.035-0.034-0.051-0.084-0.037-0.132
   c0.003-0.011,0.006-0.021,0.008-0.032c0.012-0.054,0.018-0.108,0.018-0.163v-0.003c0-0.06-0.005-0.117-0.016-0.171
   c-0.01-0.054-0.025-0.106-0.045-0.155l0,0l0,0c0,0,0,0,0,0l-0.092-0.167c-0.026-0.037-0.055-0.072-0.089-0.106l0,0l0,0
   c-0.004-0.004-0.008-0.008-0.012-0.013c-0.04-0.039-0.082-0.073-0.125-0.103c-0.044-0.029-0.09-0.054-0.138-0.074h0
   c-0.096-0.04-0.202-0.062-0.319-0.065c-0.007,0-0.014,0-0.021,0c-0.051,0-0.101,0.005-0.15,0.016
   c-0.056,0.012-0.113,0.031-0.169,0.056c-0.056,0.026-0.113,0.059-0.169,0.099c-0.057,0.04-0.113,0.089-0.17,0.144
   c-0.007,0.007-0.013,0.013-0.02,0.02c-0.053,0.054-0.1,0.108-0.138,0.163c-0.039,0.054-0.071,0.108-0.096,0.162v0
   c-0.025,0.054-0.044,0.108-0.055,0.162c-0.011,0.052-0.017,0.104-0.017,0.157c0,0.003,0,0.006,0,0.009
   c0.001,0.06,0.006,0.117,0.017,0.172s0.026,0.107,0.046,0.156c0.02,0.05,0.045,0.097,0.075,0.143
   c0.03,0.045,0.065,0.089,0.106,0.13c0.004,0.004,0.008,0.008,0.012,0.012c0.04,0.039,0.082,0.073,0.125,0.103
   c0.044,0.029,0.09,0.054,0.138,0.074c0.096,0.04,0.201,0.062,0.317,0.066h0c0.007,0,0.014,0,0.021,0
   c0.05,0,0.1-0.005,0.149-0.016c0.014-0.003,0.029-0.007,0.043-0.011c0.047-0.014,0.098-0.003,0.134,0.031l0.537,0.518
   c0,0,0,0,0,0c0.045,0.043,0.04,0.117-0.01,0.154c-0.001,0.001-0.001,0.001-0.002,0.002c-0.013,0.01-0.027,0.019-0.04,0.028
   c-0.001,0.001-0.003,0.002-0.005,0.003c-0.02,0.014-0.041,0.027-0.062,0.039c-0.005,0.003-0.01,0.006-0.016,0.009
   c-0.021,0.012-0.043,0.024-0.065,0.033v0c-0.112,0.05-0.228,0.087-0.345,0.112c-0.118,0.025-0.238,0.037-0.361,0.037h-0.003
   c-0.237,0-0.458-0.042-0.662-0.125c-0.205-0.084-0.392-0.21-0.56-0.375l0,0c-0.009-0.009-0.018-0.018-0.027-0.027
   c-0.085-0.087-0.16-0.179-0.224-0.276c-0.064-0.097-0.117-0.198-0.159-0.304c-0.08-0.2-0.119-0.417-0.119-0.647
   c0-0.013,0-0.026,0-0.04c0.002-0.12,0.016-0.238,0.042-0.353c0.026-0.115,0.063-0.227,0.112-0.336
   c0.049-0.109,0.11-0.215,0.182-0.317c0.072-0.102,0.155-0.201,0.249-0.297l0,0v0c0.01-0.01,0.02-0.02,0.03-0.03
   c0.1-0.098,0.203-0.184,0.309-0.258c0.106-0.074,0.216-0.136,0.329-0.186c0.113-0.05,0.228-0.087,0.347-0.112
   c0.117-0.025,0.237-0.037,0.359-0.037h0.003c0.238,0,0.461,0.042,0.666,0.127C136.097,18.722,136.284,18.848,136.452,19.013z
   M137.551,8.072c0,0.234-0.041,0.457-0.124,0.667c-0.083,0.21-0.207,0.406-0.37,0.588c-0.17,0.19-0.362,0.339-0.573,0.445
   c-0.211,0.106-0.442,0.169-0.689,0.188c-0.048,0.004-0.095,0.005-0.142,0.005h-0.001c-0.221,0-0.435-0.042-0.639-0.126
   c-0.204-0.084-0.397-0.208-0.579-0.372c-0.203-0.182-0.359-0.382-0.466-0.601c-0.107-0.218-0.165-0.454-0.172-0.703v0
   c-0.001-0.021-0.001-0.041-0.001-0.061V8.103c0-0.235,0.041-0.459,0.124-0.67c0.083-0.211,0.207-0.408,0.371-0.59
   c0.17-0.19,0.362-0.339,0.573-0.445c0.211-0.106,0.442-0.167,0.689-0.185c0.045-0.003,0.089-0.005,0.134-0.005h0.001
   c0.223,0,0.438,0.042,0.643,0.126c0.205,0.084,0.4,0.209,0.583,0.374c0.201,0.181,0.357,0.38,0.464,0.598
   c0.107,0.217,0.165,0.452,0.173,0.701C137.55,8.028,137.551,8.05,137.551,8.072L137.551,8.072z M141.885,6.487
   c-0.012,0.026-0.035,0.048-0.062,0.058l-0.687,0.256c-0.012,0.005-0.025,0.007-0.038,0.007c-0.016,0-0.032-0.003-0.046-0.01
   c-0.026-0.012-0.048-0.035-0.058-0.062l-0.574-1.54l-0.033,1.809c-0.001,0.045-0.029,0.086-0.072,0.101l-0.568,0.212
   c-0.013,0.005-0.026,0.007-0.039,0.007c-0.031,0-0.06-0.013-0.082-0.036l-1.202-1.326l0.567,1.52
   c0.005,0.012,0.007,0.025,0.007,0.038c0,0.016-0.003,0.032-0.01,0.046c-0.012,0.026-0.035,0.048-0.062,0.058l-0.665,0.248
   c-0.012,0.005-0.025,0.007-0.039,0.007c-0.016,0-0.032-0.003-0.046-0.01c-0.026-0.012-0.048-0.035-0.058-0.062l-1.173-3.145
   c-0.005-0.012-0.007-0.025-0.007-0.038c0-0.016,0.003-0.032,0.01-0.046c0.012-0.026,0.035-0.048,0.062-0.057l0.914-0.341
   c0.013-0.005,0.026-0.007,0.039-0.007c0.03,0,0.06,0.012,0.081,0.036l1.469,1.597l0.025-2.152
   c0.001-0.046,0.029-0.086,0.072-0.102l0.963-0.359c0.012-0.005,0.025-0.007,0.038-0.007c0.016,0,0.032,0.003,0.046,0.01
   c0.026,0.012,0.048,0.035,0.058,0.062l1.173,3.145c0.005,0.012,0.007,0.025,0.007,0.038
   C141.895,6.457,141.891,6.473,141.885,6.487z M145.013,4.216L145.013,4.216L145.013,4.216c0,0.009,0,0.017,0,0.025
   c-0.003,0.172-0.034,0.33-0.096,0.474l0,0c-0.062,0.143-0.154,0.27-0.273,0.377h0c-0.116,0.104-0.249,0.184-0.396,0.235
   c-0.148,0.052-0.31,0.077-0.484,0.077h0c-0.01,0-0.021,0-0.031,0l-0.406-0.007l-0.018,1.097c0,0.029-0.013,0.058-0.034,0.077
   c-0.02,0.02-0.049,0.031-0.077,0.031h-0.002l-0.748-0.013c-0.029,0-0.058-0.013-0.077-0.034
   c-0.02-0.02-0.031-0.049-0.031-0.077V6.478l0.057-3.356c0-0.029,0.013-0.058,0.034-0.078c0.02-0.02,0.049-0.031,0.077-0.031
   h0.002l1.264,0.021c0.181,0.003,0.348,0.033,0.5,0.091c0.151,0.058,0.286,0.145,0.401,0.258v0
   c0.112,0.11,0.198,0.236,0.255,0.376C144.985,3.899,145.013,4.052,145.013,4.216L145.013,4.216z M147.034,7.668L147.034,7.668
   L147.034,7.668c-0.144,0-0.287-0.018-0.429-0.053c-0.142-0.035-0.283-0.088-0.422-0.157c-0.228-0.114-0.423-0.259-0.581-0.434
   c-0.158-0.175-0.28-0.381-0.364-0.614c-0.069-0.191-0.104-0.385-0.104-0.582v0v0v0c0-0.143,0.018-0.286,0.055-0.43
   c0.036-0.144,0.091-0.287,0.162-0.431c0.122-0.244,0.273-0.448,0.455-0.609c0.182-0.161,0.394-0.28,0.632-0.353
   c0.184-0.057,0.368-0.085,0.552-0.085h0h0c0.144,0,0.288,0.018,0.43,0.053c0.142,0.035,0.284,0.088,0.423,0.158
   c0.228,0.114,0.423,0.259,0.581,0.435c0.158,0.176,0.279,0.382,0.361,0.615c0.067,0.189,0.102,0.382,0.102,0.577v0v0
   c0,0.144-0.018,0.288-0.055,0.432c-0.037,0.145-0.091,0.289-0.163,0.434c-0.121,0.242-0.272,0.445-0.453,0.606
   c-0.181,0.161-0.392,0.279-0.63,0.352C147.403,7.639,147.218,7.668,147.034,7.668z M149.34,9.994
   c-0.158-0.03-0.306-0.091-0.442-0.183c-0.136-0.092-0.26-0.214-0.372-0.364c-0.007-0.01-0.014-0.019-0.022-0.029
   c-0.127-0.176-0.218-0.351-0.272-0.525c-0.027-0.087-0.045-0.174-0.053-0.261c-0.003-0.036-0.005-0.072-0.005-0.107
   c0-0.05,0.003-0.1,0.01-0.15c0.022-0.165,0.066-0.315,0.133-0.449c0.069-0.137,0.132-0.233,0.243-0.331l0.006-0.005
   c0.013-0.009,0.027-0.015,0.042-0.017c0.004-0.001,0.008-0.001,0.012-0.001c0.011,0,0.022,0.002,0.032,0.006
   c0.009,0.004,0.019,0.009,0.026,0.016l0,0l0.433,0.582l0.003,0.003c0.004,0.003,0.007,0.007,0.01,0.011
   c0.01,0.014,0.016,0.03,0.017,0.047c-0.001,0.001-0.001,0.003-0.002,0.004c-0.008,0.019-0.024,0.055-0.039,0.089
   c-0.007,0.017-0.015,0.033-0.02,0.047c-0.006,0.014-0.01,0.025-0.013,0.034c-0.01,0.031-0.017,0.063-0.022,0.096v0
   c-0.002,0.018-0.004,0.036-0.004,0.055c0,0.014,0.001,0.028,0.002,0.043c0.003,0.033,0.01,0.068,0.022,0.104
   c0.023,0.072,0.063,0.148,0.121,0.23l0.002,0.003l0,0c0.002,0.003,0.004,0.006,0.006,0.009
   c0.037,0.049,0.074,0.088,0.111,0.116c0.019,0.014,0.037,0.026,0.055,0.036c0.018,0.01,0.037,0.017,0.056,0.023h0
   c0.02,0.006,0.038,0.01,0.055,0.011c0.006,0,0.012,0.001,0.018,0.001c0.011,0,0.021-0.001,0.031-0.002h0h0
   c0.016-0.003,0.031-0.007,0.046-0.013l0,0c0.015-0.007,0.031-0.015,0.047-0.027l0,0l0.003-0.002l0,0l0,0
   c0.012-0.009,0.022-0.018,0.031-0.028c0.009-0.01,0.016-0.02,0.022-0.031l0,0c0.006-0.011,0.011-0.023,0.016-0.035
   c0.004-0.013,0.007-0.027,0.009-0.042l0,0c0.001-0.011,0.002-0.023,0.002-0.035c0-0.02-0.002-0.042-0.006-0.064V8.854
   l-0.001-0.005c-0.008-0.039-0.022-0.082-0.043-0.128l0,0l-0.197-0.417l0,0l0,0l0,0c-0.064-0.136-0.106-0.271-0.126-0.404
   c-0.009-0.058-0.013-0.115-0.013-0.171c0-0.074,0.007-0.147,0.022-0.219c0.025-0.123,0.071-0.237,0.137-0.339
   c0.065-0.102,0.151-0.192,0.254-0.269l0,0c0.006-0.004,0.011-0.008,0.017-0.012c0.067-0.048,0.136-0.088,0.207-0.12
   c0.071-0.032,0.145-0.055,0.221-0.07c0.065-0.013,0.131-0.019,0.198-0.019c0.011,0,0.022,0,0.033,0
   c0.078,0.002,0.158,0.013,0.239,0.032c0.156,0.037,0.3,0.099,0.429,0.185c0.129,0.086,0.244,0.196,0.343,0.329l0,0
   c0.006,0.008,0.011,0.015,0.017,0.023c0.12,0.166,0.206,0.334,0.255,0.503c0.024,0.083,0.04,0.164,0.047,0.242
   c0.003,0.03,0.004,0.059,0.004,0.088c0,0.047-0.004,0.092-0.011,0.136c-0.022,0.134-0.059,0.255-0.112,0.362
   c-0.052,0.107-0.12,0.203-0.202,0.287c-0.003,0.003-0.007,0.007-0.011,0.009c-0.012,0.009-0.026,0.015-0.04,0.017
   c-0.004,0.001-0.009,0.001-0.013,0.001c-0.01,0-0.02-0.002-0.03-0.005c-0.009-0.003-0.018-0.008-0.026-0.014l-0.44-0.457
   l0.003-0.003l-0.039-0.033c-0.005-0.004-0.01-0.009-0.013-0.014c-0.011-0.014-0.017-0.031-0.018-0.049l0-0.005
   c0-0.011,0.002-0.022,0.006-0.033c0.016-0.038,0.032-0.085,0.044-0.126c0.006-0.02,0.012-0.039,0.016-0.054
   c0.002-0.008,0.004-0.014,0.005-0.019c0.001-0.006,0.002-0.009,0.003-0.014l0-0.001l0-0.001c0-0.001,0.003-0.026,0.003-0.051
   c0-0.006,0-0.012-0.001-0.018c-0.002-0.025-0.007-0.051-0.016-0.079c-0.009-0.028-0.021-0.057-0.037-0.087
   c-0.016-0.03-0.036-0.062-0.06-0.095c-0.002-0.003-0.005-0.006-0.007-0.009c-0.034-0.045-0.069-0.08-0.105-0.106
   c-0.018-0.013-0.037-0.024-0.056-0.033c-0.019-0.009-0.039-0.016-0.059-0.021c-0.022-0.006-0.042-0.009-0.06-0.01
   c-0.006,0-0.011,0-0.017,0c-0.012,0-0.024,0.001-0.035,0.003h0c-0.016,0.003-0.031,0.007-0.046,0.013
   c-0.015,0.006-0.029,0.014-0.044,0.025l0,0l-0.004,0.003l0,0l0,0c-0.015,0.011-0.027,0.022-0.037,0.033
   c-0.01,0.011-0.018,0.023-0.024,0.034l0,0c-0.006,0.012-0.011,0.024-0.015,0.037v0c-0.003,0.013-0.006,0.027-0.006,0.043v0
   c0,0.003,0,0.006,0,0.009c0,0.018,0.002,0.039,0.007,0.061l0.001,0.006l0,0.001c0.008,0.033,0.021,0.071,0.04,0.112l0,0
   c0,0,0,0,0,0l0,0l0.005-0.003l0.001,0l-0.007,0.003l0.192,0.41v0l0,0l0,0l0,0c0.07,0.147,0.116,0.29,0.138,0.431v0
   c0.01,0.063,0.015,0.126,0.015,0.188c0,0.076-0.008,0.15-0.023,0.223l0,0c-0.026,0.128-0.073,0.244-0.138,0.348
   c-0.066,0.104-0.151,0.195-0.253,0.271l0,0l0,0c-0.005,0.004-0.011,0.008-0.016,0.012c-0.061,0.044-0.126,0.081-0.193,0.111
   c-0.067,0.03-0.137,0.052-0.209,0.066l0,0l0,0c-0.07,0.014-0.141,0.021-0.215,0.021h-0.008
   C149.498,10.017,149.42,10.009,149.34,9.994L149.34,9.994z M153.641,11.588c-0.012,0.026-0.035,0.048-0.062,0.058l-0.661,0.247
   c-0.012,0.005-0.025,0.007-0.039,0.007c-0.016,0-0.032-0.003-0.046-0.01c-0.026-0.012-0.048-0.035-0.058-0.062l-0.444-1.187
   l-0.392,0.147l0.399,1.067c0.005,0.012,0.007,0.025,0.007,0.039c0,0.016-0.003,0.032-0.01,0.046
   c-0.012,0.026-0.035,0.048-0.062,0.058l-0.616,0.231c-0.012,0.005-0.025,0.007-0.039,0.007c-0.016,0-0.031-0.003-0.046-0.01
   c-0.026-0.012-0.048-0.035-0.058-0.062l-0.399-1.067l-0.396,0.148l0.446,1.191c0.005,0.012,0.007,0.025,0.007,0.039
   c0,0.016-0.003,0.032-0.01,0.046c-0.012,0.026-0.035,0.048-0.062,0.058l-0.665,0.249c-0.012,0.005-0.025,0.007-0.039,0.007
   c-0.016,0-0.032-0.003-0.046-0.01c-0.026-0.012-0.048-0.035-0.058-0.062l-0.747-1.995c-0.005-0.012-0.007-0.025-0.007-0.039
   c0-0.016,0.003-0.032,0.01-0.046c0.012-0.026,0.035-0.048,0.062-0.058l3.143-1.176c0.012-0.005,0.025-0.007,0.039-0.007
   c0.016,0,0.031,0.003,0.046,0.01c0.026,0.012,0.048,0.035,0.057,0.062l0.745,1.991c0.005,0.012,0.007,0.025,0.007,0.039
   C153.651,11.558,153.647,11.574,153.641,11.588z"/>
</svg>