<?xml version="1.0" encoding="UTF-8" standalone="no"?>
<!-- Created with Inkscape (http://www.inkscape.org/) -->

<svg
   xmlns:dc="http://purl.org/dc/elements/1.1/"
   xmlns:cc="http://creativecommons.org/ns#"
   xmlns:rdf="http://www.w3.org/1999/02/22-rdf-syntax-ns#"
   xmlns:svg="http://www.w3.org/2000/svg"
   xmlns="http://www.w3.org/2000/svg"
   xmlns:sodipodi="http://sodipodi.sourceforge.net/DTD/sodipodi-0.dtd"
   xmlns:inkscape="http://www.inkscape.org/namespaces/inkscape"
   width="364"
   height="273"
   viewBox="0 0 476.99998 358.99998"
   id="svg87185"
   version="1.1"
   inkscape:version="0.91 r13725"
   sodipodi:docname="seal.svg">
  <defs
     id="defs87187" />
  <sodipodi:namedview
     id="base"
     pagecolor="#ffffff"
     bordercolor="#666666"
     borderopacity="1.0"
     inkscape:pageopacity="0.0"
     inkscape:pageshadow="2"
     inkscape:zoom="1"
     inkscape:cx="355.64285"
     inkscape:cy="96.214317"
     inkscape:document-units="px"
     inkscape:current-layer="layer1"
     showgrid="false"
     fit-margin-top="0"
     fit-margin-left="0"
     fit-margin-right="0"
     fit-margin-bottom="0"
     inkscape:window-width="1858"
     inkscape:window-height="1053"
     inkscape:window-x="-8"
     inkscape:window-y="-8"
     inkscape:window-maximized="1" />
  <metadata
     id="metadata87190">
    <rdf:RDF>
      <cc:Work
         rdf:about="">
        <dc:format>image/svg+xml</dc:format>
        <dc:type
           rdf:resource="http://purl.org/dc/dcmitype/StillImage" />
        <dc:title></dc:title>
      </cc:Work>
    </rdf:RDF>
  </metadata>
  <g
     inkscape:label="Calque 1"
     inkscape:groupmode="layer"
     id="layer1"
     transform="translate(-150.07143,-158.57654)">
    <g
       id="g87086"
       transform="matrix(1.2221449,0,0,-1.2221449,1753.2093,1798.9924)">
      <ellipse
         ry="142.80331"
         rx="190.00331"
         transform="scale(1,-1)"
         cy="-1195.3704"
         cx="-1116.5925"
         id="path86346"
         style="color:#000000;clip-rule:nonzero;display:inline;overflow:visible;visibility:visible;opacity:1;isolation:auto;mix-blend-mode:normal;color-interpolation:sRGB;color-interpolation-filters:linearRGB;solid-color:#000000;solid-opacity:1;fill:none;fill-opacity:1;fill-rule:nonzero;stroke:#00529c;stroke-width:1.59333777;stroke-linecap:butt;stroke-linejoin:miter;stroke-miterlimit:4;stroke-dasharray:none;stroke-dashoffset:0;stroke-opacity:1;color-rendering:auto;image-rendering:auto;shape-rendering:auto;text-rendering:auto;enable-background:accumulate" />
      <ellipse
         style="color:#000000;clip-rule:nonzero;display:inline;overflow:visible;visibility:visible;opacity:1;isolation:auto;mix-blend-mode:normal;color-interpolation:sRGB;color-interpolation-filters:linearRGB;solid-color:#000000;solid-opacity:1;fill:none;fill-opacity:1;fill-rule:nonzero;stroke:#00529c;stroke-width:4.02943659;stroke-linecap:butt;stroke-linejoin:miter;stroke-miterlimit:4;stroke-dasharray:none;stroke-dashoffset:0;stroke-opacity:1;color-rendering:auto;image-rendering:auto;shape-rendering:auto;text-rendering:auto;enable-background:accumulate"
         id="ellipse86348"
         cx="-1116.1925"
         cy="-1195.7704"
         transform="scale(1,-1)"
         rx="181.23453"
         ry="134.89998" />
      <g
         style="fill:#00529c;fill-opacity:1"
         id="g86428"
         transform="matrix(3.9785915,0,0,-3.9833671,-2850.5119,6746.3647)">
        <g
           style="fill:#00529c;fill-opacity:1"
           id="g86430"
           transform="translate(418.1863,1401.8367)">
          <path
             d="M 0,0 C -4.81,1.143 -7.948,1.448 -8.233,0.627 -8.548,-0.284 -5.315,-2.531 0,-5.222 L 0,0 Z m 46.29,-18.721 c -0.453,-1.245 -4.701,-1.053 -11.099,0.344 l 0,-3.352 -4.482,0 0,8.88 c 0.295,0.1 0.561,0.262 0.781,0.471 0.924,-0.467 1.832,-0.943 2.717,-1.429 0.789,-0.425 0.984,-1.164 0.984,-1.569 l 0,-2.422 c 4.828,-1.031 8.021,-1.244 8.33,-0.427 0.281,0.747 -1.868,2.299 -5.594,4.246 -1.645,0.861 -3.599,1.797 -5.788,2.776 0.025,0.131 0.041,0.266 0.041,0.406 0,0.953 -0.616,1.762 -1.471,2.054 l 0,9.14 c 0,0.533 -0.211,0.888 -0.717,0.888 -0.517,0 -0.683,-0.355 -0.683,-0.888 l 0,-9.14 c -0.43,-0.148 -0.797,-0.421 -1.057,-0.78 -3.045,1.271 -6.393,2.577 -9.897,3.848 -2.798,1.014 -5.519,1.94 -8.085,2.761 -0.02,0.006 -0.04,0.011 -0.057,0.018 -1.553,0.495 -3.049,0.952 -4.471,1.366 l 0,1.857 c 0,1.27 -0.426,1.27 -1.275,1.27 l 0,-20.214 c 0.849,0 1.275,0 1.275,1.27 l 0,15.034 c 1.34,-0.416 2.844,-0.898 4.471,-1.441 l 0,-13.926 c 0,-4.101 -3.818,-3.991 -3.818,-3.991 l -6.395,0 0,15.813 C -6.987,-2.39 -11.188,0.634 -10.685,2.014 -10.241,3.229 -6.163,3.114 0,1.843 l 0,2.852 6.424,0 c 0,0 3.789,0.159 3.789,-4.138 l 0,-1.35 c 0.834,-0.251 1.682,-0.515 2.543,-0.789 l 0,6.262 4.443,0 0,-7.744 0.533,-0.188 1.258,7.932 4.578,0 -1.812,-9.404 c 1.056,-0.401 2.09,-0.804 3.101,-1.21 l 0,6.671 c 0,3.461 2.924,4.098 5.174,4.098 2.223,0 5.16,-0.643 5.16,-4.136 l 0,-11.232 c 7.242,-3.603 11.613,-6.779 11.099,-8.188 m -18.452,7.924 c 0,-0.953 0.615,-1.761 1.471,-2.052 l 0,-8.88 -4.452,0 0,12.439 c 0.998,-0.432 1.998,-0.876 2.989,-1.333 -0.004,-0.057 -0.008,-0.115 -0.008,-0.174 m -7.057,1.013 2.561,-11.908 -4.172,0 -1.971,10.245 0,-10.245 -4.443,0 0,17.072 c 2.639,-0.917 5.498,-1.97 8.416,-3.139 l -0.391,-2.025 z"
             style="fill:#00529c;fill-opacity:1;fill-rule:nonzero;stroke:none"
             id="path86432"
             inkscape:connector-curvature="0" />
        </g>
      </g>
      <g
         style="fill:#00529c;fill-opacity:1"
         transform="matrix(1.7330446,1.4007537,1.402435,-1.7351247,-3903.9378,2763.2892)"
         id="g86542">
        <g
           style="fill:#00529c;fill-opacity:1"
           transform="translate(555.8846,1384.8552)"
           id="g86544">
          <path
             inkscape:connector-curvature="0"
             id="path86546"
             style="fill:#00529c;fill-opacity:1;fill-rule:evenodd;stroke:none"
             d="m 0,0 0,9.214 -1.793,0 0,-7.233 -2.607,0 0,7.233 -2.039,0 0,-7.233 -2.702,0 0,7.233 -2.277,0 0,1.794 15.104,0 0,-1.794 -0.93,0 0,-8.848 C 2.756,-1.053 2.145,-1.75 0.58,-1.75 l -11.445,0 0,1.75 L 0,0 Z" />
        </g>
      </g>
      <g
         id="g86602"
         transform="matrix(2.1485619,0.59096196,0.59167129,-2.1511408,-3024.2284,3768.3772)"
         style="fill:#00529c;fill-opacity:1">
        <g
           id="g86604"
           transform="translate(526.6111,1391.8552)"
           style="fill:#00529c;fill-opacity:1">
          <path
             d="m 0,0 0,1.788 11.109,0 0,2.668 2.797,0 0,-2.824 C 13.906,0.722 13.404,0 12.201,0 L 0,0 Z"
             style="fill:#00529c;fill-opacity:1;fill-rule:evenodd;stroke:none"
             id="path86606"
             inkscape:connector-curvature="0" />
        </g>
      </g>
      <g
         id="g86608"
         transform="matrix(2.1485619,0.59096196,0.59167129,-2.1511408,-3024.2284,3768.3772)"
         style="fill:#00529c;fill-opacity:1">
        <g
           id="g86610"
           transform="translate(537.6346,1383.1121)"
           style="fill:#00529c;fill-opacity:1">
          <path
             d="m 0,0 0,8.063 2.779,0 0,-3.011 2.03,0 0,-1.794 -2.03,0 L 2.779,0 0,0 Z"
             style="fill:#00529c;fill-opacity:1;fill-rule:evenodd;stroke:none"
             id="path86612"
             inkscape:connector-curvature="0" />
        </g>
      </g>
      <g
         id="g86614"
         transform="matrix(2.1485619,0.59096196,0.59167129,-2.1511408,-3024.2284,3768.3772)"
         style="fill:#00529c;fill-opacity:1">
        <g
           id="g86616"
           transform="translate(531.1795,1389.5818)"
           style="fill:#00529c;fill-opacity:1">
          <path
             d="m 0,0 c -1.367,0 -2.473,-0.815 -2.473,-1.82 0,-1.006 1.106,-1.824 2.473,-1.824 1.367,0 2.475,0.818 2.475,1.824 C 2.475,-0.815 1.367,0 0,0 m 3.115,-4.422 1.297,0 0.975,0 -0.014,-1.705 -3.652,0 0,-0.939 -3.033,0.007 0,0.932 -3.944,0 0.024,1.705 1.703,0 0.414,0 c -1.293,0.613 -2.135,1.591 -2.135,2.697 0,1.853 2.352,3.355 5.25,3.355 2.9,0 5.252,-1.502 5.252,-3.355 0,-1.106 -0.844,-2.084 -2.137,-2.697"
             style="fill:#00529c;fill-opacity:1;fill-rule:evenodd;stroke:none"
             id="path86618"
             inkscape:connector-curvature="0" />
        </g>
      </g>
      <g
         id="g86620"
         transform="matrix(2.2280842,0.03457561,0.03461714,-2.2307585,-2314.7045,4168.6227)"
         style="fill:#00529c;fill-opacity:1">
        <g
           id="g86622"
           transform="translate(519.3709,1383.1111)"
           style="fill:#00529c;fill-opacity:1">
          <path
             d="m 0,0 2.645,0 0,13.2 -2.645,0 0,-6.595 -1.238,0 0,6.595 -2.5,0 -0.004,-1.481 -6.107,0.214 c -1.084,0.018 -1.879,-0.777 -1.894,-1.799 l 0,-10.134 6.455,0 0,1.845 -3.701,0 0,8.289 5.214,-0.18 0.004,-9.954 2.533,0 0,4.646 L 0,4.646 0,0 Z"
             style="fill:#00529c;fill-opacity:1;fill-rule:evenodd;stroke:none"
             id="path86624"
             inkscape:connector-curvature="0" />
        </g>
      </g>
      <g
         id="g86626"
         transform="matrix(2.1213017,-0.6823734,-0.68319241,-2.1238479,-1281.0428,4386.055)"
         style="fill:#00529c;fill-opacity:1">
        <g
           id="g86628"
           transform="translate(488.7918,1383.1111)"
           style="fill:#00529c;fill-opacity:1">
          <path
             d="m 0,0 0,1.845 11.275,0 0.01,3.068 -11.779,-0.006 0,1.697 5.805,0 0,2.131 -5.457,0 0,1.721 11.525,0 0,2.959 2.873,0 0,-3.299 c 0,-0.726 -0.43,-1.381 -1.356,-1.381 l -4.453,0 0,-2.131 6.495,0 0,-1.697 -0.891,0.006 0.01,-2.703 C 14.057,0.691 13.1,0 12.006,0 L 0,0 Z"
             style="fill:#00529c;fill-opacity:1;fill-rule:evenodd;stroke:none"
             id="path86630"
             inkscape:connector-curvature="0" />
        </g>
      </g>
      <g
         transform="matrix(1.6421325,-1.5063052,-1.5081131,-1.6441035,81.514213,4127.8254)"
         id="g86632"
         style="fill:#00529c;fill-opacity:1">
        <g
           transform="translate(478.3729,1384.9558)"
           id="g86634"
           style="fill:#00529c;fill-opacity:1">
          <path
             inkscape:connector-curvature="0"
             id="path86636"
             style="fill:#00529c;fill-opacity:1;fill-rule:evenodd;stroke:none"
             d="m 0,0 0,-1.845 -9.174,0 0,5.741 c 0,0.833 0.543,1.583 1.545,1.583 L 2.941,5.081 2.941,3.282 -6.424,3.681 -6.424,0 0,0 Z" />
        </g>
      </g>
      <g
         transform="matrix(1.6421325,-1.5063052,-1.5081131,-1.6441035,81.514213,4127.8254)"
         id="g86638"
         style="fill:#00529c;fill-opacity:1">
        <g
           transform="translate(479.0936,1394.5125)"
           id="g86640"
           style="fill:#00529c;fill-opacity:1">
          <path
             inkscape:connector-curvature="0"
             id="path86642"
             style="fill:#00529c;fill-opacity:1;fill-rule:nonzero;stroke:none"
             d="m 0,0 -6.262,0 0,-2.834 -2.92,0 0,2.78 c 0,1.38 0.608,1.848 1.399,1.853 l 12.248,0 0,-1.796 L 0,0.003 0,0 Z" />
        </g>
      </g>
      <g
         id="g86644"
         transform="matrix(1.6421325,-1.5063052,-1.5081131,-1.6441035,81.514213,4127.8254)"
         style="fill:#00529c;fill-opacity:1">
        <g
           id="g86646"
           transform="translate(478.3729,1384.9558)"
           style="fill:#00529c;fill-opacity:1">
          <path
             d="m 0,0 0,-1.845 -9.174,0 0,5.741 c 0,0.833 0.543,1.583 1.545,1.583 L 2.941,5.081 2.941,3.282 -6.424,3.681 -6.424,0 0,0 Z"
             style="fill:#00529c;fill-opacity:1;fill-rule:evenodd;stroke:none"
             id="path86648"
             inkscape:connector-curvature="0" />
        </g>
      </g>
      <g
         id="g86650"
         transform="matrix(1.6421325,-1.5063052,-1.5081131,-1.6441035,81.514213,4127.8254)"
         style="fill:#00529c;fill-opacity:1">
        <g
           id="g86652"
           transform="translate(479.0936,1394.5125)"
           style="fill:#00529c;fill-opacity:1">
          <path
             d="m 0,0 -6.262,0 0,-2.834 -2.92,0 0,2.78 c 0,1.38 0.608,1.848 1.399,1.853 l 12.248,0 0,-1.796 L 0,0.003 0,0 Z"
             style="fill:#00529c;fill-opacity:1;fill-rule:nonzero;stroke:none"
             id="path86654"
             inkscape:connector-curvature="0" />
        </g>
      </g>
      <g
         id="g86656"
         transform="matrix(1.6421325,-1.5063052,-1.5081131,-1.6441035,81.514213,4127.8254)"
         style="fill:#00529c;fill-opacity:1">
        <g
           id="g86658"
           transform="translate(485.6746,1389.2048)"
           style="fill:#00529c;fill-opacity:1">
          <path
             d="m 0,0 0,-1.846 -2.116,0 0,-4.248 -2.764,0 0,9.51 2.764,0 L -2.116,0 0,0 Z"
             style="fill:#00529c;fill-opacity:1;fill-rule:nonzero;stroke:none"
             id="path86660"
             inkscape:connector-curvature="0" />
        </g>
      </g>
      <g
         style="fill:#00529c;fill-opacity:1"
         id="g86662"
         transform="matrix(1.6956718,4.3561989,4.3614278,-1.6977072,-8174.4042,1547.3758)">
        <g
           style="fill:#00529c;fill-opacity:1"
           id="g86664"
           transform="translate(472.0662,1399.8777)">
          <path
             d="m 0,0 c 0,-0.065 -0.025,-0.127 -0.08,-0.178 -0.053,-0.054 -0.119,-0.087 -0.201,-0.102 -0.01,-0.004 -0.11,-0.006 -0.301,-0.003 -0.191,0.003 -0.293,0.003 -0.303,0.003 l 0,4.034 0.299,0 c 0.19,0 0.289,-0.003 0.299,-0.008 C -0.205,3.73 -0.139,3.699 -0.082,3.649 -0.027,3.599 0,3.538 0,3.466 L 0,0 Z m -2.156,-0.978 2.113,0 c 0.34,0 0.647,0.087 0.916,0.26 0.272,0.173 0.406,0.441 0.406,0.805 l 0,3.293 C 1.279,3.715 1.154,3.977 0.902,4.162 0.65,4.351 0.34,4.443 -0.029,4.443 l -2.127,0 0,-5.421 z"
             style="fill:#00529c;fill-opacity:1;fill-rule:nonzero;stroke:none"
             id="path86666"
             inkscape:connector-curvature="0" />
        </g>
      </g>
      <g
         style="fill:#00529c;fill-opacity:1"
         id="g86668"
         transform="matrix(2.7386863,3.7883201,3.7928673,-2.7419737,-7872.8208,3278.9289)">
        <path
           d="m 476.617,1402.108 1.33,0 0,0.748 -1.33,0 0,-0.748 z m -0.166,2.221 -1.264,0 1.237,-5.429 1.58,0 1.236,5.429 -1.266,0 -0.759,-3.824 -0.764,3.824 z"
           style="fill:#00529c;fill-opacity:1;fill-rule:nonzero;stroke:none"
           id="path86670"
           inkscape:connector-curvature="0" />
      </g>
      <g
         style="fill:#00529c;fill-opacity:1"
         id="g86672"
         transform="matrix(3.4376244,3.1677295,3.1715318,-3.4417508,-7339.7782,4555.3889)">
        <g
           style="fill:#00529c;fill-opacity:1"
           id="g86674"
           transform="translate(483.5623,1404.3191)">
          <path
             d="m 0,0 -1.389,-3.197 0,3.197 -1.062,0 0,-5.426 1.445,0 1.25,3.278 0,-3.278 1.058,0 L 1.302,0 0,0 Z"
             style="fill:#00529c;fill-opacity:1;fill-rule:nonzero;stroke:none"
             id="path86676"
             inkscape:connector-curvature="0" />
        </g>
      </g>
      <g
         style="fill:#00529c;fill-opacity:1"
         id="g86678"
         transform="matrix(3.9288556,2.5329558,2.5359962,-3.9335716,-6689.5565,5551.1969)">
        <g
           style="fill:#00529c;fill-opacity:1"
           id="g86680"
           transform="translate(488.9695,1404.3289)">
          <path
             d="m 0,0 -0.936,-2.027 0,2.027 -1.263,0 0,-5.429 1.263,0 0,1.813 0.985,-1.813 1.273,0 L 0.014,-2.955 1.473,0 0,0 Z"
             style="fill:#00529c;fill-opacity:1;fill-rule:nonzero;stroke:none"
             id="path86682"
             inkscape:connector-curvature="0" />
        </g>
      </g>
      <g
         style="fill:#00529c;fill-opacity:1"
         id="g86684"
         transform="matrix(4.1897504,2.0731048,2.0755932,-4.1947795,-6174.4477,6142.2342)">
        <g
           style="fill:#00529c;fill-opacity:1"
           id="g86686"
           transform="translate(494.4109,1399.7898)">
          <path
             d="M 0,0 C 0,-0.043 -0.014,-0.078 -0.041,-0.104 -0.066,-0.131 -0.104,-0.146 -0.15,-0.152 -0.156,-0.156 -0.209,-0.159 -0.311,-0.162 -0.41,-0.164 -0.465,-0.166 -0.475,-0.166 l -0.166,0 c -0.099,0 -0.154,0.002 -0.166,0.007 -0.043,0.005 -0.076,0.022 -0.103,0.052 -0.026,0.027 -0.039,0.061 -0.039,0.1 l 0,3.638 c 0,0.032 0.013,0.064 0.039,0.094 0.027,0.027 0.058,0.046 0.098,0.055 0.009,0.005 0.064,0.01 0.169,0.016 0.102,0.003 0.159,0.006 0.168,0.006 0.01,0 0.067,-0.003 0.17,-0.006 C -0.203,3.79 -0.15,3.785 -0.143,3.78 -0.1,3.771 -0.066,3.752 -0.041,3.725 -0.014,3.695 0,3.663 0,3.631 L 0,0 Z m -2.178,0.136 c 0,-0.288 0.127,-0.529 0.381,-0.726 0.254,-0.197 0.572,-0.305 0.955,-0.324 l 0.192,0 0.183,0 0.176,0 0.176,0 c 0.386,0.016 0.713,0.12 0.97,0.317 0.258,0.196 0.389,0.438 0.389,0.726 l 0,3.443 C 1.244,3.879 1.117,4.116 0.867,4.283 0.615,4.452 0.287,4.54 -0.115,4.55 l -0.18,0 -0.18,0 -0.179,0 -0.18,0 C -1.217,4.535 -1.537,4.436 -1.793,4.252 -2.051,4.067 -2.178,3.844 -2.178,3.58 l 0,-3.444 z"
             style="fill:#00529c;fill-opacity:1;fill-rule:nonzero;stroke:none"
             id="path86688"
             inkscape:connector-curvature="0" />
        </g>
      </g>
      <g
         style="fill:#00529c;fill-opacity:1"
         id="g86690"
         transform="matrix(4.4968037,1.2769215,1.2784542,-4.5022014,-5211.5638,6967.6387)">
        <g
           style="fill:#00529c;fill-opacity:1"
           id="g86692"
           transform="translate(499.7313,1399.7898)">
          <path
             d="m 0,0 c 0,-0.043 -0.014,-0.078 -0.039,-0.104 -0.027,-0.027 -0.065,-0.042 -0.113,-0.048 -0.004,-0.004 -0.057,-0.007 -0.159,-0.01 -0.099,-0.002 -0.154,-0.004 -0.164,-0.004 l -0.166,0 c -0.099,0 -0.156,0.002 -0.166,0.007 -0.043,0.005 -0.076,0.022 -0.103,0.052 -0.026,0.027 -0.039,0.061 -0.039,0.1 l 0,3.638 c 0,0.032 0.013,0.064 0.039,0.094 0.027,0.027 0.058,0.046 0.098,0.055 0.009,0.005 0.064,0.01 0.167,0.016 0.104,0.003 0.161,0.006 0.17,0.006 0.01,0 0.065,-0.003 0.168,-0.006 C -0.203,3.79 -0.15,3.785 -0.145,3.78 -0.102,3.771 -0.066,3.752 -0.039,3.725 -0.014,3.695 0,3.663 0,3.631 L 0,0 Z m -2.18,0.136 c 0,-0.288 0.127,-0.529 0.381,-0.726 0.254,-0.197 0.574,-0.305 0.957,-0.324 l 0.192,0 0.181,0 0.178,0 0.176,0 c 0.386,0.016 0.711,0.12 0.97,0.317 0.258,0.196 0.389,0.438 0.389,0.726 l 0,3.443 C 1.244,3.879 1.117,4.116 0.865,4.283 0.613,4.452 0.287,4.54 -0.115,4.55 l -0.18,0 -0.18,0 -0.181,0 -0.178,0 C -1.219,4.535 -1.537,4.436 -1.793,4.252 -2.051,4.067 -2.18,3.844 -2.18,3.58 l 0,-3.444 z"
             style="fill:#00529c;fill-opacity:1;fill-rule:nonzero;stroke:none"
             id="path86694"
             inkscape:connector-curvature="0" />
        </g>
      </g>
      <g
         style="fill:#00529c;fill-opacity:1"
         id="g86696"
         transform="matrix(4.6204166,0.70959307,0.71044479,-4.6259627,-4479.6735,7426.057)">
        <g
           style="fill:#00529c;fill-opacity:1"
           id="g86698"
           transform="translate(505.0711,1404.3289)">
          <path
             d="m 0,0 -0.934,-2.027 0,2.027 -1.265,0 0,-5.429 1.265,0 0,1.813 0.985,-1.813 1.273,0 L 0.016,-2.955 1.475,0 0,0 Z"
             style="fill:#00529c;fill-opacity:1;fill-rule:nonzero;stroke:none"
             id="path86700"
             inkscape:connector-curvature="0" />
        </g>
      </g>
      <g
         style="fill:#00529c;fill-opacity:1"
         id="g86702"
         transform="matrix(4.6745703,-0.01282107,-0.0128365,-4.6801814,-3498.0299,7869.874)">
        <g
           style="fill:#00529c;fill-opacity:1"
           id="g86704"
           transform="translate(512.5203,1398.9001)">
          <path
             d="M 0,0 0,4.565 C 0,4.604 0.014,4.637 0.043,4.662 0.07,4.688 0.109,4.707 0.156,4.717 0.168,4.722 0.221,4.724 0.318,4.724 l 0.157,0 0.164,0 C 0.74,4.724 0.793,4.722 0.797,4.717 0.84,4.707 0.877,4.688 0.906,4.662 0.934,4.637 0.949,4.604 0.949,4.565 l 0,-4.565 1.265,0 0,4.494 c 0,0.301 -0.127,0.538 -0.386,0.708 -0.256,0.17 -0.59,0.26 -1.002,0.269 l -0.176,0 -0.175,0 -0.17,0 -0.17,0 C -0.244,5.462 -0.572,5.381 -0.854,5.227 -1.133,5.073 -1.273,4.831 -1.273,4.501 L -1.273,0 0,0 Z"
             style="fill:#00529c;fill-opacity:1;fill-rule:nonzero;stroke:none"
             id="path86706"
             inkscape:connector-curvature="0" />
        </g>
      </g>
      <g
         style="fill:#00529c;fill-opacity:1"
         id="g86708"
         transform="matrix(4.6626876,-0.33334121,-0.33374138,-4.6682844,-3044.0594,8018.1213)">
        <g
           style="fill:#00529c;fill-opacity:1"
           id="g86710"
           transform="translate(519.0916,1404.3191)">
          <path
             d="m 0,0 -1.389,-3.197 0,3.197 -1.064,0 0,-5.426 1.445,0 1.252,3.278 0,-3.278 1.057,0 L 1.301,0 0,0 Z"
             style="fill:#00529c;fill-opacity:1;fill-rule:nonzero;stroke:none"
             id="path86712"
             inkscape:connector-curvature="0" />
        </g>
      </g>
      <g
         style="fill:#00529c;fill-opacity:1"
         id="g86714"
         transform="matrix(4.5998747,-0.83242077,-0.83342001,-4.6053962,-2313.7149,8190.1828)">
        <path
           d="m 522.33,1398.9 1.266,0 0,5.421 -1.266,0 0,-5.421 z"
           style="fill:#00529c;fill-opacity:1;fill-rule:nonzero;stroke:none"
           id="path86716"
           inkscape:connector-curvature="0" />
      </g>
      <g
         style="fill:#00529c;fill-opacity:1"
         id="g86718"
         transform="matrix(4.4866461,-1.3121656,-1.3137407,-4.4920316,-1583.2054,8283.3828)">
        <g
           style="fill:#00529c;fill-opacity:1"
           id="g86720"
           transform="translate(528.2811,1404.3289)">
          <path
             d="m 0,0 -1.789,0 -1.043,-5.429 1.228,0 0.713,3.589 0.696,-3.589 1.244,0 L 0,0 Z"
             style="fill:#00529c;fill-opacity:1;fill-rule:nonzero;stroke:none"
             id="path86722"
             inkscape:connector-curvature="0" />
        </g>
      </g>
      <g
         style="fill:#00529c;fill-opacity:1"
         id="g86724"
         transform="matrix(4.2442347,-1.9591436,-1.9614952,-4.2493292,-548.3991,8287.3907)">
        <g
           style="fill:#00529c;fill-opacity:1"
           id="g86726"
           transform="translate(531.1326,1404.321)">
          <path
             d="m 0,0 0,-5.421 2.99,0 0,0.691 -1.724,0 0,1.467 1.609,0 0,0.655 -1.609,0 0,1.919 1.738,0 L 3.004,0 0,0 Z"
             style="fill:#00529c;fill-opacity:1;fill-rule:nonzero;stroke:none"
             id="path86728"
             inkscape:connector-curvature="0" />
        </g>
      </g>
      <g
         style="fill:#00529c;fill-opacity:1"
         id="g86730"
         transform="matrix(3.975663,-2.4588362,-2.4617877,-3.9804352,294.85897,8179.1066)">
        <g
           style="fill:#00529c;fill-opacity:1"
           id="g86732"
           transform="translate(538.1776,1399.8777)">
          <path
             d="m 0,0 c 0,-0.071 -0.033,-0.136 -0.1,-0.193 -0.068,-0.058 -0.15,-0.088 -0.246,-0.094 l -0.287,0 -0.295,0 0,1.474 0.295,0 0.287,0 C -0.25,1.177 -0.168,1.146 -0.1,1.094 -0.033,1.041 0,0.976 0,0.9 L 0,0 Z M 0,4.458 C -0.01,4.366 -0.012,4.264 -0.004,4.148 0.002,4.033 0.008,3.823 0.008,3.517 l 0,-0.166 0,-0.164 C 0.008,2.994 0.006,2.769 0.002,2.511 0.002,2.25 0,2.119 0,2.114 0,2.043 -0.033,1.979 -0.1,1.927 -0.168,1.875 -0.25,1.846 -0.346,1.842 l -0.287,0 -0.295,0 0,2.609 -1.265,0 0,-5.429 2.093,0 c 0.354,0 0.664,0.072 0.932,0.213 0.264,0.142 0.397,0.378 0.397,0.709 l 0,0.697 c 0,0.177 -0.073,0.346 -0.221,0.507 -0.151,0.16 -0.336,0.274 -0.563,0.341 0.227,0.048 0.414,0.157 0.565,0.327 0.15,0.17 0.226,0.358 0.226,0.565 l 0,0.97 c 0,0.37 -0.002,0.627 -0.007,0.772 -0.004,0.148 0.007,0.259 0.037,0.335 L 0,4.458 Z"
             style="fill:#00529c;fill-opacity:1;fill-rule:nonzero;stroke:none"
             id="path86734"
             inkscape:connector-curvature="0" />
        </g>
      </g>
      <g
         style="fill:#00529c;fill-opacity:1"
         id="g86736"
         transform="matrix(3.5929011,-2.9904571,-2.9940467,-3.5972139,1245.393,7931.2815)">
        <g
           style="fill:#00529c;fill-opacity:1"
           id="g86738"
           transform="translate(542.4549,1402.2703)">
          <path
             d="M 0,0 0,1.093 C 0,1.141 0.014,1.181 0.047,1.211 0.078,1.244 0.119,1.264 0.174,1.272 0.182,1.278 0.238,1.281 0.338,1.287 0.439,1.292 0.494,1.294 0.502,1.294 0.518,1.294 0.574,1.292 0.676,1.287 0.777,1.281 0.828,1.278 0.834,1.272 0.887,1.264 0.926,1.244 0.953,1.211 0.979,1.181 0.992,1.141 0.992,1.093 l 0,-0.417 C 0.992,0.537 0.889,0.393 0.684,0.24 0.477,0.09 0.312,-0.038 0.195,-0.144 -0.344,-0.638 -0.701,-0.977 -0.881,-1.164 -1.061,-1.351 -1.15,-1.545 -1.15,-1.746 l 0,-0.59 c 0,-0.293 0.13,-0.537 0.394,-0.737 0.266,-0.199 0.596,-0.302 0.994,-0.313 l 0.168,0 0.162,0 0.162,0 0.155,0 c 0.363,0.005 0.666,0.099 0.908,0.284 0.242,0.185 0.363,0.41 0.363,0.672 l 0,1.022 -1.164,0 0,-1.035 C 0.992,-2.482 0.982,-2.521 0.959,-2.56 0.939,-2.598 0.908,-2.621 0.869,-2.631 0.865,-2.636 0.811,-2.64 0.709,-2.642 0.605,-2.645 0.549,-2.646 0.539,-2.646 l -0.168,0 c -0.1,0 -0.152,0.002 -0.162,0.008 -0.049,0.02 -0.086,0.042 -0.111,0.072 -0.028,0.029 -0.039,0.081 -0.039,0.158 l 0.005,0.51 c 0.004,0.139 0.073,0.263 0.202,0.371 0.129,0.108 0.257,0.216 0.382,0.327 0.526,0.474 0.928,0.824 1.204,1.049 0.275,0.224 0.412,0.458 0.412,0.697 l 0,0.46 c 0,0.298 -0.131,0.548 -0.399,0.752 -0.265,0.205 -0.601,0.31 -1.01,0.32 l -0.169,0 -0.161,0 -0.17,0 -0.168,0 C -0.195,2.068 -0.516,1.972 -0.77,1.787 -1.023,1.602 -1.15,1.373 -1.15,1.1 L -1.15,0 0,0 Z"
             style="fill:#00529c;fill-opacity:1;fill-rule:nonzero;stroke:none"
             id="path86740"
             inkscape:connector-curvature="0" />
        </g>
      </g>
      <g
         style="fill:#00529c;fill-opacity:1"
         id="g86742"
         transform="matrix(3.0152141,-3.5721501,-3.5764379,-3.0188333,2375.3747,7439.2388)">
        <path
           d="m 546.648,1398.9 1.268,0 0,5.421 -1.268,0 0,-5.421 z"
           style="fill:#00529c;fill-opacity:1;fill-rule:nonzero;stroke:none"
           id="path86744"
           inkscape:connector-curvature="0" />
      </g>
      <g
         style="fill:#00529c;fill-opacity:1"
         id="g86746"
         transform="matrix(2.4229174,-3.9976547,-4.0024533,-2.4258257,3296.9273,6843.501)">
        <g
           style="fill:#00529c;fill-opacity:1"
           id="g86748"
           transform="translate(552.033,1399.5974)">
          <path
             d="m 0,0 0,4.724 -1.266,0 0,-4.724 -0.941,0 0,-0.697 3.148,0 L 0.941,0 0,0 Z"
             style="fill:#00529c;fill-opacity:1;fill-rule:nonzero;stroke:none"
             id="path86750"
             inkscape:connector-curvature="0" />
        </g>
      </g>
      <g
         style="fill:#00529c;fill-opacity:1"
         id="g86752"
         transform="matrix(1.3192895,-4.4845565,-4.4899395,-1.3208731,4591.4187,5566.0892)">
        <g
           style="fill:#00529c;fill-opacity:1"
           id="g86754"
           transform="translate(557.8221,1401.1521)">
          <path
             d="m 0,0 -0.488,1.236 0,1.941 -1.274,0 0,-1.906 C -1.766,1.19 -1.814,1.019 -1.904,0.754 -1.996,0.489 -2.082,0.241 -2.164,0.007 -2.23,-0.195 -2.365,-0.517 -2.566,-0.957 c -0.202,-0.44 -0.372,-0.872 -0.51,-1.295 l 1.207,0 0.834,2.143 0.92,-2.143 1.136,0 L 0,0 Z"
             style="fill:#00529c;fill-opacity:1;fill-rule:nonzero;stroke:none"
             id="path86756"
             inkscape:connector-curvature="0" />
        </g>
      </g>
      <circle
         transform="scale(1,-1)"
         r="2.8923073"
         cy="-1169.1704"
         cx="-961.99249"
         id="path86854"
         style="color:#000000;clip-rule:nonzero;display:inline;overflow:visible;visibility:visible;opacity:1;isolation:auto;mix-blend-mode:normal;color-interpolation:sRGB;color-interpolation-filters:linearRGB;solid-color:#000000;solid-opacity:1;fill:#00529c;fill-opacity:1;fill-rule:nonzero;stroke:none;stroke-width:3.6153841;stroke-linecap:butt;stroke-linejoin:miter;stroke-miterlimit:4;stroke-dasharray:none;stroke-dashoffset:0;stroke-opacity:1;color-rendering:auto;image-rendering:auto;shape-rendering:auto;text-rendering:auto;enable-background:accumulate" />
      <circle
         style="color:#000000;clip-rule:nonzero;display:inline;overflow:visible;visibility:visible;opacity:1;isolation:auto;mix-blend-mode:normal;color-interpolation:sRGB;color-interpolation-filters:linearRGB;solid-color:#000000;solid-opacity:1;fill:#00529c;fill-opacity:1;fill-rule:nonzero;stroke:none;stroke-width:3.6153841;stroke-linecap:butt;stroke-linejoin:miter;stroke-miterlimit:4;stroke-dasharray:none;stroke-dashoffset:0;stroke-opacity:1;color-rendering:auto;image-rendering:auto;shape-rendering:auto;text-rendering:auto;enable-background:accumulate"
         id="circle86856"
         cx="-1269.6853"
         cy="-1169.1704"
         r="2.8923073"
         transform="scale(1,-1)" />
      <path
         d="m -1159.7474,1126.573 c -0.3793,-4.3487 2.8822,-5.0819 4.6267,-5.0819 4.5509,0 5.1577,2.5789 4.8796,5.0566 -0.1011,0.9607 -1.4158,2.326 -2.2501,2.8064 l -2.68,1.8203 c -0.6321,0.4298 -1.2389,0.8091 -1.2389,1.6434 0,0.8091 0.6068,1.163 1.3906,1.163 1.1377,0 1.5928,-0.6068 1.5169,-2.1996 l 3.2868,0 c 0.076,3.0592 -1.3906,4.7279 -4.5762,4.7279 -3.1603,0 -4.9049,-1.2641 -4.9049,-3.4637 0,-2.0479 1.0619,-3.3627 2.7053,-4.5004 l 1.7951,-1.2388 c 0.6321,-0.4298 1.5675,-0.8849 1.6181,-1.694 0.2275,-0.9102 -0.4298,-1.5928 -1.3653,-1.5928 -0.7585,0 -1.7698,-0.076 -1.517,2.5536 l -3.2867,0 z"
         style="font-style:normal;font-variant:normal;font-weight:bold;font-stretch:condensed;font-size:medium;line-height:125%;font-family:'Helvetica Condensed';-inkscape-font-specification:'Helvetica Condensed, Bold Condensed';letter-spacing:0px;word-spacing:0px;fill:#00529c;fill-opacity:1;stroke:none;stroke-width:1px;stroke-linecap:butt;stroke-linejoin:miter;stroke-opacity:1"
         id="path86863"
         inkscape:connector-curvature="0" />
      <path
         d="m -1144.1136,1121.8704 0,14.2595 -3.2867,0 0,-14.2595 3.2867,0 z m 0,15.9787 0,2.9834 -3.2867,0 0,-2.9834 3.2867,0 z"
         style="font-style:normal;font-variant:normal;font-weight:bold;font-stretch:condensed;font-size:medium;line-height:125%;font-family:'Helvetica Condensed';-inkscape-font-specification:'Helvetica Condensed, Bold Condensed';letter-spacing:0px;word-spacing:0px;fill:#00529c;fill-opacity:1;stroke:none;stroke-width:1px;stroke-linecap:butt;stroke-linejoin:miter;stroke-opacity:1"
         id="path86865"
         inkscape:connector-curvature="0" />
      <path
         d="m -1137.4302,1136.1299 -3.2868,0 0,-14.2595 3.2868,0 0,9.2282 c -0.051,1.517 0.3792,2.68 1.6181,2.6294 1.2389,-0.051 1.3906,-0.9608 1.3906,-2.3513 l 0,-9.5063 3.2867,0 0,10.998 c 0.1011,2.5535 -1.4158,3.6407 -3.2867,3.6407 -0.7585,0 -2.2249,-0.2023 -2.9581,-1.8456 l -0.051,0 0,1.4664 z"
         style="font-style:normal;font-variant:normal;font-weight:bold;font-stretch:condensed;font-size:medium;line-height:125%;font-family:'Helvetica Condensed';-inkscape-font-specification:'Helvetica Condensed, Bold Condensed';letter-spacing:0px;word-spacing:0px;fill:#00529c;fill-opacity:1;stroke:none;stroke-width:1px;stroke-linecap:butt;stroke-linejoin:miter;stroke-opacity:1"
         id="path86867"
         inkscape:connector-curvature="0" />
      <path
         d="m -1119.4288,1131.1744 0,1.1378 c 0.025,2.1237 -1.1883,4.1969 -4.5004,4.1969 -2.503,0 -4.475,-1.0619 -4.4498,-5.0566 l 0,-4.6267 c -0.1264,-3.7924 1.5423,-5.3347 4.4498,-5.3347 3.2615,0 4.5004,1.6434 4.5004,4.6268 l 0,1.3147 -3.2868,0 0,-1.3147 c -0.1011,-1.1378 -0.1264,-2.0732 -1.1377,-2.0985 -0.9861,0.1264 -1.3147,0.6321 -1.2389,3.4132 l 0,3.3626 c -0.025,1.7445 -0.025,3.1856 1.2389,3.1856 0.7079,0 1.0871,-0.4298 1.1377,-1.2136 l 0,-1.5928 3.2868,0 z"
         style="font-style:normal;font-variant:normal;font-weight:bold;font-stretch:condensed;font-size:medium;line-height:125%;font-family:'Helvetica Condensed';-inkscape-font-specification:'Helvetica Condensed, Bold Condensed';letter-spacing:0px;word-spacing:0px;fill:#00529c;fill-opacity:1;stroke:none;stroke-width:1px;stroke-linecap:butt;stroke-linejoin:miter;stroke-opacity:1"
         id="path86869"
         inkscape:connector-curvature="0" />
      <path
         d="m -1117.0685,1127.4831 c -0.076,-4.1969 1.4664,-5.992 5.2589,-5.992 3.3626,0 4.6773,2.0226 4.5509,5.2083 l -3.2868,0 c 0.051,-1.7951 -0.3034,-2.68 -1.517,-2.68 -0.986,0 -1.6939,0.354 -1.7192,2.2249 l 0,2.0732 6.5735,0 0,1.9215 c 0,3.8935 -0.4803,6.2701 -5.0565,6.2701 -3.2362,0 -4.9555,-1.9215 -4.8038,-5.2841 l 0,-3.7419 z m 3.2868,3.3627 0,0.5815 c 0,1.2894 -0.076,2.5535 1.5675,2.5535 1.3148,0 1.694,-0.4551 1.7193,-1.8962 l 0,-1.2388 -3.2868,0 z"
         style="font-style:normal;font-variant:normal;font-weight:bold;font-stretch:condensed;font-size:medium;line-height:125%;font-family:'Helvetica Condensed';-inkscape-font-specification:'Helvetica Condensed, Bold Condensed';letter-spacing:0px;word-spacing:0px;fill:#00529c;fill-opacity:1;stroke:none;stroke-width:1px;stroke-linecap:butt;stroke-linejoin:miter;stroke-opacity:1"
         id="path86871"
         inkscape:connector-curvature="0" />
      <path
         d="m -1100.7691,1121.7771 2.6689,0 0,14.2974 -1.9635,0 c -0.5338,-1.9636 -2.0779,-2.4592 -3.9271,-2.4782 l 0,-1.9064 3.2217,0 0,-9.9128 z"
         style="font-style:normal;font-variant:normal;font-weight:bold;font-stretch:condensed;font-size:medium;line-height:125%;font-family:'Helvetica Condensed';-inkscape-font-specification:'Helvetica Condensed, Bold Condensed';letter-spacing:0px;word-spacing:0px;fill:#00529c;fill-opacity:1;stroke:none;stroke-width:1px;stroke-linecap:butt;stroke-linejoin:miter;stroke-opacity:1"
         id="path86873"
         inkscape:connector-curvature="0" />
      <path
         d="m -1091.4795,1130.8893 c 0,-1.1819 0,-2.5735 -1.3153,-2.5735 -1.4298,0 -1.2963,1.5441 -1.2963,2.5735 0,1.8301 -0.1525,3.1263 1.2391,3.1454 1.4297,0.1335 1.3916,-1.3726 1.3725,-3.1454 z m 2.6689,-0.1907 c 0.038,3.3552 -0.8007,5.4331 -3.9842,5.4331 -3.0883,0 -3.9652,-1.8491 -3.9652,-5.4331 0,-2.9357 0.9722,-4.4798 3.2408,-4.4798 1.2391,0 1.6585,0.4956 2.0969,0.9532 l 0,-0.9151 c -0.038,-0.8578 0.1144,-2.6689 -1.3916,-2.6689 -1.0866,-0.057 -1.1438,0.6482 -1.1629,1.1248 l -2.4782,0 c -0.076,-2.2685 1.4298,-3.2217 3.5267,-3.2217 2.8214,0 4.1177,1.22 4.1177,5.7762 l 0,3.4313 z"
         style="font-style:normal;font-variant:normal;font-weight:bold;font-stretch:condensed;font-size:medium;line-height:125%;font-family:'Helvetica Condensed';-inkscape-font-specification:'Helvetica Condensed, Bold Condensed';letter-spacing:0px;word-spacing:0px;fill:#00529c;fill-opacity:1;stroke:none;stroke-width:1px;stroke-linecap:butt;stroke-linejoin:miter;stroke-opacity:1"
         id="path86875"
         inkscape:connector-curvature="0" />
      <path
         d="m -1085.9099,1126.7717 2.6307,5.7951 0.038,0 0,-5.7951 -2.6688,0 z m 2.3638,9.074 -4.3273,-9.074 0,-2.0971 4.6323,0 0,-2.8975 2.6689,0 0,2.8975 1.22,0 0,2.0971 -1.22,0 0,9.074 -2.9739,0 z"
         style="font-style:normal;font-variant:normal;font-weight:bold;font-stretch:condensed;font-size:medium;line-height:125%;font-family:'Helvetica Condensed';-inkscape-font-specification:'Helvetica Condensed, Bold Condensed';letter-spacing:0px;word-spacing:0px;fill:#00529c;fill-opacity:1;stroke:none;stroke-width:1px;stroke-linecap:butt;stroke-linejoin:miter;stroke-opacity:1"
         id="path86877"
         inkscape:connector-curvature="0" />
      <path
         d="m -1079.1602,1133.7488 5.6999,0 c -0.6481,-0.9723 -1.3344,-2.4782 -1.6394,-3.2408 -1.1057,-2.8023 -2.0589,-5.719 -2.2685,-8.7309 l 2.7451,0 c 0.076,1.7538 0.4003,3.5267 0.8387,5.2232 0.591,2.3639 1.4107,4.6896 2.6689,6.92 l 0,1.9254 -8.0447,0 0,-2.0969 z"
         style="font-style:normal;font-variant:normal;font-weight:bold;font-stretch:condensed;font-size:medium;line-height:125%;font-family:'Helvetica Condensed';-inkscape-font-specification:'Helvetica Condensed, Bold Condensed';letter-spacing:0px;word-spacing:0px;fill:#00529c;fill-opacity:1;stroke:none;stroke-width:1px;stroke-linecap:butt;stroke-linejoin:miter;stroke-opacity:1"
         id="path86879"
         inkscape:connector-curvature="0" />
    </g>
  </g>
</svg>
