<?xml version="1.0" encoding="UTF-8"?>
<svg id="Layer_2" data-name="Layer 2" xmlns="http://www.w3.org/2000/svg" viewBox="0 0 283.27 27.68">
  <defs>
    <style>
      .cls-1 {
        fill: #243c83;
      }
    </style>
  </defs>
  <g id="Layer_1-2" data-name="Layer 1">
    <g>
      <polygon class="cls-1" points="0 26.95 0 .68 20.99 .68 20.99 6.98 8.44 6.98 8.44 10.46 19.05 10.46 19.05 16.5 8.44 16.5 8.44 20.57 21.5 20.57 21.5 26.95 0 26.95"/>
      <path class="cls-1" d="M25.45,26.95V.68h10.2c2.59,0,4.52.11,5.78.34,1.27.23,2.37.62,3.31,1.15,1.82,1.07,3.19,2.57,4.11,4.51.91,1.93,1.37,4.32,1.37,7.15,0,2.98-.56,5.48-1.71,7.5-1.13,2.03-2.81,3.53-5.02,4.52-.85.4-1.93.67-3.22.84-1.29.17-3.35.25-6.19.25h-8.64ZM33.88,20.3h2.28c2.09,0,3.55-.47,4.37-1.41.81-.93,1.22-2.62,1.22-5.05s-.42-4.04-1.25-5.03c-.82-.99-2.24-1.48-4.24-1.48h-2.38v12.97Z"/>
      <rect class="cls-1" x="54.23" y=".68" width="8.6" height="26.26"/>
      <polygon class="cls-1" points="76.28 26.95 76.28 17.22 66.61 .68 75.97 .68 80.49 9.63 85.06 .68 94.15 .68 84.71 17.22 84.71 26.95 76.28 26.95"/>
      <path class="cls-1" d="M90.12,26.95L99.36.68h8.54l9.24,26.26h-8.37l-.98-3.48h-8.36l-1.02,3.48h-8.29ZM100.96,17.96h5.3l-2.62-9.09-2.68,9.09Z"/>
      <path class="cls-1" d="M148.61,16.76h7.98c-.24,3.46-1.45,6.15-3.65,8.06-2.21,1.91-5.18,2.86-8.94,2.86-4.21,0-7.52-1.23-9.94-3.7-2.41-2.47-3.62-5.85-3.62-10.15s1.2-7.65,3.59-10.13c2.38-2.47,5.64-3.71,9.77-3.71,3.8,0,6.8.92,8.98,2.75,2.18,1.85,3.41,4.47,3.67,7.88h-8.08c-.11-1.35-.55-2.36-1.31-3.05-.74-.68-1.8-1.01-3.15-1.01-1.65,0-2.89.6-3.72,1.81-.83,1.2-1.24,3.02-1.24,5.46s.45,4.2,1.32,5.43c.88,1.23,2.17,1.84,3.87,1.84,1.31,0,2.35-.38,3.11-1.13.77-.74,1.22-1.81,1.35-3.21"/>
      <path class="cls-1" d="M159.01,13.84c0-4.28,1.22-7.65,3.66-10.13C165.12,1.24,168.45,0,172.68,0s7.53,1.23,9.97,3.71c2.45,2.48,3.65,5.85,3.65,10.13s-1.21,7.65-3.65,10.13c-2.44,2.47-5.76,3.72-9.97,3.72s-7.55-1.24-10-3.72c-2.44-2.48-3.66-5.86-3.66-10.13M167.53,13.84c0,2.48.42,4.31,1.25,5.48.83,1.16,2.14,1.74,3.9,1.74s3.06-.58,3.88-1.74c.82-1.16,1.22-2.99,1.22-5.49s-.41-4.34-1.22-5.5c-.82-1.15-2.11-1.74-3.88-1.74s-3.07.59-3.9,1.75c-.83,1.16-1.25,2.99-1.25,5.49"/>
      <polygon class="cls-1" points="190.16 26.95 190.16 .68 210.02 .68 210.02 7.29 198.59 7.29 198.59 11.36 207.69 11.36 207.69 17.71 198.59 17.71 198.59 26.95 190.16 26.95"/>
      <polygon class="cls-1" points="213.24 26.95 213.24 .68 233.11 .68 233.11 7.29 221.67 7.29 221.67 11.36 230.77 11.36 230.77 17.71 221.67 17.71 221.67 26.95 213.24 26.95"/>
      <polygon class="cls-1" points="236.31 26.95 236.31 .68 257.31 .68 257.31 6.98 244.75 6.98 244.75 10.46 255.37 10.46 255.37 16.5 244.75 16.5 244.75 20.57 257.82 20.57 257.82 26.95 236.31 26.95"/>
      <polygon class="cls-1" points="261.77 26.95 261.77 .68 282.76 .68 282.76 6.98 270.2 6.98 270.2 10.46 280.83 10.46 280.83 16.5 270.2 16.5 270.2 20.57 283.27 20.57 283.27 26.95 261.77 26.95"/>
    </g>
  </g>
</svg>