<svg version="1.1" id="Layer_1" xmlns="http://www.w3.org/2000/svg" xmlns:xlink="http://www.w3.org/1999/xlink" x="0px" y="0px"
	 width="100%" viewBox="0 0 2966 969" enable-background="new 0 0 2966 969" xml:space="preserve">
<path fill="#FFFFFF" opacity="1.000000" stroke="none" 
	d="
M1473.000000,970.000000 
	C982.418762,970.000000 491.837463,970.000000 1.000000,970.000000 
	C1.000000,680.969116 1.000000,391.938202 1.468657,102.453629 
	C26.807280,102.000000 51.677246,102.000000 76.382744,102.000000 
	C69.222168,109.880569 61.787354,117.085770 55.482533,125.172020 
	C29.131422,158.968582 21.272976,197.847061 26.210077,239.553116 
	C28.521872,259.081970 35.107361,277.569183 45.218693,294.647400 
	C55.734573,312.408905 69.427330,327.308960 86.528778,338.718262 
	C108.551361,353.410706 133.326233,361.136505 159.532394,362.757324 
	C181.807983,364.135010 203.966873,362.832123 225.836639,356.287048 
	C255.376297,347.446533 279.385834,331.122437 297.552338,306.654297 
	C316.718140,280.840149 325.132843,251.022202 325.811890,219.141205 
	C326.022858,209.236099 324.288574,199.244965 322.947144,189.360764 
	C320.247681,169.470306 312.498505,151.417572 301.962494,134.497742 
	C294.306274,122.202560 284.260529,111.974220 272.689117,101.891983 
	C298.948395,101.891983 324.318512,101.891983 349.711304,101.891983 
	C349.711304,84.398079 349.711304,67.337517 349.711304,49.843414 
	C306.369751,49.843414 263.315002,49.843414 220.000000,49.843414 
	C220.000000,33.272213 220.000000,17.136106 220.000000,1.000000 
	C809.697571,1.000000 1399.395142,1.000000 1989.546387,1.468657 
	C1990.000000,17.868471 1990.000000,33.799629 1990.000000,50.168617 
	C1946.027100,50.168617 1902.633423,50.168617 1859.328857,50.168617 
	C1859.328857,67.678848 1859.328857,84.742241 1859.328857,102.064476 
	C1884.909912,102.064476 1910.163696,102.064476 1936.226440,102.064476 
	C1935.368774,103.036972 1935.041260,103.555580 1934.584473,103.904991 
	C1924.021118,111.982918 1915.406006,121.927467 1908.088623,132.884003 
	C1891.589722,157.587967 1884.129150,185.245255 1883.142700,214.670746 
	C1882.869629,222.818314 1884.223511,231.034500 1885.019897,239.200790 
	C1886.511353,254.497131 1891.000854,269.029602 1897.487305,282.844727 
	C1906.839844,302.764069 1920.064575,319.749023 1937.665771,333.186676 
	C1961.899902,351.688446 1989.643677,360.760406 2019.683716,362.817444 
	C2031.195435,363.605743 2042.916748,362.997803 2054.416504,361.807556 
	C2065.007324,360.711365 2075.637207,358.714172 2085.880859,355.811310 
	C2104.827148,350.442169 2121.840820,341.025726 2136.552979,327.861115 
	C2152.107666,313.942291 2163.885498,297.300842 2172.090576,278.001495 
	C2178.836670,262.133484 2182.612549,245.573730 2183.811523,228.570557 
	C2184.805908,214.465240 2183.920898,200.327515 2181.118164,186.278336 
	C2175.537842,158.308029 2163.259033,133.937759 2143.685303,113.258102 
	C2140.129395,109.501427 2136.090332,106.202400 2131.458740,101.942032 
	C2157.924316,101.942032 2183.291504,101.942032 2208.722656,101.942032 
	C2208.722656,84.425385 2208.722656,67.362839 2208.722656,49.857872 
	C2165.053711,49.857872 2121.659912,49.857872 2078.000000,49.857872 
	C2078.000000,33.276443 2078.000000,17.138222 2078.000000,1.000000 
	C2374.259033,1.000000 2670.518311,1.000000 2967.000000,1.000000 
	C2967.000000,246.364212 2967.000000,491.728485 2966.531250,737.546387 
	C2950.766113,738.000000 2935.469971,738.000000 2919.875488,738.000000 
	C2911.777344,771.666870 2903.760986,804.993164 2895.944092,837.491028 
	C2895.304932,834.442932 2894.569336,830.203308 2893.515137,826.044434 
	C2890.064209,812.428711 2886.670410,798.794495 2882.928223,785.257629 
	C2878.887451,770.641357 2874.530762,756.111023 2870.146240,741.593201 
	C2869.729736,740.214844 2868.148926,738.174011 2867.083496,738.158325 
	C2851.790527,737.934082 2836.493652,738.005188 2820.320557,738.005188 
	C2822.322021,743.277649 2824.172607,747.891785 2825.835449,752.572693 
	C2838.896729,789.344360 2851.638672,826.233032 2865.113770,862.852173 
	C2869.742432,875.430237 2871.465576,887.982849 2871.132080,901.264099 
	C2870.626221,921.411194 2871.000000,941.580444 2871.000000,961.740234 
	C2871.000000,963.359131 2871.000000,964.978088 2871.000000,966.755981 
	C2886.175537,966.755981 2900.903564,966.755981 2916.000000,966.755981 
	C2916.000000,964.888123 2916.000000,963.259521 2916.000000,961.630920 
	C2916.000000,940.971313 2916.406006,920.300842 2915.855469,899.655884 
	C2915.495850,886.174072 2917.463867,873.520203 2922.382080,860.881775 
	C2933.197510,833.090210 2943.167236,804.969971 2953.518799,776.997314 
	C2957.965576,764.980835 2962.503418,752.998108 2967.000000,741.000000 
	C2967.000000,817.315063 2967.000000,893.630188 2967.000000,970.000000 
	C2475.968994,970.000000 1984.938110,970.000000 1493.610840,969.619568 
	C1513.723877,967.416321 1528.281372,956.648376 1537.900391,939.125305 
	C1547.225464,922.137268 1549.585815,903.214844 1549.812866,884.349731 
	C1550.380493,837.193726 1550.000000,790.026367 1550.000000,742.863525 
	C1550.000000,741.282837 1550.000000,739.702148 1550.000000,738.211792 
	C1534.324585,738.211792 1519.377808,738.211792 1504.000000,738.211792 
	C1504.000000,740.203674 1504.000000,741.991394 1504.000000,743.779053 
	C1504.000000,793.774963 1504.068115,843.771179 1503.910767,893.766541 
	C1503.891846,899.769897 1503.307251,905.942017 1501.788940,911.721741 
	C1500.297241,917.399963 1498.565430,923.626282 1492.976318,926.939087 
	C1480.663818,934.237122 1470.908569,928.131775 1466.010376,916.619446 
	C1461.412109,905.812378 1461.297485,894.187012 1461.188110,882.887146 
	C1460.738525,836.395264 1461.000000,789.896606 1461.000000,743.400391 
	C1461.000000,741.648865 1461.000000,739.897278 1461.000000,738.375549 
	C1445.562988,738.375549 1430.829590,738.375549 1416.000000,738.375549 
	C1416.000000,769.912354 1415.876953,801.074341 1416.041992,832.234802 
	C1416.158203,854.158875 1416.665527,876.080933 1417.000122,898.003845 
	C1417.185669,910.175110 1419.825928,921.995544 1424.227295,933.148804 
	C1430.077271,947.973083 1439.558228,960.014282 1455.578247,965.165405 
	C1461.310913,967.008667 1467.188599,968.401550 1473.000000,970.000000 
M1718.500000,21.000000 
	C1702.407837,21.000000 1686.315674,21.000000 1669.784424,21.000000 
	C1669.784424,84.019348 1669.784424,146.414017 1669.784424,208.644119 
	C1656.601685,208.644119 1643.868896,208.644119 1630.698364,208.644119 
	C1630.698364,145.894302 1630.698364,83.499664 1630.698364,21.220406 
	C1602.972046,21.220406 1575.693481,21.220406 1547.975708,21.220406 
	C1547.975708,136.829529 1547.975708,252.219299 1547.975708,367.747803 
	C1493.807251,367.747803 1440.079834,367.747803 1386.266479,367.747803 
	C1386.266479,269.438232 1386.266479,171.381134 1386.266479,72.874451 
	C1426.261230,72.874451 1465.991821,72.874451 1505.688354,72.874451 
	C1505.688354,55.358463 1505.688354,38.294197 1505.688354,21.329430 
	C1436.316528,21.329430 1367.256836,21.329430 1298.339600,21.329430 
	C1298.339600,154.713577 1298.339600,287.768066 1298.339600,421.266479 
	C1381.737793,421.266479 1464.797119,421.266479 1548.300293,421.266479 
	C1548.300293,491.437897 1548.300293,561.165161 1548.300293,630.780640 
	C1576.025757,630.780640 1603.304321,630.780640 1631.021240,630.780640 
	C1631.021240,507.839874 1631.021240,385.117401 1631.021240,262.255127 
	C1644.193115,262.255127 1656.923828,262.255127 1670.093018,262.255127 
	C1670.093018,385.231934 1670.093018,507.954407 1670.093018,630.710693 
	C1697.930298,630.710693 1725.326538,630.710693 1752.708984,630.710693 
	C1752.708984,427.372559 1752.708984,224.323807 1752.708984,21.000000 
	C1741.446411,21.000000 1730.473267,21.000000 1718.500000,21.000000 
M2713.000000,530.420288 
	C2713.000000,532.522583 2713.000000,534.624817 2713.000000,536.690308 
	C2694.027832,536.690308 2675.631104,536.690308 2656.799805,536.690308 
	C2656.799805,448.659821 2656.799805,360.938171 2656.799805,273.340210 
	C2629.297607,273.340210 2602.235107,273.340210 2574.738281,273.340210 
	C2574.738281,361.401550 2574.738281,449.123260 2574.738281,537.292114 
	C2545.237061,537.292114 2516.172607,537.292114 2487.216797,537.292114 
	C2487.216797,555.021118 2487.216797,572.299988 2487.216797,589.786438 
	C2646.479004,589.786438 2805.524414,589.786438 2964.763672,589.786438 
	C2964.763672,572.176453 2964.763672,554.780457 2964.763672,536.940308 
	C2908.136475,536.940308 2851.743652,536.940308 2794.915039,536.940308 
	C2794.915039,448.775421 2794.915039,361.053741 2794.915039,273.282593 
	C2767.413818,273.282593 2740.352051,273.282593 2713.000000,273.282593 
	C2713.000000,358.855011 2713.000000,444.145172 2713.000000,530.420288 
M2931.000000,463.500000 
	C2931.000000,315.767670 2931.000000,168.035339 2931.000000,20.265823 
	C2789.739258,20.265823 2649.032227,20.265823 2508.287354,20.265823 
	C2508.287354,37.928642 2508.287354,55.324219 2508.287354,73.142227 
	C2621.619873,73.142227 2734.665527,73.142227 2848.128174,73.142227 
	C2848.128174,212.274643 2848.128174,350.982452 2848.128174,489.708069 
	C2875.941162,489.708069 2903.334961,489.708069 2931.000000,489.708069 
	C2931.000000,481.112671 2931.000000,472.806335 2931.000000,463.500000 
M687.488159,287.992340 
	C701.724426,300.433624 718.091125,309.139893 735.952820,314.982666 
	C761.335938,323.285767 787.329102,325.538910 813.958862,323.165314 
	C830.111572,321.725586 845.719666,318.541534 860.842590,312.935913 
	C878.993591,306.207916 895.284607,296.214233 909.379150,282.990540 
	C925.147034,268.196991 936.911072,250.559631 945.205505,230.517761 
	C951.326904,215.726349 955.198120,200.361160 956.798462,184.574539 
	C957.853271,174.169220 957.081848,163.569626 956.979675,153.058456 
	C956.848877,139.596085 954.110291,126.512222 949.875916,113.848930 
	C936.301697,73.253387 911.439087,42.297649 872.223755,23.581947 
	C851.650879,13.763439 830.037354,8.788413 807.377686,8.040132 
	C799.706055,7.786795 791.975403,7.480362 784.349365,8.122122 
	C772.984924,9.078481 761.472107,9.916146 750.410034,12.477908 
	C727.770081,17.720907 707.112061,27.399073 688.982544,42.385319 
	C667.687561,59.988297 652.375916,81.657326 643.059570,107.541687 
	C638.103271,121.312019 635.328552,135.543793 633.770203,150.192764 
	C631.969543,167.119461 633.103638,183.791824 636.305420,200.213104 
	C639.968445,219.000244 646.795166,236.913437 657.108826,253.175446 
	C665.290649,266.076172 674.685608,278.082153 687.488159,287.992340 
M777.939758,450.336670 
	C771.350464,468.797974 768.920105,487.729889 769.813293,507.375793 
	C770.539612,523.350220 773.425537,538.657654 778.999573,553.554077 
	C787.237610,575.569702 799.877869,594.502258 817.548340,610.173584 
	C830.334900,621.513550 844.449707,630.451111 860.185303,637.084778 
	C879.076416,645.048706 898.845337,649.476013 919.121887,650.770142 
	C932.802612,651.643188 946.700867,651.125366 960.356995,649.770020 
	C972.883545,648.526794 985.473572,646.238281 997.584106,642.813782 
	C1029.591675,633.763000 1056.138916,616.009827 1076.080444,589.261902 
	C1094.991577,563.896179 1104.089111,534.795105 1104.741089,503.387909 
	C1104.993408,491.237823 1103.379150,478.801056 1100.804932,466.885986 
	C1092.556152,428.705231 1071.838989,398.619476 1039.375732,376.811035 
	C1013.225342,359.243652 983.842834,351.056580 952.813721,349.199982 
	C931.458496,347.922211 910.075928,348.865387 888.998047,353.906158 
	C863.174988,360.081726 839.570618,370.721985 819.543640,388.167267 
	C800.388245,404.853516 786.329773,425.337250 777.939758,450.336670 
M394.000000,272.500000 
	C394.000000,334.255493 394.000000,396.011017 394.000000,457.665405 
	C424.020264,457.665405 453.417572,457.665405 483.260529,457.665405 
	C483.260529,378.936157 483.260529,300.540833 483.260529,221.695663 
	C511.774261,221.695663 539.840942,221.695663 567.773682,221.695663 
	C567.773682,204.295502 567.773682,187.348526 567.773682,169.952164 
	C539.484985,169.952164 511.418274,169.952164 482.906128,169.952164 
	C482.906128,120.104301 482.906128,70.706795 482.906128,21.296112 
	C453.057251,21.296112 423.660248,21.296112 394.000000,21.296112 
	C394.000000,104.894630 394.000000,188.197311 394.000000,272.500000 
M1136.500000,262.000000 
	C1151.923706,262.000000 1167.347290,262.000000 1182.670166,262.000000 
	C1182.670166,243.982788 1182.670166,226.587463 1182.670166,208.752716 
	C1153.947510,208.752716 1125.552856,208.752716 1097.363647,208.752716 
	C1097.363647,184.245911 1097.363647,160.185150 1097.363647,135.685287 
	C1126.120605,135.685287 1154.515381,135.685287 1182.776978,135.685287 
	C1182.776978,118.295982 1182.776978,101.352081 1182.776978,83.966484 
	C1154.163452,83.966484 1125.768799,83.966484 1096.931641,83.966484 
	C1096.931641,62.796169 1096.931641,42.065243 1096.931641,21.273706 
	C1067.091797,21.273706 1037.700317,21.273706 1008.262085,21.273706 
	C1008.262085,129.920792 1008.262085,238.293976 1008.262085,346.722107 
	C1037.916626,346.722107 1067.308228,346.722107 1097.143311,346.722107 
	C1097.143311,318.385895 1097.143311,290.324432 1097.143311,262.000000 
	C1110.224365,262.000000 1122.862183,262.000000 1136.500000,262.000000 
M2269.501465,379.000000 
	C2293.259766,379.000000 2317.018066,379.000000 2341.221191,379.000000 
	C2341.221191,326.309662 2341.221191,274.246033 2341.221191,221.734085 
	C2370.068848,221.734085 2398.468750,221.734085 2426.615234,221.734085 
	C2426.615234,204.215149 2426.615234,187.150146 2426.615234,169.816925 
	C2397.952148,169.816925 2369.672852,169.816925 2340.946289,169.816925 
	C2340.946289,120.144501 2340.946289,70.747322 2340.946289,21.275476 
	C2311.431641,21.275476 2282.368408,21.275476 2253.291016,21.275476 
	C2253.291016,140.609314 2253.291016,259.667419 2253.291016,379.000000 
	C2258.554199,379.000000 2263.528564,379.000000 2269.501465,379.000000 
M2326.495361,407.000000 
	C2200.436035,407.000000 2074.376709,407.000000 1948.289307,407.000000 
	C1948.289307,424.268585 1948.289307,440.996399 1948.289307,458.137451 
	C2049.951172,458.137451 2151.324707,458.137451 2253.129639,458.137451 
	C2253.129639,515.604065 2253.129639,572.656006 2253.129639,629.703613 
	C2282.621582,629.703613 2311.679443,629.703613 2340.705811,629.703613 
	C2340.705811,555.360596 2340.705811,481.314301 2340.705811,407.000000 
	C2336.106689,407.000000 2331.799316,407.000000 2326.495361,407.000000 
M442.500000,630.000000 
	C459.256195,630.000000 476.012421,630.000000 492.671387,630.000000 
	C492.671387,612.317993 492.671387,595.256409 492.671387,577.783691 
	C392.969849,577.783691 293.596405,577.783691 193.791901,577.783691 
	C193.791901,520.650024 193.791901,463.931580 193.791901,407.335205 
	C164.299820,407.335205 135.241669,407.335205 106.332703,407.335205 
	C106.332703,481.717041 106.332703,555.763245 106.332703,630.000000 
	C218.276855,630.000000 329.888428,630.000000 442.500000,630.000000 
M1745.000000,797.500000 
	C1745.000000,777.741333 1745.000000,757.982666 1745.000000,738.337708 
	C1731.305298,738.337708 1718.239868,738.337708 1705.000000,738.337708 
	C1705.000000,740.494690 1704.983154,742.315002 1705.002441,744.134949 
	C1705.332397,775.223450 1705.614746,806.312683 1706.032959,837.400085 
	C1706.150757,846.160828 1706.663940,854.916443 1707.012451,863.673767 
	C1707.038208,864.322998 1707.238892,864.963684 1707.288696,865.613770 
	C1707.921143,873.876221 1708.541016,882.139648 1709.164062,890.402893 
	C1703.821167,877.316223 1699.029175,864.186401 1694.023682,851.138550 
	C1679.987549,814.549805 1665.885498,777.986267 1651.688599,741.459717 
	C1651.144897,740.060608 1649.370239,738.177917 1648.139648,738.155762 
	C1634.870850,737.916992 1621.596191,738.006836 1608.279785,738.006836 
	C1608.279785,814.585999 1608.279785,890.644348 1608.279785,966.695923 
	C1621.626343,966.695923 1634.690918,966.695923 1648.510498,966.695923 
	C1647.885132,917.438782 1647.263794,868.493958 1646.626831,818.325134 
	C1647.314575,819.610352 1647.609131,820.021973 1647.769287,820.480530 
	C1655.527466,842.703064 1662.827515,865.098389 1671.142334,887.110352 
	C1680.262817,911.255432 1690.385376,935.020630 1699.927490,959.008606 
	C1703.073975,966.918518 1702.869263,967.000000 1710.951172,967.000000 
	C1722.216431,967.000000 1733.481689,967.000000 1745.000000,967.000000 
	C1745.000000,910.437561 1745.000000,854.468811 1745.000000,797.500000 
M1030.945679,798.699280 
	C1030.589355,797.967468 1030.181519,797.256042 1029.884277,796.500977 
	C1022.912292,778.790588 1015.864868,761.109009 1009.060364,743.334412 
	C1007.614868,739.558777 1005.976929,737.398071 1001.447388,737.893860 
	C997.001038,738.380615 992.459656,738.000000 987.960022,738.000000 
	C980.366943,738.000000 972.773865,738.000000 965.349121,738.000000 
	C965.349121,814.720093 965.349121,890.781189 965.349121,966.625977 
	C978.767639,966.625977 991.834778,966.625977 1003.999634,966.625977 
	C1003.999634,925.165466 1003.999878,884.079773 1003.997681,842.994019 
	C1003.997620,842.327759 1003.992004,841.659973 1003.948547,840.995544 
	C1003.502869,834.182312 1003.048767,827.369568 1002.597046,820.556702 
	C1003.075012,820.470764 1003.552917,820.384888 1004.030884,820.298950 
	C1004.613647,822.009033 1005.166199,823.730164 1005.783691,825.427490 
	C1013.835327,847.557434 1021.644897,869.779663 1030.022217,891.785706 
	C1039.203735,915.903870 1048.935669,939.812195 1058.355103,963.840393 
	C1059.376587,966.446106 1060.998657,967.091370 1063.660522,967.059692 
	C1075.324585,966.920837 1086.991333,967.010498 1098.657104,966.981934 
	C1099.747314,966.979248 1100.837036,966.728516 1101.785645,966.610535 
	C1101.785645,890.314392 1101.785645,814.371338 1101.785645,738.239258 
	C1088.506714,738.239258 1075.442505,738.239258 1062.000000,738.239258 
	C1062.000000,739.768372 1061.981812,741.062866 1062.002686,742.356750 
	C1062.666138,783.538269 1063.330933,824.719849 1064.015015,865.901001 
	C1064.031128,866.873901 1064.322388,867.839111 1064.392700,868.814636 
	C1064.866699,875.395386 1065.315674,881.978027 1065.772827,888.559998 
	C1065.616577,888.593140 1065.460327,888.626343 1065.304077,888.659485 
	C1053.869263,858.937439 1042.434570,829.215393 1030.945679,798.699280 
M505.052612,880.288086 
	C509.698303,891.641174 514.375000,902.981628 518.982605,914.350159 
	C526.072632,931.843811 533.115234,949.356689 540.124329,966.728516 
	C554.170898,966.728516 567.930237,966.728516 581.714050,966.728516 
	C581.714050,890.399414 581.714050,814.342163 581.714050,738.309937 
	C568.361328,738.309937 555.296753,738.309937 542.000000,738.309937 
	C542.000000,740.430969 541.982605,742.243896 542.002563,744.056396 
	C542.332214,773.977783 542.613220,803.899902 543.031860,833.820129 
	C543.161438,843.080627 543.658447,852.336182 544.019897,861.592773 
	C544.051208,862.394714 544.424744,863.180847 544.476196,863.984802 
	C544.976868,871.811340 545.442810,879.640076 545.918640,887.468201 
	C544.225220,886.245056 543.545044,884.824219 543.004028,883.352234 
	C539.722107,874.422180 536.601929,865.430481 533.188660,856.551270 
	C518.432434,818.164917 503.614685,779.802124 488.700684,741.476929 
	C488.154755,740.073975 486.388000,738.179199 485.160522,738.157043 
	C471.890106,737.917297 458.613739,738.007385 445.270447,738.007385 
	C445.270447,814.569519 445.270447,890.626770 445.270447,966.705566 
	C458.607178,966.705566 471.671387,966.705566 485.478912,966.705566 
	C484.905823,917.450317 484.336243,868.497009 483.772186,820.019714 
	C490.741028,839.544373 497.870392,859.518799 505.052612,880.288086 
M209.000000,919.500000 
	C209.000000,859.089661 209.000000,798.679382 209.000000,738.313721 
	C193.682693,738.313721 178.953766,738.313721 163.786438,738.313721 
	C163.786438,768.685486 163.786438,798.745789 163.786438,828.651062 
	C148.277786,828.651062 133.214844,828.651062 117.716019,828.651062 
	C117.716019,798.243347 117.716019,768.183105 117.716019,738.207520 
	C102.660988,738.207520 88.050354,738.207520 73.382492,738.207520 
	C73.382492,814.579163 73.382492,890.742554 73.382492,966.774170 
	C88.376465,966.774170 102.987221,966.774170 118.037376,966.774170 
	C118.037376,935.158875 118.037376,903.765686 118.037376,872.260620 
	C133.542877,872.260620 148.604156,872.260620 164.106812,872.260620 
	C164.106812,903.911194 164.106812,935.304382 164.106812,966.704590 
	C179.280167,966.704590 194.008713,966.704590 209.000000,966.704590 
	C209.000000,951.107117 209.000000,935.803528 209.000000,919.500000 
M2239.000000,952.495544 
	C2239.000000,957.257446 2239.000000,962.019348 2239.000000,966.666870 
	C2254.356689,966.666870 2269.085938,966.666870 2284.246094,966.666870 
	C2284.246094,936.270630 2284.246094,906.205688 2284.246094,876.000000 
	C2286.341309,876.000000 2288.000244,876.033875 2289.657471,875.994385 
	C2299.379395,875.762756 2306.569092,879.999878 2309.867432,889.084656 
	C2312.550293,896.474854 2314.338867,904.243225 2315.926758,911.966614 
	C2319.482178,929.261963 2322.598633,946.647400 2326.143311,963.945068 
	C2326.395752,965.176575 2328.669922,966.848938 2330.024658,966.868164 
	C2344.835693,967.078247 2359.651123,966.999756 2374.473633,966.999756 
	C2373.285400,963.170410 2371.865723,959.542542 2371.042725,955.783997 
	C2366.613525,935.551514 2362.715332,915.194519 2357.874023,895.063354 
	C2354.309082,880.239746 2349.085693,866.038208 2333.137695,859.595703 
	C2333.474121,859.163635 2333.628418,858.821960 2333.892822,858.654236 
	C2334.572021,858.223267 2335.312256,857.890442 2336.006592,857.481873 
	C2352.189209,847.960815 2363.093994,834.297424 2365.756836,815.586853 
	C2367.175049,805.622742 2366.565430,795.252441 2365.875977,785.133362 
	C2364.827637,769.753418 2356.135986,758.653992 2344.218262,749.611572 
	C2332.712891,740.881775 2319.108643,737.734375 2305.429688,737.316467 
	C2286.459961,736.736877 2267.400635,737.981995 2248.425781,739.177124 
	C2238.953613,739.773743 2239.000000,740.508423 2239.000000,750.067932 
	C2239.000000,817.210815 2239.000000,884.353699 2239.000000,952.495544 
M1266.427368,737.000000 
	C1258.172729,736.666687 1249.920898,736.173401 1241.662964,736.036133 
	C1228.024170,735.809265 1215.406128,739.842834 1203.410156,745.967590 
	C1185.632324,755.044250 1173.046997,769.344971 1164.119141,786.815918 
	C1155.053711,804.556091 1151.130127,823.861938 1150.173706,843.567871 
	C1149.415894,859.179932 1149.748901,874.809448 1152.823364,890.382080 
	C1157.394409,913.536621 1165.408936,934.501770 1183.847412,950.447205 
	C1197.187256,961.983337 1212.811157,967.737915 1229.998657,968.853271 
	C1248.074829,970.026367 1266.012329,968.534058 1283.553467,963.182983 
	C1287.689087,961.921387 1289.093262,960.487061 1289.078247,956.257019 
	C1288.943970,918.428528 1289.000000,880.599304 1289.000000,842.770325 
	C1289.000000,841.317017 1289.000000,839.863708 1289.000000,838.243530 
	C1268.163086,838.243530 1247.766479,838.243530 1227.268066,838.243530 
	C1227.268066,850.552795 1227.268066,862.616943 1227.268066,875.132568 
	C1233.933594,875.132568 1240.339722,875.132568 1246.864502,875.132568 
	C1246.864502,893.539490 1246.864502,911.492554 1246.864502,929.810608 
	C1244.108154,930.212891 1241.388794,931.064453 1238.723145,930.920593 
	C1226.812988,930.277771 1217.686523,924.463074 1211.008301,914.830688 
	C1200.484741,899.651794 1198.211548,882.045776 1197.136841,864.301086 
	C1196.659790,856.426331 1197.623535,848.459717 1198.009521,840.538452 
	C1198.697876,826.411377 1201.713989,812.911072 1208.868286,800.525024 
	C1217.627441,785.360779 1230.588745,777.382507 1248.232056,776.956177 
	C1258.380737,776.710876 1268.327026,777.267761 1277.430054,782.111938 
	C1279.832031,770.411194 1281.898682,759.248352 1284.502930,748.212280 
	C1285.508179,743.951538 1285.235474,741.240295 1280.514771,740.179321 
	C1276.102173,739.187683 1271.718872,738.065186 1266.427368,737.000000 
M343.486145,738.000000 
	C329.506165,738.000000 315.526154,738.000000 301.173523,738.000000 
	C284.661346,814.274780 268.184021,890.388428 251.639603,966.812073 
	C266.829254,966.812073 281.273346,966.812073 295.942749,966.812073 
	C299.378174,949.440247 302.786560,932.205017 306.188934,915.000244 
	C318.835541,915.000244 330.827881,915.110291 342.815521,914.920654 
	C345.710510,914.874817 346.570496,916.262390 346.979706,918.543762 
	C349.672241,933.554260 352.279175,948.580750 355.133331,963.560303 
	C355.381073,964.860474 357.196655,966.831360 358.310883,966.849548 
	C372.106812,967.075928 385.907715,966.997437 400.216339,966.997437 
	C385.330444,890.406982 370.537903,814.296692 355.709137,738.000000 
	C351.778198,738.000000 348.128143,738.000000 343.486145,738.000000 
M803.488037,967.000000 
	C807.611511,967.000000 811.735046,967.000000 815.620789,967.000000 
	C816.817932,960.532104 817.883606,954.617126 819.011780,948.714050 
	C820.989868,938.363281 822.941162,928.006104 825.106201,917.694092 
	C825.325684,916.648926 826.919800,915.133850 827.893738,915.120544 
	C840.525513,914.946655 853.160522,915.005249 865.554565,915.005249 
	C866.436646,918.789062 867.338196,922.077332 867.958008,925.417786 
	C870.356018,938.340210 872.599426,951.292053 875.121765,964.189575 
	C875.336853,965.289307 877.176453,966.862488 878.279236,966.877136 
	C892.091125,967.060974 905.906372,966.997681 919.860901,966.997681 
	C919.195251,963.492493 918.596008,960.339355 917.997681,957.186096 
	C914.913696,940.933167 911.906799,924.665161 908.725464,908.431213 
	C905.235291,890.621582 901.479004,872.863892 898.032166,855.046082 
	C894.212097,835.298584 890.727783,815.486023 886.879639,795.744141 
	C883.408325,777.934814 879.399963,760.226379 876.196533,742.371521 
	C875.489380,738.430298 874.104553,737.932007 870.840088,737.953979 
	C855.508057,738.057434 840.174133,738.083130 824.842957,737.929871 
	C821.773865,737.899231 820.580383,738.920044 819.943848,741.867920 
	C815.401123,762.903137 810.567261,783.875854 806.076660,804.921936 
	C799.588806,835.328979 793.437195,865.807922 786.905884,896.205444 
	C781.847595,919.747559 776.427307,943.211975 771.103271,967.000000 
	C781.841125,967.000000 792.166077,967.000000 803.488037,967.000000 
M1943.006226,754.331299 
	C1942.245850,749.026978 1941.485474,743.722595 1940.696045,738.216064 
	C1923.864014,738.216064 1907.087158,738.216064 1890.121948,738.216064 
	C1907.218506,814.518982 1924.284912,890.687134 1941.383667,966.999634 
	C1957.460693,966.999634 1973.281128,966.964600 1989.101074,967.033813 
	C1991.780762,967.045532 1992.543579,966.070007 1993.133911,963.369202 
	C1998.281006,939.823608 2003.691284,916.335388 2009.054565,892.837280 
	C2016.073242,862.086548 2023.069214,831.330505 2030.173828,800.599670 
	C2034.979614,779.812866 2039.955566,759.065430 2044.926147,738.001404 
	C2028.886108,738.001404 2013.227173,737.924561 1997.572632,738.152588 
	C1996.366089,738.170166 1994.414917,740.175903 1994.138550,741.528992 
	C1993.064209,746.787659 1992.625244,752.171875 1991.768555,757.480103 
	C1989.904663,769.029114 1987.855469,780.548462 1986.020752,792.101929 
	C1984.208252,803.515930 1982.636108,814.967957 1980.832031,826.383362 
	C1978.624390,840.352173 1976.040649,854.265747 1974.068970,868.266541 
	C1971.951538,883.302551 1970.355957,898.412048 1968.382690,914.729370 
	C1967.474854,906.612122 1966.911499,899.654236 1965.878906,892.766724 
	C1964.071655,880.712280 1961.942627,868.706360 1960.010742,856.670105 
	C1957.922852,843.661499 1955.960815,830.632568 1953.843506,817.628784 
	C1951.624268,803.998535 1949.320557,790.381775 1946.985474,776.770813 
	C1945.750854,769.574463 1944.371094,762.403015 1943.006226,754.331299 
M2160.500000,967.000000 
	C2169.926025,967.000000 2179.351807,967.000000 2188.668457,967.000000 
	C2188.668457,953.645813 2188.668457,940.916565 2188.668457,927.749146 
	C2168.610352,927.749146 2148.880859,927.749146 2129.364990,927.749146 
	C2129.364990,907.241577 2129.364990,887.181152 2129.364990,866.680176 
	C2147.124512,866.680176 2164.520752,866.680176 2181.773438,866.680176 
	C2181.773438,853.954895 2181.773438,841.678040 2181.773438,828.957886 
	C2164.156006,828.957886 2146.758301,828.957886 2129.262695,828.957886 
	C2129.262695,811.450378 2129.262695,794.390686 2129.262695,776.886230 
	C2147.916992,776.886230 2166.313965,776.886230 2184.699707,776.886230 
	C2184.699707,763.709351 2184.699707,750.980957 2184.699707,738.310669 
	C2151.010498,738.310669 2117.622314,738.310669 2084.301270,738.310669 
	C2084.301270,814.663147 2084.301270,890.704651 2084.301270,967.000000 
	C2109.567871,967.000000 2134.533936,967.000000 2160.500000,967.000000 
M2469.002686,878.502686 
	C2475.394531,883.515137 2480.316895,889.392456 2482.276611,897.640625 
	C2485.233398,910.083252 2479.727539,922.610962 2467.526123,927.006470 
	C2453.780518,931.958313 2440.324951,929.491577 2426.962891,925.437805 
	C2422.733154,924.154663 2418.647705,922.395386 2414.603027,920.893799 
	C2412.361328,932.852295 2410.081299,944.310547 2408.194336,955.833252 
	C2407.906250,957.593079 2409.054932,961.044800 2410.183838,961.353027 
	C2420.603516,964.197937 2431.054688,967.466492 2441.718750,968.711792 
	C2450.806396,969.773071 2460.264160,968.970886 2469.417480,967.846985 
	C2482.498291,966.240845 2494.520508,961.020081 2504.657227,952.666809 
	C2524.583008,936.246582 2530.566162,913.943176 2527.757080,889.437073 
	C2524.947266,864.927490 2509.323242,848.469666 2489.681641,835.207581 
	C2480.409424,828.946838 2471.115723,822.648621 2462.397217,815.662048 
	C2456.653320,811.059448 2454.082275,803.814331 2455.304932,796.778015 
	C2458.116699,780.596252 2468.294189,775.780151 2482.568848,775.135803 
	C2493.103760,774.660278 2503.027344,777.969421 2512.619629,783.342529 
	C2515.125488,769.910034 2517.550537,756.910767 2520.054932,743.485840 
	C2511.521973,739.150269 2502.320557,736.590393 2492.804199,736.157471 
	C2483.920410,735.753357 2474.929443,736.206787 2466.072021,737.120300 
	C2455.822021,738.177368 2446.234131,741.837158 2437.790527,747.794983 
	C2415.262695,763.690552 2408.208984,786.590698 2411.312988,812.527649 
	C2413.586182,831.522705 2425.281006,846.095093 2439.862549,857.851257 
	C2448.924316,865.157166 2458.911621,871.315491 2469.002686,878.502686 
M692.055176,838.969604 
	C691.512085,835.933960 691.147522,832.853333 690.395630,829.870361 
	C686.645203,814.990906 682.977356,800.086670 678.924316,785.288635 
	C674.917603,770.659302 670.537476,756.130737 666.156189,741.607727 
	C665.739197,740.225647 664.162842,738.175110 663.099365,738.159485 
	C647.802185,737.934570 632.500610,738.005676 616.314087,738.005676 
	C618.028564,742.364929 619.605225,746.044067 620.936401,749.809814 
	C634.159851,787.218201 647.006409,824.764832 660.722534,861.991211 
	C665.411438,874.717346 667.475098,887.337097 667.134155,900.802673 
	C666.619690,921.121155 667.000000,941.462280 667.000000,961.793823 
	C667.000000,963.407898 667.000000,965.021973 667.000000,966.732666 
	C682.217529,966.732666 696.948303,966.732666 712.000000,966.732666 
	C712.000000,964.833862 712.000000,963.198853 712.000000,961.563904 
	C712.000000,935.732910 711.950500,909.901611 712.066162,884.071167 
	C712.079712,881.034607 712.581909,877.856628 713.575928,874.993591 
	C717.435974,863.875427 721.572937,852.853088 725.630615,841.803894 
	C738.304077,807.294006 750.988464,772.788147 763.730591,738.111877 
	C747.843567,738.111877 732.224426,738.111877 716.347961,738.111877 
	C713.719055,748.445679 710.910095,758.692810 708.521667,769.036987 
	C703.098999,792.522156 697.883179,816.055115 692.055176,838.969604 
M2750.000000,919.500000 
	C2750.000000,873.078613 2750.000000,826.657166 2750.000000,779.785461 
	C2763.684326,779.785461 2776.754639,779.785461 2789.642090,779.785461 
	C2789.642090,765.597473 2789.642090,751.864929 2789.642090,738.378418 
	C2747.554443,738.378418 2705.825928,738.378418 2664.225830,738.378418 
	C2664.225830,752.370972 2664.225830,765.984314 2664.225830,780.047180 
	C2677.513184,780.047180 2690.583252,780.047180 2704.089111,780.047180 
	C2704.089111,842.559204 2704.089111,904.619934 2704.089111,966.708191 
	C2719.601318,966.708191 2734.665527,966.708191 2750.000000,966.708191 
	C2750.000000,951.112000 2750.000000,935.805969 2750.000000,919.500000 
M1804.000000,881.500000 
	C1804.000000,909.915161 1804.000000,938.330383 1804.000000,966.683105 
	C1819.661133,966.683105 1834.721313,966.683105 1849.700684,966.683105 
	C1849.700684,890.329834 1849.700684,814.293762 1849.700684,738.316772 
	C1834.338989,738.316772 1819.278809,738.316772 1804.000000,738.316772 
	C1804.000000,785.922058 1804.000000,833.211060 1804.000000,881.500000 
M2575.731689,966.990601 
	C2590.345703,966.990601 2604.959717,966.990601 2619.621094,966.990601 
	C2619.621094,890.414246 2619.621094,814.256470 2619.621094,738.220764 
	C2604.298584,738.220764 2589.355713,738.220764 2574.000244,738.220764 
	C2574.000244,739.392883 2574.000244,740.348206 2574.000244,741.303528 
	C2574.000000,815.269104 2573.996338,889.234680 2574.032227,963.200256 
	C2574.032715,964.437012 2574.515381,965.673523 2575.731689,966.990601 
z"/>
<path fill="#004483" opacity="1.000000" stroke="none" 
	d="
M219.531342,1.000000 
	C220.000000,17.136106 220.000000,33.272213 220.000000,49.843414 
	C263.315002,49.843414 306.369751,49.843414 349.711304,49.843414 
	C349.711304,67.337517 349.711304,84.398079 349.711304,101.891983 
	C324.318512,101.891983 298.948395,101.891983 272.689117,101.891983 
	C284.260529,111.974220 294.306274,122.202560 301.962494,134.497742 
	C312.498505,151.417572 320.247681,169.470306 322.947144,189.360764 
	C324.288574,199.244965 326.022858,209.236099 325.811890,219.141205 
	C325.132843,251.022202 316.718140,280.840149 297.552338,306.654297 
	C279.385834,331.122437 255.376297,347.446533 225.836639,356.287048 
	C203.966873,362.832123 181.807983,364.135010 159.532394,362.757324 
	C133.326233,361.136505 108.551361,353.410706 86.528778,338.718262 
	C69.427330,327.308960 55.734573,312.408905 45.218693,294.647400 
	C35.107361,277.569183 28.521872,259.081970 26.210077,239.553116 
	C21.272976,197.847061 29.131422,158.968582 55.482533,125.172020 
	C61.787354,117.085770 69.222168,109.880569 76.382744,102.000000 
	C51.677246,102.000000 26.807280,102.000000 1.468657,102.000000 
	C1.000000,84.979103 1.000000,67.958214 1.468657,50.468658 
	C44.867149,50.000000 87.796989,50.000000 131.000000,50.000000 
	C131.000000,33.279980 131.000000,17.139990 131.000000,1.000000 
	C160.354233,1.000000 189.708450,1.000000 219.531342,1.000000 
M248.000793,200.396820 
	C246.999054,194.480774 246.278732,188.500320 244.942017,182.660950 
	C241.159637,166.137482 234.243027,150.931168 222.734970,138.458328 
	C209.342072,123.942635 192.599854,117.092422 172.396896,117.820084 
	C152.405960,118.540108 136.734940,127.274902 124.662941,142.117340 
	C108.283669,162.255539 102.283974,186.491135 101.169044,211.915482 
	C100.776138,220.875137 101.851425,229.986420 103.087479,238.913376 
	C106.359032,262.540985 114.802338,283.886169 132.886856,300.313629 
	C148.499390,314.495605 167.217133,319.650238 187.630203,315.528076 
	C214.689667,310.063782 230.247345,291.375153 240.124756,266.782684 
	C244.951004,254.766464 247.662354,242.261002 248.756012,229.551041 
	C249.557983,220.230743 248.330353,210.735809 248.000793,200.396820 
z"/>
<path fill="#004483" opacity="1.000000" stroke="none" 
	d="
M2077.531250,1.000000 
	C2078.000000,17.138222 2078.000000,33.276443 2078.000000,49.857872 
	C2121.659912,49.857872 2165.053711,49.857872 2208.722656,49.857872 
	C2208.722656,67.362839 2208.722656,84.425385 2208.722656,101.942032 
	C2183.291504,101.942032 2157.924316,101.942032 2131.458740,101.942032 
	C2136.090332,106.202400 2140.129395,109.501427 2143.685303,113.258102 
	C2163.259033,133.937759 2175.537842,158.308029 2181.118164,186.278336 
	C2183.920898,200.327515 2184.805908,214.465240 2183.811523,228.570557 
	C2182.612549,245.573730 2178.836670,262.133484 2172.090576,278.001495 
	C2163.885498,297.300842 2152.107666,313.942291 2136.552979,327.861115 
	C2121.840820,341.025726 2104.827148,350.442169 2085.880859,355.811310 
	C2075.637207,358.714172 2065.007324,360.711365 2054.416504,361.807556 
	C2042.916748,362.997803 2031.195435,363.605743 2019.683716,362.817444 
	C1989.643677,360.760406 1961.899902,351.688446 1937.665771,333.186676 
	C1920.064575,319.749023 1906.839844,302.764069 1897.487305,282.844727 
	C1891.000854,269.029602 1886.511353,254.497131 1885.019897,239.200790 
	C1884.223511,231.034500 1882.869629,222.818314 1883.142700,214.670746 
	C1884.129150,185.245255 1891.589722,157.587967 1908.088623,132.884003 
	C1915.406006,121.927467 1924.021118,111.982918 1934.584473,103.904991 
	C1935.041260,103.555580 1935.368774,103.036972 1936.226440,102.064476 
	C1910.163696,102.064476 1884.909912,102.064476 1859.328857,102.064476 
	C1859.328857,84.742241 1859.328857,67.678848 1859.328857,50.168617 
	C1902.633423,50.168617 1946.027100,50.168617 1990.000000,50.168617 
	C1990.000000,33.799629 1990.000000,17.868471 1990.000000,1.468657 
	C2019.020874,1.000000 2048.041748,1.000000 2077.531250,1.000000 
M1964.993286,178.477264 
	C1963.328857,187.063522 1960.708130,195.593719 1960.200684,204.247818 
	C1959.170776,221.815109 1959.462158,239.457565 1965.039062,256.462921 
	C1970.938354,274.450500 1979.015015,291.011536 1994.493652,303.116333 
	C2009.544434,314.886353 2026.614624,318.739105 2044.921631,315.776306 
	C2063.351074,312.793701 2077.402100,302.181519 2088.013428,286.939331 
	C2102.187500,266.578766 2106.741943,243.326523 2107.845215,219.216248 
	C2108.179443,211.918442 2106.776123,204.524933 2105.984619,197.195160 
	C2104.241943,181.062698 2099.549072,165.898163 2091.013184,151.987183 
	C2077.009277,129.164047 2057.529785,116.618484 2029.891235,117.878265 
	C2013.707031,118.615936 2000.224487,124.968727 1988.881470,135.804047 
	C1976.875610,147.272400 1969.849976,161.913467 1964.993286,178.477264 
z"/>
<path fill="#004483" opacity="1.000000" stroke="none" 
	d="
M1473.468384,970.000000 
	C1467.188599,968.401550 1461.310913,967.008667 1455.578247,965.165405 
	C1439.558228,960.014282 1430.077271,947.973083 1424.227295,933.148804 
	C1419.825928,921.995544 1417.185669,910.175110 1417.000122,898.003845 
	C1416.665527,876.080933 1416.158203,854.158875 1416.041992,832.234802 
	C1415.876953,801.074341 1416.000000,769.912354 1416.000000,738.375549 
	C1430.829590,738.375549 1445.562988,738.375549 1461.000000,738.375549 
	C1461.000000,739.897278 1461.000000,741.648865 1461.000000,743.400391 
	C1461.000000,789.896606 1460.738525,836.395264 1461.188110,882.887146 
	C1461.297485,894.187012 1461.412109,905.812378 1466.010376,916.619446 
	C1470.908569,928.131775 1480.663818,934.237122 1492.976318,926.939087 
	C1498.565430,923.626282 1500.297241,917.399963 1501.788940,911.721741 
	C1503.307251,905.942017 1503.891846,899.769897 1503.910767,893.766541 
	C1504.068115,843.771179 1504.000000,793.774963 1504.000000,743.779053 
	C1504.000000,741.991394 1504.000000,740.203674 1504.000000,738.211792 
	C1519.377808,738.211792 1534.324585,738.211792 1550.000000,738.211792 
	C1550.000000,739.702148 1550.000000,741.282837 1550.000000,742.863525 
	C1550.000000,790.026367 1550.380493,837.193726 1549.812866,884.349731 
	C1549.585815,903.214844 1547.225464,922.137268 1537.900391,939.125305 
	C1528.281372,956.648376 1513.723877,967.416321 1493.157227,969.619568 
	C1486.645630,970.000000 1480.291138,970.000000 1473.468384,970.000000 
z"/>
<path fill="#004483" opacity="1.000000" stroke="none" 
	d="
M2967.000000,740.625000 
	C2962.503418,752.998108 2957.965576,764.980835 2953.518799,776.997314 
	C2943.167236,804.969971 2933.197510,833.090210 2922.382080,860.881775 
	C2917.463867,873.520203 2915.495850,886.174072 2915.855469,899.655884 
	C2916.406006,920.300842 2916.000000,940.971313 2916.000000,961.630920 
	C2916.000000,963.259521 2916.000000,964.888123 2916.000000,966.755981 
	C2900.903564,966.755981 2886.175537,966.755981 2871.000000,966.755981 
	C2871.000000,964.978088 2871.000000,963.359131 2871.000000,961.740234 
	C2871.000000,941.580444 2870.626221,921.411194 2871.132080,901.264099 
	C2871.465576,887.982849 2869.742432,875.430237 2865.113770,862.852173 
	C2851.638672,826.233032 2838.896729,789.344360 2825.835449,752.572693 
	C2824.172607,747.891785 2822.322021,743.277649 2820.320557,738.005188 
	C2836.493652,738.005188 2851.790527,737.934082 2867.083496,738.158325 
	C2868.148926,738.174011 2869.729736,740.214844 2870.146240,741.593201 
	C2874.530762,756.111023 2878.887451,770.641357 2882.928223,785.257629 
	C2886.670410,798.794495 2890.064209,812.428711 2893.515137,826.044434 
	C2894.569336,830.203308 2895.304932,834.442932 2895.944092,837.491028 
	C2903.760986,804.993164 2911.777344,771.666870 2919.875488,738.000000 
	C2935.469971,738.000000 2950.766113,738.000000 2966.531250,738.000000 
	C2967.000000,738.750000 2967.000000,739.500000 2967.000000,740.625000 
z"/>
<path fill="#FFFFFF" opacity="1.000000" stroke="none" 
	d="
M130.531342,1.000000 
	C131.000000,17.139990 131.000000,33.279980 131.000000,50.000000 
	C87.796989,50.000000 44.867149,50.000000 1.468657,50.000000 
	C1.000000,33.706676 1.000000,17.413357 1.000000,1.000000 
	C44.020824,1.000000 87.041756,1.000000 130.531342,1.000000 
z"/>
<path fill="#004483" opacity="1.000000" stroke="none" 
	d="
M1719.000000,21.000000 
	C1730.473267,21.000000 1741.446411,21.000000 1752.708984,21.000000 
	C1752.708984,224.323807 1752.708984,427.372559 1752.708984,630.710693 
	C1725.326538,630.710693 1697.930298,630.710693 1670.093018,630.710693 
	C1670.093018,507.954407 1670.093018,385.231934 1670.093018,262.255127 
	C1656.923828,262.255127 1644.193115,262.255127 1631.021240,262.255127 
	C1631.021240,385.117401 1631.021240,507.839874 1631.021240,630.780640 
	C1603.304321,630.780640 1576.025757,630.780640 1548.300293,630.780640 
	C1548.300293,561.165161 1548.300293,491.437897 1548.300293,421.266479 
	C1464.797119,421.266479 1381.737793,421.266479 1298.339600,421.266479 
	C1298.339600,287.768066 1298.339600,154.713577 1298.339600,21.329430 
	C1367.256836,21.329430 1436.316528,21.329430 1505.688354,21.329430 
	C1505.688354,38.294197 1505.688354,55.358463 1505.688354,72.874451 
	C1465.991821,72.874451 1426.261230,72.874451 1386.266479,72.874451 
	C1386.266479,171.381134 1386.266479,269.438232 1386.266479,367.747803 
	C1440.079834,367.747803 1493.807251,367.747803 1547.975708,367.747803 
	C1547.975708,252.219299 1547.975708,136.829529 1547.975708,21.220406 
	C1575.693481,21.220406 1602.972046,21.220406 1630.698364,21.220406 
	C1630.698364,83.499664 1630.698364,145.894302 1630.698364,208.644119 
	C1643.868896,208.644119 1656.601685,208.644119 1669.784424,208.644119 
	C1669.784424,146.414017 1669.784424,84.019348 1669.784424,21.000000 
	C1686.315674,21.000000 1702.407837,21.000000 1719.000000,21.000000 
z"/>
<path fill="#004483" opacity="1.000000" stroke="none" 
	d="
M2713.000000,529.927795 
	C2713.000000,444.145172 2713.000000,358.855011 2713.000000,273.282593 
	C2740.352051,273.282593 2767.413818,273.282593 2794.915039,273.282593 
	C2794.915039,361.053741 2794.915039,448.775421 2794.915039,536.940308 
	C2851.743652,536.940308 2908.136475,536.940308 2964.763672,536.940308 
	C2964.763672,554.780457 2964.763672,572.176453 2964.763672,589.786438 
	C2805.524414,589.786438 2646.479004,589.786438 2487.216797,589.786438 
	C2487.216797,572.299988 2487.216797,555.021118 2487.216797,537.292114 
	C2516.172607,537.292114 2545.237061,537.292114 2574.738281,537.292114 
	C2574.738281,449.123260 2574.738281,361.401550 2574.738281,273.340210 
	C2602.235107,273.340210 2629.297607,273.340210 2656.799805,273.340210 
	C2656.799805,360.938171 2656.799805,448.659821 2656.799805,536.690308 
	C2675.631104,536.690308 2694.027832,536.690308 2713.000000,536.690308 
	C2713.000000,534.624817 2713.000000,532.522583 2713.000000,529.927795 
z"/>
<path fill="#004483" opacity="1.000000" stroke="none" 
	d="
M2931.000000,464.000000 
	C2931.000000,472.806335 2931.000000,481.112671 2931.000000,489.708069 
	C2903.334961,489.708069 2875.941162,489.708069 2848.128174,489.708069 
	C2848.128174,350.982452 2848.128174,212.274643 2848.128174,73.142227 
	C2734.665527,73.142227 2621.619873,73.142227 2508.287354,73.142227 
	C2508.287354,55.324219 2508.287354,37.928642 2508.287354,20.265823 
	C2649.032227,20.265823 2789.739258,20.265823 2931.000000,20.265823 
	C2931.000000,168.035339 2931.000000,315.767670 2931.000000,464.000000 
z"/>
<path fill="#004483" opacity="1.000000" stroke="none" 
	d="
M687.236084,287.733826 
	C674.685608,278.082153 665.290649,266.076172 657.108826,253.175446 
	C646.795166,236.913437 639.968445,219.000244 636.305420,200.213104 
	C633.103638,183.791824 631.969543,167.119461 633.770203,150.192764 
	C635.328552,135.543793 638.103271,121.312019 643.059570,107.541687 
	C652.375916,81.657326 667.687561,59.988297 688.982544,42.385319 
	C707.112061,27.399073 727.770081,17.720907 750.410034,12.477908 
	C761.472107,9.916146 772.984924,9.078481 784.349365,8.122122 
	C791.975403,7.480362 799.706055,7.786795 807.377686,8.040132 
	C830.037354,8.788413 851.650879,13.763439 872.223755,23.581947 
	C911.439087,42.297649 936.301697,73.253387 949.875916,113.848930 
	C954.110291,126.512222 956.848877,139.596085 956.979675,153.058456 
	C957.081848,163.569626 957.853271,174.169220 956.798462,184.574539 
	C955.198120,200.361160 951.326904,215.726349 945.205505,230.517761 
	C936.911072,250.559631 925.147034,268.196991 909.379150,282.990540 
	C895.284607,296.214233 878.993591,306.207916 860.842590,312.935913 
	C845.719666,318.541534 830.111572,321.725586 813.958862,323.165314 
	C787.329102,325.538910 761.335938,323.285767 735.952820,314.982666 
	C718.091125,309.139893 701.724426,300.433624 687.236084,287.733826 
M737.512512,89.979851 
	C724.455383,108.966347 718.705078,130.482895 717.204895,153.025192 
	C716.190491,168.267410 716.464417,183.631348 719.922485,198.784836 
	C725.262573,222.185913 734.022034,243.522629 752.956726,259.529053 
	C763.610413,268.535065 775.896851,273.881287 789.558350,274.837524 
	C812.593140,276.449829 831.905518,268.424744 847.062866,250.534851 
	C865.245483,229.074417 871.697266,203.413300 873.855835,176.356644 
	C874.981934,162.241852 874.029541,148.058929 871.011536,134.104080 
	C866.065369,111.233582 857.781555,90.165779 839.682800,74.145805 
	C824.399414,60.617817 806.890869,55.155148 786.521057,57.893745 
	C765.210449,60.758831 749.610413,71.897987 737.512512,89.979851 
z"/>
<path fill="#004483" opacity="1.000000" stroke="none" 
	d="
M777.969360,449.931152 
	C786.329773,425.337250 800.388245,404.853516 819.543640,388.167267 
	C839.570618,370.721985 863.174988,360.081726 888.998047,353.906158 
	C910.075928,348.865387 931.458496,347.922211 952.813721,349.199982 
	C983.842834,351.056580 1013.225342,359.243652 1039.375732,376.811035 
	C1071.838989,398.619476 1092.556152,428.705231 1100.804932,466.885986 
	C1103.379150,478.801056 1104.993408,491.237823 1104.741089,503.387909 
	C1104.089111,534.795105 1094.991577,563.896179 1076.080444,589.261902 
	C1056.138916,616.009827 1029.591675,633.763000 997.584106,642.813782 
	C985.473572,646.238281 972.883545,648.526794 960.356995,649.770020 
	C946.700867,651.125366 932.802612,651.643188 919.121887,650.770142 
	C898.845337,649.476013 879.076416,645.048706 860.185303,637.084778 
	C844.449707,630.451111 830.334900,621.513550 817.548340,610.173584 
	C799.877869,594.502258 787.237610,575.569702 778.999573,553.554077 
	C773.425537,538.657654 770.539612,523.350220 769.813293,507.375793 
	C768.920105,487.729889 771.350464,468.797974 777.969360,449.931152 
M856.000000,498.512756 
	C856.331177,503.602478 856.681580,508.691040 856.990051,513.782104 
	C858.008179,530.587463 863.224365,546.129395 870.973206,560.952698 
	C877.388000,573.223999 886.123962,583.622009 897.831543,590.822754 
	C913.075195,600.198425 929.702271,603.730103 947.842834,601.169189 
	C967.971191,598.327576 983.654114,588.399780 995.513611,572.706482 
	C1010.669495,552.651123 1017.158447,529.141968 1017.717957,504.370728 
	C1017.999756,491.894257 1016.454224,479.102692 1013.750732,466.892944 
	C1008.992798,445.405029 999.598938,426.196411 981.654419,412.056122 
	C961.681885,396.317749 939.382935,393.346039 915.617310,399.914276 
	C893.642639,405.987610 879.106262,421.282562 869.073975,441.030334 
	C860.092773,458.709076 856.278381,477.749084 856.000000,498.512756 
z"/>
<path fill="#004483" opacity="1.000000" stroke="none" 
	d="
M394.000000,272.000000 
	C394.000000,188.197311 394.000000,104.894630 394.000000,21.296112 
	C423.660248,21.296112 453.057251,21.296112 482.906128,21.296112 
	C482.906128,70.706795 482.906128,120.104301 482.906128,169.952164 
	C511.418274,169.952164 539.484985,169.952164 567.773682,169.952164 
	C567.773682,187.348526 567.773682,204.295502 567.773682,221.695663 
	C539.840942,221.695663 511.774261,221.695663 483.260529,221.695663 
	C483.260529,300.540833 483.260529,378.936157 483.260529,457.665405 
	C453.417572,457.665405 424.020264,457.665405 394.000000,457.665405 
	C394.000000,396.011017 394.000000,334.255493 394.000000,272.000000 
z"/>
<path fill="#004483" opacity="1.000000" stroke="none" 
	d="
M1136.000000,262.000000 
	C1122.862183,262.000000 1110.224365,262.000000 1097.143311,262.000000 
	C1097.143311,290.324432 1097.143311,318.385895 1097.143311,346.722107 
	C1067.308228,346.722107 1037.916626,346.722107 1008.262085,346.722107 
	C1008.262085,238.293976 1008.262085,129.920792 1008.262085,21.273706 
	C1037.700317,21.273706 1067.091797,21.273706 1096.931641,21.273706 
	C1096.931641,42.065243 1096.931641,62.796169 1096.931641,83.966484 
	C1125.768799,83.966484 1154.163452,83.966484 1182.776978,83.966484 
	C1182.776978,101.352081 1182.776978,118.295982 1182.776978,135.685287 
	C1154.515381,135.685287 1126.120605,135.685287 1097.363647,135.685287 
	C1097.363647,160.185150 1097.363647,184.245911 1097.363647,208.752716 
	C1125.552856,208.752716 1153.947510,208.752716 1182.670166,208.752716 
	C1182.670166,226.587463 1182.670166,243.982788 1182.670166,262.000000 
	C1167.347290,262.000000 1151.923706,262.000000 1136.000000,262.000000 
z"/>
<path fill="#004483" opacity="1.000000" stroke="none" 
	d="
M2269.002197,379.000000 
	C2263.528564,379.000000 2258.554199,379.000000 2253.291016,379.000000 
	C2253.291016,259.667419 2253.291016,140.609314 2253.291016,21.275476 
	C2282.368408,21.275476 2311.431641,21.275476 2340.946289,21.275476 
	C2340.946289,70.747322 2340.946289,120.144501 2340.946289,169.816925 
	C2369.672852,169.816925 2397.952148,169.816925 2426.615234,169.816925 
	C2426.615234,187.150146 2426.615234,204.215149 2426.615234,221.734085 
	C2398.468750,221.734085 2370.068848,221.734085 2341.221191,221.734085 
	C2341.221191,274.246033 2341.221191,326.309662 2341.221191,379.000000 
	C2317.018066,379.000000 2293.259766,379.000000 2269.002197,379.000000 
z"/>
<path fill="#004483" opacity="1.000000" stroke="none" 
	d="
M2326.993652,407.000000 
	C2331.799316,407.000000 2336.106689,407.000000 2340.705811,407.000000 
	C2340.705811,481.314301 2340.705811,555.360596 2340.705811,629.703613 
	C2311.679443,629.703613 2282.621582,629.703613 2253.129639,629.703613 
	C2253.129639,572.656006 2253.129639,515.604065 2253.129639,458.137451 
	C2151.324707,458.137451 2049.951172,458.137451 1948.289307,458.137451 
	C1948.289307,440.996399 1948.289307,424.268585 1948.289307,407.000000 
	C2074.376709,407.000000 2200.436035,407.000000 2326.993652,407.000000 
z"/>
<path fill="#004483" opacity="1.000000" stroke="none" 
	d="
M442.000000,630.000000 
	C329.888428,630.000000 218.276855,630.000000 106.332703,630.000000 
	C106.332703,555.763245 106.332703,481.717041 106.332703,407.335205 
	C135.241669,407.335205 164.299820,407.335205 193.791901,407.335205 
	C193.791901,463.931580 193.791901,520.650024 193.791901,577.783691 
	C293.596405,577.783691 392.969849,577.783691 492.671387,577.783691 
	C492.671387,595.256409 492.671387,612.317993 492.671387,630.000000 
	C476.012421,630.000000 459.256195,630.000000 442.000000,630.000000 
z"/>
<path fill="#004483" opacity="1.000000" stroke="none" 
	d="
M1745.000000,798.000000 
	C1745.000000,854.468811 1745.000000,910.437561 1745.000000,967.000000 
	C1733.481689,967.000000 1722.216431,967.000000 1710.951172,967.000000 
	C1702.869263,967.000000 1703.073975,966.918518 1699.927490,959.008606 
	C1690.385376,935.020630 1680.262817,911.255432 1671.142334,887.110352 
	C1662.827515,865.098389 1655.527466,842.703064 1647.769287,820.480530 
	C1647.609131,820.021973 1647.314575,819.610352 1646.626831,818.325134 
	C1647.263794,868.493958 1647.885132,917.438782 1648.510498,966.695923 
	C1634.690918,966.695923 1621.626343,966.695923 1608.279785,966.695923 
	C1608.279785,890.644348 1608.279785,814.585999 1608.279785,738.006836 
	C1621.596191,738.006836 1634.870850,737.916992 1648.139648,738.155762 
	C1649.370239,738.177917 1651.144897,740.060608 1651.688599,741.459717 
	C1665.885498,777.986267 1679.987549,814.549805 1694.023682,851.138550 
	C1699.029175,864.186401 1703.821167,877.316223 1709.164062,890.402893 
	C1708.541016,882.139648 1707.921143,873.876221 1707.288696,865.613770 
	C1707.238892,864.963684 1707.038208,864.322998 1707.012451,863.673767 
	C1706.663940,854.916443 1706.150757,846.160828 1706.032959,837.400085 
	C1705.614746,806.312683 1705.332397,775.223450 1705.002441,744.134949 
	C1704.983154,742.315002 1705.000000,740.494690 1705.000000,738.337708 
	C1718.239868,738.337708 1731.305298,738.337708 1745.000000,738.337708 
	C1745.000000,757.982666 1745.000000,777.741333 1745.000000,798.000000 
z"/>
<path fill="#004483" opacity="1.000000" stroke="none" 
	d="
M1030.972778,799.096313 
	C1042.434570,829.215393 1053.869263,858.937439 1065.304077,888.659485 
	C1065.460327,888.626343 1065.616577,888.593140 1065.772827,888.559998 
	C1065.315674,881.978027 1064.866699,875.395386 1064.392700,868.814636 
	C1064.322388,867.839111 1064.031128,866.873901 1064.015015,865.901001 
	C1063.330933,824.719849 1062.666138,783.538269 1062.002686,742.356750 
	C1061.981812,741.062866 1062.000000,739.768372 1062.000000,738.239258 
	C1075.442505,738.239258 1088.506714,738.239258 1101.785645,738.239258 
	C1101.785645,814.371338 1101.785645,890.314392 1101.785645,966.610535 
	C1100.837036,966.728516 1099.747314,966.979248 1098.657104,966.981934 
	C1086.991333,967.010498 1075.324585,966.920837 1063.660522,967.059692 
	C1060.998657,967.091370 1059.376587,966.446106 1058.355103,963.840393 
	C1048.935669,939.812195 1039.203735,915.903870 1030.022217,891.785706 
	C1021.644897,869.779663 1013.835327,847.557434 1005.783691,825.427490 
	C1005.166199,823.730164 1004.613647,822.009033 1004.030884,820.298950 
	C1003.552917,820.384888 1003.075012,820.470764 1002.597046,820.556702 
	C1003.048767,827.369568 1003.502869,834.182312 1003.948547,840.995544 
	C1003.992004,841.659973 1003.997620,842.327759 1003.997681,842.994019 
	C1003.999878,884.079773 1003.999634,925.165466 1003.999634,966.625977 
	C991.834778,966.625977 978.767639,966.625977 965.349121,966.625977 
	C965.349121,890.781189 965.349121,814.720093 965.349121,738.000000 
	C972.773865,738.000000 980.366943,738.000000 987.960022,738.000000 
	C992.459656,738.000000 997.001038,738.380615 1001.447388,737.893860 
	C1005.976929,737.398071 1007.614868,739.558777 1009.060364,743.334412 
	C1015.864868,761.109009 1022.912292,778.790588 1029.884277,796.500977 
	C1030.181519,797.256042 1030.589355,797.967468 1030.972778,799.096313 
z"/>
<path fill="#004483" opacity="1.000000" stroke="none" 
	d="
M505.026184,879.890625 
	C497.870392,859.518799 490.741028,839.544373 483.772186,820.019714 
	C484.336243,868.497009 484.905823,917.450317 485.478912,966.705566 
	C471.671387,966.705566 458.607178,966.705566 445.270447,966.705566 
	C445.270447,890.626770 445.270447,814.569519 445.270447,738.007385 
	C458.613739,738.007385 471.890106,737.917297 485.160522,738.157043 
	C486.388000,738.179199 488.154755,740.073975 488.700684,741.476929 
	C503.614685,779.802124 518.432434,818.164917 533.188660,856.551270 
	C536.601929,865.430481 539.722107,874.422180 543.004028,883.352234 
	C543.545044,884.824219 544.225220,886.245056 545.918640,887.468201 
	C545.442810,879.640076 544.976868,871.811340 544.476196,863.984802 
	C544.424744,863.180847 544.051208,862.394714 544.019897,861.592773 
	C543.658447,852.336182 543.161438,843.080627 543.031860,833.820129 
	C542.613220,803.899902 542.332214,773.977783 542.002563,744.056396 
	C541.982605,742.243896 542.000000,740.430969 542.000000,738.309937 
	C555.296753,738.309937 568.361328,738.309937 581.714050,738.309937 
	C581.714050,814.342163 581.714050,890.399414 581.714050,966.728516 
	C567.930237,966.728516 554.170898,966.728516 540.124329,966.728516 
	C533.115234,949.356689 526.072632,931.843811 518.982605,914.350159 
	C514.375000,902.981628 509.698303,891.641174 505.026184,879.890625 
z"/>
<path fill="#004483" opacity="1.000000" stroke="none" 
	d="
M209.000000,920.000000 
	C209.000000,935.803528 209.000000,951.107117 209.000000,966.704590 
	C194.008713,966.704590 179.280167,966.704590 164.106812,966.704590 
	C164.106812,935.304382 164.106812,903.911194 164.106812,872.260620 
	C148.604156,872.260620 133.542877,872.260620 118.037376,872.260620 
	C118.037376,903.765686 118.037376,935.158875 118.037376,966.774170 
	C102.987221,966.774170 88.376465,966.774170 73.382492,966.774170 
	C73.382492,890.742554 73.382492,814.579163 73.382492,738.207520 
	C88.050354,738.207520 102.660988,738.207520 117.716019,738.207520 
	C117.716019,768.183105 117.716019,798.243347 117.716019,828.651062 
	C133.214844,828.651062 148.277786,828.651062 163.786438,828.651062 
	C163.786438,798.745789 163.786438,768.685486 163.786438,738.313721 
	C178.953766,738.313721 193.682693,738.313721 209.000000,738.313721 
	C209.000000,798.679382 209.000000,859.089661 209.000000,920.000000 
z"/>
<path fill="#004483" opacity="1.000000" stroke="none" 
	d="
M2239.000000,951.996094 
	C2239.000000,884.353699 2239.000000,817.210815 2239.000000,750.067932 
	C2239.000000,740.508423 2238.953613,739.773743 2248.425781,739.177124 
	C2267.400635,737.981995 2286.459961,736.736877 2305.429688,737.316467 
	C2319.108643,737.734375 2332.712891,740.881775 2344.218262,749.611572 
	C2356.135986,758.653992 2364.827637,769.753418 2365.875977,785.133362 
	C2366.565430,795.252441 2367.175049,805.622742 2365.756836,815.586853 
	C2363.093994,834.297424 2352.189209,847.960815 2336.006592,857.481873 
	C2335.312256,857.890442 2334.572021,858.223267 2333.892822,858.654236 
	C2333.628418,858.821960 2333.474121,859.163635 2333.137695,859.595703 
	C2349.085693,866.038208 2354.309082,880.239746 2357.874023,895.063354 
	C2362.715332,915.194519 2366.613525,935.551514 2371.042725,955.783997 
	C2371.865723,959.542542 2373.285400,963.170410 2374.473633,966.999756 
	C2359.651123,966.999756 2344.835693,967.078247 2330.024658,966.868164 
	C2328.669922,966.848938 2326.395752,965.176575 2326.143311,963.945068 
	C2322.598633,946.647400 2319.482178,929.261963 2315.926758,911.966614 
	C2314.338867,904.243225 2312.550293,896.474854 2309.867432,889.084656 
	C2306.569092,879.999878 2299.379395,875.762756 2289.657471,875.994385 
	C2288.000244,876.033875 2286.341309,876.000000 2284.246094,876.000000 
	C2284.246094,906.205688 2284.246094,936.270630 2284.246094,966.666870 
	C2269.085938,966.666870 2254.356689,966.666870 2239.000000,966.666870 
	C2239.000000,962.019348 2239.000000,957.257446 2239.000000,951.996094 
M2284.000000,781.560791 
	C2284.000000,801.317993 2284.000000,821.075134 2284.000000,840.999878 
	C2286.979492,840.999878 2289.317627,841.181763 2291.619141,840.968201 
	C2301.400635,840.060608 2310.169922,836.940796 2315.430176,827.984192 
	C2321.501953,817.646118 2322.925781,806.496033 2320.369385,794.740723 
	C2318.525635,786.263245 2315.019531,778.900940 2306.827637,775.106934 
	C2299.622314,771.769836 2291.986816,770.624573 2284.000000,773.576782 
	C2284.000000,775.949646 2284.000000,778.267456 2284.000000,781.560791 
z"/>
<path fill="#004483" opacity="1.000000" stroke="none" 
	d="
M1266.875000,737.000122 
	C1271.718872,738.065186 1276.102173,739.187683 1280.514771,740.179321 
	C1285.235474,741.240295 1285.508179,743.951538 1284.502930,748.212280 
	C1281.898682,759.248352 1279.832031,770.411194 1277.430054,782.111938 
	C1268.327026,777.267761 1258.380737,776.710876 1248.232056,776.956177 
	C1230.588745,777.382507 1217.627441,785.360779 1208.868286,800.525024 
	C1201.713989,812.911072 1198.697876,826.411377 1198.009521,840.538452 
	C1197.623535,848.459717 1196.659790,856.426331 1197.136841,864.301086 
	C1198.211548,882.045776 1200.484741,899.651794 1211.008301,914.830688 
	C1217.686523,924.463074 1226.812988,930.277771 1238.723145,930.920593 
	C1241.388794,931.064453 1244.108154,930.212891 1246.864502,929.810608 
	C1246.864502,911.492554 1246.864502,893.539490 1246.864502,875.132568 
	C1240.339722,875.132568 1233.933594,875.132568 1227.268066,875.132568 
	C1227.268066,862.616943 1227.268066,850.552795 1227.268066,838.243530 
	C1247.766479,838.243530 1268.163086,838.243530 1289.000000,838.243530 
	C1289.000000,839.863708 1289.000000,841.317017 1289.000000,842.770325 
	C1289.000000,880.599304 1288.943970,918.428528 1289.078247,956.257019 
	C1289.093262,960.487061 1287.689087,961.921387 1283.553467,963.182983 
	C1266.012329,968.534058 1248.074829,970.026367 1229.998657,968.853271 
	C1212.811157,967.737915 1197.187256,961.983337 1183.847412,950.447205 
	C1165.408936,934.501770 1157.394409,913.536621 1152.823364,890.382080 
	C1149.748901,874.809448 1149.415894,859.179932 1150.173706,843.567871 
	C1151.130127,823.861938 1155.053711,804.556091 1164.119141,786.815918 
	C1173.046997,769.344971 1185.632324,755.044250 1203.410156,745.967590 
	C1215.406128,739.842834 1228.024170,735.809265 1241.662964,736.036133 
	C1249.920898,736.173401 1258.172729,736.666687 1266.875000,737.000122 
z"/>
<path fill="#004483" opacity="1.000000" stroke="none" 
	d="
M343.982117,738.000000 
	C348.128143,738.000000 351.778198,738.000000 355.709137,738.000000 
	C370.537903,814.296692 385.330444,890.406982 400.216339,966.997437 
	C385.907715,966.997437 372.106812,967.075928 358.310883,966.849548 
	C357.196655,966.831360 355.381073,964.860474 355.133331,963.560303 
	C352.279175,948.580750 349.672241,933.554260 346.979706,918.543762 
	C346.570496,916.262390 345.710510,914.874817 342.815521,914.920654 
	C330.827881,915.110291 318.835541,915.000244 306.188934,915.000244 
	C302.786560,932.205017 299.378174,949.440247 295.942749,966.812073 
	C281.273346,966.812073 266.829254,966.812073 251.639603,966.812073 
	C268.184021,890.388428 284.661346,814.274780 301.173523,738.000000 
	C315.526154,738.000000 329.506165,738.000000 343.982117,738.000000 
M340.937622,871.728394 
	C340.625183,870.476135 340.222015,869.238647 340.015930,867.969116 
	C339.079041,862.198181 338.185364,856.420105 337.298889,850.641113 
	C335.524841,839.076416 333.704742,827.518372 332.018005,815.940979 
	C330.442871,805.129578 329.015778,794.296570 327.523529,783.473083 
	C327.362335,783.463074 327.201141,783.453125 327.039948,783.443115 
	C321.725281,815.141174 316.410614,846.839294 311.071289,878.684448 
	C321.451111,878.684448 331.641754,878.684448 341.655792,878.684448 
	C341.412720,876.458496 341.202789,874.536011 340.937622,871.728394 
z"/>
<path fill="#004483" opacity="1.000000" stroke="none" 
	d="
M802.989502,967.000000 
	C792.166077,967.000000 781.841125,967.000000 771.103271,967.000000 
	C776.427307,943.211975 781.847595,919.747559 786.905884,896.205444 
	C793.437195,865.807922 799.588806,835.328979 806.076660,804.921936 
	C810.567261,783.875854 815.401123,762.903137 819.943848,741.867920 
	C820.580383,738.920044 821.773865,737.899231 824.842957,737.929871 
	C840.174133,738.083130 855.508057,738.057434 870.840088,737.953979 
	C874.104553,737.932007 875.489380,738.430298 876.196533,742.371521 
	C879.399963,760.226379 883.408325,777.934814 886.879639,795.744141 
	C890.727783,815.486023 894.212097,835.298584 898.032166,855.046082 
	C901.479004,872.863892 905.235291,890.621582 908.725464,908.431213 
	C911.906799,924.665161 914.913696,940.933167 917.997681,957.186096 
	C918.596008,960.339355 919.195251,963.492493 919.860901,966.997681 
	C905.906372,966.997681 892.091125,967.060974 878.279236,966.877136 
	C877.176453,966.862488 875.336853,965.289307 875.121765,964.189575 
	C872.599426,951.292053 870.356018,938.340210 867.958008,925.417786 
	C867.338196,922.077332 866.436646,918.789062 865.554565,915.005249 
	C853.160522,915.005249 840.525513,914.946655 827.893738,915.120544 
	C826.919800,915.133850 825.325684,916.648926 825.106201,917.694092 
	C822.941162,928.006104 820.989868,938.363281 819.011780,948.714050 
	C817.883606,954.617126 816.817932,960.532104 815.620789,967.000000 
	C811.735046,967.000000 807.611511,967.000000 802.989502,967.000000 
M858.054932,859.194092 
	C857.371765,854.530029 856.670227,849.868652 856.008606,845.201477 
	C853.658813,828.624695 851.349182,812.042114 848.960999,795.470825 
	C848.426086,791.759033 847.634338,788.084167 846.774597,783.371826 
	C841.318054,815.858826 836.061584,847.154785 830.768433,878.669312 
	C841.169800,878.669312 851.030151,878.669312 861.364563,878.669312 
	C860.363281,872.180969 859.422180,866.082764 858.054932,859.194092 
z"/>
<path fill="#004483" opacity="1.000000" stroke="none" 
	d="
M1943.031494,754.775818 
	C1944.371094,762.403015 1945.750854,769.574463 1946.985474,776.770813 
	C1949.320557,790.381775 1951.624268,803.998535 1953.843506,817.628784 
	C1955.960815,830.632568 1957.922852,843.661499 1960.010742,856.670105 
	C1961.942627,868.706360 1964.071655,880.712280 1965.878906,892.766724 
	C1966.911499,899.654236 1967.474854,906.612122 1968.382690,914.729370 
	C1970.355957,898.412048 1971.951538,883.302551 1974.068970,868.266541 
	C1976.040649,854.265747 1978.624390,840.352173 1980.832031,826.383362 
	C1982.636108,814.967957 1984.208252,803.515930 1986.020752,792.101929 
	C1987.855469,780.548462 1989.904663,769.029114 1991.768555,757.480103 
	C1992.625244,752.171875 1993.064209,746.787659 1994.138550,741.528992 
	C1994.414917,740.175903 1996.366089,738.170166 1997.572632,738.152588 
	C2013.227173,737.924561 2028.886108,738.001404 2044.926147,738.001404 
	C2039.955566,759.065430 2034.979614,779.812866 2030.173828,800.599670 
	C2023.069214,831.330505 2016.073242,862.086548 2009.054565,892.837280 
	C2003.691284,916.335388 1998.281006,939.823608 1993.133911,963.369202 
	C1992.543579,966.070007 1991.780762,967.045532 1989.101074,967.033813 
	C1973.281128,966.964600 1957.460693,966.999634 1941.383667,966.999634 
	C1924.284912,890.687134 1907.218506,814.518982 1890.121948,738.216064 
	C1907.087158,738.216064 1923.864014,738.216064 1940.696045,738.216064 
	C1941.485474,743.722595 1942.245850,749.026978 1943.031494,754.775818 
z"/>
<path fill="#004483" opacity="1.000000" stroke="none" 
	d="
M2160.000000,967.000000 
	C2134.533936,967.000000 2109.567871,967.000000 2084.301270,967.000000 
	C2084.301270,890.704651 2084.301270,814.663147 2084.301270,738.310669 
	C2117.622314,738.310669 2151.010498,738.310669 2184.699707,738.310669 
	C2184.699707,750.980957 2184.699707,763.709351 2184.699707,776.886230 
	C2166.313965,776.886230 2147.916992,776.886230 2129.262695,776.886230 
	C2129.262695,794.390686 2129.262695,811.450378 2129.262695,828.957886 
	C2146.758301,828.957886 2164.156006,828.957886 2181.773438,828.957886 
	C2181.773438,841.678040 2181.773438,853.954895 2181.773438,866.680176 
	C2164.520752,866.680176 2147.124512,866.680176 2129.364990,866.680176 
	C2129.364990,887.181152 2129.364990,907.241577 2129.364990,927.749146 
	C2148.880859,927.749146 2168.610352,927.749146 2188.668457,927.749146 
	C2188.668457,940.916565 2188.668457,953.645813 2188.668457,967.000000 
	C2179.351807,967.000000 2169.926025,967.000000 2160.000000,967.000000 
z"/>
<path fill="#004483" opacity="1.000000" stroke="none" 
	d="
M2468.743164,878.245789 
	C2458.911621,871.315491 2448.924316,865.157166 2439.862549,857.851257 
	C2425.281006,846.095093 2413.586182,831.522705 2411.312988,812.527649 
	C2408.208984,786.590698 2415.262695,763.690552 2437.790527,747.794983 
	C2446.234131,741.837158 2455.822021,738.177368 2466.072021,737.120300 
	C2474.929443,736.206787 2483.920410,735.753357 2492.804199,736.157471 
	C2502.320557,736.590393 2511.521973,739.150269 2520.054932,743.485840 
	C2517.550537,756.910767 2515.125488,769.910034 2512.619629,783.342529 
	C2503.027344,777.969421 2493.103760,774.660278 2482.568848,775.135803 
	C2468.294189,775.780151 2458.116699,780.596252 2455.304932,796.778015 
	C2454.082275,803.814331 2456.653320,811.059448 2462.397217,815.662048 
	C2471.115723,822.648621 2480.409424,828.946838 2489.681641,835.207581 
	C2509.323242,848.469666 2524.947266,864.927490 2527.757080,889.437073 
	C2530.566162,913.943176 2524.583008,936.246582 2504.657227,952.666809 
	C2494.520508,961.020081 2482.498291,966.240845 2469.417480,967.846985 
	C2460.264160,968.970886 2450.806396,969.773071 2441.718750,968.711792 
	C2431.054688,967.466492 2420.603516,964.197937 2410.183838,961.353027 
	C2409.054932,961.044800 2407.906250,957.593079 2408.194336,955.833252 
	C2410.081299,944.310547 2412.361328,932.852295 2414.603027,920.893799 
	C2418.647705,922.395386 2422.733154,924.154663 2426.962891,925.437805 
	C2440.324951,929.491577 2453.780518,931.958313 2467.526123,927.006470 
	C2479.727539,922.610962 2485.233398,910.083252 2482.276611,897.640625 
	C2480.316895,889.392456 2475.394531,883.515137 2468.743164,878.245789 
z"/>
<path fill="#004483" opacity="1.000000" stroke="none" 
	d="
M692.319275,839.269165 
	C697.883179,816.055115 703.098999,792.522156 708.521667,769.036987 
	C710.910095,758.692810 713.719055,748.445679 716.347961,738.111877 
	C732.224426,738.111877 747.843567,738.111877 763.730591,738.111877 
	C750.988464,772.788147 738.304077,807.294006 725.630615,841.803894 
	C721.572937,852.853088 717.435974,863.875427 713.575928,874.993591 
	C712.581909,877.856628 712.079712,881.034607 712.066162,884.071167 
	C711.950500,909.901611 712.000000,935.732910 712.000000,961.563904 
	C712.000000,963.198853 712.000000,964.833862 712.000000,966.732666 
	C696.948303,966.732666 682.217529,966.732666 667.000000,966.732666 
	C667.000000,965.021973 667.000000,963.407898 667.000000,961.793823 
	C667.000000,941.462280 666.619690,921.121155 667.134155,900.802673 
	C667.475098,887.337097 665.411438,874.717346 660.722534,861.991211 
	C647.006409,824.764832 634.159851,787.218201 620.936401,749.809814 
	C619.605225,746.044067 618.028564,742.364929 616.314087,738.005676 
	C632.500610,738.005676 647.802185,737.934570 663.099365,738.159485 
	C664.162842,738.175110 665.739197,740.225647 666.156189,741.607727 
	C670.537476,756.130737 674.917603,770.659302 678.924316,785.288635 
	C682.977356,800.086670 686.645203,814.990906 690.395630,829.870361 
	C691.147522,832.853333 691.512085,835.933960 692.319275,839.269165 
z"/>
<path fill="#004483" opacity="1.000000" stroke="none" 
	d="
M2750.000000,920.000000 
	C2750.000000,935.805969 2750.000000,951.112000 2750.000000,966.708191 
	C2734.665527,966.708191 2719.601318,966.708191 2704.089111,966.708191 
	C2704.089111,904.619934 2704.089111,842.559204 2704.089111,780.047180 
	C2690.583252,780.047180 2677.513184,780.047180 2664.225830,780.047180 
	C2664.225830,765.984314 2664.225830,752.370972 2664.225830,738.378418 
	C2705.825928,738.378418 2747.554443,738.378418 2789.642090,738.378418 
	C2789.642090,751.864929 2789.642090,765.597473 2789.642090,779.785461 
	C2776.754639,779.785461 2763.684326,779.785461 2750.000000,779.785461 
	C2750.000000,826.657166 2750.000000,873.078613 2750.000000,920.000000 
z"/>
<path fill="#004483" opacity="1.000000" stroke="none" 
	d="
M1804.000000,881.000000 
	C1804.000000,833.211060 1804.000000,785.922058 1804.000000,738.316772 
	C1819.278809,738.316772 1834.338989,738.316772 1849.700684,738.316772 
	C1849.700684,814.293762 1849.700684,890.329834 1849.700684,966.683105 
	C1834.721313,966.683105 1819.661133,966.683105 1804.000000,966.683105 
	C1804.000000,938.330383 1804.000000,909.915161 1804.000000,881.000000 
z"/>
<path fill="#004483" opacity="1.000000" stroke="none" 
	d="
M2575.252441,966.950378 
	C2574.515381,965.673523 2574.032715,964.437012 2574.032227,963.200256 
	C2573.996338,889.234680 2574.000000,815.269104 2574.000244,741.303528 
	C2574.000244,740.348206 2574.000244,739.392883 2574.000244,738.220764 
	C2589.355713,738.220764 2604.298584,738.220764 2619.621094,738.220764 
	C2619.621094,814.256470 2619.621094,890.414246 2619.621094,966.990601 
	C2604.959717,966.990601 2590.345703,966.990601 2575.252441,966.950378 
z"/>
<path fill="#FFFFFF" opacity="1.000000" stroke="none" 
	d="
M248.004044,200.857758 
	C248.330353,210.735809 249.557983,220.230743 248.756012,229.551041 
	C247.662354,242.261002 244.951004,254.766464 240.124756,266.782684 
	C230.247345,291.375153 214.689667,310.063782 187.630203,315.528076 
	C167.217133,319.650238 148.499390,314.495605 132.886856,300.313629 
	C114.802338,283.886169 106.359032,262.540985 103.087479,238.913376 
	C101.851425,229.986420 100.776138,220.875137 101.169044,211.915482 
	C102.283974,186.491135 108.283669,162.255539 124.662941,142.117340 
	C136.734940,127.274902 152.405960,118.540108 172.396896,117.820084 
	C192.599854,117.092422 209.342072,123.942635 222.734970,138.458328 
	C234.243027,150.931168 241.159637,166.137482 244.942017,182.660950 
	C246.278732,188.500320 246.999054,194.480774 248.004044,200.857758 
z"/>
<path fill="#FFFFFF" opacity="1.000000" stroke="none" 
	d="
M1964.998779,178.058258 
	C1969.849976,161.913467 1976.875610,147.272400 1988.881470,135.804047 
	C2000.224487,124.968727 2013.707031,118.615936 2029.891235,117.878265 
	C2057.529785,116.618484 2077.009277,129.164047 2091.013184,151.987183 
	C2099.549072,165.898163 2104.241943,181.062698 2105.984619,197.195160 
	C2106.776123,204.524933 2108.179443,211.918442 2107.845215,219.216248 
	C2106.741943,243.326523 2102.187500,266.578766 2088.013428,286.939331 
	C2077.402100,302.181519 2063.351074,312.793701 2044.921631,315.776306 
	C2026.614624,318.739105 2009.544434,314.886353 1994.493652,303.116333 
	C1979.015015,291.011536 1970.938354,274.450500 1965.039062,256.462921 
	C1959.462158,239.457565 1959.170776,221.815109 1960.200684,204.247818 
	C1960.708130,195.593719 1963.328857,187.063522 1964.998779,178.058258 
z"/>
<path fill="#FFFFFF" opacity="1.000000" stroke="none" 
	d="
M737.730347,89.678719 
	C749.610413,71.897987 765.210449,60.758831 786.521057,57.893745 
	C806.890869,55.155148 824.399414,60.617817 839.682800,74.145805 
	C857.781555,90.165779 866.065369,111.233582 871.011536,134.104080 
	C874.029541,148.058929 874.981934,162.241852 873.855835,176.356644 
	C871.697266,203.413300 865.245483,229.074417 847.062866,250.534851 
	C831.905518,268.424744 812.593140,276.449829 789.558350,274.837524 
	C775.896851,273.881287 763.610413,268.535065 752.956726,259.529053 
	C734.022034,243.522629 725.262573,222.185913 719.922485,198.784836 
	C716.464417,183.631348 716.190491,168.267410 717.204895,153.025192 
	C718.705078,130.482895 724.455383,108.966347 737.730347,89.678719 
z"/>
<path fill="#FFFFFF" opacity="1.000000" stroke="none" 
	d="
M856.000000,498.019348 
	C856.278381,477.749084 860.092773,458.709076 869.073975,441.030334 
	C879.106262,421.282562 893.642639,405.987610 915.617310,399.914276 
	C939.382935,393.346039 961.681885,396.317749 981.654419,412.056122 
	C999.598938,426.196411 1008.992798,445.405029 1013.750732,466.892944 
	C1016.454224,479.102692 1017.999756,491.894257 1017.717957,504.370728 
	C1017.158447,529.141968 1010.669495,552.651123 995.513611,572.706482 
	C983.654114,588.399780 967.971191,598.327576 947.842834,601.169189 
	C929.702271,603.730103 913.075195,600.198425 897.831543,590.822754 
	C886.123962,583.622009 877.388000,573.223999 870.973206,560.952698 
	C863.224365,546.129395 858.008179,530.587463 856.990051,513.782104 
	C856.681580,508.691040 856.331177,503.602478 856.000000,498.019348 
z"/>
<path fill="#FFFFFF" opacity="1.000000" stroke="none" 
	d="
M2284.000000,781.072998 
	C2284.000000,778.267456 2284.000000,775.949646 2284.000000,773.576782 
	C2291.986816,770.624573 2299.622314,771.769836 2306.827637,775.106934 
	C2315.019531,778.900940 2318.525635,786.263245 2320.369385,794.740723 
	C2322.925781,806.496033 2321.501953,817.646118 2315.430176,827.984192 
	C2310.169922,836.940796 2301.400635,840.060608 2291.619141,840.968201 
	C2289.317627,841.181763 2286.979492,840.999878 2284.000000,840.999878 
	C2284.000000,821.075134 2284.000000,801.317993 2284.000000,781.072998 
z"/>
<path fill="#FFFFFF" opacity="1.000000" stroke="none" 
	d="
M340.965240,872.170959 
	C341.202789,874.536011 341.412720,876.458496 341.655792,878.684448 
	C331.641754,878.684448 321.451111,878.684448 311.071289,878.684448 
	C316.410614,846.839294 321.725281,815.141174 327.039948,783.443115 
	C327.201141,783.453125 327.362335,783.463074 327.523529,783.473083 
	C329.015778,794.296570 330.442871,805.129578 332.018005,815.940979 
	C333.704742,827.518372 335.524841,839.076416 337.298889,850.641113 
	C338.185364,856.420105 339.079041,862.198181 340.015930,867.969116 
	C340.222015,869.238647 340.625183,870.476135 340.965240,872.170959 
z"/>
<path fill="#FFFFFF" opacity="1.000000" stroke="none" 
	d="
M858.268005,859.589294 
	C859.422180,866.082764 860.363281,872.180969 861.364563,878.669312 
	C851.030151,878.669312 841.169800,878.669312 830.768433,878.669312 
	C836.061584,847.154785 841.318054,815.858826 846.774597,783.371826 
	C847.634338,788.084167 848.426086,791.759033 848.960999,795.470825 
	C851.349182,812.042114 853.658813,828.624695 856.008606,845.201477 
	C856.670227,849.868652 857.371765,854.530029 858.268005,859.589294 
z"/>
</svg>