<svg xmlns="http://www.w3.org/2000/svg" width="310" height="310"><path style="stroke:none;fill-rule:evenodd;fill:#f40027;fill-opacity:1" d="M79.016 12.563H17.098a5.185 5.185 0 0 0-5.168 5.593L27.773 217.79h51.243zm212.43 0h-61.919v205.226h51.239l15.847-199.633a5.185 5.185 0 0 0-5.168-5.593"/><path style="stroke:none;fill-rule:evenodd;fill:#231f20;fill-opacity:1" d="M294.098 4.602c6.23 0 11.14 5.304 10.648 11.503l-22.191 279.696c-.438 5.547-5.078 9.82-10.649 9.82H36.636c-5.574 0-10.21-4.273-10.648-9.82L3.797 16.105C3.305 9.906 8.215 4.602 14.445 4.602zm0-3.762H14.445A14.49 14.49 0 0 0 3.828 5.484 14.432 14.432 0 0 0 .047 16.402l22.187 279.696c.594 7.449 6.918 13.289 14.403 13.289h235.27c7.484 0 13.808-5.84 14.402-13.29L308.5 16.403a14.48 14.48 0 0 0-3.785-10.918A14.49 14.49 0 0 0 294.098.84zm0 0"/><path style="stroke:none;fill-rule:evenodd;fill:#231f20;fill-opacity:1" d="M183.352 250.32c-.84 0-1.493-.73-1.399-1.562.016-.14.016-.184.016-.188.23-3.5-.969-5.554-4.903-5.554l-12.168.011-3.253 14.828h17.421c.895 0 1.559.832 1.368 1.707l-1.7 7.645a1.392 1.392 0 0 1-1.363 1.094h-18.039s-2.008 9.086-2.078 9.476c-.672 2.934 1.332 4.457 2.676 5.11.07.035.136.066.207.097.578.258.894.883.754 1.5l-.926 4.18a1.395 1.395 0 0 1-1.36 1.094h-21.214c-.891 0-1.551-.824-1.36-1.695l9.242-41.868c.942-3.695-1.222-5.195-2.773-5.789-.055-.02-.105-.035-.156-.054a1.46 1.46 0 0 1-.938-1.692l.817-3.687a1.53 1.53 0 0 1 1.492-1.196h47.168c.894 0 1.558.828 1.367 1.703l-3.05 13.747a1.403 1.403 0 0 1-1.364 1.093zm-70.942-15.355a1.513 1.513 0 0 1 1.48-1.188h23.067c.898 0 1.566.832 1.371 1.707l-.781 3.547a1.413 1.413 0 0 1-1.246 1.094l-.176.02c-1.734.23-4.875.796-7.445 2.808l-19.176 15.945v.004l14.754 19.97c2.86 3.679 4.273 4.343 7.148 4.39.942.015 1.621.902 1.414 1.82l-.804 3.59a1.387 1.387 0 0 1-1.352 1.086h-11.492c-12.723 0-16.234-5.582-26.836-24.957 0-.004-.008-.004-.008 0l-3.094 14.137c-.468 2.195 1.371 3.359 2.72 3.906l.171.07c.64.25 1.008.934.855 1.61l-.918 4.144a1.388 1.388 0 0 1-1.355 1.09H64.078a1.463 1.463 0 0 1-1.426-1.781l.782-3.543c.14-.641.68-1.125 1.332-1.196.027-.004.05-.004.078-.008 2.437-.28 5-1.824 6.578-9.375l6.039-27.64c.777-3.684-1.066-5.086-2.652-5.707a5.41 5.41 0 0 0-.254-.09 1.506 1.506 0 0 1-.985-1.754l.82-3.695a1.522 1.522 0 0 1 1.489-1.192h25.324c.887 0 1.547.817 1.356 1.684l-.809 3.644c-.117.532-.512.961-1.035 1.122-.063.02-.125.039-.192.058-1.183.387-3.058 1.36-3.636 3.719l-3.371 15.383c-.004.008.004.011.007.008l19.645-16.329c1.18-.968.879-2.27-.473-2.789 0 0-.004 0-.007-.004a1.53 1.53 0 0 1-1.055-1.8zm132.328-.031a1.645 1.645 0 0 1 1.164 1.941l-2.988 13.445a1.4 1.4 0 0 1-1.367 1.098h-4.25a1.404 1.404 0 0 1-1.402-1.477c.011-.171.011-.246.011-.25.203-4.382-2.562-7.66-8.832-7.66-10.414 0-17.992 8.551-18.984 19.781-1.028 11.594 7.078 18.333 18.297 18.333 5.754-.004 10.308-1.114 12.863-1.922 1.012-.32 2 .558 1.8 1.605l-1.32 6.945a1.639 1.639 0 0 1-1.113 1.262c-2.3.73-8.754 2.45-18.637 2.453-23.48.004-33.003-13.5-31.53-27.27 1.312-12.257 9.421-30.316 41.405-30.323 6.125 0 11.024.98 14.883 2.039m-40.351-141.16c-1.266 6.73-2.68 10.109-3.59 14.261-.945 4.317-2.797 10.63-4.598 10.79-1.82.546-2.55-1.555-3.719.003-.695.926-1.234 2.149-1.851 2.938-.395.52-.785 1.671-.793 2.3 0 1.215-.066 5.137-1.152 10.282-1.641 7.765-4.618 13.418-7.715 16.988-5.926 6.836-11.477 7.937-12.137 8.285-.848.453-2.137.188-2.555-.016-.43-.195-.754-.707-1.488-1.421-.754-.707-1.02.367-1.047.64-.027.258.383 3.492-.441 4.957-1.778 3.145-3.485 3.418-4.438 7.34-.32 1.324-.097 3.324-1.68 2.418-3.863-2.207-9.402-8.187-10.546-13.98-.352-1.766-.024-3.735 1.05-7.094.625-1.969 1.067-4.16 1.067-5.426 0-2.238-.879-4.137 0-4.332 1.621-.363 2.36 3.84 3.113 3.406 1.313-.758.34-5.191.34-5.191s-.539-1.262-2.84-1.8c-1.32-.313-1.738-1.302-.328-1.993 1.055-.52 2.277-1.195 3.703-.984 9.531 1.351 12.274-.567 16.13-1.606.757-.2 1.202-.289 1.796-.008.586.274 2.168 1.14 2.492 1.953.324.805-.012 3.97.492 6.348.516 2.39 2.196.219 2.614-.727.422-.937.855-3.25.941-3.835.094-.586.582-3.047 1.465-3.778 1.746-1.449 2.36-3.355 2.64-4.101.29-.746.747-3.043.665-6.403-.082-3.355-.688-3.718-1.5-4.437-.801-.719-1.762-.582-3.801-2.45-1.82-1.671-3.32-4.37-4.64-6.07-1.321-1.695-3.509-3.515-6.009-4.129-2.492-.597-1.457 1.696-1.324 2.344.106.453.692 2.492-.14 3.164-.813.668-5.848 4.055-10.344 2.883-5.352-1.398-7.203-4.379-7.313-7.258-.078-2.043.899-4.008 2.121-6.347.711-1.368 1-3.653 1.29-5.84.226-1.75.695-4.285 1.078-5.184.273-.652.917-1.36 2.37-1.273 1.438.078 2.38.793 2.641 2.035.934 4.304 2.45 5.394 2.965 5.742.52.348 1.492-.348 1.871-.602.383-.25 1.356-1.234 1.051-1.761-.465-.82-.723-1.309-.824-1.79-.18-.82.847-.722 1.054-.558 1.68 1.324 3.262 1.441 6.16 1.922 5.075.848 5.801-1.024 9.29-.418.449.078 1.308.457 1.59.98.23.446.656 1.477 1.082 1.657.421.164 1.457.226 1.988.324.738.125 2.058.043 1.836 1.406-.567 3.652-4.781 4.66-6.754 4.996-.813.14-1.184.207-1.317.324-.425.375-.441 1.52.047 2.258.348.52 1.942.555 4.125.133 2.274-.434 4.461-1.535 6.184-4.223 1.828-2.847 2.836-9.12 3.047-10.293.207-1.168.676-3.128 1.32-3.53.637-.4 3.606-1.302 4.024-1.227.5.086.863.324 1.097 1.472.235 1.16-.203 8.07-.21 9.114-.012 1.113.558 1.101.874.957.692-.32 2.54-1.551 2.961-2.977.309-1.055-.582-2.594-.137-4.055.7-2.277 1.383-2.882 1.86-2.84 2.894.278 3.488 1.547 2.797 5.227m-41.059 37.262c-1.078.394-4.187 1.117-5.691 1.21-1.52.087-6.336.41-7.145.372-.996-.055-2.336-.54-3.426-1.535-.218-.203-.457-.899.43-.914 1.652-.032 4.445-.91 14.05-.098 1.028.086 1.513.129 1.755.152.254.028 1.101.434.027.813m-23.625-3.899c-4.676-.062-6.84-1.804-7.172-2.324-.324-.504.215-.894.707-1.05 1.102-.352 3.063-1.34 3.86-1.946.8-.598 3.004-1.969 4.117-2.684.523-.343 3.527-1.652 5.285-.425 2.64 1.84 5.105 3.07 9.617 2.793 2.903-.176 2.836-2.52 5.2-3.266 2.132-.672 2.542-1.195 3.21-1.586.864-.172 1.5-.39 2.434.48 1.184 1.102 1.613 1.973 2.984 3.524 1.88 2.117 3.95 3.105 4.59 3.23.637.133 1.098.653 1.106.864.004.21-.258.87-2.153 1.414-6.316 1.808-13.16.648-16.683-.758-1.79-.715-3.524-.91-5.489.055-1.976.968-7.25 1.73-11.613 1.68m-2.246 25.992c-3.582.109-12.945-5.543-17.031-21.583-1.059-4.125 1.543-7.472 3.156-8.046.953-.352 1.457-.461 1.777-.504.332-.043 1.961-.032 1.907 1.808-.055 1.493 1.183 13.93 4.43 18.434.804 1.117 1.55 1.156 1.917.172.34-.918.907-2.098 1.086-2.547.133-.324 1.317-2.129 1.664-.758.746 2.914 2.492 8.906 3.227 10.457 1.215 2.567-.79 2.524-2.133 2.567m-18.82-47.868c-.254-1.078.226-2.695 2.773-1.066.406.262 1.602.805 2.93 1.187.805.23 1.324-.109 1.555-.691.234-.582.894-1.738-.239-2.293-1.125-.562-3.914-1.047-5.508-4.965-.285-.699.196-1.504.645-1.71.453-.204 1.012-.098 1.531.394.52.488 1.63 1.558 2.625 1.597.918.047 1.07-.328 1.254-.543.77-.867 2.98-4.093 7.563-3.535 1.886.23 3.629.653 4.265.7.453.03 1.711.085 2.914-.141 1.371-.254 3.418-.68 2.414.477-.812.94-1.492 1.332-.78 2.351l.108.152c.641.907.66 2.11.008 3.008l-.082.117c-1.011 1.313-3.105 2.829-7.433 3.102-1.97.125-2.094.055-2.137 1.18-.012.433-.008.664.055.968.12.567.484.801 1.851.887.992.063 2.809-.133 2.813-.133.445-.136.968.149.683.52-.043.055-.226.328-.257.37-.981 1.27-1.29 2.427-1.38 3.122-.078.586-.417 1.113-.937 1.379l-.02.012c-.632.324-3.183.875-5.195 2.535-1.996 1.66-6.18 3.027-7.976.988-1.797-2.035-3.262-6.582-4.043-9.969m-1.301-20.093c-.563.058-1.04-.282-1.652-.414-.711-.157-1.149.062-1.442-.332-.262-.403-.215-.782.192-.938.406-.152.703-.04 1.113-.117.836-.16 1.855-1.113 2.61-.055.484.692.066 1.758-.821 1.856m-6.941 25.492c-1.81-1.203-1.711-2.778-2.168-4.328-.977-3.29-2.024-7.246-2.93-10.614-.547-2.035-.688-6.812 2.074-6.812 1.39 0 2.43.437 2.875 1.75.988 2.918-.875 2.41-.398 5.855.34 2.438.804 4.844 1.578 8.985.351 1.906.976 6.5-.703 5.383m-5.649-47.067c1.008-2.723 2.836-5.047 4.09-6.687 1.14-1.5.602-3.477.016-5.25-.38-1.637-1.426-3.328-1.586-3.774-.117-.312-.121-.566-.02-.785.074-.05.137-.094.211-.14l2.215-.192c6.328-.809 11.914-3.031 13.598-3.98a15.55 15.55 0 0 1 2.617-1.137c1.055-.36 2.148-.719 3.242-.863a59.108 59.108 0 0 1 2.648-.356c1.254-.14 3.23.734 2.79.996-1.06.637-5.977 1.774-10.305 6.942-2.653 3.16-3.27 5.113-4.16 6.566-.907 1.46-1.633 1.809-2.907 2.91-.62.531-1.89 1.64-2.511 3.414-.63 1.785-3.047 8.016-3.36 17.914-.035 1.149-.234 2.364-1.324 2.778l-.008.004c-.894.363-1.62.953-1.77.308-.573-2.172-1.905-6.855-2.46-9.824a66.787 66.787 0 0 0-.606-2.79c-.609-2.527-.882-4.773-.41-6.054m19.254 24.07c-1.152.73-2.281 1.575-3.14 2.13-1.047.69-2.52.03-2.086-1.438.21-.715 1.222-2.543 2.925-2.867a29.07 29.07 0 0 1 1.774-.29c.824-.09 1.703-.163 2.152-.183 1.203-.05 1.336.914.52 1.414-.543.336-1.383.75-2.145 1.234m1.586 2.16c.309-.25.445-.25 1.48-.824a39.822 39.822 0 0 0 2.434-1.464c1.543-1.004 4.461-2.04 5.703-2.028.895.012 2.461.399 3.293 1.305.871.95 1.11 2.05-.027 1.86-1.125-.192-2.317-.497-4.48 0-2.422.554-4.067 1.48-5.231 2.003-1.195.555-2.406.688-2.805.668-.386-.027-1.484-.613-.367-1.52m17.875 21.438c.281.52.371 1.39.293 1.75-.086.442-1.637 1.02-2.926-.91-1.285-1.914-.683-4.273.082-5.2 1.215-1.484 3.07-.406 2.805.145-.93 1.906-.516 3.7-.254 4.215m38.7-18.82c-.477.242-2.266-.36-2.762-.637-.993-.555-1.696-.95-3.028-2.086-.883-.75-2.496-1.098-4.02-1.027-1.167.058-2.331.308-3.226.515-.887.215-.953-.586-.687-.89.261-.301 1.504-1.442 4.214-2.149.391-.105 1.153-.07 1.54-.027 1.128.125 2.48.875 3.453 1.82.972.953 2.941 2.63 4.004 3.278.503.3 1.632.632.511 1.203m-1.105-4.48s-1.676-1.141-2.211-2.071c-.266-.46-.207-.844.504-.852 2.512-.027 4.808-.085 5.93.852.816.688.835 2.117.437 3.043-.461 1.055-1.383.758-1.91.68-.524-.078-2.75-1.653-2.75-1.653m12.586-3.757c-.38.41-.715.164-1.5.359-.61.148-1.016.492-1.578.441-.891-.078-1.328-1.14-.856-1.836.738-1.074 1.774-.14 2.61.008.41.07.707-.05 1.117.098.406.144.465.523.207.93M121.57 35.77c.387-.594 1.317-1.461 2.246-2.133.977-.696 5.774-4.293 10.23-5.649.825-.246 1.04-.37 1.567-.496.668-.176 1.235-1.613-.156-1.824-1.46-.211-2.055-.113-2.832-.09-.777.016-1.152-.398-.59-1.012.574-.617 1.606-1.242 3.426-1.972 3.965-1.582 10.996-2.426 14.277-2.715 4.278-.371 4.797-.356 7.578-.145 2.61.2 4.657.684 5.625.856 4.91.887 10.567 3.164 15.594 5.922a72.654 72.654 0 0 1 7.574 5.175c7.207 5.618 15.48 16.305 14.274 38.81-.145 2.655-.457 4.128-.633 4.769-.18.652-1.04 1.765-1.496.293-1.488-4.813-3.406-13.301-7.762-20.004-.605-.934-1.543-.848-1.449.136.035.41.234 4.704.129 5.536-.707 5.527.988 3.375 3.484 9.304.77 1.836 1.766 5.465 2.016 7.801.062.59.144 1.27.156 1.926.02.824-.39.879-.39.879-1.708-.004-4.684-.817-6.29-.867-1.824-.06-14.5-.184-19.261.19-4.766.364-7.364 2.08-10.059 4.286-.45.367-1.086.711-1.445.89a.926.926 0 0 1-.578.083c-.22-.04-.575-.106-1.14-.223-1.161-.238-2.571-.332-3.708.016-1.137.34-1.672.633-2.898-.078-1.746-1.024-4.43-5.106-13.786-5.18-5.3-.043-12.253-.113-16.347.066-1.324.059-2.012.207-2.352.2a2.698 2.698 0 0 1-.039-.415c-.07-7.472 4.805-5.816 5.363-7.757 1.395-4.836 1.72-16.477 10.172-23.621 4.04-3.414 6.14-3.559 9.89-3.559 4.04 0 7.981 1.055 9.993 2.05 1.602.79 2.395 1.321 3.024.852.625-.476 2.308-2 3-2.523.699-.535.433-1.363-.223-1.906-.633-.516-6.629-8.055-15.816-9.575-2.106-.351-3.66-.668-5.575-.675-1.035-.04-1.953-.043-4.351.25-3.52.425-8.117 2.382-11.078 3.558-.16-.172.453-1.164.636-1.43m-3.035 104.793c.09 3.86 2.328 14.047 15.27 23.715 5.398 4.032 7.87 5.852 8.582 6.344v.027c.351.25-1.914.192-2.54.254-1.015.094-4.464-.218-7.226.293-2.492.461-2.152 1.059-2.402 2.864-.196 1.43-.012 3.695-.082 5.625-.075 1.93-.18 3.3.636 4.234.805.918 1.317 1.066 4.735.855 3.254-.199 12.262-.207 13.347-.425 1.395-.286 1.172.218.368 1.941-1.375 2.953-5.86 16.492-12.836 29.36-.977 1.8 1.773.949 4.117 2.078 4.242 2.046 4.105 2.617 5.219.484 1.207-2.316 7.324-16.719 8.273-21.164.121-.582.371-1.082.469-.211.066.629.156 18.82-.352 24.559-.027.304.047.62.262.84.305.316.766.445 1.16.538h.012c2.105-.703 4.656-1.222 6.82-.863.192-.023.375-.066.551-.117.117-.098.223-.215.297-.348.168-.308.254-.652.328-.992.008-.023.012-.05.02-.078.105-.484.19-.973.242-1.465.03-.293.05-.586.07-.879.023-.379.04-.758.05-1.136.02-.458.028-.915.036-1.372a107.73 107.73 0 0 0-.004-3.359c-.008-.644-.023-.43-.043-1.07-.02-.692-.043-1.38-.074-2.07a135.65 135.65 0 0 0-.11-2.18c-.039-.754-.09-1.508-.144-2.266-.055-.773-.113-1.55-.184-2.328-.07-.79-.144-1.574-.226-2.363-.086-.793-.176-1.586-.274-2.375-.101-.79-.207-1.575-.324-2.36a92.779 92.779 0 0 0-.371-2.324c-.133-.754-.273-1.078-.426-1.828a69.574 69.574 0 0 0-.484-2.172 52.956 52.956 0 0 0-.543-2.055 51.29 51.29 0 0 0-.504-1.617c-.031-.086-.176-.824-.156-.922.054-.265.39-.074.754-.144 0 0 .172-.031.27-.047 2.316-.313 6.347-.102 7.257-.066.895.027 5.477.464 6.77.582 1.28.125 2.835.421 2.77-3.47-.02-1.038-.024-1.655-.02-2.624v-.39c.003-.247.007-.49.007-.723.004-.141.004-.27.008-.407 0-.132.004-.265.004-.394.004-.117.004-.238.008-.352.008-.207.012-.41.02-.597 0-.059 0-.11.003-.165.004-.144.008-.269.016-.39 0-.063.004-.117.008-.176l.011-.281c.004-.024.004-.063.008-.086.012-.117.016-.242.024-.383.027-.95-.094-2.687-1.895-3.148-2.07-.52-5.71-.641-8.984-.36-.457.043-.559 0-.418-.125l.004-.031c.707-.504 5.433-3.113 10.84-7.953 5.949-5.34 8.789-8.176 10.609-12.035 0 0 6.508-12.633 6.184-23.328-.067-2.16.28-1.98 1.625-1.942.402.012 1.941-.094 2.77-.644 2.76-.63 5.202-10.059 5.202-10.059s4.145-14.316 5.153-20.172c.894-5.21.68-8.254-2.497-9.8l-.53-.301a.6.6 0 0 1-.286-.68c.063-.223.125-.484.16-.676 1.551-5.398 4.328-12.226 3.7-14.996-.11-.793-.786-1.055-1.016-1.21-.324-.22-1.559-1.595-1.899-2.56-.05-.14-.07-.288-.082-.437-.879-10.187-4.496-22.969-15.28-34.102-.017-.011-.743-.675-1.185-1.078-.925-.832-2.105-1.867-3.464-2.886-2.871-2.145-5.164-3.793-9.887-6.153-.363-.18-3.91-1.793-9.152-3.074a43.371 43.371 0 0 0-1.485-.379 39.03 39.03 0 0 0-3.344-.59c-3.226-.504-6.812-.777-10.542-.547v.004c-.446.02-.961.047-1.098.047a21.05 21.05 0 0 0-.688.028c-.254.007-.5.011-.761.023-.79.04-1.832.156-2.922.313-1.766.257-3.656.609-4.824.882-1.305.317-3.063.684-5.258 1.313-.903.262-1.813.543-2.715.836-.258.082-.508.16-.762.242-.976.32-1.957.656-2.95 1.012-.718.254-3.773 1.574-4.437 1.883-.32.148-.757.335-1.234.527-2.152.683-2.605 1.93-2.684 2.613-.05.442-.152.875-.34 1.277-3.1 6.598-10.402 7.235-13.3 7.38-.762.038-1.43.148-1.192.886.622 1.895 4.036 5.426 6.125 6.066-.03.301-1.793.684-2.16.782-.84.218-4.3-.082-4.472-.051-.016.004-.028.004-.04.008-3.925.328-5.128 3-5.484 4.27-.11.39-.047.816.18 1.156.867 1.32 1.777 2.394 2.465 4.136.008.02.015.04.02.059.179.457.343.96.484 1.531.082.746.68 1.524-.075 2.988-1.34 2.59-4.683 3.403-5.183 5.98-.711 3.665.55 6.06 1.937 12.114.95 4.153 1.977 8.442 2.715 10.387.035.105-.023.21-.129.23-.297.059-.804.164-.976.223-1.938.77-2.547 2.297-2.77 5.277-.484 6.598 4.387 16.778 5.895 25.496.511 2.942 1.867 7.657 4.12 9.59.52.446 1.61.73 2.286.848 1.762.305 2.527-.809 2.629.96.023.368.148 1.364.164 1.923.3 6.258 3.656 12.469 3.656 12.469"/></svg>