<?xml version="1.0" encoding="UTF-8"?>
<svg id="Layer_2" data-name="Layer 2" xmlns="http://www.w3.org/2000/svg" viewBox="0 0 69.73 56.89">
  <defs>
    <style>
      .cls-1 {
        fill: #ed1c24;
      }

      .cls-1, .cls-2 {
        stroke-width: 0px;
      }

      .cls-2 {
        fill: #231f20;
      }
    </style>
  </defs>
  <g id="Layer_1-2" data-name="Layer 1">
    <g>
      <path class="cls-2" d="M22.25,33.92l16.05-19.75h-8.75c-3.93,0-6.62,1.2-9.01,3.99l-8.45,10.39V0H3.61C1.62,0,0,1.62,0,3.62v53.27h8.48c2,0,3.61-1.62,3.61-3.62v-14.17l6.87,8.43,5.84,7.19c1.18,1.48,2.73,2.16,4.32,2.16h11.83l-7.65-9.39-11.05-13.58ZM59.34,46.84c-1.78,0-3.24-1.46-3.24-3.25V0h-8.48c-1.99,0-3.62,1.62-3.62,3.61v42.25c0,6.53,4.51,11.03,11.04,11.03h9.32c2,0,3.62-1.62,3.62-3.62v-6.44h-8.64Z"/>
      <path class="cls-1" d="M13.24,27.1l.02-.02s-.01.01-.03.02h0ZM69.73,19.04v-8.02s-.75.79-.75.79c-.03.01-2.3,2.33-8.82,2.33h-30.83c-4.87,0-7.17,1.98-8.91,4.13l-.95,1.17s-.06.07-.09.1l-6.12,7.53c2.23-1.68,5.27-2.69,8.38-2.69h38.51c4.67,0,9.16-1.37,9.53-4.87.05-.29.04-.47.04-.47Z"/>
    </g>
  </g>
</svg>