<svg xmlns="http://www.w3.org/2000/svg" viewBox="0 0 140.5 140.5"><defs><style>.cls-1{fill:#fff;}.cls-2{fill:#084d9b;}</style></defs><g id="레이어_2" data-name="레이어 2"><g id="Layer_1" data-name="Layer 1"><path class="cls-1" d="M70.25,140.5A70.25,70.25,0,1,1,140.5,70.25,70.32,70.32,0,0,1,70.25,140.5Z"/><path class="cls-2" d="M70.25,140.5A70.25,70.25,0,1,1,140.5,70.25,70.32,70.32,0,0,1,70.25,140.5Zm0-139A68.73,68.73,0,1,0,139,70.25,68.81,68.81,0,0,0,70.25,1.52Z"/><polygon class="cls-2" points="119.04 110.77 113.28 105.02 108.51 109.79 109.52 110.8 113.2 107.11 117.95 111.86 117.22 112.59 114.79 110.16 113.74 111.21 116.17 113.64 115.65 114.15 113.22 111.73 112.17 112.77 114.6 115.2 113.93 115.88 114.91 116.85 120.51 111.25 119.53 110.28 119.04 110.77"/><path class="cls-2" d="M72.72,125.18v4.24H68.11v-.8h3.43V125.3H66.63v1.3h3.44v.71H66.63v3.4h6.09v1.23H69.1v-.71H67.63v4H74.2v-10Zm0,8.75H69.1v-.75h3.62Z"/><polygon class="cls-2" points="42.6 121.52 43.21 120.47 35.9 116.24 35.29 117.29 38.28 119.02 37.98 119.57 35.66 118.23 35.05 119.28 39.81 122.03 39.55 122.48 34.79 119.73 33.31 122.31 39.26 125.74 39.86 124.69 35.1 121.94 35.36 121.47 40.13 124.22 41.61 121.66 39.3 120.33 39.61 119.79 42.6 121.52"/><path class="cls-2" d="M41.3,115.34a2.25,2.25,0,1,0,1,3.16,2.34,2.34,0,0,0-1-3.16m-1.63,2.83a1,1,0,1,1,1.44-.34,1.06,1.06,0,0,1-1.44.34"/><rect class="cls-2" x="40.49" y="115.13" width="1.16" height="1.35" transform="translate(-79.77 93.54) rotate(-60.03)"/><polygon class="cls-2" points="30.38 107.85 28.72 109.51 27.72 108.51 26.74 109.5 27.73 110.5 23.21 115.03 24.3 116.12 31.47 108.94 30.38 107.85"/><polygon class="cls-2" points="25.43 107.62 23.91 111.12 25.01 112.23 27.18 106.99 27.3 106.82 28.2 105.92 27.12 104.85 26.23 105.75 26.06 105.86 20.82 108.03 21.93 109.14 25.43 107.62"/><rect class="cls-2" x="51.06" y="127.28" width="10.15" height="1.54" transform="translate(-82.08 149.11) rotate(-74.99)"/><polygon class="cls-2" points="52.31 125.23 52.74 129.1 54.29 129.51 53.54 123.78 53.55 123.56 53.89 122.32 52.39 121.92 52.06 123.16 51.97 123.36 48.45 127.94 49.99 128.36 52.31 125.23"/><polygon class="cls-2" points="102.99 117.1 101.92 115.24 100.64 115.98 103.73 121.34 99.49 123.78 100.18 124.98 104.42 122.54 105.72 124.77 107 124.03 103.69 118.31 104.72 117.72 104.02 116.51 102.99 117.1"/><polygon class="cls-2" points="98.71 117.58 98.34 116.93 96.99 117.71 97.37 118.35 95.75 119.29 96.36 120.34 100.94 117.7 100.33 116.64 98.71 117.58"/><path class="cls-2" d="M98.34,118.49a2.29,2.29,0,1,0,3.28.74,2.38,2.38,0,0,0-3.28-.74m1.65,2.85a1,1,0,1,1,.42-1.41,1,1,0,0,1-.42,1.41"/><polygon class="cls-2" points="88.22 122.48 88.81 124.7 88.11 124.89 87.51 122.67 86.14 123.04 87.58 128.41 85.1 129.08 84.03 125.08 85.8 124.61 85.45 123.3 82.2 124.17 83.97 130.79 87.93 129.73 88.76 132.84 90.14 132.47 88.5 126.34 89.2 126.15 90.84 132.28 92.22 131.92 89.59 122.11 88.22 122.48"/><rect class="cls-2" x="126.8" y="86.51" width="1.85" height="1.85" transform="translate(-24.36 116.21) rotate(-45.11)"/><rect class="cls-2" x="11.85" y="86.51" width="1.85" height="1.85" transform="translate(-58.06 34.62) rotate(-44.98)"/><path class="cls-2" d="M6.23,61.14l3.87.36a3.17,3.17,0,0,1,2.36,1A3.79,3.79,0,0,1,12,67a3.15,3.15,0,0,1-2.5.49l-3.87-.36.17-1.79,3.62.34c.9.08,1.88.11,2-1s-.87-1.31-1.76-1.39l-3.63-.34Z"/><path class="cls-2" d="M7.44,54.76,8,53l5-1.93h0l-4-1.23.52-1.72,6.62,2-.53,1.72-5,1.92v0l4.05,1.23-.52,1.72Z"/><path class="cls-2" d="M19,43.87l-.8,1.61L12,42.42l.8-1.61Z"/><path class="cls-2" d="M20.88,35.48l-2.47-3.79,1.13-1.6,3.95,6.4-.81,1.14L15.35,36l1.13-1.59Z"/><path class="cls-2" d="M25.59,25.72l.82.82,1.44-1.43,1.07,1.08-1.43,1.43.84.84L29.84,27,30.92,28l-2.79,2.78-4.88-4.9L26,23.13l1.08,1.08Z"/><path class="cls-2" d="M39.42,21.4l-1.83,1.3-2.92-1.18h0L36.2,23.7l-1.47,1-4-5.63,2.19-1.56c1.11-.79,2.34-.87,3.2.34a1.86,1.86,0,0,1-.1,2.47ZM34,20.59l.14-.1c.48-.34,1-.81.52-1.43s-1-.31-1.52,0l-.14.1Z"/><path class="cls-2" d="M44.47,13a1.88,1.88,0,0,0-1.28.1c-.3.14-.61.51-.44.86s.68.29,1,.24l.48-.07a1.92,1.92,0,0,1,2.35,1,2.36,2.36,0,0,1,.17,2,3,3,0,0,1-1.49,1.44,4.25,4.25,0,0,1-2.53.34l.06-1.64a2.45,2.45,0,0,0,1.75-.05c.38-.18.7-.56.48-1s-.93-.31-1.32-.24c-1.16.2-2,.26-2.54-1a2.24,2.24,0,0,1,1.15-3.12,4.61,4.61,0,0,1,2.2-.43Z"/><path class="cls-2" d="M53.79,15l-1.71.54L50,8.9l1.72-.54Z"/><path class="cls-2" d="M61.44,13.25l-1.78.3-.9-5.32-1.46.24L57,7l4.71-.79L62,7.68l-1.46.25Z"/><path class="cls-2" d="M66.54,5.73l2.15,0L70,7.55l1.27-1.9,2.15,0L70.94,9.25,71,12.57l-1.8,0,0-3.32Z"/><path class="cls-2" d="M93,13.22a3.83,3.83,0,1,1-2.52-4.57A3.68,3.68,0,0,1,93,13.22Zm-5.49-1.79a2,2,0,1,0,3.71,1.22,2,2,0,0,0-3.71-1.22Z"/><path class="cls-2" d="M100.33,14.81l-.55,1,1.73.94-.73,1.34-1.73-.95-1.3,2.39-1.58-.86,3.31-6.07,3.49,1.9-.73,1.33Z"/><path class="cls-2" d="M115.58,26.76a1.9,1.9,0,0,0-.52-1.17c-.24-.23-.68-.4-1-.13s0,.74.11,1l.22.42a1.93,1.93,0,0,1-.11,2.54,2.34,2.34,0,0,1-1.82.82,3,3,0,0,1-1.85-.92,4.22,4.22,0,0,1-1.17-2.27l1.56-.49a2.47,2.47,0,0,0,.63,1.64.77.77,0,0,0,1.11.11c.36-.36,0-1-.22-1.32-.57-1-.9-1.76,0-2.71a2.24,2.24,0,0,1,3.32,0,4.68,4.68,0,0,1,1.14,1.93Z"/><path class="cls-2" d="M121.17,33.05l-.93.68,1.19,1.64-1.23.9L119,34.63l-1,.7,1.25,1.73-1.23.89-2.31-3.18,5.59-4.07,2.31,3.18-1.23.9Z"/><path class="cls-2" d="M127.17,47.27a3.84,3.84,0,1,1,1.56-5A3.68,3.68,0,0,1,127.17,47.27Zm-2.5-5.22a2,2,0,1,0,1.69,3.53,2,2,0,0,0-1.69-3.53Z"/><path class="cls-2" d="M133.64,57.48l-3.77.94a3.08,3.08,0,0,1-2.54-.11,3.27,3.27,0,0,1-1.31-2,3.34,3.34,0,0,1,.19-2.41,3.12,3.12,0,0,1,2.2-1.29l3.77-.94.43,1.74-3.53.88c-.87.22-1.81.52-1.53,1.64s1.25,1,2.12.73l3.54-.88Z"/><path class="cls-2" d="M129.28,65.86l.16,2.15-1.52.12-.29-3.95,6.9-.51.13,1.79Z"/><path class="cls-2" d="M58.69,99.65V98.14h2.78V105H59.68V99.65Z"/><path class="cls-2" d="M65,105l2-2.32v0a2.24,2.24,0,0,1-3.18-2.22,2.68,2.68,0,0,1,3-2.6,3.2,3.2,0,0,1,2,.6,2.47,2.47,0,0,1,.92,1.89,4.73,4.73,0,0,1-1.1,2.74L67.08,105Zm.63-4.61a1.1,1.1,0,0,0,1.1,1.13,1.13,1.13,0,1,0,0-2.26A1.1,1.1,0,0,0,65.67,100.41Z"/><path class="cls-2" d="M71.58,99.65V98.14h2.78V105H72.57V99.65Z"/><path class="cls-2" d="M81.93,99.82a1.65,1.65,0,0,1-1.09,1.57h0a1.85,1.85,0,0,1,1.37,1.81c0,1.43-1.44,2.08-2.63,2.08S77,104.64,77,103.21a1.86,1.86,0,0,1,1.37-1.81h0a1.64,1.64,0,0,1-1.08-1.57,2.38,2.38,0,0,1,4.69,0ZM78.76,103a.83.83,0,1,0,1.65,0,.83.83,0,1,0-1.65,0Zm.07-3.11a.76.76,0,0,0,.75.78.78.78,0,0,0,0-1.56A.76.76,0,0,0,78.83,99.88Z"/><polygon class="cls-2" points="93.03 44.32 88.7 44.32 88.7 68.05 85.61 67.39 85.61 44.32 79.96 44.32 79.96 66.19 77 65.57 77 44.32 69.85 44.32 69.85 64.05 67.53 63.55 67.53 44.32 58.68 44.32 58.68 61.67 56.81 61.27 56.81 44.32 46.84 44.32 46.84 59.16 47.77 59.35 47.77 84 52.09 84 52.09 60.28 55.19 60.93 55.19 84 60.83 84 60.83 62.13 63.79 62.76 63.79 84 70.94 84 70.94 64.28 73.26 64.78 73.26 84 82.11 84 82.11 66.65 83.98 67.06 83.98 84 93.96 84 93.96 69.17 93.03 68.97 93.03 44.32"/><path class="cls-2" d="M30.72,50.54V84h1.5V54.39a9.34,9.34,0,0,0,3.31,2.09V84h2.26V57.2c.38.1.77.2,1.16.27l2.26.5V84h3.21V58.64l.8.17V44.32H40.64C33.57,44.32,30.72,47,30.72,50.54Z"/><path class="cls-2" d="M108.57,44.32V74a9.22,9.22,0,0,0-3.31-2.1V44.32H103v26.8c-.38-.1-.76-.19-1.15-.27l-2.27-.48V44.32h-3.2V69.69l-.81-.17V84h4.58c7.08,0,9.93-2.68,9.93-6.21V44.32Z"/></g></g></svg>