<?xml version="1.0" encoding="UTF-8" standalone="no"?>
<svg
   xmlns:dc="http://purl.org/dc/elements/1.1/"
   xmlns:cc="http://creativecommons.org/ns#"
   xmlns:rdf="http://www.w3.org/1999/02/22-rdf-syntax-ns#"
   xmlns:svg="http://www.w3.org/2000/svg"
   xmlns="http://www.w3.org/2000/svg"
   xml:space="preserve"
   viewBox="0 0 251.707 300"
   height="300"
   width="251.707"
   y="0px"
   x="0px"
   id="Layer_1"
   version="1.1"><metadata
     id="metadata21"><rdf:RDF><cc:Work
         rdf:about=""><dc:format>image/svg+xml</dc:format><dc:type
           rdf:resource="http://purl.org/dc/dcmitype/StillImage" /><dc:title></dc:title></cc:Work></rdf:RDF></metadata><defs
     id="defs19" /><g
     transform="matrix(1.1963261,0,0,1.1963261,-27.276235,-3.149038)"
     id="g3349"><path
       style="fill:#00a8d9"
       d="m 122,10.5 c -5.6,-0.8 -7.1,-0.2 -7.1,-5.7 0.1,-1.3 1.5,-4.2 4.1,0.1 1.2,1.4 2.7,2.1 3.9,2.5 -1.1,-0.4 7.3,1.5 12.9,0.4 1.4,1 0,2.7 -0.5,3.2 -0.1,0.1 -5.5,1.5 -10.6,1.1 0,-0.1 -0.6,-1.5 -0.5,-1.5 -0.1,0.1 -2.1,0 -2.2,-0.1 M 161.1,82 c -0.3,-2.2 -0.6,-4.3 -1,-6.2 -2.7,-9.4 -6.2,-19.3 -15.6,-23.6 -4,-1.5 -11.5,-1.2 -12.6,-10.5 0,-2.5 0,-28.3 0,-28.3 l -12,2.4 c 0,0 0,1.8 0,1.8 0,0 -0.2,5.4 -0.2,5.4 0,0 0,2.5 0.1,5.7 0.2,14.4 1,23.6 -14.7,29.5 -9.7,3.7 -10.3,8 -11.4,19.2 -0.1,0.8 -0.2,1.6 -0.2,2.4 0,-0.3 -3.2,31.2 7.4,81.4 0,0 1.6,8.2 1.8,9.3 0.1,0.6 0.7,1.4 2.4,2.6 18,4.3 21.9,1.2 31.3,2.4 9.6,1.3 18.1,-4.9 18.3,-5 0.9,-0.3 4.1,-6.7 4.5,-14.9 3.9,-21.9 2.9,-56.9 1.9,-73.6"
       id="path3" /><path
       style="fill:#565759"
       d="m 36,207.9 c 1.6,0.6 2.7,2.3 2.7,4.2 0,2.9 -1.8,6.5 -7.7,6.5 l -8.2,0 0,-21.4 8.2,0 c 5.9,0 7.7,3.6 7.7,6.5 0,1.6 -1.1,3.6 -2.7,4.2 m -2.2,-4.1 c 0,-0.5 -0.3,-2 -2.5,-2 l -3.6,0 0,4.2 3.7,0 c 2.1,0 2.4,-1.6 2.4,-2.2 m 0,8.4 c 0,-0.6 -0.3,-2 -2.4,-2 l -3.7,0 0,4 3.6,0 c 2.1,-0.1 2.5,-1.6 2.5,-2 m 15.5,-14.9 -4.9,0 0,21.4 12.6,0 0,-4.5 -7.7,0 0,-16.9 z m 24,13 c 0,1.1 -0.7,4.1 -3.6,4.1 -2.9,0 -3.7,-3 -3.7,-4.1 l 0,-13 -4.9,0 0,13 c 0,3.6 2.2,8.6 8.5,8.6 6.3,0 8.5,-5 8.5,-8.6 l 0,-13 -4.9,0 0,13 m 24.2,0.1 0,-4.5 -7.7,0 0,-4 9.9,0 0,-4.5 -14.8,0 0,21.4 14.8,0 0,-4.6 -9.9,0 0,-3.7 7.7,0 z m 30.9,-2.5 c 1.6,0.6 2.7,2.3 2.7,4.2 0,2.9 -1.8,6.5 -7.7,6.5 l -8.2,0 0,-21.4 8.2,0 c 5.9,0 7.7,3.6 7.7,6.5 0,1.6 -1.1,3.6 -2.7,4.2 m -2.2,-4.1 c 0,-0.5 -0.3,-2 -2.5,-2 l -3.6,0 0,4.2 3.7,0 c 2.1,0 2.4,-1.6 2.4,-2.2 m 0,8.4 c 0,-0.6 -0.3,-2 -2.4,-2 l -3.7,0 0,4 3.6,0 c 2.2,-0.1 2.5,-1.6 2.5,-2 m 30.6,-4.3 c 0,4.6 -2.5,11.1 -10.6,11.1 -8.1,0 -10.6,-6.5 -10.6,-11.1 0,-4.5 2.5,-11 10.6,-11 8.1,0 10.6,6.6 10.6,11 m -5,0 c 0,-1.6 -0.7,-6.4 -5.6,-6.4 -4.9,0 -5.6,4.8 -5.6,6.4 0,1.6 0.7,6.5 5.6,6.5 4.9,0 5.6,-4.9 5.6,-6.5 m 13,10.8 4.9,0 0,-16.8 5.6,0 0,-4.5 -16.2,0 0,4.5 5.6,0 0,16.8 z m 19.7,0 4.9,0 0,-16.8 5.6,0 0,-4.5 -16.2,0 0,4.5 5.6,0 0,16.8 z m 20.6,-21.4 -4.9,0 0,21.4 12.6,0 0,-4.5 -7.7,0 0,-16.9 z m 26,13.1 0,-4.5 -7.7,0 0,-4 9.9,0 0,-4.5 -14.8,0 0,21.4 14.8,0 0,-4.6 -9.9,0 0,-3.7 7.7,0 z M 83.5,235.6 c -2.3,-2.6 -4.9,-4.3 -8.6,-4.3 -8.1,0 -10.6,6.5 -10.6,11 0,4.6 2.5,11 10.6,11 3.4,0 6.1,-1.5 8.4,-3.8 l -2.8,-3.4 c -1.5,1.3 -3.7,2.5 -5.6,2.5 -5,0 -5.7,-4.7 -5.7,-6.3 0,-1.6 0.7,-6.4 5.7,-6.4 1.8,0 4.1,1.3 5.3,2.8 l 3.3,-3.1 z m 25.3,6.7 c 0,4.6 -2.5,11.1 -10.6,11.1 -8.1,0 -10.6,-6.5 -10.6,-11.1 0,-4.5 2.5,-11 10.6,-11 8.1,0 10.6,6.5 10.6,11 m -4.9,0 c 0,-1.6 -0.7,-6.4 -5.6,-6.4 -4.9,0 -5.6,4.8 -5.6,6.4 0,1.6 0.7,6.5 5.6,6.5 4.9,0 5.6,-4.9 5.6,-6.5 m 23.2,2.4 0,-4.5 -7.8,0 0,-4 9.9,0 0,-4.6 -14.7,0 0,21.4 4.9,0 0,-8.3 7.7,0 z m 20.4,0 0,-4.5 -7.8,0 0,-4 9.9,0 0,-4.6 -14.7,0 0,21.4 4.9,0 0,-8.3 7.7,0 z m 20.4,0 0,-4.5 -7.7,0 0,-4 9.9,0 0,-4.6 -14.8,0 0,21.4 14.8,0 0,-4.6 -9.9,0 0,-3.7 7.7,0 z m 20.4,0 0,-4.5 -7.7,0 0,-4 9.9,0 0,-4.6 -14.8,0 0,21.4 14.8,0 0,-4.6 -9.9,0 0,-3.7 7.7,0 z"
       id="path5" /></g></svg>