<svg height="316.536432" viewBox="0 0 105.01 105.22" width="315.919401" xmlns="http://www.w3.org/2000/svg"><g fill="#522d6d"><path d="m40.08 88.4-2.57 6.89-2.09-.78 2.56-6.89-2.45-.91.67-1.79 7 2.61-.67 1.79z"/><path d="m43.83 97.06 1.12-9.19 6.17.75-.23 1.87-4.03-.49-.21 1.73 3.81.47-.21 1.78-3.82-.47-.23 1.91 4.27.52-.23 1.89z"/><path d="m516.59 550-.76 3.3 2.31-.3zm3.33 6.41-.95-1.71-3.55.46-.44 1.89-2.41.31 2.66-9.68 2.15-.28 5 8.69z" transform="translate(-459.49 -459.39)"/><path d="m70.44 93.97-4.19-8.26 2.01-1.01 3.3 6.52 3.2-1.62.88 1.74z"/><path d="m78.44 89.47-5.85-7.16 4.82-3.94 1.19 1.46-3.15 2.57 1.11 1.36 2.97-2.43 1.14 1.39-2.98 2.42 1.21 1.49 3.33-2.72 1.21 1.48z"/><path d="m542.36 535.06 1.83 2.85 1.4-1.86zm6.92 2.08-1.89-.51-2.15 2.86 1 1.63-1.46 1.95-5.07-8.66 1.3-1.74 9.71 2.48z" transform="translate(-459.49 -459.39)"/><path d="m86.66 68.16 1.76.75 1.42-3.28 1.69.73-1.42 3.28 3.3 1.43-.88 2.03-8.5-3.67 2.42-5.59 1.75.75z"/><path d="m475.64 509.44a5 5 0 0 1 .44 2.07 5.39 5.39 0 0 1 -.33 2 4.57 4.57 0 0 1 -2.52 2.65 5.43 5.43 0 0 1 -4 0 4.47 4.47 0 0 1 -1.55-1 4.7 4.7 0 0 1 -1-1.58 5.72 5.72 0 0 1 0-3.9 3.69 3.69 0 0 1 1-1.55l1.53 1.5a1.87 1.87 0 0 0 -.63.83 2.73 2.73 0 0 0 -.2 1 2.65 2.65 0 0 0 .23 1.08 2.52 2.52 0 0 0 .6.84 2.73 2.73 0 0 0 .9.54 3.15 3.15 0 0 0 1.13.18 3.24 3.24 0 0 0 1.15-.21 2.67 2.67 0 0 0 .89-.55 2.43 2.43 0 0 0 .57-.84 2.62 2.62 0 0 0 .2-1.06 2.46 2.46 0 0 0 -.28-1.16 2.25 2.25 0 0 0 -.69-.79l1.44-1.57a4.41 4.41 0 0 1 1.14 1.5" transform="translate(-459.49 -459.39)"/><path d="m473.28 498.82a3.2 3.2 0 0 0 -1.13-.11 2.67 2.67 0 0 0 -1 .29 2.5 2.5 0 0 0 -.79.65 2.65 2.65 0 0 0 -.49 1 2.58 2.58 0 0 0 .27 2.05 2.56 2.56 0 0 0 .72.76 3.25 3.25 0 0 0 1 .48 3.33 3.33 0 0 0 1.16.12 2.72 2.72 0 0 0 1-.29 2.45 2.45 0 0 0 .79-.64 2.78 2.78 0 0 0 .56-2.07 2.55 2.55 0 0 0 -.35-1 2.71 2.71 0 0 0 -.73-.77 3.34 3.34 0 0 0 -1.06-.49m.63-2.31a5.11 5.11 0 0 1 1.83.89 4.55 4.55 0 0 1 1.22 1.42 4.71 4.71 0 0 1 .54 1.81 5.92 5.92 0 0 1 -1.05 3.88 4.69 4.69 0 0 1 -1.38 1.28 4.55 4.55 0 0 1 -1.77.61 5.15 5.15 0 0 1 -2-.16 5.08 5.08 0 0 1 -1.83-.89 4.39 4.39 0 0 1 -1.19-1.41 4.71 4.71 0 0 1 -.51-1.79 5.79 5.79 0 0 1 .2-2 5.86 5.86 0 0 1 .86-1.85 4.67 4.67 0 0 1 1.35-1.29 4.36 4.36 0 0 1 1.74-.61 5.06 5.06 0 0 1 2 .16" transform="translate(-459.49 -459.39)"/><path d="m14.45 31.61 1.66.95 1.78-3.1 1.59.91-1.78 3.11 3.12 1.79-1.1 1.92-8.03-4.61 3.04-5.28 1.65.95z"/><path d="m19.7 24.14 1.42 1.27 2.4-2.66 1.37 1.23-2.4 2.67 2.67 2.4-1.47 1.64-6.88-6.19 4.07-4.52 1.42 1.27z"/><path d="m28.89 25.19-5.37-7.53 5.06-3.62 1.09 1.54-3.31 2.36 1.02 1.42 3.13-2.23 1.04 1.46-3.13 2.23 1.12 1.57 3.5-2.5 1.11 1.55z"/><path d="m35.67 20.63-3.48-8.58 5.77-2.34.7 1.75-3.76 1.52.65 1.63 3.56-1.45.68 1.66-3.56 1.45.72 1.78 3.98-1.62.72 1.77z"/><path d="m512.42 473.2a.82.82 0 0 0 -.45-.79 2.53 2.53 0 0 0 -1.16-.2h-1.24v2.12h1.25a3.38 3.38 0 0 0 .54-.06 1.75 1.75 0 0 0 .51-.18.93.93 0 0 0 .49-.9m-.38-3.67a.74.74 0 0 0 -.37-.68 2.12 2.12 0 0 0 -1.07-.19h-1.1v1.91h1.2a1.61 1.61 0 0 0 1-.28.87.87 0 0 0 .33-.76m2.62 3.82a2.51 2.51 0 0 1 -.27 1.28 2.37 2.37 0 0 1 -.78.85 3.47 3.47 0 0 1 -1.12.48 6.07 6.07 0 0 1 -1.3.17l-3.68.08-.21-9.25 3.68-.08a5.75 5.75 0 0 1 1.1.09 3.27 3.27 0 0 1 1 .36 2 2 0 0 1 1.07 1.87 1.92 1.92 0 0 1 -.39 1.28 2.34 2.34 0 0 1 -1.08.75 2.52 2.52 0 0 1 .74.22 2.1 2.1 0 0 1 1 1.07 2.17 2.17 0 0 1 .17.82" transform="translate(-459.49 -459.39)"/><path d="m56.91 16.92 1.98-9.04 6.08 1.33-.4 1.84-3.97-.87-.38 1.71 3.76.82-.39 1.75-3.75-.82-.41 1.88 4.2.91-.41 1.87z"/><path d="m531.22 474.07-2.5 2.29 2.07 1.06zm-.89 7.17.19-1.95-3.18-1.64-1.44 1.35-2.16-1.11 7.68-6.46 1.93 1-.81 10z" transform="translate(-459.49 -459.39)"/><path d="m78.3 27.91 1.51-6.95-.03-.03-4.16 4.41-1.56-1.51 6.41-6.67 1.84 1.76-1.51 6.93.03.03 4.14-4.4 1.57 1.51-6.41 6.67z"/><g transform="translate(-459.49 -459.39)"><path d="m511.51 510a.66.66 0 0 0 -.91-.35.71.71 0 0 0 -.39.38.64.64 0 0 0 0 .53 1 1 0 0 0 .33.41 1.7 1.7 0 0 0 .56.26 1.91 1.91 0 0 0 .41-.59.76.76 0 0 0 0-.63m-.22 2.85a1.69 1.69 0 0 0 -.37.54.85.85 0 0 0 0 .68.83.83 0 0 0 .24.33.94.94 0 0 0 .33.18 1 1 0 0 0 .37 0 1.09 1.09 0 0 0 .36-.09 1.28 1.28 0 0 0 .51-.37 1.42 1.42 0 0 0 .27-.57zm4 1.7-.93-.39a2.93 2.93 0 0 1 -.56.91 3 3 0 0 1 -1.09.73 3.79 3.79 0 0 1 -1 .26 2.51 2.51 0 0 1 -.94 0 2.12 2.12 0 0 1 -.82-.4 2 2 0 0 1 -.59-.81 2 2 0 0 1 -.16-.7 2 2 0 0 1 .09-.66 2.4 2.4 0 0 1 .29-.6 4.08 4.08 0 0 1 .41-.53 2.88 2.88 0 0 1 -.8-.46 1.86 1.86 0 0 1 -.54-.73 1.67 1.67 0 0 1 -.14-.87 1.88 1.88 0 0 1 .27-.75 2.26 2.26 0 0 1 .55-.6 3.36 3.36 0 0 1 .71-.42 3.2 3.2 0 0 1 .8-.22 2.22 2.22 0 0 1 .8 0 1.82 1.82 0 0 1 1.36 1.68 1.88 1.88 0 0 1 -.09.61 2.53 2.53 0 0 1 -.27.58 5.25 5.25 0 0 1 -.39.54l1.23.51.24-1.34 1.75-.74-.63 2.6 2.41 1z"/><path d="m501.14 486.47a27.67 27.67 0 0 1 35.06 12.2l3-1.25a30.83 30.83 0 0 0 -56.53 24l3-1.25a27.67 27.67 0 0 1 15.57-33.69"/><path d="m522.73 537.34a27.67 27.67 0 0 1 -35-12.17l-3 1.25a30.83 30.83 0 0 0 56.53-24l-3 1.25a27.67 27.67 0 0 1 -15.58 33.65"/></g><path d="m469.42 520.04h39.28v3.2h-39.28z" transform="matrix(.92043664 -.39089178 .39089178 .92043664 -624.51 -226.68)"/><path d="m515.31 500.56h39.28v3.19h-39.28z" transform="matrix(.92050485 -.39073113 .39073113 .92050485 -613.18 -210.45)"/><path d="m509.81 497.25a11.44 11.44 0 0 1 -2.76.88 6.34 6.34 0 0 0 -2.17.76c-1.17.65-1.09 1-3.11 1.92s-3.21 1-3.26.91 1.16-.5 2.13-1.19a17.56 17.56 0 0 1 4.34-2.47 39.57 39.57 0 0 0 8.22-3.81 10.68 10.68 0 0 1 -3.4 3m1.64-5.87c-2.35-.93-6.73.78-7.64 1.16s-4.7 2.39-6 4.47-1.72 3.77.07 6.17 5 2.86 10.72.4 6.1-5.48 6.2-5.92 1.39-4.41-3.35-6.28" transform="translate(-459.49 -459.39)"/><path d="m524.12 520.24c-2.66 2.62-3.91 6.27-4.06 6.28a12.2 12.2 0 0 1 3.27-6.11 39.6 39.6 0 0 0 4.73-5.81 15.67 15.67 0 0 1 -3.93 5.64m-6.63 10.51c.06.25 0 .18-.48-.11-5-3.39-9.82-6.09-9.73-6.27s10 5.54 10.21 6.38m11.63-18.22a18.9 18.9 0 0 1 -3.39 2.32 11.08 11.08 0 0 0 -5.22 5.73 19.67 19.67 0 0 0 -1.11 6.78 6.21 6.21 0 0 1 -.45 1.89c-.2-.09.23-1.59-.43-2.71-.23-.4-.1.32-.33.36-.06 0-.15-.33-.29-.59s-.28-.37-.33-.35 0 .29 0 .5.12.29.07.33-.12-.1-.21-.18-.38-.23-.33.12a2.84 2.84 0 0 0 .53 1.55 17.7 17.7 0 0 1 1.25 2 2.3 2.3 0 0 1 .27 1.22 2.25 2.25 0 0 1 -.93-1 12.44 12.44 0 0 0 -3.88-4.66 19.18 19.18 0 0 0 -5.54-2.07 19.56 19.56 0 0 0 -3-.58 29.28 29.28 0 0 0 2.34 4.21 9.23 9.23 0 0 0 4.73 3.47 27.12 27.12 0 0 0 5.43.64c.6 0 1.5 1.32 1.66 1.75s.31.67.51.58.18-.21-.06-.85a8.87 8.87 0 0 1 -.93-3.79c.14-1.37 2-4.23 4.43-6.3 2.15-1.86 3.66-3 4.43-4.77a15.14 15.14 0 0 0 .77-5.66" transform="translate(-459.49 -459.39)"/><path d="m511.51 510a.66.66 0 0 0 -.91-.35.71.71 0 0 0 -.39.38.64.64 0 0 0 0 .53 1 1 0 0 0 .33.41 1.7 1.7 0 0 0 .56.26 1.91 1.91 0 0 0 .41-.59.76.76 0 0 0 0-.63m-.22 2.85a1.69 1.69 0 0 0 -.37.54.85.85 0 0 0 0 .68.83.83 0 0 0 .24.33.94.94 0 0 0 .33.18 1 1 0 0 0 .37 0 1.09 1.09 0 0 0 .36-.09 1.28 1.28 0 0 0 .51-.37 1.42 1.42 0 0 0 .27-.57zm4 1.7-.93-.39a2.93 2.93 0 0 1 -.56.91 3 3 0 0 1 -1.09.73 3.79 3.79 0 0 1 -1 .26 2.51 2.51 0 0 1 -.94 0 2.12 2.12 0 0 1 -.82-.4 2 2 0 0 1 -.59-.81 2 2 0 0 1 -.16-.7 2 2 0 0 1 .09-.66 2.4 2.4 0 0 1 .29-.6 4.08 4.08 0 0 1 .41-.53 2.88 2.88 0 0 1 -.8-.46 1.86 1.86 0 0 1 -.54-.73 1.67 1.67 0 0 1 -.14-.87 1.88 1.88 0 0 1 .27-.75 2.26 2.26 0 0 1 .55-.6 3.36 3.36 0 0 1 .71-.42 3.2 3.2 0 0 1 .8-.22 2.22 2.22 0 0 1 .8 0 1.82 1.82 0 0 1 1.36 1.68 1.88 1.88 0 0 1 -.09.61 2.53 2.53 0 0 1 -.27.58 5.25 5.25 0 0 1 -.39.54l1.23.51.24-1.34 1.75-.74-.63 2.6 2.41 1z" transform="translate(-459.49 -459.39)"/><path d="m28.58 8 .4-.21-1.16-2.25-.59.31.26.51-.53.27-.51-.99 2.8-1.44.52.99-.53.27-.26-.51-.6.3 1.16 2.26.4-.21.26.49-1.36.71z"/><path d="m31.04 6.71.39-.16-.95-2.33-.38.15-.21-.51 1.38-.56.21.51-.42.17.36.89 1.56-.63-.37-.89-.41.17-.21-.51 1.38-.56.21.51-.39.16.95 2.33.38-.15.21.51-1.38.56-.21-.51.42-.17-.38-.94-1.55.63.38.94.41-.17.21.51-1.38.56z"/><path d="m35.04 5.09.39-.13-.8-2.39-.4.14-.18-.53 2.57-.87.33.98-.56.19-.16-.46-1.01.35.31.92 1.04-.35.16.5-1.03.35.32.97 1.03-.34-.16-.46.57-.19.33.98-2.57.87z"/><path d="m499.18 461 .37 1.4a51.06 51.06 0 0 1 43.71 89.89l.89 1.15a52.51 52.51 0 0 0 -45-92.44" transform="translate(-459.49 -459.39)"/><path d="m463.67 532.41a52.6 52.6 0 0 0 55.69 31.48l-.2-1.44a51.06 51.06 0 0 1 -34.06-93.95l-.75-1.25a52.59 52.59 0 0 0 -20.68 65.16" transform="translate(-459.49 -459.39)"/><path d="m61.58 102.21.41-.09.52 2.47-.41.08.12.55 2.66-.56-.22-1.02-.58.13.1.47-1.06.22-.21-1 1.07-.23-.11-.52-1.07.23-.2-.95 1.05-.22.1.47.58-.12-.21-1.02-2.65.56z"/><path d="m525.51 561.19c-.65.18-.85.64-.75 1s.42.48 1.11.47c.38 0 .5 0 .54.16s-.12.3-.36.37a1.22 1.22 0 0 1 -.44 0 .54.54 0 0 0 0-.1.31.31 0 0 0 -.4-.22.32.32 0 0 0 -.22.4.42.42 0 0 0 .22.28 1.47 1.47 0 0 0 1 0c.53-.14.91-.53.78-1s-.48-.47-1.08-.47c-.38 0-.53 0-.57-.16s.06-.28.32-.35a1 1 0 0 1 .35 0 .37.37 0 0 0 0 .1.31.31 0 0 0 .59-.19.43.43 0 0 0 -.21-.26 1.27 1.27 0 0 0 -.86-.05" transform="translate(-459.49 -459.39)"/><path d="m527.72 559.78-.49.43.16.48-.45.15.16.48.45-.14.39 1.18a.76.76 0 0 0 .2.34.68.68 0 0 0 .72.11 1.29 1.29 0 0 0 .51-.32l-.11-.51a1.2 1.2 0 0 1 -.41.27.27.27 0 0 1 -.28 0 .33.33 0 0 1 -.09-.16l-.35-1.07.7-.23-.16-.48-.7.23z" transform="translate(-459.49 -459.39)"/><path d="m530.21 561.36a.46.46 0 1 0 .58.27.46.46 0 0 0 -.58-.27" transform="translate(-459.49 -459.39)"/><path d="m74.36 100.86-1.17-2.64-.27.12-.79.69.37.49.44-.37.87 1.95-.61.27.24.54 1.76-.77-.25-.55z"/><path d="m535.67 558a.63.63 0 0 1 -.89-.24.68.68 0 0 1 .33-.92.75.75 0 0 1 .54-.06.62.62 0 0 1 .39.31.69.69 0 0 1 -.36.91m.18-1.71a1.35 1.35 0 0 0 -1.61 1.75 1.16 1.16 0 0 0 1.61.43 1.05 1.05 0 0 0 .57-.75c.36.76.12 1.36-.21 1.52a.8.8 0 0 1 -.3.09.46.46 0 0 0 0-.12.38.38 0 0 0 -.52-.15.39.39 0 0 0 -.15.53.51.51 0 0 0 .29.25 1.17 1.17 0 0 0 .89-.12c.73-.37 1-1.32.43-2.48a1.77 1.77 0 0 0 -1-.95" transform="translate(-459.49 -459.39)"/><path d="m539.33 557.47a.75.75 0 0 1 -.53.1.61.61 0 0 1 -.4-.28.68.68 0 0 1 .31-.93.63.63 0 0 1 .9.18.68.68 0 0 1 -.27.94m-.84-1.57a1 1 0 0 0 -.52.79c-.42-.74-.2-1.35.11-1.53a.86.86 0 0 1 .29-.11.33.33 0 0 0 0 .12.38.38 0 0 0 .53.11.39.39 0 0 0 .11-.53.51.51 0 0 0 -.32-.23 1.21 1.21 0 0 0 -.87.18c-.7.42-.94 1.38-.27 2.5a1.72 1.72 0 0 0 1 .86 1.35 1.35 0 0 0 1.54-1.84 1.16 1.16 0 0 0 -1.63-.32" transform="translate(-459.49 -459.39)"/><path d="m542 554.32a1.39 1.39 0 0 0 -.33.07 1.07 1.07 0 0 0 .21-.3.79.79 0 0 0 0-.81 1.05 1.05 0 0 0 -1.51-.09 1.21 1.21 0 0 0 -.61.94.58.58 0 0 0 .09.33.4.4 0 0 0 .56.15.37.37 0 0 0 .1-.51.38.38 0 0 0 -.19-.14.76.76 0 0 1 .32-.35c.27-.18.58-.22.75 0a.5.5 0 0 1 0 .54 1.38 1.38 0 0 1 -.42.44l-.15.1.27.39.14-.09a1.45 1.45 0 0 1 .53-.25.53.53 0 0 1 .58.22.58.58 0 0 1 -.22.83 1 1 0 0 1 -.58.19.4.4 0 0 0 -.06-.23.37.37 0 0 0 -.51-.1.39.39 0 0 0 -.07.56.64.64 0 0 0 .29.22 1.37 1.37 0 0 0 1.2-.24 1.12 1.12 0 0 0 .48-1.56.87.87 0 0 0 -.84-.36" transform="translate(-459.49 -459.39)"/><path d="m86.67 43.84h-.9v-.31h2.16v.31h-.9v2.4h-.36z"/><path d="m88.24 43.53h.49l.86 2.27.85-2.27h.5v2.71h-.35v-2.25l-.85 2.25h-.31l-.84-2.25h-.01v2.25h-.34z"/></g></svg>