<?xml version="1.0" encoding="UTF-8"?>
<svg width="905" height="760" version="1.1" viewBox="0 0 239.82 201.31" xml:space="preserve" xmlns="http://www.w3.org/2000/svg"><path d="m87.167 0.073705c-3.7491 0.0051284-4.7894 4.4045-6.5602 7.3189l-11.495 18.918c-0.90741 1.4934-1.5165 2.5819-3.8199 3.3809-20.151 6.9902-58.124 20.346-60.454 20.971-4.5865 1.2289-4.9741 7.0021 1.8217 7.0021h228.07c4.3468 0 6.0936-4.3197 3.7894-6.6626-0.94064-0.95643-49.077-20.382-50.661-21.023-2.604-1.0536-2.7464-1.4506-3.242-3.9715l-3.4006-17.297c-0.91218-4.6398-1.7342-8.7623-7.0925-8.755zm5.0598 62.393c-1.9711 0.41914-4.1471 1.2902-5.6641 2.6394-7.3983 6.5804-0.93345 15.668 8.3809 13.626 1.6179-0.35478 3.1817-1.043 4.4973-2.0617 7.8812-6.1028 2.031-16.223-7.2141-14.192m-75.058 14.721c-1.1017 3.5961-16.171 50.901-16.664 52.36-1.304 3.856 0.075549 4.0992 3.5647 4.0457 6.1337-0.094 16.912-0.28207 18.401-0.28207 1.4294 0 1.9493-2.2408 2.4129-3.7591l13.313-43.602c0.885-2.8985 2.0056-8.4536 5.5291-10.246 3.5236-1.792 6.477 0.67509 7.6203 3.8337 1.5415 4.259 0.16415 8.9589-1.0411 13.141-1.0966 3.8046-3.5159 7.9436-6.881 10.127-2.9464 1.9114-5.5831 0.74084-5.896 1.2553-2.168 3.564 1.2202 8.406 3.8471 9.7677 2.4604 1.2753 10.504 1.6121 15.702-0.79105 10.034-4.6385 16.208-15.187 16.356-26.061 0.19047-13.942-10.868-19.683-22.803-19.614-9.213 0.05324-23.878 0.15973-27.639 0.15973-3.4532 0-3.5517 2.2509-5.8229 9.6646zm186.21 43.904c-0.45575 1.7009-0.89011 3.5543-1.1464 4.5107-0.61817 2.307 1.2348 1.935 2.2535 1.935h11.932c1.9845 0 2.3067-1.4774 3.1885-4.2507l12.249-38.524c0.55426-1.7432-0.0804-2.0545-4.577-0.28506-2.6246 1.0328-5.2576 3.0564-8.0719 1.6728-3.3149-1.6297-5.1477-3.479-8.943-4.0772-11.441-1.8033-22.987 6.4347-28.087 16.301-3.5895 6.9449-4.7434 13.48-4.043 21.297 0.33496 3.7381 2.8739 8.2767 6.8399 9.2235 7.405 1.7677 13.927-5.1677 17.554-8.7948 0.59847-0.59847 1.069 0.18195 0.852 0.99198zm-121.38-37.666c-1.8582 0-2.3851 2.8664-2.908 4.4857l-11.62 35.991c-0.57697 1.787-1.2311 3.3957 0.52363 3.4258l17.408 0.29906c1.5748 0.0271 2.2691-1.6465 2.7215-3.0627l10.352-32.406c2.0024-6.268 3.877-8.7335 0.06583-8.7335zm11.656 41.873c-1.5218 1.5429 0.38462 1.6907 1.3802 1.4834 3.9056-0.8131 8.9877-0.074 13.253 2.3051 4.1012 2.2875 6.625 6.561 9.8894 9.7875 6.4777 6.4024 15.519 11.608 24.922 11.166 3.6018-0.16943 6.958-1.794 9.8007-3.9925 0.80605-0.62337 2.9076-2.0008 2.7388-3.2017-0.16877-1.2006-2.6321-0.83411-3.4704-0.99266-2.8094-0.53134-4.9865-2.0015-6.9621-3.9723-5.6173-5.6034-9.1028-12.337-16.199-16.426-5.0926-2.9344-8.2239-4.2604-15.087-4.2604-0.86655 0-1.2468-0.95108 1.2109-2.8483l23.843-18.406c2.4188-1.8672 2.0383-2.0872 3.2024-4.9558l2.3655-5.8288c0.7552-1.8609-1.6493-1.6889-3.5748-1.6889h-28.929c-6.0533 0-6.029-0.3724-7.729 5.04 0 0-1.6936 5.3922-2.5404 8.0883-0.4297 1.3681-1.0155 2.84 0.8639 2.84h14.052c1.4397 0 1.2007 1.2958 0.6215 1.8831zm64.572-26.867-20.399 19.858c-1.1031 1.0739-0.86084 2.1024-0.14451 2.0302 4.3231-0.43615 8.2056 0.0415 12.234 2.5375 3.4931 2.1641 5.563 5.6858 8.3941 8.5527 6.1181 6.1956 15.638 12.343 24.922 11.17 6.815-0.86091 7.4151-1.54 9.9491-4.074 0.32517-0.32517 0.49718-1.1747-0.87999-1.2234-12.416-0.43933-14.137-9.0517-21.122-16.351-4.3089-4.5027-10.056-7.6218-16.186-7.6218-1.7286 0-1.577-1.0368 0.64814-2.7795 3.8054-2.9803 19.122-14.998 20.457-15.936 0.89248-0.62712 2.1327-1.9048 3.0241-3.8477 0.78309-1.7068 1.9012-4.3445 2.3493-5.1205 0.82308-1.4256-0.0565-2.2031-1.5405-2.2031h-27.538c-2.519 0-2.9219 0.22072-3.5832 1.9049l-3.614 9.2037c-0.42636 1.0858-0.8911 2.6855 0.72831 2.6855h11.943c0.83989 0 0.80017 0.78498 0.35889 1.2146zm48.674-11.986c3.8629-0.9357 2.9078 5.0292 2.6168 7.0574-0.89054 6.2073-2.4221 12.009-5.2449 17.672-0.87578 1.7569-2.0392 4.8703-4.2707 5.2336-3.285 0.53479-2.6609-6.0037-2.516-7.9297 0.43052-5.7205 2.4115-11.669 4.9957-16.766 0.94227-1.8585 2.1875-4.7238 4.4078-5.2562m-191.7 64.591c-2.1173 6.6349 1.4114 13.457 8.3462 15.704 1.5857 0.51381 7.5896-0.84305 6.9876 1.0789l-9.1779 29.298c-1.1761 3.7545 0.67863 3.6483 3.3797 3.6483h17.821c1.6065 0 2.4155-1.8517 2.914-3.3697 2.1972-6.6915 5.0794-16.316 6.347-20.153 1.2586-3.8096 1.1413-6.1753 5.9618-5.6624 3.446 0.36665 4.4903 2.9635 4.3516 6.1806-0.15223 3.5301-4.1791 14.175-4.8401 16.402-1.4986 5.0479-2.8333 6.6206 2.1712 6.6206h15.292c2.5262 0 4.4473 0.49828 5.663-3.3717l18.47-58.794c1.3656-4.347 0.22009-4.0811-3.9152-4.0782l-14.148 0.0102c-2.2816 2e-3 -4.4539-0.0985-5.0047 1.7002l-6.3203 20.64c-0.72212 2.3582-1.4694 6.703-4.4543 6.8547-3.3188 0.16874-6.5895-2.8488-6.7039-5.3594-0.16478-3.618 3.9132-14.806 5.5462-19.676 0.50915-1.5186 1.6511-4.0649-0.9586-4.0649h-19.411c-2.8849 0-3.1127 2.6152-3.5437 3.9968l-3.2972 10.567c-0.75767 2.4282-1.2767 3.8936-3.4304 4.4707-1.8144 0.48616-9.604 3.9654-13.306 1.828-3.7022-2.1374-3.914-7.0566-4.7395-4.4699zm91.056-8.2552-11.782 35.713c-1.127 3.4162-2.0195 7.1294-1.7949 10.777 0.74258 12.059 17.977 13.994 27.684 9.4906 9.1365-4.2392 12.091-16.139 13.486-20.029 0.95665-2.6688 6.4558-18.309 6.8135-19.644 0.63963-2.3871-1.8189-2.01-3.6262-2.01-2.168 0-5.1309-0.94837-6.679-1.0069-1.711-0.0647-2.4473 0.80168-2.7901 2.2456l-6.4392 27.126c-0.85456 3.5999-3.3728 6.5295-6.6675 5.4929-4.9467-1.5563-2.1068-9.3816-0.92161-12.844l8.5014-24.832c0.53478-1.5621-3.0945-2.9883-5.0656-4.5006s-4.4521-3.9449-6.3079-6.4652-2.8607-4.2102-4.4106 0.48758zm56.799 3.2838c-1.4212 2.2323-3.8303 5.5736-6.1365 7.2326-3.9311 2.8279-9.4316 2.9144-10.287 4.3965 0 0-2.2526 5.3732-2.3672 7.2875-0.13693 2.2884 3.6253-0.0558 4.4197 1.7912 0.58209 1.3533-2.1506 9.5141-2.1506 9.5141-1.339 5.063-3.4753 10.58-2.4242 15.859 1.9169 9.6284 13.847 10.77 20.864 7.0102 1.9695-1.0554 4.8233-4.4206 6.1495-6.7175 0.88429-1.5316-1.204-1.4412-2.853-1.4412-1.4252 0-2.4877-1.1769-3.0502-2.4587-2.2016-5.0166 2.165-14.379 3.5103-19.4 1.0583-3.9498 5.3734-2.8184 8.6311-2.8184 2.7274 0 3.9981-6.0653 4.2261-8.764 0.20524-2.4284-6.0721-0.21034-8.015-1.3321-1.533-0.88505 1.1185-5.0329 0.71523-6.868-0.21636-0.98441-2.0766-1.1072-2.9369-1.37-1.9944-0.60941-4.3409-1.715-6.1641-2.555-0.42892-0.19761-1.6609-0.10515-2.1312 0.63354z" fill="#ea1c24" fill-opacity=".99608" stroke="#c70307" stroke-width=".6625"/></svg>
